<svg width="35" height="23" viewBox="0 0 35 23" fill="none" xmlns="http://www.w3.org/2000/svg">
<path d="M24.5046 11.4104H34.9999C34.9999 14.4684 32.8919 16.6581 29.7523 16.6581H24.7104L24.5046 11.4104Z" fill="#DC590C"/>
<path d="M0.508088 0.00219727C0.343341 5.09304 2.68196 9.17365 7.02971 11.4089C8.92752 12.4795 11.1217 13.0924 13.4559 13.0924H18.7208L18.4369 0.00219727H0.508088Z" fill="#204C3D"/>
<path d="M29.8436 11.4072C29.8436 17.7067 24.7369 22.8134 18.4369 22.8134C12.1374 22.8134 7.03025 17.7067 7.03025 11.4072C7.03025 5.10721 12.1374 4.0769e-05 18.4369 4.0769e-05C24.7369 4.0769e-05 29.8436 5.10721 29.8436 11.4072Z" fill="#7CB72E"/>
<path d="M29.8436 11.4049C27.6232 7.38321 23.3482 4.65918 18.4369 4.65918C13.5252 4.65918 9.25016 7.38321 7.02979 11.4049H29.8436Z" fill="white"/>
<path d="M26.5651 11.4086C26.5651 12.4831 25.6939 13.3544 24.6193 13.3544C23.5448 13.3544 22.6735 12.4831 22.6735 11.4086C22.6735 10.334 23.5448 9.46277 24.6193 9.46277C25.6939 9.46277 26.5651 10.334 26.5651 11.4086Z" fill="#204C3D"/>
</svg>
