<svg width="25" height="49" viewBox="0 0 25 49" fill="none" xmlns="http://www.w3.org/2000/svg">
<path fill-rule="evenodd" clip-rule="evenodd" d="M24.4897 7.05938L18.0335 10.7868L12.4766 26.5252L12.4766 48.2834L24.4897 41.3476V7.05938Z" fill="#EC4723"/>
<path d="M24.4897 7.05073L23.2705 7.75464V42.0502L24.4897 41.3463V7.05073Z" fill="#8D7D7B"/>
<path d="M12.4726 26.5138L0.403809 19.5459L0.403809 41.3187L12.4726 48.2866L12.4726 26.5138Z" fill="#F58048"/>
<path fill-rule="evenodd" clip-rule="evenodd" d="M12.473 26.5139L18.0214 10.8041L5.95224 3.83597L0.403809 19.5457L12.473 26.5139Z" fill="#F68F61"/>
<path d="M12.4324 0.0932368L5.93848 3.84253L17.9937 10.8026L24.4876 7.05333L12.4324 0.0932368Z" fill="#F79B6F"/>
<path d="M12.433 0.0929637L11.1724 0.820801L23.2276 7.78089L24.4883 7.05306L12.433 0.0929637Z" fill="#C49F98"/>
<path fill-rule="evenodd" clip-rule="evenodd" d="M0.406738 38.1065C0.406738 38.1065 1.09719 33.8085 1.43983 31.7101C1.77727 29.6449 2.09394 27.3431 2.46253 25.5162C2.78959 23.9105 3.27242 21.9975 3.65659 20.7479C3.94211 19.8103 4.36261 18.8203 4.74678 18.0182C5.08941 17.2951 5.50994 16.4156 5.94083 15.9354C6.29385 15.5388 6.8805 15.4324 7.32177 15.137C7.76824 14.8379 8.25098 14.5389 8.62477 14.1413C9.0297 13.7114 9.40351 12.9991 9.75653 12.5579C10.0524 12.1815 10.2809 11.68 10.7221 11.4915C11.1738 11.3 11.8746 11.3945 12.4509 11.408C13.0323 11.4215 13.6345 11.4879 14.2212 11.5731C14.8701 11.667 15.8876 11.828 16.3548 11.9723C16.6092 12.0522 16.848 12.2293 17.0194 12.4385C17.2374 12.7038 17.471 13.1788 17.6683 13.565C17.9123 14.0489 18.3276 14.7082 18.4834 15.341C18.6858 16.1633 18.7792 17.442 18.8831 18.4979C18.9921 19.5845 19.0908 20.7385 19.1271 21.8625C19.1686 23.098 19.1271 24.561 19.1271 25.9097V31.4723C19.1271 32.9451 19.1634 34.419 19.1271 35.8913C19.0856 37.3942 18.9921 39.4458 18.8831 40.4893C18.826 41.0557 18.6962 41.621 18.4834 42.1506C18.2238 42.8026 17.5748 43.818 17.3308 44.4036C17.1647 44.8034 17.0194 45.6646 17.0194 45.6646L17.6683 45.2914C17.6683 45.2914 18.0525 44.3284 18.2549 43.87C18.4522 43.422 18.7377 42.9563 18.8831 42.541C19.0128 42.1672 19.0389 41.7648 19.1271 41.3786C19.2413 40.8724 19.4853 40.141 19.5632 39.505C19.6774 38.6334 19.7345 37.1689 19.7916 36.1498C19.8435 35.2309 19.8591 34.31 19.9006 33.3906C19.9473 32.3938 20.02 31.2455 20.0615 30.1724C20.1083 28.9373 20.1654 27.3784 20.1913 25.9803C20.2173 24.5106 20.2484 22.7845 20.2225 21.3516C20.2017 20.0278 20.181 18.6692 20.0356 17.3838C19.8902 16.1228 19.6306 14.6474 19.3399 13.6398C19.1063 12.8289 18.6235 11.8643 18.2809 11.3384C18.0473 10.9729 17.6579 10.7279 17.2945 10.4844C16.8532 10.188 16.2406 9.74983 15.6384 9.55723C14.9999 9.35269 14.19 9.29611 13.458 9.25769C12.6585 9.21564 11.4541 9.22498 10.8363 9.30649C10.4574 9.35684 10.068 9.50012 9.77212 9.74464C9.47102 9.99331 9.25814 10.4335 9.02971 10.7975C8.78572 11.1847 8.57286 11.7018 8.3081 12.0699C8.05891 12.4167 7.7786 12.7593 7.43077 13.0049C7.07776 13.2514 6.51188 13.3677 6.19001 13.5515C5.94082 13.6974 5.72276 13.9004 5.5151 14.107C5.25034 14.3687 4.8558 14.7398 4.61699 15.1224C4.35223 15.5471 4.12901 16.1348 3.92135 16.656C3.69293 17.2276 3.46448 17.918 3.24644 18.5519C2.9713 19.3358 2.556 20.4286 2.29643 21.3579C2.04205 22.2679 1.86033 23.1977 1.68901 24.1275C1.48654 25.2421 1.24258 26.8488 1.07126 28.0439C0.915515 29.1258 0.780527 30.4481 0.671507 31.2984C0.593635 31.9146 0.406738 33.144 0.406738 33.144V38.1065Z" fill="#FCBB91"/>
<path fill-rule="evenodd" clip-rule="evenodd" d="M17.9686 10.9763L17.2989 12.8629C17.2989 12.8629 17.5533 13.341 17.6675 13.5648C17.9115 14.0486 18.3268 14.7079 18.4826 15.3407C18.685 16.1631 18.7784 17.4417 18.8823 18.4976C18.9913 19.5842 19.09 20.7383 19.1263 21.8622C19.1678 23.0978 19.1263 24.5607 19.1263 25.9095V31.4721C19.1263 32.9449 19.1627 34.4187 19.1263 35.891C19.0848 37.3939 18.9913 39.4456 18.8823 40.4891C18.8252 41.0555 18.6954 41.6208 18.4826 42.1503C18.223 42.8024 17.574 43.8178 17.33 44.4034C17.1639 44.8031 17.0186 45.6644 17.0186 45.6644L17.6675 45.2911C17.6675 45.2911 18.0517 44.3281 18.2541 43.8697C18.4514 43.4217 18.7369 42.956 18.8823 42.5407C19.0121 42.1669 19.0381 41.7646 19.1263 41.3784C19.2405 40.8722 19.4845 40.1407 19.5624 39.5048C19.6766 38.6331 19.7337 37.1686 19.7908 36.1495C19.8427 35.2307 19.8583 34.3097 19.8998 33.3903C19.9466 32.3935 20.0192 31.2452 20.0607 30.1721C20.1075 28.9371 20.1646 27.3781 20.1905 25.9801C20.2165 24.5104 20.2477 22.7842 20.2217 21.3514C20.2009 20.0276 20.1802 18.669 20.0348 17.3836C19.8895 16.1226 19.6298 14.6472 19.3391 13.6395C19.1055 12.8286 18.6227 11.864 18.2801 11.3382C18.197 11.2032 17.9686 10.9763 17.9686 10.9763Z" fill="#FA7355"/>
<path fill-rule="evenodd" clip-rule="evenodd" d="M17.1218 22.6555C17.1218 22.6555 16.3691 17.6157 14.36 16.4456C12.4651 15.345 9.59424 17.3909 9.59424 17.3909C9.59424 17.3909 9.96286 17.7045 10.5962 17.7803C11.3282 17.8685 12.3924 17.7382 13.2438 18.0445C13.898 18.2792 14.277 18.9587 14.6404 19.2141C15.1907 19.5983 15.3464 20.5104 15.7877 21.2544C16.2757 22.0777 17.1218 22.6555 17.1218 22.6555Z" fill="#FFB988"/>
<path fill-rule="evenodd" clip-rule="evenodd" d="M17.122 22.6559C17.122 22.6559 17.0285 22.0719 16.8676 21.369C16.7378 20.8047 16.5561 20.1552 16.4315 19.7337C16.172 18.8402 15.5645 17.7864 15.5645 17.7864L14.9468 19.5292C14.9468 19.5292 15.4452 20.6713 15.7878 21.2548C16.2758 22.0781 17.122 22.6559 17.122 22.6559Z" fill="#FA7355"/>
<path fill-rule="evenodd" clip-rule="evenodd" d="M7.00652 45.127C7.00652 45.127 7.31674 35.5104 10.4909 36.6577C12.0779 37.2303 13.2918 47.7674 13.2918 47.7674C13.2918 47.7674 14.0336 34.7992 10.1357 34.5458C5.72067 34.2562 6.44453 44.8026 6.44453 44.8026L7.00652 45.127Z" fill="#FFB988"/>
<path fill-rule="evenodd" clip-rule="evenodd" d="M9.70283 45.6956C8.71822 43.3382 8.68224 39.8153 10.4806 40.4429C11.5057 40.8006 12.1576 43.7031 11.6315 45.287C11.6315 45.287 11.4338 44.9958 11.3798 44.58C11.0381 41.8841 10.3233 42.4338 9.92762 43.5401C9.66686 44.2758 9.58593 45.2559 9.70283 45.6956Z" fill="#FFB988"/>
<path fill-rule="evenodd" clip-rule="evenodd" d="M4.79761 43.8509C4.79761 43.8509 3.30766 32.6624 9.92675 31.5722C14.1526 30.876 14.6094 44.2756 14.6094 44.2756C14.6094 44.2756 16.0631 28.91 9.58416 29.3731C2.23827 29.8979 3.8943 43.3297 3.8943 43.3297L4.79761 43.8509Z" fill="#FFB988"/>
<path fill-rule="evenodd" clip-rule="evenodd" d="M4.79761 43.8509C4.79761 43.8509 3.30766 32.6624 9.92675 31.5722C14.1526 30.876 14.6094 44.2756 14.6094 44.2756C14.6094 44.2756 16.0631 28.91 9.58416 29.3731C2.23827 29.8979 3.8943 43.3297 3.8943 43.3297L4.79761 43.8509Z" fill="#FA7355"/>
<path fill-rule="evenodd" clip-rule="evenodd" d="M2.56009 42.4291C2.71064 41.9883 2.65875 40.4792 2.77816 39.5115C2.93909 38.2287 3.32323 36.3312 3.53089 34.7312C3.75412 32.9697 3.91508 30.4369 4.13831 28.9428C4.29405 27.8697 4.39269 26.7229 4.85473 25.7682C5.31677 24.8135 6.28756 23.7005 6.91572 23.2145C7.36738 22.8605 8.03188 22.7956 8.60294 22.8517C9.34012 22.9238 10.503 23.2893 11.3388 23.6459C11.9618 23.9117 13.1714 24.5705 13.1714 24.5705C13.1714 24.5705 13.4829 24.8332 13.6127 24.9921C14.2512 25.7703 14.8222 27.1434 15.1805 28.3156C15.6684 29.9255 16.2603 33.0777 16.5458 34.6502C16.7327 35.6745 16.904 36.7123 16.904 37.7531C16.904 39.0391 16.7327 41.2516 16.5458 42.3657C16.4264 43.0899 16.1461 43.7887 15.7983 44.4371C15.3778 45.235 13.8255 47.3106 14.0072 47.1527C14.1889 46.9954 16.2966 44.7569 16.904 43.4912C17.4855 42.2889 17.6049 40.8929 17.6516 39.5597C17.7139 37.8538 17.5062 35.2327 17.2726 33.2558C17.0494 31.3853 16.5977 29.2273 16.2499 27.6989C15.9696 26.4753 15.8086 25.0404 15.1805 24.0872C14.8378 23.566 13.7944 22.7894 13.7944 22.7894C13.7944 22.7894 12.8859 22.2302 12.4757 21.98C11.6243 21.4603 10.4459 21.0206 9.73464 20.7694C9.25183 20.597 8.73273 20.4293 8.21878 20.4714C7.66329 20.5166 6.95206 20.7232 6.39658 21.0414C5.8359 21.3654 5.29601 21.8855 4.85473 22.4145C4.40827 22.9467 3.98255 23.5676 3.73336 24.2347C3.46341 24.9485 3.36474 25.8679 3.24534 26.6959C3.08959 27.8131 2.89237 29.6529 2.77816 30.9373C2.67433 32.0903 2.65354 33.41 2.56009 34.4036C2.47703 35.24 2.30049 36.0913 2.20185 36.8986C2.1084 37.6794 2.03576 38.6346 1.97865 39.2467C1.93712 39.6885 1.87484 40.1287 1.85926 40.5716C1.8385 41.0564 1.73986 41.846 1.85926 42.1555C1.94752 42.3901 2.47703 42.6658 2.56009 42.4291Z" fill="#FA7355"/>
<path fill-rule="evenodd" clip-rule="evenodd" d="M2.56009 42.429C2.71064 41.9883 2.65875 40.4792 2.77816 39.5115C2.93909 38.2287 3.32323 36.3312 3.53089 34.7312C3.75412 32.9697 3.91508 30.4369 4.13831 28.9428C4.29405 27.8697 4.39269 26.7229 4.85473 25.7682C5.31677 24.8135 6.28756 23.7005 6.91572 23.2145C7.36738 22.8605 8.03188 22.7956 8.60294 22.8517C9.34012 22.9238 10.503 23.2893 11.3388 23.6459C11.9618 23.9117 13.1714 24.5705 13.1714 24.5705L13.7996 22.793C13.7996 22.793 12.8911 22.2313 12.4757 21.98C11.6243 21.4603 10.4459 21.0206 9.73464 20.7694C9.25183 20.597 8.73273 20.4293 8.21878 20.4714C7.66329 20.5166 6.95206 20.7232 6.39658 21.0414C5.8359 21.3654 5.29601 21.8855 4.85473 22.4145C4.40827 22.9467 3.98255 23.5676 3.73336 24.2347C3.46341 24.9485 3.36474 25.8679 3.24534 26.6959C3.08959 27.8131 2.89237 29.6529 2.77816 30.9373C2.67433 32.0903 2.65354 33.41 2.56009 34.4036C2.47703 35.24 2.30049 36.0913 2.20185 36.8986C2.1084 37.6794 2.03576 38.6346 1.97865 39.2467C1.93712 39.6885 1.87484 40.1287 1.85926 40.5716C1.8385 41.0564 1.73986 41.846 1.85926 42.1555C1.94752 42.3901 2.47703 42.6658 2.56009 42.429Z" fill="#FFB988"/>
<path fill-rule="evenodd" clip-rule="evenodd" d="M4.40381 8.22879C4.40381 8.22879 6.27273 6.18543 6.93723 5.672C7.35774 5.34442 7.92363 5.24319 8.44796 5.13573C9.17996 4.98674 10.4467 4.8284 11.3085 4.77752C12.0768 4.73184 12.8555 4.70795 13.6135 4.83047C14.3766 4.95299 15.145 5.22814 15.8769 5.51419C16.7076 5.83761 17.7822 6.33339 18.5973 6.77103C19.35 7.17492 20.274 7.75221 20.7568 8.14105C21.0683 8.39335 21.3954 8.71003 21.4837 9.10147C21.6706 9.92275 21.7744 11.7439 21.873 13.0688C22.0028 14.7518 22.1741 17.4353 22.252 19.2024C22.3143 20.6908 22.3143 22.3713 22.3351 23.6712C22.3506 24.7822 22.3662 25.8931 22.3662 27.0041C22.3611 28.2095 22.4441 29.6118 22.304 30.9049C22.1586 32.2599 21.7433 33.889 21.5045 35.1344C21.2916 36.2168 21.032 37.4814 20.8607 38.3785C20.7257 39.0897 20.5959 39.8311 20.4662 40.5163C20.3416 41.1757 20.1702 41.9736 20.0716 42.4912C19.9937 42.8681 19.8951 43.3721 19.8535 43.6229C19.8276 43.7459 19.8068 43.9956 19.8068 43.9956L20.4766 43.6421C20.4766 43.6421 20.7413 42.0421 20.9022 41.2468C21.0684 40.4115 21.2916 39.503 21.4837 38.6303C21.6861 37.7104 21.9302 36.5901 22.1171 35.7262C22.2832 34.9667 22.4701 34.1018 22.5998 33.4456C22.7089 32.8948 22.8283 32.3456 22.8958 31.788C22.9892 30.947 23.1345 29.5313 23.1761 28.398C23.254 26.445 23.3734 22.6059 23.3474 20.0678C23.3267 17.767 23.1397 14.9382 23.0307 13.172C22.9528 11.9355 22.8387 10.3848 22.6881 9.4716C22.5947 8.85902 22.5375 8.17687 22.1534 7.69095C21.6394 7.04046 20.5129 6.1979 19.6044 5.57026C18.6907 4.94002 17.5953 4.32535 16.6661 3.90899C15.825 3.53158 14.9321 3.27408 14.034 3.07161C13.1099 2.86396 12.0093 2.70977 11.1424 2.66461C10.374 2.62411 9.47068 2.69265 8.83732 2.80011C8.31818 2.88785 7.8146 3.12665 7.33699 3.30731C6.87495 3.48226 5.94571 3.84202 5.94571 3.84202L4.40381 8.22879Z" fill="#FCDFBD"/>
<path fill-rule="evenodd" clip-rule="evenodd" d="M4.40381 8.22856C5.40057 7.13576 6.42334 6.04867 8.22477 5.1817L5.94572 3.8418L4.40381 8.22856Z" fill="#FCBB91"/>
<path fill-rule="evenodd" clip-rule="evenodd" d="M22.45 8.25659L21.3962 8.85932C21.3962 8.85932 21.4637 9.01714 21.4844 9.10124C21.6713 9.92253 21.7752 11.7437 21.8738 13.0685C22.0036 14.7516 22.1749 17.435 22.2528 19.2022C22.3151 20.6906 22.3151 22.3711 22.3358 23.671C22.3514 24.782 22.367 25.8929 22.367 27.0039C22.3618 28.2093 22.4449 29.6115 22.3047 30.9047C22.1594 32.2597 21.744 33.8888 21.5052 35.1342C21.2924 36.2166 21.0328 37.4812 20.8615 38.3783C20.7265 39.0895 20.5967 39.8309 20.4669 40.5161C20.3423 41.1754 20.171 41.9734 20.0724 42.4909C19.9945 42.8678 19.8959 43.3719 19.8543 43.6227C19.8284 43.7457 19.8076 43.9954 19.8076 43.9954L20.4773 43.6419C20.4773 43.6419 20.7421 42.0419 20.903 41.2466C21.0691 40.4113 21.2924 39.5028 21.4844 38.6301C21.6869 37.7102 21.931 36.5898 22.1178 35.726C22.284 34.9665 22.4708 34.1016 22.6006 33.4454C22.7096 32.8946 22.8291 32.3453 22.8966 31.7878C22.99 30.9468 23.1353 29.5311 23.1769 28.3978C23.2547 26.4448 23.3742 22.6057 23.3482 20.0676C23.3275 17.7668 23.1405 14.938 23.0315 13.1718C22.9536 11.9352 22.8394 10.3846 22.6889 9.47138C22.6266 9.07164 22.45 8.25659 22.45 8.25659Z" fill="#FA7355"/>
</svg>
