<svg width="51" height="49" viewBox="0 0 51 49" fill="none" xmlns="http://www.w3.org/2000/svg">
<path fill-rule="evenodd" clip-rule="evenodd" d="M25.3226 0.755615L31.6508 4.40626L31.6558 11.7075L25.325 15.3626L18.9995 11.7104V4.40626L25.3226 0.755615Z" fill="#B381C4"/>
<path d="M25.3222 0.757388L18.9941 4.41089L25.3298 8.0688L31.6579 4.4153L25.3222 0.757388Z" fill="#9B81BA"/>
<path d="M31.6596 4.41632L25.3315 8.06982V15.3857L31.6596 11.7322V4.41632Z" fill="#8D819E"/>
<path fill-rule="evenodd" clip-rule="evenodd" d="M25.3226 22.6548L31.6508 26.3054L31.6558 33.6067L25.325 37.2617L18.9995 33.6096V26.3054L25.3226 22.6548Z" fill="#B381C4"/>
<path d="M25.3222 22.6566L18.9941 26.3101L25.3298 29.968L31.6579 26.3145L25.3222 22.6566Z" fill="#9B81BA"/>
<path d="M31.6596 26.3155L25.3315 29.969V37.2848L31.6596 33.6313V26.3155Z" fill="#8D819E"/>
<path fill-rule="evenodd" clip-rule="evenodd" d="M12.6879 22.675L19.016 26.3257L19.021 33.627L12.6903 37.282L6.36475 33.6298V26.3257L12.6879 22.675Z" fill="#B381C4"/>
<path d="M12.6874 22.6768L6.35938 26.3303L12.6951 29.9882L19.0231 26.3347L12.6874 22.6768Z" fill="#9B81BA"/>
<path d="M19.0248 26.3358L12.6968 29.9893L12.6968 37.3051L19.0248 33.6516V26.3358Z" fill="#8D819E"/>
<path fill-rule="evenodd" clip-rule="evenodd" d="M37.9559 22.6775L44.2841 26.3281L44.2891 33.6294L37.9583 37.2844L31.6328 33.6323V26.3281L37.9559 22.6775Z" fill="#B381C4"/>
<path d="M37.9555 22.6793L31.6274 26.3328L37.9631 29.9907L44.2912 26.3372L37.9555 22.6793Z" fill="#9B81BA"/>
<path d="M44.2929 26.3382L37.9648 29.9917V37.3075L44.2929 33.654V26.3382Z" fill="#8D819E"/>
<path fill-rule="evenodd" clip-rule="evenodd" d="M31.6263 33.6089L37.9545 37.2595L37.9595 44.5608L31.6287 48.2158L25.3032 44.5637V37.2595L31.6263 33.6089Z" fill="#B381C4"/>
<path d="M31.6259 33.6107L25.2979 37.2642L31.6335 40.9221L37.9616 37.2686L31.6259 33.6107Z" fill="#9B81BA"/>
<path d="M37.9633 37.2696L31.6353 40.9231V48.2389L37.9633 44.5854V37.2696Z" fill="#8D819E"/>
<path fill-rule="evenodd" clip-rule="evenodd" d="M44.2938 33.6167L50.6219 37.2673L50.627 44.5686L44.2962 48.2237L37.9707 44.5715V37.2673L44.2938 33.6167Z" fill="#B381C4"/>
<path d="M44.2934 33.6185L37.9653 37.272L44.301 40.9299L50.6291 37.2764L44.2934 33.6185Z" fill="#9B81BA"/>
<path d="M50.6308 37.2774L44.3027 40.9309V48.2467L50.6308 44.5932V37.2774Z" fill="#8D819E"/>
<path fill-rule="evenodd" clip-rule="evenodd" d="M19.0209 33.5676L25.349 37.2183L25.354 44.5196L19.0233 48.1746L12.6978 44.5224V37.2183L19.0209 33.5676Z" fill="#B381C4"/>
<path d="M19.0204 33.5694L12.6924 37.2229L19.0281 40.8808L25.3561 37.2273L19.0204 33.5694Z" fill="#9B81BA"/>
<path d="M25.3578 37.2283L19.0298 40.8818V48.1977L25.3578 44.5442V37.2283Z" fill="#8D819E"/>
<path fill-rule="evenodd" clip-rule="evenodd" d="M6.39537 33.594L12.7235 37.2446L12.7285 44.5459L6.39778 48.2009L0.0722656 44.5488V37.2446L6.39537 33.594Z" fill="#B381C4"/>
<path d="M6.39495 33.5958L0.0668945 37.2493L6.40259 40.9072L12.7306 37.2537L6.39495 33.5958Z" fill="#9B81BA"/>
<path d="M12.7324 37.2547L6.4043 40.9082L6.4043 48.224L12.7324 44.5705L12.7324 37.2547Z" fill="#8D819E"/>
<path fill-rule="evenodd" clip-rule="evenodd" d="M31.6512 11.7236L37.9794 15.3743L37.9844 22.6756L31.6536 26.3306L25.3281 22.6784V15.3743L31.6512 11.7236Z" fill="#B381C4"/>
<path d="M31.6508 11.7254L25.3228 15.3789L31.6584 19.0368L37.9865 15.3833L31.6508 11.7254Z" fill="#9B81BA"/>
<path d="M37.9882 15.3843L31.6602 19.0378V26.3537L37.9882 22.7002V15.3843Z" fill="#8D819E"/>
<path fill-rule="evenodd" clip-rule="evenodd" d="M19.0194 11.7009L25.3475 15.3516L25.3526 22.6529L19.0218 26.3079L12.6963 22.6557V15.3516L19.0194 11.7009Z" fill="#B381C4"/>
<path d="M19.019 11.7027L12.6909 15.3562L19.0266 19.0141L25.3547 15.3606L19.019 11.7027Z" fill="#9B81BA"/>
<path d="M25.3564 15.3616L19.0283 19.0151V26.331L25.3564 22.6775V15.3616Z" fill="#8D819E"/>
</svg>
