<svg width="14" height="30" viewBox="0 0 14 30" fill="none" xmlns="http://www.w3.org/2000/svg">
<path d="M13.5285 6.84027L7.36503 0.173488C7.24919 0.0577684 7.1103 0 6.94813 0C6.79744 0 6.66445 0.0577684 6.54879 0.173488L0.472344 6.84033C0.321842 7.02574 0.292836 7.22811 0.385327 7.44805C0.477999 7.66794 0.645771 7.77788 0.888824 7.77788H4.77779V29.445C4.77779 29.6069 4.82979 29.7401 4.93407 29.8441C5.03824 29.9479 5.17117 29.9999 5.33341 29.9999H8.66671C8.829 29.9999 8.96218 29.9479 9.06579 29.8441C9.16984 29.74 9.22225 29.6069 9.22225 29.445V7.77788H13.1112C13.3427 7.77788 13.5103 7.66788 13.6144 7.44805C13.7074 7.22786 13.6783 7.02549 13.5285 6.84027Z" fill="white"/>
</svg>
