<svg width="347" height="355" viewBox="0 0 347 355" fill="none" xmlns="http://www.w3.org/2000/svg">
<path d="M150.918 287.175C162.734 287.175 172.965 290.648 172.965 303.059C172.965 315.476 163.331 318.939 151.976 318.939C143.852 318.939 137.686 318.949 137.686 318.949V337.005H129.573V287.175H150.918ZM152.688 294.006H137.686V312.103C137.686 312.103 144.367 312.112 152.328 312.112C159.981 312.112 165.285 310.428 165.285 303.059C165.285 295.799 159.981 294.006 152.688 294.006Z" fill="#7CB72E"/>
<path d="M118.838 336.997L96.3609 287.132H87.4851L64.9338 336.997H73.2023L75.1643 332.585C78.218 328.444 85.2852 322.346 98.1408 322.346H104.137L110.742 336.997H118.838ZM97.9839 315.477C90.9538 315.477 85.6125 316.754 81.2632 318.989L91.8868 295.358L101.041 315.477H97.9839Z" fill="#7CB72E"/>
<path d="M346.906 287.175V294.038H328.709V336.998H320.594V294.038H302.424V287.175H346.906Z" fill="#7CB72E"/>
<path d="M217.578 312.086L235.314 287.175H225.987L210.678 308.606H193.426L193.465 287.175H185.343V336.998H193.465V315.477H210.698L226.159 336.998H235.888L217.578 312.086Z" fill="#7CB72E"/>
<path d="M46.0393 287.175L27.2012 310.356L8.36321 287.175H0.25V336.998H8.36321V299.056L27.2012 322.172L46.0393 299.056V336.998H54.1525V287.175H46.0393Z" fill="#7CB72E"/>
<path d="M290.765 287.175V294.038H256.086V308.606H283.933V315.477H256.086V330.167H290.765V336.998H247.972V287.175H290.765Z" fill="#7CB72E"/>
<path d="M233.13 246.235C227.091 246.235 222.222 250.983 222.222 257.142C222.222 263.302 227.091 268.051 233.13 268.051C239.199 268.051 244.037 263.302 244.037 257.142C244.037 250.983 239.199 246.235 233.13 246.235ZM233.13 264.839C228.872 264.839 225.679 261.461 225.679 257.142C225.679 252.823 228.872 249.448 233.13 249.448C237.389 249.448 240.582 252.823 240.582 257.142C240.582 261.461 237.389 264.839 233.13 264.839Z" fill="#204C3D"/>
<path d="M160.015 246.235C153.977 246.235 149.108 250.983 149.108 257.142C149.108 263.302 153.977 268.051 160.015 268.051C166.086 268.051 170.924 263.302 170.924 257.142C170.924 250.983 166.086 246.235 160.015 246.235ZM160.015 264.839C155.757 264.839 152.564 261.461 152.564 257.142C152.564 252.823 155.757 249.448 160.015 249.448C164.275 249.448 167.469 252.823 167.469 257.142C167.469 261.461 164.275 264.839 160.015 264.839Z" fill="#204C3D"/>
<path d="M135.876 246.531C140.903 246.531 145.258 248.011 145.258 253.291C145.258 258.575 141.158 260.05 136.326 260.05C132.868 260.05 130.244 260.053 130.244 260.053V267.738H126.791V246.531H135.876ZM136.628 249.438H130.244V257.14C130.244 257.14 133.089 257.143 136.476 257.143C139.733 257.143 141.99 256.428 141.99 253.291C141.99 250.201 139.733 249.438 136.628 249.438Z" fill="#204C3D"/>
<path d="M212.385 257.133L219.932 246.531H215.964L209.448 255.652H202.106L202.123 246.531H198.668V267.735H202.123V258.575H209.457L216.036 267.735H220.176L212.385 257.133Z" fill="#204C3D"/>
<path d="M112.652 254.219C109.195 254.219 106.57 254.216 106.57 254.216V249.455H118.367V246.531H106.57H106.517H103.118V267.738H112.201C117.229 267.738 121.583 266.258 121.583 260.978C121.583 255.692 117.483 254.219 112.652 254.219ZM112.954 264.829H106.57V257.128C106.57 257.128 109.412 257.124 112.8 257.124C116.058 257.124 118.315 257.841 118.315 260.978C118.315 264.067 116.058 264.829 112.954 264.829Z" fill="#204C3D"/>
<path d="M191.9 262.035C190.557 263.757 188.49 264.839 186.079 264.839C181.821 264.839 178.627 261.461 178.627 257.142C178.627 252.823 181.821 249.448 186.079 249.448C188.471 249.448 190.526 250.512 191.869 252.211L193.858 249.429C191.886 247.443 189.14 246.235 186.079 246.235C180.039 246.235 175.172 250.983 175.172 257.142C175.172 263.302 180.039 268.051 186.079 268.051C189.16 268.051 191.922 266.826 193.897 264.815L191.9 262.035Z" fill="#204C3D"/>
<path d="M168.595 37.3218V128.548H259.821C259.821 78.165 218.978 37.3218 168.595 37.3218Z" fill="#7CB72E"/>
<path d="M259.821 128.535H168.595L233.103 193.041C249.61 176.531 259.821 153.727 259.821 128.535Z" fill="#F4D7A5"/>
<path d="M168.595 73.8555V128.56C204.197 128.56 236.243 105.433 241.607 73.8555H168.595Z" fill="#658434"/>
<path d="M168.595 128.535V219.761C193.787 219.761 216.593 209.55 233.103 193.043L168.595 128.535Z" fill="#ECAC19"/>
<path d="M77.3667 128.535C77.3667 153.727 87.5775 176.531 104.087 193.041L168.593 128.535H77.3667Z" fill="#7CB72E"/>
<path d="M168.595 128.535L104.089 193.043C120.598 209.55 143.404 219.761 168.595 219.761V128.535Z" fill="#204C3D"/>
<path d="M223.838 50.9028H269.74C269.74 64.277 260.52 73.8538 246.789 73.8538H224.738L223.838 50.9028Z" fill="#DC590C"/>
<path d="M168.594 128.535L82.6888 97.8677C81.86 100.196 81.1395 102.552 80.5012 104.93L80.4882 104.926C80.4211 105.179 80.3627 105.436 80.2956 105.692C80.1615 106.213 80.0317 106.737 79.904 107.261C79.8153 107.637 79.7266 108.016 79.6422 108.392C79.4929 109.041 79.3522 109.693 79.2181 110.346C79.1618 110.623 79.1077 110.898 79.0536 111.175C78.913 111.904 78.7789 112.635 78.6555 113.367C78.6166 113.594 78.5798 113.819 78.543 114.046C78.4197 114.803 78.3072 115.563 78.2033 116.322C78.173 116.552 78.1427 116.781 78.1124 117.01C78.0194 117.744 77.935 118.477 77.8592 119.213C77.829 119.501 77.8008 119.787 77.7727 120.074C77.7402 120.431 77.697 120.788 77.6688 121.145L77.6861 121.148C77.4827 123.606 77.3702 126.07 77.3702 128.535H168.594Z" fill="#ECAC19"/>
<path d="M118.888 1.00366C118.167 23.2688 128.395 41.1156 147.41 50.8914C155.711 55.5738 165.307 58.2546 175.516 58.2546H198.542L197.3 1.00366H118.888Z" fill="#204C3D"/>
<path d="M247.188 50.8884C247.188 78.4396 224.854 100.774 197.301 100.774C169.75 100.774 147.413 78.4396 147.413 50.8884C147.413 23.335 169.75 0.998535 197.301 0.998535C224.854 0.998535 247.188 23.335 247.188 50.8884Z" fill="#7CB72E"/>
<path d="M247.188 50.8801C237.477 33.2909 218.78 21.3772 197.301 21.3772C175.819 21.3772 157.122 33.2909 147.411 50.8801H247.188Z" fill="white"/>
<path d="M232.85 50.8942C232.85 55.5939 229.039 59.4043 224.34 59.4043C219.64 59.4043 215.83 55.5939 215.83 50.8942C215.83 46.1945 219.64 42.3841 224.34 42.3841C229.039 42.3841 232.85 46.1945 232.85 50.8942Z" fill="#204C3D"/>
</svg>
