<svg width="27" height="51" viewBox="0 0 27 51" fill="none" xmlns="http://www.w3.org/2000/svg">
<path d="M13.4937 32.0158L0.185059 24.332L0.185059 43.1591L13.4937 50.8429L13.4937 32.0158Z" fill="#C74327"/>
<path d="M13.4855 16.6468L0.177246 24.3303L13.4927 32.018L26.801 24.3345L13.4855 16.6468Z" fill="#DE5A22"/>
<path d="M13.498 32.0198L26.8135 24.332V43.1591L13.498 50.8469L13.498 32.0198Z" fill="#AC3E24"/>
<path d="M13.4953 17.0273L4.646 11.9182L4.646 24.4369L13.4953 29.546V17.0273Z" fill="#CD4827"/>
<path d="M13.4901 6.80775L4.64111 11.9167L13.4949 17.0285L22.3439 11.9195L13.4901 6.80775Z" fill="#DE5A22"/>
<path d="M13.4992 17.03L22.353 11.9182V24.4369L13.4992 29.5486V17.03Z" fill="#BF4F2C"/>
<path d="M16.0449 5.87165L13.5049 7.33813V13.204L16.0449 11.7375V5.87165Z" fill="#F9C6A7"/>
<path d="M13.5049 7.33856L10.9648 5.87207V11.7379L13.5049 13.2044V7.33856Z" fill="#FFD1BA"/>
<path d="M16.0449 5.87064L8.4248 1.47119V4.45832L16.0449 8.85777V5.87064Z" fill="#FFD1BA"/>
<path d="M18.5849 4.40632L16.0449 5.8728V8.85993L18.5849 7.39344V4.40632Z" fill="#F9C6A7"/>
<path d="M10.9414 0.0195988L8.40137 1.48608L16.0213 5.88548L18.5614 4.41899L10.9414 0.0195988Z" fill="#FFE0D1"/>
</svg>
