<svg width="187" height="161" viewBox="0 0 187 161" fill="none" xmlns="http://www.w3.org/2000/svg">
<path fill-rule="evenodd" clip-rule="evenodd" d="M27.5475 46.183C63.9711 25.1538 123.113 25.154 159.537 46.1831C175.594 55.4538 186.855 76.6489 186.855 76.6489C186.855 76.6489 186.848 82.6529 186.853 84.2843C186.853 98.0779 177.747 111.872 159.536 122.386C123.112 143.416 63.9684 143.414 27.5479 122.387C9.33611 111.872 0.229889 98.0788 0.230182 84.2852C0.230257 82.8668 0.229992 76.5422 0.229992 76.5422C0.229992 76.5422 11.2077 55.6169 27.5475 46.183Z" fill="#8BB659"/>
<path d="M159.537 114.751C195.985 93.7082 195.984 59.5906 159.537 38.5474C123.089 17.5042 63.9952 17.5042 27.5475 38.5473C-8.90012 59.5904 -8.89994 93.708 27.5479 114.751C63.9958 135.794 123.089 135.794 159.537 114.751Z" fill="#C8DEAE"/>
<path fill-rule="evenodd" clip-rule="evenodd" d="M30.1544 39.2603C65.1389 19.062 121.951 19.0654 156.931 39.2611C191.911 59.4569 191.917 92.2575 156.932 112.456C121.95 132.653 65.1379 132.649 30.1579 112.454C-4.82206 92.2579 -4.82791 59.4574 30.1544 39.2603ZM37.6292 43.5759C68.4926 25.7569 118.587 25.7463 149.463 43.5727C180.315 61.385 180.321 90.3211 149.458 108.14C118.596 125.958 68.4775 125.954 37.6257 108.142C6.74953 90.3156 6.7679 61.3937 37.6292 43.5759Z" fill="#575757"/>
<path d="M151.294 108.576C183.188 90.1616 183.188 60.3066 151.294 41.8925C119.4 23.4784 67.6892 23.4784 35.7951 41.8924C3.90111 60.3064 3.90123 90.1615 35.7954 108.576C67.6896 126.99 119.4 126.99 151.294 108.576Z" fill="#C8DEAE"/>
<path d="M154.147 110.426C187.62 91.1003 187.62 59.7673 154.147 40.4416C120.674 21.1159 66.403 21.1158 32.93 40.4414C-0.542995 59.7671 -0.542923 91.1002 32.9302 110.426C66.4032 129.752 120.674 129.752 154.147 110.426Z" stroke="white" stroke-width="0.165093" stroke-miterlimit="1.5" stroke-linecap="square" stroke-linejoin="round"/>
<path d="M96.9442 35.8707L38.6519 69.5259L43.6898 72.4345L101.982 38.7794L96.9442 35.8707Z" fill="#575757"/>
<path d="M43.7422 69.3081L89.8844 42.6653" stroke="white" stroke-width="0.215891" stroke-miterlimit="1.5" stroke-linecap="square" stroke-linejoin="round"/>
<path fill-rule="evenodd" clip-rule="evenodd" d="M91.9985 29.3445L90.1076 33.5073L91.9985 34.599V29.3445Z" fill="#5C8400"/>
<path fill-rule="evenodd" clip-rule="evenodd" d="M91.9985 29.3445L93.8894 33.5073L91.9985 34.599V29.3445Z" fill="#527600"/>
<path fill-rule="evenodd" clip-rule="evenodd" d="M109.383 66.0905L142.437 85.1745C142.817 85.3941 143.052 85.8012 143.053 86.2418C143.052 86.6815 142.818 87.0883 142.436 87.3085C140.999 88.1384 139.247 89.1499 139.247 89.1499L104.345 68.9991L109.383 66.0905Z" fill="#575757"/>
<path fill-rule="evenodd" clip-rule="evenodd" d="M135.738 85.361L105.589 102.767C105.492 102.823 105.43 102.929 105.431 103.042C105.431 103.155 105.491 103.26 105.59 103.317C106.501 103.843 108.493 104.993 109.516 105.584C109.909 105.811 110.393 105.811 110.786 105.584L140.776 88.2696L135.738 85.361Z" fill="#575757"/>
<path d="M140.12 48.9562L104.502 69.5203L109.54 72.4289L145.158 51.8648L140.12 48.9562Z" fill="#575757"/>
<path d="M109.359 103.499L139.248 86.2421L109.917 69.3076L128.375 58.6499" stroke="white" stroke-width="0.215891" stroke-miterlimit="1.5" stroke-linecap="square" stroke-linejoin="round"/>
<path d="M118.158 76.9799L90.6694 92.8506L106.719 102.117L134.208 86.2463L118.158 76.9799Z" fill="#86BF6B"/>
<path d="M82.359 79.5119C82.9314 79.1814 82.9315 78.6456 82.3591 78.3152C81.7868 77.9847 80.8588 77.9848 80.2864 78.3152C79.714 78.6457 79.714 79.1815 80.2863 79.5119C80.8587 79.8423 81.7867 79.8423 82.359 79.5119Z" fill="#8DAE78"/>
<path d="M85.9884 82.8046C86.5608 82.4741 86.5608 81.9384 85.9885 81.6079C85.4161 81.2775 84.4882 81.2775 83.9158 81.6079C83.3434 81.9384 83.3434 82.4742 83.9157 82.8046C84.4881 83.1351 85.4161 83.1351 85.9884 82.8046Z" fill="#8DAE78"/>
<path d="M88.34 88.1461C88.9124 87.8157 88.9124 87.2799 88.3401 86.9495C87.7677 86.619 86.8397 86.619 86.2673 86.9495C85.695 87.28 85.6949 87.8157 86.2673 88.1462C86.8396 88.4766 87.7676 88.4766 88.34 88.1461Z" fill="#8DAE78"/>
<path d="M83.1525 91.1422C83.7249 90.8118 83.7249 90.276 83.1526 89.9456C82.5802 89.6151 81.6522 89.6151 81.0798 89.9456C80.5075 90.2761 80.5074 90.8118 81.0798 91.1423C81.6521 91.4727 82.5801 91.4727 83.1525 91.1422Z" fill="#8DAE78"/>
<path d="M85.9884 75.6027C86.5608 75.2722 86.5608 74.7364 85.9885 74.406C85.4161 74.0756 84.4882 74.0756 83.9158 74.406C83.3434 74.7365 83.3434 75.2723 83.9157 75.6027C84.4881 75.9332 85.4161 75.9332 85.9884 75.6027Z" fill="#8DAE78"/>
<path d="M83.8258 69.8617C84.3982 69.5313 84.3982 68.9955 83.8259 68.665C83.2535 68.3346 82.3256 68.3346 81.7532 68.6651C81.1808 68.9955 81.1808 69.5313 81.7531 69.8618C82.3255 70.1922 83.2535 70.1922 83.8258 69.8617Z" fill="#8DAE78"/>
<path fill-rule="evenodd" clip-rule="evenodd" d="M84.2783 27.5125L81.4713 33.6922L84.2783 35.3129V27.5125Z" fill="#5C8400"/>
<path fill-rule="evenodd" clip-rule="evenodd" d="M84.2783 27.5125L87.0854 33.6922L84.2783 35.3129V27.5125Z" fill="#527600"/>
<path fill-rule="evenodd" clip-rule="evenodd" d="M120.253 45.0154L117.082 51.9962L120.253 53.8269V45.0154Z" fill="#5C8400"/>
<path fill-rule="evenodd" clip-rule="evenodd" d="M120.253 45.0154L123.424 51.9962L120.253 53.8269V45.0154Z" fill="#527600"/>
<path fill-rule="evenodd" clip-rule="evenodd" d="M118.895 34.6753L116.897 39.0739L118.895 40.2274V34.6753Z" fill="#5C8400"/>
<path fill-rule="evenodd" clip-rule="evenodd" d="M118.895 34.6753L120.893 39.0739L118.895 40.2274V34.6753Z" fill="#527600"/>
<path fill-rule="evenodd" clip-rule="evenodd" d="M111.356 34.6753L109.358 39.0739L111.356 40.2274V34.6753Z" fill="#5C8400"/>
<path fill-rule="evenodd" clip-rule="evenodd" d="M111.356 34.6753L113.354 39.0739L111.356 40.2274V34.6753Z" fill="#527600"/>
<path fill-rule="evenodd" clip-rule="evenodd" d="M123.426 41.6826L121.963 44.9043L123.426 45.7492V41.6826Z" fill="#5C8400"/>
<path fill-rule="evenodd" clip-rule="evenodd" d="M123.426 41.6826L124.89 44.9043L123.426 45.7492V41.6826Z" fill="#527600"/>
<path fill-rule="evenodd" clip-rule="evenodd" d="M75.8657 29.7383L73.9748 33.9011L75.8657 34.9928V29.7383Z" fill="#5C8400"/>
<path fill-rule="evenodd" clip-rule="evenodd" d="M75.8657 29.7383L77.7566 33.9011L75.8657 34.9928V29.7383Z" fill="#527600"/>
<path fill-rule="evenodd" clip-rule="evenodd" d="M126.394 48.5593L123.97 53.8943L126.394 55.2935V48.5593Z" fill="#5C8400"/>
<path fill-rule="evenodd" clip-rule="evenodd" d="M126.394 48.5593L128.817 53.8943L126.394 55.2935V48.5593Z" fill="#527600"/>
<path fill-rule="evenodd" clip-rule="evenodd" d="M130.041 36.8203L127.499 42.4154L130.041 43.8827V36.8203Z" fill="#5C8400"/>
<path fill-rule="evenodd" clip-rule="evenodd" d="M130.041 36.8203L132.582 42.4154L130.041 43.8827V36.8203Z" fill="#527600"/>
<path fill-rule="evenodd" clip-rule="evenodd" d="M124.504 35.8047L122.613 39.9675L124.504 41.0592V35.8047Z" fill="#5C8400"/>
<path fill-rule="evenodd" clip-rule="evenodd" d="M124.504 35.8047L126.395 39.9675L124.504 41.0592V35.8047Z" fill="#527600"/>
<path fill-rule="evenodd" clip-rule="evenodd" d="M115.351 41.0891L113.46 45.2519L115.351 46.3436V41.0891Z" fill="#5C8400"/>
<path fill-rule="evenodd" clip-rule="evenodd" d="M115.351 41.0891L117.242 45.2519L115.351 46.3436V41.0891Z" fill="#527600"/>
<path fill-rule="evenodd" clip-rule="evenodd" d="M114.717 29.7383L112.826 33.9011L114.717 34.9928V29.7383Z" fill="#5C8400"/>
<path fill-rule="evenodd" clip-rule="evenodd" d="M114.717 29.7383L116.608 33.9011L114.717 34.9928V29.7383Z" fill="#527600"/>
<path fill-rule="evenodd" clip-rule="evenodd" d="M83.4897 36.187L81.5988 40.3498L83.4897 41.4415V36.187Z" fill="#5C8400"/>
<path fill-rule="evenodd" clip-rule="evenodd" d="M83.4897 36.187L85.3806 40.3498L83.4897 41.4415V36.187Z" fill="#527600"/>
<path fill-rule="evenodd" clip-rule="evenodd" d="M51.2466 49.2727L49.3557 53.4355L51.2466 54.5272V49.2727Z" fill="#5C8400"/>
<path fill-rule="evenodd" clip-rule="evenodd" d="M51.2466 49.2727L53.1375 53.4355L51.2466 54.5272V49.2727Z" fill="#527600"/>
<path fill-rule="evenodd" clip-rule="evenodd" d="M53.1357 54.2375L51.2448 58.4004L53.1357 59.4921V54.2375Z" fill="#5C8400"/>
<path fill-rule="evenodd" clip-rule="evenodd" d="M53.1357 54.2375L55.0266 58.4004L53.1357 59.4921V54.2375Z" fill="#527600"/>
<path fill-rule="evenodd" clip-rule="evenodd" d="M128.141 28.5342L125.334 34.7139L128.141 36.3346V28.5342Z" fill="#5C8400"/>
<path fill-rule="evenodd" clip-rule="evenodd" d="M128.141 28.5342L130.948 34.7139L128.141 36.3346V28.5342Z" fill="#527600"/>
<path fill-rule="evenodd" clip-rule="evenodd" d="M121.389 29.0022L119.355 33.4809L121.389 34.6555V29.0022Z" fill="#5C8400"/>
<path fill-rule="evenodd" clip-rule="evenodd" d="M121.389 29.0022L123.424 33.4809L121.389 34.6555V29.0022Z" fill="#527600"/>
<path fill-rule="evenodd" clip-rule="evenodd" d="M107.328 28.7681L105.293 33.2468L107.328 34.4213V28.7681Z" fill="#5C8400"/>
<path fill-rule="evenodd" clip-rule="evenodd" d="M107.328 28.7681L109.362 33.2468L107.328 34.4213V28.7681Z" fill="#527600"/>
<path fill-rule="evenodd" clip-rule="evenodd" d="M80.424 62.1774L55.4168 79.1823L87.6241 97.7771L87.6228 91.6203L87.6225 58.0213L83.5604 60.2531L78.7932 57.5034L77.3174 58.3555L80.4241 60.1492L80.424 62.1774Z" fill="black" fill-opacity="0.1"/>
<path fill-rule="evenodd" clip-rule="evenodd" d="M108.106 96.9746L115.049 100.98L115.054 104.829L108.109 108.839L101.168 104.832V100.98L108.106 96.9746Z" fill="#F9EE2D"/>
<path d="M108.107 96.9642L101.164 100.973L108.115 104.986L115.058 100.977L108.107 96.9642Z" fill="#E1D92D"/>
<path fill-rule="evenodd" clip-rule="evenodd" d="M109.059 98.4006C108.469 98.0604 107.743 98.0605 107.154 98.4008L103.652 100.423C103.455 100.536 103.334 100.746 103.334 100.973C103.334 101.199 103.455 101.409 103.651 101.522C104.639 102.092 106.173 102.978 107.16 103.548C107.75 103.889 108.476 103.889 109.065 103.548C110.051 102.979 111.582 102.095 112.567 101.526C112.764 101.413 112.885 101.203 112.885 100.976C112.885 100.75 112.764 100.54 112.567 100.426C111.58 99.8564 110.046 98.9707 109.059 98.4006Z" fill="#EBE102" stroke="#E3EEC5" stroke-width="0.228591" stroke-miterlimit="1.5" stroke-linecap="round" stroke-linejoin="round"/>
<path d="M108.454 101.174C108.669 101.05 108.669 100.849 108.454 100.725C108.239 100.601 107.891 100.601 107.677 100.725C107.462 100.849 107.462 101.05 107.677 101.174C107.891 101.298 108.239 101.298 108.454 101.174Z" fill="#E3EEC5"/>
<path d="M105.482 99.3689L105.354 99.4431L110.851 102.617L110.98 102.543L105.482 99.3689Z" fill="#E3EEC5"/>
<path d="M110.706 99.3503L110.837 99.426L105.349 102.595L105.218 102.519L110.706 99.3503Z" fill="#E3EEC5"/>
<path d="M108.155 98.1021H108.007V103.853H108.155V98.1021Z" fill="#E3EEC5"/>
<path d="M112.892 101.018V100.87H103.272V101.018H112.892Z" fill="#E3EEC5"/>
<path d="M115.058 100.987L108.115 104.996V108.861L115.058 104.852V100.987Z" fill="#EBE102"/>
<path fill-rule="evenodd" clip-rule="evenodd" d="M99.0493 99.7424L105.992 103.748L105.998 107.597L99.0519 111.607L92.1118 107.6V103.748L99.0493 99.7424Z" fill="#FCF21D"/>
<path d="M99.0503 99.732L92.1074 103.74L99.0587 107.754L106.002 103.745L99.0503 99.732Z" fill="#B3D452"/>
<path fill-rule="evenodd" clip-rule="evenodd" d="M100.002 101.168C99.4125 100.828 98.6866 100.828 98.0972 101.169L94.5951 103.191C94.3986 103.304 94.2775 103.514 94.2774 103.741C94.2773 103.967 94.3985 104.177 94.5948 104.29C95.5821 104.86 97.1163 105.746 98.1036 106.316C98.693 106.656 99.4193 106.656 100.009 106.316C100.994 105.747 102.525 104.863 103.511 104.294C103.707 104.181 103.828 103.971 103.828 103.744C103.828 103.517 103.707 103.308 103.511 103.194C102.523 102.624 100.989 101.738 100.002 101.168Z" fill="#C1E081" stroke="#E3EEC5" stroke-width="0.228591" stroke-miterlimit="1.5" stroke-linecap="round" stroke-linejoin="round"/>
<path d="M99.3973 103.942C99.6119 103.818 99.6119 103.617 99.3973 103.493C99.1826 103.369 98.8347 103.369 98.6201 103.493C98.4054 103.617 98.4054 103.818 98.62 103.942C98.8347 104.066 99.1826 104.066 99.3973 103.942Z" fill="#E3EEC5"/>
<path d="M96.4254 102.137L96.2969 102.211L101.795 105.385L101.923 105.311L96.4254 102.137Z" fill="#E3EEC5"/>
<path d="M101.65 102.118L101.781 102.194L96.2925 105.362L96.1614 105.287L101.65 102.118Z" fill="#E3EEC5"/>
<path d="M99.0987 100.87H98.9502V106.621H99.0987V100.87Z" fill="#E3EEC5"/>
<path d="M103.835 103.786V103.638H94.215V103.786H103.835Z" fill="#E3EEC5"/>
<path d="M106.001 103.755L99.0581 107.764V111.629L106.001 107.62V103.755Z" fill="#C2D452"/>
<path fill-rule="evenodd" clip-rule="evenodd" d="M99.0493 97.6995L105.992 101.705L105.998 105.554L99.0519 111.61L92.1118 107.603V101.705L99.0493 97.6995Z" fill="#F9EE30"/>
<path d="M99.0503 97.689L92.1074 101.698L99.0587 105.711L106.002 101.702L99.0503 97.689Z" fill="#E1D92D"/>
<path fill-rule="evenodd" clip-rule="evenodd" d="M100.002 99.1255C99.4125 98.7852 98.6866 98.7854 98.0972 99.1256L94.5951 101.148C94.3986 101.261 94.2775 101.471 94.2774 101.698C94.2773 101.924 94.3985 102.134 94.5948 102.247C95.5821 102.817 97.1163 103.703 98.1036 104.273C98.693 104.613 99.4193 104.613 100.009 104.273C100.994 103.704 102.525 102.82 103.511 102.251C103.707 102.138 103.828 101.928 103.828 101.701C103.828 101.474 103.707 101.265 103.511 101.151C102.523 100.581 100.989 99.6955 100.002 99.1255Z" fill="#EBE102" stroke="#E3EEC5" stroke-width="0.228591" stroke-miterlimit="1.5" stroke-linecap="round" stroke-linejoin="round"/>
<path d="M99.4021 101.899C99.6168 101.775 99.6168 101.574 99.4021 101.45C99.1875 101.326 98.8396 101.326 98.6249 101.45C98.4103 101.574 98.4103 101.775 98.6249 101.899C98.8396 102.023 99.1875 102.023 99.4021 101.899Z" fill="#E3EEC5"/>
<path d="M96.4249 100.094L96.2964 100.168L101.794 103.342L101.923 103.268L96.4249 100.094Z" fill="#E3EEC5"/>
<path d="M101.649 100.075L101.78 100.151L96.2921 103.32L96.1609 103.244L101.649 100.075Z" fill="#E3EEC5"/>
<path d="M99.0982 98.8269H98.9497V104.578H99.0982V98.8269Z" fill="#E3EEC5"/>
<path d="M103.561 101.743V101.595H94.5518V101.743H103.561Z" fill="#E3EEC5"/>
<path d="M106.001 101.712L99.0581 105.721V109.586L106.001 105.577V101.712Z" fill="#EBE102"/>
<path fill-rule="evenodd" clip-rule="evenodd" d="M105.997 104.976L112.94 108.981L112.943 111.618L105.997 115.628L99.0571 111.621L99.06 108.981L105.997 104.976Z" fill="#F9EE30"/>
<path d="M105.996 104.965L99.0527 108.974L106.004 112.987L112.947 108.978L105.996 104.965Z" fill="#E1D92D"/>
<path fill-rule="evenodd" clip-rule="evenodd" d="M106.947 106.402C106.358 106.061 105.632 106.061 105.043 106.402L101.54 108.424C101.344 108.537 101.223 108.747 101.223 108.974C101.223 109.2 101.344 109.41 101.54 109.523C102.527 110.093 104.062 110.979 105.049 111.549C105.638 111.89 106.365 111.89 106.954 111.549C107.94 110.98 109.47 110.096 110.456 109.527C110.653 109.414 110.774 109.204 110.773 108.977C110.773 108.75 110.652 108.541 110.456 108.427C109.469 107.857 107.935 106.972 106.947 106.402Z" fill="#EBE102" stroke="#E3EEC5" stroke-width="0.228591" stroke-miterlimit="1.5" stroke-linecap="round" stroke-linejoin="round"/>
<path d="M106.343 109.175C106.557 109.051 106.557 108.85 106.343 108.726C106.128 108.602 105.78 108.602 105.565 108.726C105.351 108.85 105.351 109.051 105.565 109.175C105.78 109.299 106.128 109.299 106.343 109.175Z" fill="#E3EEC5"/>
<path d="M103.371 107.37L103.242 107.444L108.74 110.618L108.869 110.544L103.371 107.37Z" fill="#E3EEC5"/>
<path d="M108.595 107.351L108.726 107.427L103.238 110.596L103.107 110.52L108.595 107.351Z" fill="#E3EEC5"/>
<path d="M106.044 106.103H105.896V111.854H106.044V106.103Z" fill="#E3EEC5"/>
<path d="M110.781 109.019V108.871H101.16V109.019H110.781Z" fill="#E3EEC5"/>
<path d="M112.946 108.988L106.003 112.997V115.619L112.946 111.61V108.988Z" fill="#EBE102"/>
<path d="M58.7377 106.389L56.707 107.561L58.7377 108.734L60.7684 107.561L58.7377 106.389Z" fill="#575757"/>
<path d="M62.768 108.712L60.7373 109.885L62.768 111.057L64.7987 109.885L62.768 108.712Z" fill="#575757"/>
<path d="M60.7651 107.559L58.7344 108.732L60.765 109.904L62.7957 108.732L60.7651 107.559Z" fill="#575757"/>
<path d="M64.7885 109.882L62.7578 111.054L64.7885 112.227L66.8192 111.054L64.7885 109.882Z" fill="#575757"/>
<path d="M66.8085 111.046L64.7778 112.219L66.8085 113.391L68.8392 112.219L66.8085 111.046Z" fill="#575757"/>
<path d="M60.7709 105.22L58.7402 106.392L60.7709 107.564L62.8016 106.392L60.7709 105.22Z" fill="#57575F"/>
<path d="M64.7939 107.542L62.7632 108.715L64.7939 109.887L66.8245 108.715L64.7939 107.542Z" fill="#57575F"/>
<path d="M62.7968 106.384L60.7661 107.556L62.7968 108.729L64.8275 107.556L62.7968 106.384Z" fill="#57575F"/>
<path d="M66.8198 108.712L64.7891 109.885L66.8197 111.057L68.8504 109.885L66.8198 108.712Z" fill="#57575F"/>
<path d="M68.8403 109.876L66.8096 111.049L68.8402 112.221L70.8709 111.049L68.8403 109.876Z" fill="#57575F"/>
<path d="M62.8022 104.044L60.7715 105.216L62.8022 106.389L64.8328 105.216L62.8022 104.044Z" fill="#575757"/>
<path d="M66.8256 106.367L64.7949 107.539L66.8256 108.711L68.8563 107.539L66.8256 106.367Z" fill="#575757"/>
<path d="M64.8227 105.214L62.792 106.386L64.8227 107.559L66.8534 106.386L64.8227 105.214Z" fill="#575757"/>
<path d="M68.8515 107.537L66.8208 108.709L68.8515 109.881L70.8822 108.709L68.8515 107.537Z" fill="#575757"/>
<path d="M70.8715 108.706L68.8408 109.879L70.8715 111.051L72.9022 109.879L70.8715 108.706Z" fill="#575757"/>
<path d="M64.8339 102.874L62.8032 104.047L64.8339 105.219L66.8646 104.047L64.8339 102.874Z" fill="#57575F"/>
<path d="M68.8573 105.197L66.8267 106.369L68.8573 107.542L70.888 106.369L68.8573 105.197Z" fill="#57575F"/>
<path d="M66.8539 104.038L64.8232 105.211L66.8539 106.383L68.8846 105.211L66.8539 104.038Z" fill="#57575F"/>
<path d="M70.8832 106.367L68.8525 107.539L70.8832 108.711L72.9139 107.539L70.8832 106.367Z" fill="#57575F"/>
<path d="M72.9032 107.531L70.8726 108.703L72.9032 109.876L74.9339 108.703L72.9032 107.531Z" fill="#57575F"/>
<path d="M66.8598 101.698L64.8291 102.871L66.8598 104.043L68.8905 102.871L66.8598 101.698Z" fill="#575757"/>
<path d="M70.8886 104.027L68.8579 105.199L70.8886 106.372L72.9193 105.199L70.8886 104.027Z" fill="#575757"/>
<path d="M68.8857 102.868L66.855 104.041L68.8856 105.213L70.9163 104.041L68.8857 102.868Z" fill="#575757"/>
<path d="M72.915 105.191L70.8843 106.364L72.9149 107.536L74.9456 106.364L72.915 105.191Z" fill="#575757"/>
<path d="M74.935 106.361L72.9043 107.533L74.935 108.706L76.9657 107.533L74.935 106.361Z" fill="#575757"/>
<path d="M64.9179 102.822L62.8872 103.994L64.9179 105.167L66.9486 103.994L64.9179 102.822Z" fill="#575757"/>
<path d="M68.9482 105.145L66.9175 106.318L68.9481 107.49L70.9788 106.318L68.9482 105.145Z" fill="#575757"/>
<path d="M66.9452 103.992L64.9146 105.165L66.9452 106.337L68.9759 105.165L66.9452 103.992Z" fill="#575757"/>
<path d="M70.9687 106.315L68.938 107.488L70.9687 108.66L72.9993 107.488L70.9687 106.315Z" fill="#575757"/>
<path d="M72.9887 107.479L70.958 108.652L72.9887 109.824L75.0194 108.652L72.9887 107.479Z" fill="#575757"/>
<path d="M66.9511 101.653L64.9204 102.825L66.9511 103.998L68.9818 102.825L66.9511 101.653Z" fill="#57575F"/>
<path d="M70.974 103.975L68.9434 105.148L70.974 106.32L73.0047 105.148L70.974 103.975Z" fill="#57575F"/>
<path d="M68.977 102.817L66.9463 103.989L68.977 105.162L71.0076 103.989L68.977 102.817Z" fill="#57575F"/>
<path d="M72.9999 105.145L70.9692 106.318L72.9999 107.49L75.0306 106.318L72.9999 105.145Z" fill="#57575F"/>
<path d="M75.0204 106.31L72.9897 107.482L75.0204 108.654L77.0511 107.482L75.0204 106.31Z" fill="#57575F"/>
<path d="M68.9823 100.477L66.9517 101.649L68.9823 102.822L71.013 101.649L68.9823 100.477Z" fill="#575757"/>
<path d="M73.0058 102.8L70.9751 103.972L73.0058 105.145L75.0365 103.972L73.0058 102.8Z" fill="#575757"/>
<path d="M71.0029 101.647L68.9722 102.819L71.0028 103.992L73.0335 102.819L71.0029 101.647Z" fill="#575757"/>
<path d="M75.0317 103.97L73.001 105.142L75.0316 106.314L77.0623 105.142L75.0317 103.97Z" fill="#575757"/>
<path d="M77.0517 105.14L75.021 106.312L77.0517 107.484L79.0824 106.312L77.0517 105.14Z" fill="#575757"/>
<path d="M71.0141 99.3073L68.9834 100.48L71.0141 101.652L73.0448 100.48L71.0141 99.3073Z" fill="#57575F"/>
<path d="M75.0375 101.63L73.0068 102.802L75.0375 103.975L77.0682 102.802L75.0375 101.63Z" fill="#57575F"/>
<path d="M73.0341 100.471L71.0034 101.644L73.0341 102.816L75.0648 101.644L73.0341 100.471Z" fill="#57575F"/>
<path d="M77.0634 102.8L75.0327 103.972L77.0634 105.145L79.0941 103.972L77.0634 102.8Z" fill="#57575F"/>
<path d="M79.0834 103.964L77.0527 105.136L79.0834 106.309L81.1141 105.136L79.0834 103.964Z" fill="#57575F"/>
<path d="M73.04 98.1315L71.0093 99.304L73.0399 100.476L75.0706 99.3039L73.04 98.1315Z" fill="#575757"/>
<path d="M77.0688 100.46L75.0381 101.632L77.0688 102.805L79.0994 101.632L77.0688 100.46Z" fill="#575757"/>
<path d="M75.0658 99.3015L73.0352 100.474L75.0658 101.646L77.0965 100.474L75.0658 99.3015Z" fill="#575757"/>
<path d="M79.0951 101.624L77.0645 102.797L79.0951 103.969L81.1258 102.797L79.0951 101.624Z" fill="#575757"/>
<path d="M81.1152 102.794L79.0845 103.967L81.1151 105.139L83.1458 103.967L81.1152 102.794Z" fill="#575757"/>
<path d="M72.9076 98.2053L70.877 99.3777L72.9076 100.55L74.9383 99.3777L72.9076 98.2053Z" fill="#575757"/>
<path d="M76.9379 100.529L74.9072 101.701L76.9379 102.873L78.9686 101.701L76.9379 100.529Z" fill="#575757"/>
<path d="M74.935 99.3757L72.9043 100.548L74.935 101.721L76.9657 100.548L74.935 99.3757Z" fill="#575757"/>
<path d="M78.9584 101.698L76.9277 102.871L78.9584 104.043L80.9891 102.871L78.9584 101.698Z" fill="#575757"/>
<path d="M80.9784 102.863L78.9478 104.035L80.9784 105.208L83.0091 104.035L80.9784 102.863Z" fill="#575757"/>
<path d="M74.9408 97.0361L72.9102 98.2085L74.9408 99.3809L76.9715 98.2085L74.9408 97.0361Z" fill="#57575F"/>
<path d="M78.9638 99.3586L76.9331 100.531L78.9638 101.703L80.9945 100.531L78.9638 99.3586Z" fill="#57575F"/>
<path d="M76.9667 98.2001L74.936 99.3726L76.9667 100.545L78.9974 99.3725L76.9667 98.2001Z" fill="#57575F"/>
<path d="M80.9897 100.529L78.959 101.701L80.9897 102.873L83.0203 101.701L80.9897 100.529Z" fill="#57575F"/>
<path d="M83.0102 101.693L80.9795 102.865L83.0102 104.038L85.0409 102.865L83.0102 101.693Z" fill="#57575F"/>
<path d="M76.9721 95.8603L74.9414 97.0327L76.9721 98.2051L79.0028 97.0327L76.9721 95.8603Z" fill="#575757"/>
<path d="M80.9955 98.1831L78.9648 99.3555L80.9955 100.528L83.0262 99.3555L80.9955 98.1831Z" fill="#575757"/>
<path d="M78.9926 97.0302L76.9619 98.2026L78.9926 99.375L81.0233 98.2026L78.9926 97.0302Z" fill="#575757"/>
<path d="M83.0214 99.353L80.9907 100.525L83.0214 101.698L85.0521 100.525L83.0214 99.353Z" fill="#575757"/>
<path d="M85.0414 100.523L83.0107 101.695L85.0414 102.868L87.0721 101.695L85.0414 100.523Z" fill="#575757"/>
<path d="M79.0038 94.6906L76.9731 95.863L79.0038 97.0354L81.0345 95.863L79.0038 94.6906Z" fill="#57575F"/>
<path d="M83.0273 97.0131L80.9966 98.1855L83.0273 99.358L85.0579 98.1855L83.0273 97.0131Z" fill="#57575F"/>
<path d="M81.0239 95.8547L78.9932 97.0271L81.0238 98.1995L83.0545 97.0271L81.0239 95.8547Z" fill="#57575F"/>
<path d="M85.0532 98.1831L83.0225 99.3555L85.0531 100.528L87.0838 99.3555L85.0532 98.1831Z" fill="#57575F"/>
<path d="M87.0732 99.3474L85.0425 100.52L87.0731 101.692L89.1038 100.52L87.0732 99.3474Z" fill="#57575F"/>
<path d="M81.0297 93.5148L78.999 94.6873L81.0297 95.8597L83.0604 94.6872L81.0297 93.5148Z" fill="#575757"/>
<path d="M85.0585 95.8432L83.0278 97.0156L85.0585 98.188L87.0892 97.0156L85.0585 95.8432Z" fill="#575757"/>
<path d="M83.0556 94.6848L81.0249 95.8572L83.0556 97.0296L85.0863 95.8572L83.0556 94.6848Z" fill="#575757"/>
<path d="M87.0849 97.0075L85.0542 98.1799L87.0849 99.3523L89.1156 98.1799L87.0849 97.0075Z" fill="#575757"/>
<path d="M89.1049 98.1774L87.0742 99.3499L89.1049 100.522L91.1356 99.3498L89.1049 98.1774Z" fill="#575757"/>
<path d="M71.0014 97.1096L68.9707 98.282L71.0014 99.4544L73.0321 98.282L71.0014 97.1096Z" fill="#575757"/>
<path d="M75.0317 99.4328L73.001 100.605L75.0316 101.778L77.0623 100.605L75.0317 99.4328Z" fill="#575757"/>
<path d="M73.0287 98.28L70.998 99.4524L73.0287 100.625L75.0594 99.4524L73.0287 98.28Z" fill="#575757"/>
<path d="M77.0522 100.603L75.0215 101.775L77.0522 102.948L79.0828 101.775L77.0522 100.603Z" fill="#575757"/>
<path d="M79.0722 101.767L77.0415 102.939L79.0722 104.112L81.1029 102.939L79.0722 101.767Z" fill="#575757"/>
<path d="M73.0346 95.9404L71.0039 97.1128L73.0346 98.2852L75.0653 97.1128L73.0346 95.9404Z" fill="#57575F"/>
<path d="M77.0575 98.2629L75.0269 99.4353L77.0575 100.608L79.0882 99.4353L77.0575 98.2629Z" fill="#57575F"/>
<path d="M75.0605 97.1044L73.0298 98.2769L75.0605 99.4493L77.0911 98.2768L75.0605 97.1044Z" fill="#57575F"/>
<path d="M79.0834 99.4328L77.0527 100.605L79.0834 101.778L81.1141 100.605L79.0834 99.4328Z" fill="#57575F"/>
<path d="M81.1039 100.597L79.0732 101.77L81.1039 102.942L83.1346 101.77L81.1039 100.597Z" fill="#57575F"/>
<path d="M75.0658 94.7646L73.0352 95.937L75.0658 97.1094L77.0965 95.937L75.0658 94.7646Z" fill="#575757"/>
<path d="M79.0893 97.0873L77.0586 98.2598L79.0893 99.4322L81.12 98.2598L79.0893 97.0873Z" fill="#575757"/>
<path d="M77.0864 95.9345L75.0557 97.1069L77.0863 98.2793L79.117 97.1069L77.0864 95.9345Z" fill="#575757"/>
<path d="M81.1152 98.2573L79.0845 99.4297L81.1151 100.602L83.1458 99.4297L81.1152 98.2573Z" fill="#575757"/>
<path d="M83.1352 99.4272L81.1045 100.6L83.1352 101.772L85.1659 100.6L83.1352 99.4272Z" fill="#575757"/>
<path d="M77.0976 93.5949L75.0669 94.7673L77.0976 95.9397L79.1283 94.7673L77.0976 93.5949Z" fill="#57575F"/>
<path d="M81.121 95.9174L79.0903 97.0898L81.121 98.2623L83.1517 97.0898L81.121 95.9174Z" fill="#57575F"/>
<path d="M79.1176 94.759L77.0869 95.9314L79.1176 97.1038L81.1483 95.9314L79.1176 94.759Z" fill="#57575F"/>
<path d="M83.1469 97.0873L81.1162 98.2598L83.1469 99.4322L85.1776 98.2598L83.1469 97.0873Z" fill="#57575F"/>
<path d="M85.1669 98.2517L83.1362 99.4241L85.1669 100.596L87.1976 99.4241L85.1669 98.2517Z" fill="#57575F"/>
<path d="M79.1235 92.4191L77.0928 93.5916L79.1234 94.764L81.1541 93.5915L79.1235 92.4191Z" fill="#575757"/>
<path d="M83.1523 94.7475L81.1216 95.9199L83.1523 97.0923L85.1829 95.9199L83.1523 94.7475Z" fill="#575757"/>
<path d="M81.1493 93.5891L79.1187 94.7615L81.1493 95.9339L83.18 94.7615L81.1493 93.5891Z" fill="#575757"/>
<path d="M85.1786 95.9118L83.1479 97.0842L85.1786 98.2566L87.2093 97.0842L85.1786 95.9118Z" fill="#575757"/>
<path d="M87.1987 97.0817L85.168 98.2542L87.1986 99.4266L89.2293 98.2541L87.1987 97.0817Z" fill="#575757"/>
<path d="M52.7455 102.931L50.7148 104.103L52.7455 105.275L54.7762 104.103L52.7455 102.931Z" fill="#575757"/>
<path d="M56.7758 105.254L54.7451 106.426L56.7758 107.599L58.8065 106.426L56.7758 105.254Z" fill="#575757"/>
<path d="M54.7729 104.101L52.7422 105.273L54.7729 106.446L56.8035 105.273L54.7729 104.101Z" fill="#575757"/>
<path d="M58.7963 106.424L56.7656 107.596L58.7963 108.769L60.827 107.596L58.7963 106.424Z" fill="#575757"/>
<path d="M60.8163 107.588L58.7856 108.76L60.8163 109.933L62.847 108.76L60.8163 107.588Z" fill="#575757"/>
<path d="M54.7787 101.761L52.748 102.934L54.7787 104.106L56.8094 102.934L54.7787 101.761Z" fill="#57575F"/>
<path d="M58.8017 104.084L56.771 105.256L58.8017 106.429L60.8324 105.256L58.8017 104.084Z" fill="#57575F"/>
<path d="M56.8046 102.925L54.7739 104.098L56.8046 105.27L58.8353 104.098L56.8046 102.925Z" fill="#57575F"/>
<path d="M60.8276 105.254L58.7969 106.426L60.8275 107.599L62.8582 106.426L60.8276 105.254Z" fill="#57575F"/>
<path d="M62.8481 106.418L60.8174 107.591L62.8481 108.763L64.8787 107.591L62.8481 106.418Z" fill="#57575F"/>
<path d="M56.81 100.586L54.7793 101.758L56.81 102.93L58.8407 101.758L56.81 100.586Z" fill="#575757"/>
<path d="M60.8334 102.908L58.8027 104.081L60.8334 105.253L62.8641 104.081L60.8334 102.908Z" fill="#575757"/>
<path d="M58.8305 101.756L56.7998 102.928L58.8305 104.1L60.8612 102.928L58.8305 101.756Z" fill="#575757"/>
<path d="M62.8593 104.078L60.8286 105.251L62.8593 106.423L64.89 105.251L62.8593 104.078Z" fill="#575757"/>
<path d="M64.8793 105.248L62.8486 106.421L64.8793 107.593L66.91 106.421L64.8793 105.248Z" fill="#575757"/>
<path d="M58.8417 99.416L56.811 100.588L58.8417 101.761L60.8724 100.588L58.8417 99.416Z" fill="#57575F"/>
<path d="M62.8652 101.738L60.8345 102.911L62.8651 104.083L64.8958 102.911L62.8652 101.738Z" fill="#57575F"/>
<path d="M60.8617 100.58L58.8311 101.752L60.8617 102.925L62.8924 101.752L60.8617 100.58Z" fill="#57575F"/>
<path d="M64.891 102.908L62.8604 104.081L64.891 105.253L66.9217 104.081L64.891 102.908Z" fill="#57575F"/>
<path d="M66.9111 104.073L64.8804 105.245L66.911 106.418L68.9417 105.245L66.9111 104.073Z" fill="#57575F"/>
<path d="M60.8676 98.2402L58.8369 99.4126L60.8676 100.585L62.8983 99.4126L60.8676 98.2402Z" fill="#575757"/>
<path d="M64.8964 100.569L62.8657 101.741L64.8964 102.913L66.9271 101.741L64.8964 100.569Z" fill="#575757"/>
<path d="M62.8935 99.4101L60.8628 100.583L62.8935 101.755L64.9242 100.583L62.8935 99.4101Z" fill="#575757"/>
<path d="M66.9228 101.733L64.8921 102.905L66.9228 104.078L68.9534 102.905L66.9228 101.733Z" fill="#575757"/>
<path d="M68.9428 102.903L66.9121 104.075L68.9428 105.248L70.9735 104.075L68.9428 102.903Z" fill="#575757"/>
<path d="M42.7187 97.1381L40.688 98.3105L42.7187 99.483L44.7493 98.3105L42.7187 97.1381Z" fill="#575757"/>
<path d="M46.749 99.4614L44.7183 100.634L46.7489 101.806L48.7796 100.634L46.749 99.4614Z" fill="#575757"/>
<path d="M44.746 98.3085L42.7153 99.481L44.746 100.653L46.7767 99.4809L44.746 98.3085Z" fill="#575757"/>
<path d="M48.7695 100.631L46.7388 101.804L48.7694 102.976L50.8001 101.804L48.7695 100.631Z" fill="#575757"/>
<path d="M50.7895 101.796L48.7588 102.968L50.7895 104.14L52.8201 102.968L50.7895 101.796Z" fill="#575757"/>
<path d="M44.7519 95.9689L42.7212 97.1414L44.7519 98.3138L46.7826 97.1413L44.7519 95.9689Z" fill="#57575F"/>
<path d="M48.7748 98.2914L46.7441 99.4639L48.7748 100.636L50.8055 99.4639L48.7748 98.2914Z" fill="#57575F"/>
<path d="M46.7778 97.133L44.7471 98.3054L46.7777 99.4778L48.8084 98.3054L46.7778 97.133Z" fill="#57575F"/>
<path d="M50.8007 99.4614L48.77 100.634L50.8007 101.806L52.8314 100.634L50.8007 99.4614Z" fill="#57575F"/>
<path d="M52.8212 100.626L50.7905 101.798L52.8212 102.971L54.8519 101.798L52.8212 100.626Z" fill="#57575F"/>
<path d="M46.7831 94.7932L44.7524 95.9656L46.7831 97.138L48.8138 95.9656L46.7831 94.7932Z" fill="#575757"/>
<path d="M50.8066 97.1159L48.7759 98.2883L50.8065 99.4607L52.8372 98.2883L50.8066 97.1159Z" fill="#575757"/>
<path d="M48.8036 95.9631L46.7729 97.1355L48.8036 98.3079L50.8343 97.1355L48.8036 95.9631Z" fill="#575757"/>
<path d="M52.8324 98.2858L50.8018 99.4583L52.8324 100.631L54.8631 99.4582L52.8324 98.2858Z" fill="#575757"/>
<path d="M54.8525 99.4558L52.8218 100.628L54.8524 101.801L56.8831 100.628L54.8525 99.4558Z" fill="#575757"/>
<path d="M48.8149 93.6235L46.7842 94.7959L48.8148 95.9683L50.8455 94.7959L48.8149 93.6235Z" fill="#57575F"/>
<path d="M52.8383 95.946L50.8076 97.1184L52.8383 98.2908L54.869 97.1184L52.8383 95.946Z" fill="#57575F"/>
<path d="M50.8349 94.7875L48.8042 95.96L50.8349 97.1324L52.8656 95.96L50.8349 94.7875Z" fill="#57575F"/>
<path d="M54.8642 97.1159L52.8335 98.2883L54.8642 99.4607L56.8949 98.2883L54.8642 97.1159Z" fill="#57575F"/>
<path d="M56.8842 98.2802L54.8535 99.4526L56.8842 100.625L58.9149 99.4526L56.8842 98.2802Z" fill="#57575F"/>
<path d="M50.8407 92.4477L48.8101 93.6201L50.8407 94.7925L52.8714 93.6201L50.8407 92.4477Z" fill="#575757"/>
<path d="M54.8696 94.7761L52.8389 95.9485L54.8695 97.1209L56.9002 95.9485L54.8696 94.7761Z" fill="#575757"/>
<path d="M52.8666 93.6176L50.8359 94.79L52.8666 95.9624L54.8973 94.79L52.8666 93.6176Z" fill="#575757"/>
<path d="M56.8959 95.9404L54.8652 97.1128L56.8959 98.2852L58.9266 97.1128L56.8959 95.9404Z" fill="#575757"/>
<path d="M58.9159 97.1103L56.8853 98.2827L58.9159 99.4551L60.9466 98.2827L58.9159 97.1103Z" fill="#575757"/>
<path d="M48.8935 93.5715L46.8628 94.7439L48.8935 95.9163L50.9242 94.7439L48.8935 93.5715Z" fill="#575757"/>
<path d="M52.9238 95.8947L50.8931 97.0671L52.9237 98.2395L54.9544 97.0671L52.9238 95.8947Z" fill="#575757"/>
<path d="M50.9208 94.7419L48.8901 95.9143L50.9208 97.0867L52.9515 95.9143L50.9208 94.7419Z" fill="#575757"/>
<path d="M54.9443 97.0646L52.9136 98.2371L54.9442 99.4095L56.9749 98.2371L54.9443 97.0646Z" fill="#575757"/>
<path d="M56.9643 98.2289L54.9336 99.4014L56.9643 100.574L58.995 99.4014L56.9643 98.2289Z" fill="#575757"/>
<path d="M50.9267 92.4023L48.896 93.5747L50.9267 94.7471L52.9574 93.5747L50.9267 92.4023Z" fill="#57575F"/>
<path d="M54.9496 94.7248L52.9189 95.8972L54.9496 97.0696L56.9803 95.8972L54.9496 94.7248Z" fill="#57575F"/>
<path d="M52.9526 93.5664L50.9219 94.7388L52.9525 95.9112L54.9832 94.7388L52.9526 93.5664Z" fill="#57575F"/>
<path d="M56.9755 95.8947L54.9448 97.0671L56.9755 98.2395L59.0062 97.0671L56.9755 95.8947Z" fill="#57575F"/>
<path d="M58.996 97.059L56.9653 98.2314L58.996 99.4039L61.0267 98.2314L58.996 97.059Z" fill="#57575F"/>
<path d="M52.9579 91.2265L50.9272 92.3989L52.9579 93.5713L54.9886 92.3989L52.9579 91.2265Z" fill="#575757"/>
<path d="M56.9814 93.5493L54.9507 94.7217L56.9814 95.8941L59.012 94.7217L56.9814 93.5493Z" fill="#575757"/>
<path d="M54.9784 92.3964L52.9478 93.5688L54.9784 94.7413L57.0091 93.5688L54.9784 92.3964Z" fill="#575757"/>
<path d="M59.0073 94.7192L56.9766 95.8916L59.0072 97.064L61.0379 95.8916L59.0073 94.7192Z" fill="#575757"/>
<path d="M61.0273 95.8891L58.9966 97.0615L61.0273 98.2339L63.0579 97.0615L61.0273 95.8891Z" fill="#575757"/>
<path d="M54.9897 90.0568L52.959 91.2292L54.9897 92.4017L57.0203 91.2292L54.9897 90.0568Z" fill="#57575F"/>
<path d="M59.0131 92.3793L56.9824 93.5518L59.0131 94.7242L61.0438 93.5517L59.0131 92.3793Z" fill="#57575F"/>
<path d="M57.0097 91.2209L54.979 92.3933L57.0097 93.5657L59.0404 92.3933L57.0097 91.2209Z" fill="#57575F"/>
<path d="M61.039 93.5493L59.0083 94.7217L61.039 95.8941L63.0697 94.7217L61.039 93.5493Z" fill="#57575F"/>
<path d="M63.059 94.7136L61.0283 95.886L63.059 97.0584L65.0897 95.886L63.059 94.7136Z" fill="#57575F"/>
<path d="M57.0156 88.881L54.9849 90.0535L57.0155 91.2259L59.0462 90.0535L57.0156 88.881Z" fill="#575757"/>
<path d="M61.0444 91.2094L59.0137 92.3818L61.0443 93.5542L63.075 92.3818L61.0444 91.2094Z" fill="#575757"/>
<path d="M59.0414 90.051L57.0107 91.2234L59.0414 92.3958L61.0721 91.2234L59.0414 90.051Z" fill="#575757"/>
<path d="M63.0707 92.3737L61.04 93.5461L63.0707 94.7186L65.1014 93.5461L63.0707 92.3737Z" fill="#575757"/>
<path d="M65.0907 93.5436L63.0601 94.7161L65.0907 95.8885L67.1214 94.7161L65.0907 93.5436Z" fill="#575757"/>
<path fill-rule="evenodd" clip-rule="evenodd" d="M78.7485 109.543L76.9572 113.487L78.7485 114.521V109.543Z" fill="#5C8400"/>
<path fill-rule="evenodd" clip-rule="evenodd" d="M78.7485 109.543L80.5399 113.487L78.7485 114.521V109.543Z" fill="#527600"/>
<path fill-rule="evenodd" clip-rule="evenodd" d="M87.731 107.38L85.9396 111.324L87.731 112.358V107.38Z" fill="#5C8400"/>
<path fill-rule="evenodd" clip-rule="evenodd" d="M87.731 107.38L89.5223 111.324L87.731 112.358V107.38Z" fill="#527600"/>
<path fill-rule="evenodd" clip-rule="evenodd" d="M94.5557 108.095L92.9406 111.65L94.5557 112.583V108.095Z" fill="#5C8400"/>
<path fill-rule="evenodd" clip-rule="evenodd" d="M94.5557 108.095L96.1707 111.65L94.5557 112.583V108.095Z" fill="#527600"/>
<path fill-rule="evenodd" clip-rule="evenodd" d="M100 113.172L97.2824 119.155L100 120.724V113.172Z" fill="#5C8400"/>
<path fill-rule="evenodd" clip-rule="evenodd" d="M100 113.172L102.718 119.155L100 120.724V113.172Z" fill="#527600"/>
<path fill-rule="evenodd" clip-rule="evenodd" d="M83.0737 105.359L81.5701 108.669L83.0737 109.537V105.359Z" fill="#5C8400"/>
<path fill-rule="evenodd" clip-rule="evenodd" d="M83.0737 105.359L84.5774 108.669L83.0737 109.537V105.359Z" fill="#527600"/>
<path fill-rule="evenodd" clip-rule="evenodd" d="M89.2427 101.798L87.739 105.108L89.2427 105.976V101.798Z" fill="#5C8400"/>
<path fill-rule="evenodd" clip-rule="evenodd" d="M89.2427 101.798L90.7463 105.108L89.2427 105.976V101.798Z" fill="#527600"/>
<path fill-rule="evenodd" clip-rule="evenodd" d="M83.0679 110.867L79.3338 119.087L83.0679 121.243V110.867Z" fill="#5C8400"/>
<path fill-rule="evenodd" clip-rule="evenodd" d="M83.0679 110.867L86.8019 119.087L83.0679 121.243V110.867Z" fill="#527600"/>
<path fill-rule="evenodd" clip-rule="evenodd" d="M72.7788 110.529L69.9092 116.847L72.7788 118.503V110.529Z" fill="#5C8400"/>
<path fill-rule="evenodd" clip-rule="evenodd" d="M72.7788 110.529L75.6484 116.847L72.7788 118.503V110.529Z" fill="#527600"/>
<path fill-rule="evenodd" clip-rule="evenodd" d="M92.1074 111.762L89.2379 118.079L92.1074 119.736V111.762Z" fill="#5C8400"/>
<path fill-rule="evenodd" clip-rule="evenodd" d="M92.1074 111.762L94.977 118.079L92.1074 119.736V111.762Z" fill="#527600"/>
<path fill-rule="evenodd" clip-rule="evenodd" d="M119.289 78.855L116.692 84.5711L119.289 86.0702V78.855Z" fill="#5C8400"/>
<path fill-rule="evenodd" clip-rule="evenodd" d="M119.289 78.855L121.885 84.5711L119.289 86.0702V78.855Z" fill="#527600"/>
<path fill-rule="evenodd" clip-rule="evenodd" d="M128.916 79.7695L125.745 86.7503L128.916 88.5811V79.7695Z" fill="#5C8400"/>
<path fill-rule="evenodd" clip-rule="evenodd" d="M128.916 79.7695L132.087 86.7503L128.916 88.5811V79.7695Z" fill="#527600"/>
<path fill-rule="evenodd" clip-rule="evenodd" d="M121.429 86.8813L119.203 91.7814L121.429 93.0664V86.8813Z" fill="#5C8400"/>
<path fill-rule="evenodd" clip-rule="evenodd" d="M121.429 86.8813L123.654 91.7814L121.429 93.0664V86.8813Z" fill="#527600"/>
<path fill-rule="evenodd" clip-rule="evenodd" d="M124.487 85.8816L123.177 88.7667L124.487 89.5233V85.8816Z" fill="#5C8400"/>
<path fill-rule="evenodd" clip-rule="evenodd" d="M124.487 85.8816L125.798 88.7667L124.487 89.5233V85.8816Z" fill="#527600"/>
<path fill-rule="evenodd" clip-rule="evenodd" d="M124.328 81.0715L122.656 84.7526L124.328 85.718V81.0715Z" fill="#5C8400"/>
<path fill-rule="evenodd" clip-rule="evenodd" d="M124.328 81.0715L126 84.7526L124.328 85.718V81.0715Z" fill="#527600"/>
<path fill-rule="evenodd" clip-rule="evenodd" d="M122.416 77.3499L121.106 80.2349L122.416 80.9916V77.3499Z" fill="#5C8400"/>
<path fill-rule="evenodd" clip-rule="evenodd" d="M122.416 77.3499L123.727 80.2349L122.416 80.9916V77.3499Z" fill="#527600"/>
<path d="M126.455 69.3688L124.424 70.5413L126.454 71.7137L128.485 70.5412L126.455 69.3688Z" fill="#575757"/>
<path d="M130.479 71.6921L128.448 72.8645L130.479 74.0369L132.51 72.8645L130.479 71.6921Z" fill="#575757"/>
<path d="M128.482 70.5393L126.451 71.7117L128.482 72.8841L130.513 71.7117L128.482 70.5393Z" fill="#575757"/>
<path d="M132.505 72.862L130.474 74.0344L132.505 75.2068L134.535 74.0344L132.505 72.862Z" fill="#575757"/>
<path d="M134.525 74.0263L132.495 75.1987L134.525 76.3711L136.556 75.1987L134.525 74.0263Z" fill="#575757"/>
<path d="M128.487 68.1997L126.457 69.3721L128.487 70.5445L130.518 69.3721L128.487 68.1997Z" fill="#57575F"/>
<path d="M132.511 70.5222L130.48 71.6946L132.511 72.867L134.541 71.6946L132.511 70.5222Z" fill="#57575F"/>
<path d="M130.514 69.3637L128.483 70.5361L130.514 71.7085L132.544 70.5361L130.514 69.3637Z" fill="#57575F"/>
<path d="M134.537 71.6921L132.506 72.8645L134.537 74.0369L136.567 72.8645L134.537 71.6921Z" fill="#57575F"/>
<path d="M136.557 72.8564L134.526 74.0288L136.557 75.2012L138.588 74.0288L136.557 72.8564Z" fill="#57575F"/>
<path d="M130.519 67.0239L128.488 68.1963L130.519 69.3687L132.55 68.1963L130.519 67.0239Z" fill="#575757"/>
<path d="M134.542 69.3466L132.512 70.519L134.542 71.6915L136.573 70.519L134.542 69.3466Z" fill="#575757"/>
<path d="M132.539 68.1938L130.509 69.3662L132.539 70.5386L134.57 69.3662L132.539 68.1938Z" fill="#575757"/>
<path d="M136.568 70.5165L134.538 71.689L136.568 72.8614L138.599 71.689L136.568 70.5165Z" fill="#575757"/>
<path d="M138.588 71.6865L136.558 72.8589L138.588 74.0313L140.619 72.8589L138.588 71.6865Z" fill="#575757"/>
<path d="M132.551 65.8542L130.52 67.0266L132.551 68.199L134.581 67.0266L132.551 65.8542Z" fill="#57575F"/>
<path d="M136.574 68.1767L134.543 69.3491L136.574 70.5215L138.605 69.3491L136.574 68.1767Z" fill="#57575F"/>
<path d="M134.571 67.0183L132.54 68.1907L134.571 69.3631L136.601 68.1907L134.571 67.0183Z" fill="#57575F"/>
<path d="M138.6 69.3466L136.569 70.519L138.6 71.6915L140.631 70.519L138.6 69.3466Z" fill="#57575F"/>
<path d="M140.62 70.5109L138.589 71.6833L140.62 72.8558L142.651 71.6833L140.62 70.5109Z" fill="#57575F"/>
<path d="M134.577 64.6784L132.546 65.8508L134.577 67.0232L136.607 65.8508L134.577 64.6784Z" fill="#575757"/>
<path d="M138.605 67.0068L136.575 68.1792L138.605 69.3516L140.636 68.1792L138.605 67.0068Z" fill="#575757"/>
<path d="M136.602 65.8483L134.572 67.0208L136.602 68.1932L138.633 67.0207L136.602 65.8483Z" fill="#575757"/>
<path d="M140.631 68.1711L138.601 69.3435L140.631 70.5159L142.662 69.3435L140.631 68.1711Z" fill="#575757"/>
<path d="M142.652 69.341L140.621 70.5134L142.652 71.6858L144.682 70.5134L142.652 69.341Z" fill="#575757"/>
<path d="M124.446 68.2104L122.415 69.3828L124.446 70.5552L126.476 69.3828L124.446 68.2104Z" fill="#575757"/>
<path d="M128.47 70.5336L126.439 71.7061L128.47 72.8785L130.501 71.706L128.47 70.5336Z" fill="#575757"/>
<path d="M126.473 69.3808L124.442 70.5532L126.473 71.7256L128.504 70.5532L126.473 69.3808Z" fill="#575757"/>
<path d="M130.496 71.7036L128.465 72.876L130.496 74.0484L132.527 72.876L130.496 71.7036Z" fill="#575757"/>
<path d="M132.517 72.8679L130.486 74.0403L132.517 75.2127L134.547 74.0403L132.517 72.8679Z" fill="#575757"/>
<path d="M126.478 67.0412L124.448 68.2136L126.478 69.386L128.509 68.2136L126.478 67.0412Z" fill="#57575F"/>
<path d="M130.502 69.3637L128.471 70.5361L130.502 71.7085L132.533 70.5361L130.502 69.3637Z" fill="#57575F"/>
<path d="M128.505 68.2053L126.474 69.3777L128.505 70.5501L130.535 69.3777L128.505 68.2053Z" fill="#57575F"/>
<path d="M132.528 70.5336L130.497 71.7061L132.528 72.8785L134.558 71.706L132.528 70.5336Z" fill="#57575F"/>
<path d="M134.548 71.6979L132.518 72.8704L134.548 74.0428L136.579 72.8704L134.548 71.6979Z" fill="#57575F"/>
<path d="M128.51 65.8654L126.479 67.0378L128.51 68.2103L130.541 67.0378L128.51 65.8654Z" fill="#575757"/>
<path d="M132.534 68.1882L130.503 69.3606L132.534 70.533L134.564 69.3606L132.534 68.1882Z" fill="#575757"/>
<path d="M130.531 67.0353L128.5 68.2078L130.531 69.3802L132.561 68.2078L130.531 67.0353Z" fill="#575757"/>
<path d="M134.559 69.3581L132.529 70.5305L134.559 71.7029L136.59 70.5305L134.559 69.3581Z" fill="#575757"/>
<path d="M136.58 70.528L134.549 71.7004L136.579 72.8728L138.61 71.7004L136.58 70.528Z" fill="#575757"/>
<path d="M130.542 64.6957L128.511 65.8682L130.542 67.0406L132.573 65.8682L130.542 64.6957Z" fill="#57575F"/>
<path d="M134.565 67.0183L132.535 68.1907L134.565 69.3631L136.596 68.1907L134.565 67.0183Z" fill="#57575F"/>
<path d="M132.562 65.8598L130.531 67.0322L132.562 68.2046L134.593 67.0322L132.562 65.8598Z" fill="#57575F"/>
<path d="M136.591 68.1882L134.561 69.3606L136.591 70.533L138.622 69.3606L136.591 68.1882Z" fill="#57575F"/>
<path d="M138.611 69.3525L136.581 70.5249L138.611 71.6973L140.642 70.5249L138.611 69.3525Z" fill="#57575F"/>
<path d="M132.568 63.52L130.537 64.6924L132.568 65.8648L134.598 64.6924L132.568 63.52Z" fill="#575757"/>
<path d="M136.597 65.8483L134.566 67.0208L136.597 68.1932L138.627 67.0207L136.597 65.8483Z" fill="#575757"/>
<path d="M134.594 64.6899L132.563 65.8623L134.594 67.0347L136.624 65.8623L134.594 64.6899Z" fill="#575757"/>
<path d="M138.622 67.0126L136.592 68.1851L138.622 69.3575L140.653 68.185L138.622 67.0126Z" fill="#575757"/>
<path d="M140.643 68.1826L138.612 69.355L140.643 70.5274L142.674 69.355L140.643 68.1826Z" fill="#575757"/>
<path d="M134.17 73.8259L132.139 74.9983L134.17 76.1707L136.201 74.9983L134.17 73.8259Z" fill="#575757"/>
<path d="M138.2 76.1491L136.169 77.3215L138.2 78.4939L140.231 77.3215L138.2 76.1491Z" fill="#575757"/>
<path d="M136.197 74.9963L134.167 76.1687L136.197 77.3411L138.228 76.1687L136.197 74.9963Z" fill="#575757"/>
<path d="M140.22 77.319L138.189 78.4915L140.22 79.6639L142.251 78.4914L140.22 77.319Z" fill="#575757"/>
<path d="M142.241 78.4833L140.21 79.6558L142.241 80.8282L144.271 79.6558L142.241 78.4833Z" fill="#575757"/>
<path d="M136.203 72.6567L134.172 73.8291L136.203 75.0015L138.233 73.8291L136.203 72.6567Z" fill="#57575F"/>
<path d="M140.226 74.9792L138.195 76.1516L140.226 77.324L142.257 76.1516L140.226 74.9792Z" fill="#57575F"/>
<path d="M138.229 73.8207L136.198 74.9932L138.229 76.1656L140.26 74.9932L138.229 73.8207Z" fill="#57575F"/>
<path d="M142.252 76.1491L140.221 77.3215L142.252 78.4939L144.283 77.3215L142.252 76.1491Z" fill="#57575F"/>
<path d="M144.272 77.3134L142.242 78.4858L144.272 79.6582L146.303 78.4858L144.272 77.3134Z" fill="#57575F"/>
<path d="M138.234 71.4809L136.204 72.6533L138.234 73.8257L140.265 72.6533L138.234 71.4809Z" fill="#575757"/>
<path d="M142.258 73.8037L140.227 74.9761L142.258 76.1485L144.288 74.9761L142.258 73.8037Z" fill="#575757"/>
<path d="M140.255 72.6508L138.224 73.8232L140.255 74.9957L142.285 73.8232L140.255 72.6508Z" fill="#575757"/>
<path d="M144.284 74.9736L142.253 76.146L144.284 77.3184L146.314 76.146L144.284 74.9736Z" fill="#575757"/>
<path d="M146.304 76.1435L144.273 77.3159L146.304 78.4883L148.334 77.3159L146.304 76.1435Z" fill="#575757"/>
<path d="M140.266 70.3112L138.235 71.4836L140.266 72.6561L142.297 71.4836L140.266 70.3112Z" fill="#57575F"/>
<path d="M144.289 72.6337L142.259 73.8062L144.289 74.9786L146.32 73.8061L144.289 72.6337Z" fill="#57575F"/>
<path d="M142.286 71.4753L140.255 72.6477L142.286 73.8201L144.317 72.6477L142.286 71.4753Z" fill="#57575F"/>
<path d="M146.315 73.8037L144.285 74.9761L146.315 76.1485L148.346 74.9761L146.315 73.8037Z" fill="#57575F"/>
<path d="M148.335 74.968L146.305 76.1404L148.335 77.3128L150.366 76.1404L148.335 74.968Z" fill="#57575F"/>
<path d="M142.292 69.1354L140.261 70.3079L142.292 71.4803L144.323 70.3079L142.292 69.1354Z" fill="#575757"/>
<path d="M146.321 71.4638L144.29 72.6362L146.321 73.8086L148.351 72.6362L146.321 71.4638Z" fill="#575757"/>
<path d="M144.318 70.3054L142.287 71.4778L144.318 72.6502L146.348 71.4778L144.318 70.3054Z" fill="#575757"/>
<path d="M148.347 72.6281L146.316 73.8005L148.347 74.9729L150.377 73.8005L148.347 72.6281Z" fill="#575757"/>
<path d="M150.367 73.798L148.336 74.9705L150.367 76.1429L152.398 74.9704L150.367 73.798Z" fill="#575757"/>
<path fill-rule="evenodd" clip-rule="evenodd" d="M135.374 60.2085L131.816 58.1538V52.8422L126.468 49.7548V55.0664L118.182 59.8531V78.2125L135.374 74.512L135.374 60.2085Z" fill="black" fill-opacity="0.1"/>
<path fill-rule="evenodd" clip-rule="evenodd" d="M151.961 103.131L146.322 90.1946L141.166 87.2176L139.091 105.99L151.961 103.131Z" fill="black" fill-opacity="0.1"/>
<path fill-rule="evenodd" clip-rule="evenodd" d="M22.188 54.0103L18.454 62.2307L22.188 64.3866V54.0103Z" fill="#5C8400"/>
<path fill-rule="evenodd" clip-rule="evenodd" d="M22.188 54.0103L25.922 62.2307L22.188 64.3866V54.0103Z" fill="#527600"/>
<path fill-rule="evenodd" clip-rule="evenodd" d="M16.8291 64.3955L15.201 67.9797L16.8291 68.9196V64.3955Z" fill="#5C8400"/>
<path fill-rule="evenodd" clip-rule="evenodd" d="M16.8291 64.3955L18.4572 67.9797L16.8291 68.9196V64.3955Z" fill="#527600"/>
<path fill-rule="evenodd" clip-rule="evenodd" d="M28.9731 52.1943L26.7513 57.0857L28.9731 58.3684V52.1943Z" fill="#5C8400"/>
<path fill-rule="evenodd" clip-rule="evenodd" d="M28.9731 52.1943L31.195 57.0857L28.9731 58.3684V52.1943Z" fill="#527600"/>
<path fill-rule="evenodd" clip-rule="evenodd" d="M30.5996 60.9658L28.3778 65.8571L30.5996 67.1399V60.9658Z" fill="#5C8400"/>
<path fill-rule="evenodd" clip-rule="evenodd" d="M30.5996 60.9658L32.8214 65.8571L30.5996 67.1399V60.9658Z" fill="#527600"/>
<path fill-rule="evenodd" clip-rule="evenodd" d="M157.011 72.134L159.097 76.7272L157.011 77.9317V72.134Z" fill="#5C8400"/>
<path fill-rule="evenodd" clip-rule="evenodd" d="M157.011 72.134L154.924 76.7272L157.011 77.9317V72.134Z" fill="#527600"/>
<path fill-rule="evenodd" clip-rule="evenodd" d="M165.582 85.6934L167.668 90.2865L165.582 91.491V85.6934Z" fill="#5C8400"/>
<path fill-rule="evenodd" clip-rule="evenodd" d="M165.582 85.6934L163.496 90.2865L165.582 91.491V85.6934Z" fill="#527600"/>
<path fill-rule="evenodd" clip-rule="evenodd" d="M150.602 74.3311L153.472 80.6484L150.602 82.3051V74.3311Z" fill="#5C8400"/>
<path fill-rule="evenodd" clip-rule="evenodd" d="M150.602 74.3311L147.732 80.6484L150.602 82.3051V74.3311Z" fill="#527600"/>
<path fill-rule="evenodd" clip-rule="evenodd" d="M160.429 69.1948L161.767 71.9133L160.429 72.6263V69.1948Z" fill="#5C8400"/>
<path fill-rule="evenodd" clip-rule="evenodd" d="M160.429 69.1948L159.092 71.9133L160.429 72.6263V69.1948Z" fill="#527600"/>
<path fill-rule="evenodd" clip-rule="evenodd" d="M168.116 57.502L169.536 60.7274L168.116 61.5732V57.502Z" fill="#5C8400"/>
<path fill-rule="evenodd" clip-rule="evenodd" d="M168.116 57.502L166.695 60.7274L168.116 61.5732V57.502Z" fill="#527600"/>
<path fill-rule="evenodd" clip-rule="evenodd" d="M160.709 77.1731L163.579 83.4904L160.709 85.1472V77.1731Z" fill="#5C8400"/>
<path fill-rule="evenodd" clip-rule="evenodd" d="M160.709 77.1731L157.839 83.4904L160.709 85.1472V77.1731Z" fill="#527600"/>
<path fill-rule="evenodd" clip-rule="evenodd" d="M169.954 63.0371L171.793 66.7761L169.954 67.7567V63.0371Z" fill="#5C8400"/>
<path fill-rule="evenodd" clip-rule="evenodd" d="M169.954 63.0371L168.114 66.7761L169.954 67.7567V63.0371Z" fill="#527600"/>
<path fill-rule="evenodd" clip-rule="evenodd" d="M163.876 52.126L165.83 56.5622L163.876 57.7256V52.126Z" fill="#5C8400"/>
<path fill-rule="evenodd" clip-rule="evenodd" d="M163.876 52.126L161.922 56.5622L163.876 57.7256V52.126Z" fill="#527600"/>
<path fill-rule="evenodd" clip-rule="evenodd" d="M170.119 74.7083L168.27 78.7789L170.119 79.8465V74.7083Z" fill="#5C8400"/>
<path fill-rule="evenodd" clip-rule="evenodd" d="M170.119 74.7083L171.968 78.7789L170.119 79.8465V74.7083Z" fill="#527600"/>
<path fill-rule="evenodd" clip-rule="evenodd" d="M166.273 66.113L168.112 69.8521L166.273 70.8326V66.113Z" fill="#5C8400"/>
<path fill-rule="evenodd" clip-rule="evenodd" d="M166.273 66.113L164.434 69.8521L166.273 70.8326V66.113Z" fill="#527600"/>
<path fill-rule="evenodd" clip-rule="evenodd" d="M165.131 59.853L167.085 64.2892L165.131 65.4526V59.853Z" fill="#5C8400"/>
<path fill-rule="evenodd" clip-rule="evenodd" d="M165.131 59.853L163.178 64.2892L165.131 65.4526V59.853Z" fill="#527600"/>
<path fill-rule="evenodd" clip-rule="evenodd" d="M169.44 80.4087L171.279 84.1477L169.44 85.1283V80.4087Z" fill="#5C8400"/>
<path fill-rule="evenodd" clip-rule="evenodd" d="M169.44 80.4087L167.601 84.1477L169.44 85.1283V80.4087Z" fill="#527600"/>
<path fill-rule="evenodd" clip-rule="evenodd" d="M150.768 82.9141L152.607 86.6531L150.768 87.6337V82.9141Z" fill="#5C8400"/>
<path fill-rule="evenodd" clip-rule="evenodd" d="M150.768 82.9141L148.928 86.6531L150.768 87.6337V82.9141Z" fill="#527600"/>
<path fill-rule="evenodd" clip-rule="evenodd" d="M164.794 70.2109L161.925 76.5283L164.794 78.185V70.2109Z" fill="#5C8400"/>
<path fill-rule="evenodd" clip-rule="evenodd" d="M164.794 70.2109L167.664 76.5283L164.794 78.185V70.2109Z" fill="#527600"/>
<path fill-rule="evenodd" clip-rule="evenodd" d="M157.256 83.9697L159.096 87.7088L157.256 88.6893V83.9697Z" fill="#5C8400"/>
<path fill-rule="evenodd" clip-rule="evenodd" d="M157.256 83.9697L155.417 87.7088L157.256 88.6893V83.9697Z" fill="#527600"/>
<path fill-rule="evenodd" clip-rule="evenodd" d="M153.986 88.7578L152.147 92.4968L153.986 93.4774V88.7578Z" fill="#5C8400"/>
<path fill-rule="evenodd" clip-rule="evenodd" d="M153.986 88.7578L155.825 92.4968L153.986 93.4774V88.7578Z" fill="#527600"/>
<path fill-rule="evenodd" clip-rule="evenodd" d="M154.911 96.6331L153.071 100.372L154.911 101.353V96.6331Z" fill="#5C8400"/>
<path fill-rule="evenodd" clip-rule="evenodd" d="M154.911 96.6331L156.75 100.372L154.911 101.353V96.6331Z" fill="#527600"/>
<path fill-rule="evenodd" clip-rule="evenodd" d="M171.968 67.6313L169.659 72.7161L171.968 74.0496V67.6313Z" fill="#5C8400"/>
<path fill-rule="evenodd" clip-rule="evenodd" d="M171.968 67.6313L174.278 72.7161L171.968 74.0496V67.6313Z" fill="#527600"/>
<path fill-rule="evenodd" clip-rule="evenodd" d="M159.499 88.7637L156.629 95.081L159.499 96.7378V88.7637Z" fill="#5C8400"/>
<path fill-rule="evenodd" clip-rule="evenodd" d="M159.499 88.7637L162.368 95.081L159.499 96.7378V88.7637Z" fill="#527600"/>
<path d="M42.0086 66.2921L31.8042 60.4006V72.1139L42.0086 78.0054V66.2921Z" fill="#B2986C"/>
<path d="M42.0075 66.3607L52.2119 60.4692V72.1127L42.0075 78.0042V66.3607Z" fill="#8B7859"/>
<path d="M31.8039 60.4713L42.0083 54.5798L52.2128 60.4714L42.0083 66.3629L31.8039 60.4713Z" fill="#76664B"/>
<path d="M33.5147 60.474L42.0137 55.5671L50.5126 60.474L42.0137 65.3809L33.5147 60.474Z" fill="#B89E74"/>
<path fill-rule="evenodd" clip-rule="evenodd" d="M39.9817 60.7454C39.8835 60.6887 39.8225 60.5841 39.8226 60.4707C39.8226 60.3572 39.8835 60.2522 39.9811 60.1958C40.4829 59.9061 41.2586 59.4582 41.6904 59.2089C41.8869 59.0955 42.1294 59.0953 42.3258 59.2087C42.7575 59.458 43.5334 59.9059 44.035 60.1955C44.1332 60.2522 44.1935 60.3571 44.1935 60.4706C44.1935 60.584 44.1332 60.6887 44.0349 60.7454C43.5332 61.0351 42.7574 61.483 42.3257 61.7323C42.1291 61.8457 41.8873 61.8456 41.6909 61.7322C41.2591 61.4829 40.4833 61.035 39.9817 60.7454Z" fill="#8B7859"/>
<path d="M28.0955 74.7326L17.8911 68.8411V75.8608L28.0955 81.7523V74.7326Z" fill="#B2986C"/>
<path d="M28.0944 74.7326L38.2988 68.8411V75.8608L28.0944 81.7523V74.7326Z" fill="#8B7859"/>
<path d="M17.8908 68.8432L28.0952 62.9517L38.2997 68.8432L28.0952 74.7347L17.8908 68.8432Z" fill="#76664B"/>
<path fill-rule="evenodd" clip-rule="evenodd" d="M20.5542 69.3958C20.3577 69.2824 20.2354 69.0735 20.2352 68.8467C20.235 68.6199 20.3573 68.4095 20.5536 68.2962L27.1467 64.4897C27.7375 64.1486 28.4637 64.1486 29.0532 64.4889C30.6884 65.4331 34.0117 67.3518 35.6472 68.296C35.8437 68.4095 35.964 68.6195 35.964 68.8461C35.9642 69.0729 35.8439 69.2821 35.6456 69.3966C34.0106 70.3406 30.6876 72.2591 29.0525 73.2031C28.4637 73.5431 27.7375 73.5431 27.1482 73.2029C25.5128 72.2586 22.1895 70.3399 20.5542 69.3958Z" fill="#ADCE53"/>
<path fill-rule="evenodd" clip-rule="evenodd" d="M26.0686 69.1172C25.9704 69.0605 25.9094 68.9559 25.9095 68.8425C25.9095 68.729 25.9704 68.624 26.0681 68.5676L27.7773 67.5808C27.9738 67.4673 28.2163 67.4671 28.4127 67.5805C28.8444 67.8298 29.6203 68.2777 30.1219 68.5673C30.2201 68.624 30.2804 68.7289 30.2804 68.8424C30.2804 68.9559 30.2201 69.0605 30.1218 69.1173C29.6201 69.4069 28.8444 69.8548 28.4126 70.1041C28.216 70.2176 27.9742 70.2174 27.7778 70.104L26.0686 69.1172Z" fill="#DBF398"/>
<path d="M22.9963 68.7615L23.313 68.5786L23.8807 68.9064L23.564 69.0892L22.9963 68.7615Z" fill="black"/>
<path d="M22.9963 70.2851L23.313 70.1023L23.8807 70.43L23.564 70.6129L22.9963 70.2851Z" fill="black"/>
<path d="M21.1584 68.7615L21.4751 68.5786L22.0428 68.9064L21.7261 69.0892L21.1584 68.7615Z" fill="black"/>
<path d="M23.5725 67.5117L23.8892 67.3289L24.4568 67.6566L24.1401 67.8395L23.5725 67.5117Z" fill="black"/>
<path d="M25.2844 67.5117L25.6011 67.3289L26.1688 67.6566L25.8521 67.8395L25.2844 67.5117Z" fill="black"/>
<path d="M25.2844 69.623L25.6011 69.4402L26.1688 69.7679L25.8521 69.9508L25.2844 69.623Z" fill="black"/>
<path d="M25.2844 71.3293L25.6011 71.1465L26.1688 71.4742L25.8521 71.6571L25.2844 71.3293Z" fill="black"/>
<path d="M26.3918 70.6904L26.7085 70.5076L27.2762 70.8353L26.9595 71.0182L26.3918 70.6904Z" fill="black"/>
<path d="M27.2136 71.8887L27.5303 71.7058L28.098 72.0336L27.7813 72.2164L27.2136 71.8887Z" fill="black"/>
<path d="M28.6345 71.8887L28.9512 71.7058L29.5189 72.0336L29.2022 72.2164L28.6345 71.8887Z" fill="black"/>
<path d="M28.7312 70.3594L29.0479 70.1765L29.6155 70.5043L29.2988 70.6871L28.7312 70.3594Z" fill="black"/>
<path d="M29.9753 71.4436L30.292 71.2607L30.8597 71.5885L30.543 71.7713L29.9753 71.4436Z" fill="black"/>
<path d="M31.3107 71.0669L31.6274 70.884L32.1951 71.2118L31.8784 71.3946L31.3107 71.0669Z" fill="black"/>
<path d="M30.4148 70.1709L30.7314 69.988L31.2991 70.3158L30.9824 70.4986L30.4148 70.1709Z" fill="black"/>
<path d="M28.3547 73.0986L28.6714 72.9158L29.1065 73.167L28.7898 73.3499L28.3547 73.0986Z" fill="black"/>
<path d="M25.2844 66.2561L25.6011 66.0732L26.1688 66.401L25.8521 66.5838L25.2844 66.2561Z" fill="black"/>
<path d="M27.2761 66.2561L27.5928 66.0732L28.1605 66.401L27.8438 66.5838L27.2761 66.2561Z" fill="black"/>
<path d="M29.114 67.312L29.4307 67.1292L29.9983 67.4569L29.6817 67.6397L29.114 67.312Z" fill="black"/>
<path d="M29.114 65.5256L29.4307 65.3428L29.9983 65.6705L29.6817 65.8534L29.114 65.5256Z" fill="black"/>
<path d="M27.2761 64.9663L27.5928 64.7834L28.1605 65.1112L27.8438 65.294L27.2761 64.9663Z" fill="black"/>
<path d="M31.1853 67.2207L31.502 67.0378L32.0696 67.3656L31.7529 67.5484L31.1853 67.2207Z" fill="black"/>
<path d="M29.9582 66.6213L30.2749 66.4385L30.8426 66.7662L30.5259 66.9491L29.9582 66.6213Z" fill="black"/>
<path d="M31.1853 68.1794L31.502 67.9966L32.0696 68.3243L31.7529 68.5072L31.1853 68.1794Z" fill="black"/>
<path d="M33.1478 67.0987L33.3623 66.9749L33.93 67.3026L33.7155 67.4264L33.1478 67.0987Z" fill="black"/>
<path d="M32.7033 68.4189L33.02 68.2361L33.5877 68.5638L33.271 68.7467L32.7033 68.4189Z" fill="black"/>
<path d="M34.4152 68.8298L34.7319 68.647L35.2996 68.9747L34.9829 69.1576L34.4152 68.8298Z" fill="black"/>
<path d="M31.1853 69.3664L31.502 69.1836L32.0696 69.5113L31.7529 69.6942L31.1853 69.3664Z" fill="black"/>
<path d="M32.675 69.623L32.9917 69.4402L33.5594 69.7679L33.2427 69.9508L32.675 69.623Z" fill="black"/>
<path fill-rule="evenodd" clip-rule="evenodd" d="M126.223 97.5417L135.346 112.727L126.223 107.459V97.5417Z" fill="#B61F28"/>
<path d="M128.291 106.882L128.608 107.065V107.721L128.291 107.538V106.882Z" fill="black"/>
<path d="M129.975 105.907L130.292 106.089V106.745L129.975 106.562V105.907Z" fill="black"/>
<path d="M128.365 103.116L128.682 103.299V103.954L128.365 103.771V103.116Z" fill="black"/>
<path fill-rule="evenodd" clip-rule="evenodd" d="M126.223 97.5417L127 98.5002V108L126.223 107.459V97.5417Z" fill="white"/>
<path d="M126.222 97.5431L124.579 96.5945V106.512L126.222 107.461V97.5431Z" fill="#849435"/>
<path d="M126.222 104.453L124.579 103.504V105.617L126.222 106.566V104.453Z" fill="#97CA3B"/>
<path d="M126.222 100.287L124.579 99.3384V100.604L126.222 101.552V100.287Z" fill="#97CA3B"/>
<path d="M141.221 86.9933L142.864 87.9419L126.231 97.545L124.588 96.5964L141.221 86.9933Z" fill="#84B235"/>
<path fill-rule="evenodd" clip-rule="evenodd" d="M142.869 87.9455L126.229 97.5541L135.352 112.729L151.967 103.128L142.869 87.9455Z" fill="#EC1C28"/>
<path fill-rule="evenodd" clip-rule="evenodd" d="M138.739 100.627L138.447 100.79L138.83 101.383L139.097 101.228L139.041 101.133L138.739 100.627Z" fill="black"/>
<path fill-rule="evenodd" clip-rule="evenodd" d="M135.081 98.5152L134.789 98.6783L135.171 99.2715L135.438 99.116L135.383 99.0215L135.081 98.5152Z" fill="black"/>
<path fill-rule="evenodd" clip-rule="evenodd" d="M142.197 102.624L141.905 102.787L142.288 103.38L142.555 103.225L142.499 103.13L142.197 102.624Z" fill="black"/>
<path fill-rule="evenodd" clip-rule="evenodd" d="M138.088 106.636L137.796 106.799L138.179 107.392L138.446 107.237L138.39 107.142L138.088 106.636Z" fill="black"/>
<path fill-rule="evenodd" clip-rule="evenodd" d="M131.999 103.12L131.707 103.283L132.09 103.877L132.357 103.721L132.302 103.627L131.999 103.12Z" fill="black"/>
<path fill-rule="evenodd" clip-rule="evenodd" d="M141.392 99.0916L141.1 99.2547L141.483 99.8479L141.75 99.6924L141.695 99.5979L141.392 99.0916Z" fill="black"/>
<path fill-rule="evenodd" clip-rule="evenodd" d="M143.475 92.3804L143.183 92.5435L143.566 93.1367L143.833 92.9812L143.778 92.8867L143.475 92.3804Z" fill="black"/>
<path fill-rule="evenodd" clip-rule="evenodd" d="M145.587 99.0916L145.295 99.2547L145.678 99.8479L145.945 99.6924L145.889 99.5979L145.587 99.0916Z" fill="black"/>
<path fill-rule="evenodd" clip-rule="evenodd" d="M140.536 96.1809L140.244 96.344L140.627 96.9372L140.894 96.7817L140.839 96.6873L140.536 96.1809Z" fill="black"/>
<path fill-rule="evenodd" clip-rule="evenodd" d="M142.869 87.9455L126.229 97.5541L126.964 98.7754L143.579 89.1744L142.869 87.9455Z" fill="white"/>
<path fill-rule="evenodd" clip-rule="evenodd" d="M57.8101 46.3049L55.003 52.4847L57.8101 54.1054V46.3049Z" fill="#5C8400"/>
<path fill-rule="evenodd" clip-rule="evenodd" d="M57.8101 46.3049L60.6171 52.4847L57.8101 54.1054V46.3049Z" fill="#527600"/>
<path fill-rule="evenodd" clip-rule="evenodd" d="M114.341 110.01L111.623 115.993L114.341 117.562V110.01Z" fill="#5C8400"/>
<path fill-rule="evenodd" clip-rule="evenodd" d="M114.341 110.01L117.058 115.993L114.341 117.562V110.01Z" fill="#527600"/>
<path fill-rule="evenodd" clip-rule="evenodd" d="M120.407 112.738L118.672 116.557L120.407 117.559V112.738Z" fill="#5C8400"/>
<path fill-rule="evenodd" clip-rule="evenodd" d="M120.407 112.738L122.142 116.557L120.407 117.559V112.738Z" fill="#527600"/>
<path fill-rule="evenodd" clip-rule="evenodd" d="M22.8164 87.304L21.025 91.2476L22.8164 92.2819V87.304Z" fill="#5C8400"/>
<path fill-rule="evenodd" clip-rule="evenodd" d="M22.8164 87.304L24.6078 91.2476L22.8164 92.2819V87.304Z" fill="#527600"/>
<path fill-rule="evenodd" clip-rule="evenodd" d="M35.2627 83.8286L33.4713 87.7723L35.2627 88.8065V83.8286Z" fill="#5C8400"/>
<path fill-rule="evenodd" clip-rule="evenodd" d="M35.2627 83.8286L37.0541 87.7723L35.2627 88.8065V83.8286Z" fill="#527600"/>
<path fill-rule="evenodd" clip-rule="evenodd" d="M36.7402 98.6418L34.6503 103.243L36.7402 104.45V98.6418Z" fill="#5C8400"/>
<path fill-rule="evenodd" clip-rule="evenodd" d="M36.7402 98.6418L38.8302 103.243L36.7402 104.45V98.6418Z" fill="#527600"/>
<path fill-rule="evenodd" clip-rule="evenodd" d="M40.8091 105.684L39.4148 108.754L40.8091 109.559V105.684Z" fill="#5C8400"/>
<path fill-rule="evenodd" clip-rule="evenodd" d="M40.8091 105.684L42.2034 108.754L40.8091 109.559V105.684Z" fill="#527600"/>
<path fill-rule="evenodd" clip-rule="evenodd" d="M48.0513 107.267L46.1797 111.387L48.0513 112.468V107.267Z" fill="#5C8400"/>
<path fill-rule="evenodd" clip-rule="evenodd" d="M48.0513 107.267L49.9228 111.387L48.0513 112.468V107.267Z" fill="#527600"/>
<path fill-rule="evenodd" clip-rule="evenodd" d="M55.1553 107.463L52.8151 112.615L55.1553 113.966V107.463Z" fill="#5C8400"/>
<path fill-rule="evenodd" clip-rule="evenodd" d="M55.1553 107.463L57.4954 112.615L55.1553 113.966V107.463Z" fill="#527600"/>
<path fill-rule="evenodd" clip-rule="evenodd" d="M62.3003 112.39L60.5592 116.223L62.3003 117.229V112.39Z" fill="#5C8400"/>
<path fill-rule="evenodd" clip-rule="evenodd" d="M62.3003 112.39L64.0414 116.223L62.3003 117.229V112.39Z" fill="#527600"/>
<path fill-rule="evenodd" clip-rule="evenodd" d="M45.2378 98.6306L42.4229 104.828L45.2378 106.453V98.6306Z" fill="#5C8400"/>
<path fill-rule="evenodd" clip-rule="evenodd" d="M45.2378 98.6306L48.0527 104.828L45.2378 106.453V98.6306Z" fill="#527600"/>
<path fill-rule="evenodd" clip-rule="evenodd" d="M42.4243 82.4314L40.8092 85.987L42.4243 86.9195V82.4314Z" fill="#5C8400"/>
<path fill-rule="evenodd" clip-rule="evenodd" d="M42.4243 82.4314L44.0394 85.987L42.4243 86.9195V82.4314Z" fill="#527600"/>
<path fill-rule="evenodd" clip-rule="evenodd" d="M50.1914 83.2966L47.4738 89.2795L50.1914 90.8485V83.2966Z" fill="#5C8400"/>
<path fill-rule="evenodd" clip-rule="evenodd" d="M50.1914 83.2966L52.909 89.2795L50.1914 90.8485V83.2966Z" fill="#527600"/>
<path fill-rule="evenodd" clip-rule="evenodd" d="M28.4316 82.3777L26.928 85.688L28.4316 86.5561V82.3777Z" fill="#5C8400"/>
<path fill-rule="evenodd" clip-rule="evenodd" d="M28.4316 82.3777L29.9353 85.688L28.4316 86.5561V82.3777Z" fill="#527600"/>
<path fill-rule="evenodd" clip-rule="evenodd" d="M37.0542 77.3958L35.5506 80.706L37.0542 81.5742V77.3958Z" fill="#5C8400"/>
<path fill-rule="evenodd" clip-rule="evenodd" d="M37.0542 77.3958L38.5578 80.706L37.0542 81.5742V77.3958Z" fill="#527600"/>
<path fill-rule="evenodd" clip-rule="evenodd" d="M29.7383 88.291L26.0042 96.5115L29.7383 98.6674V88.291Z" fill="#5C8400"/>
<path fill-rule="evenodd" clip-rule="evenodd" d="M29.7383 88.291L33.4723 96.5115L29.7383 98.6674V88.291Z" fill="#527600"/>
<path fill-rule="evenodd" clip-rule="evenodd" d="M19.9512 78.6511L17.0816 84.9685L19.9512 86.6252V78.6511Z" fill="#5C8400"/>
<path fill-rule="evenodd" clip-rule="evenodd" d="M19.9512 78.6511L22.8207 84.9685L19.9512 86.6252V78.6511Z" fill="#527600"/>
<path fill-rule="evenodd" clip-rule="evenodd" d="M39.5708 88.9976L36.7012 95.3149L39.5708 96.9717V88.9976Z" fill="#5C8400"/>
<path fill-rule="evenodd" clip-rule="evenodd" d="M39.5708 88.9976L42.4404 95.3149L39.5708 96.9717V88.9976Z" fill="#527600"/>
<path fill-rule="evenodd" clip-rule="evenodd" d="M47.9141 73.9546L45.1964 79.9375L47.9141 81.5065V73.9546Z" fill="#5C8400"/>
<path fill-rule="evenodd" clip-rule="evenodd" d="M47.9141 73.9546L50.6317 79.9375L47.9141 81.5065V73.9546Z" fill="#527600"/>
<path fill-rule="evenodd" clip-rule="evenodd" d="M118.672 108.954L117.672 111.158L118.672 111.735V108.954Z" fill="#5C8400"/>
<path fill-rule="evenodd" clip-rule="evenodd" d="M118.672 108.954L119.673 111.158L118.672 111.735V108.954Z" fill="#527600"/>
<path fill-rule="evenodd" clip-rule="evenodd" d="M117.508 91.5828L116.508 93.786L117.508 94.3638V91.5828Z" fill="#5C8400"/>
<path fill-rule="evenodd" clip-rule="evenodd" d="M117.508 91.5828L118.509 93.786L117.508 94.3638V91.5828Z" fill="#527600"/>
<path fill-rule="evenodd" clip-rule="evenodd" d="M115.254 93.9453L114.253 96.1485L115.254 96.7263V93.9453Z" fill="#5C8400"/>
<path fill-rule="evenodd" clip-rule="evenodd" d="M115.254 93.9453L116.255 96.1485L115.254 96.7263V93.9453Z" fill="#527600"/>
<path fill-rule="evenodd" clip-rule="evenodd" d="M111.436 95.0867L110.435 97.2899L111.436 97.8677V95.0867Z" fill="#5C8400"/>
<path fill-rule="evenodd" clip-rule="evenodd" d="M111.436 95.0867L112.437 97.2899L111.436 97.8677V95.0867Z" fill="#527600"/>
<path fill-rule="evenodd" clip-rule="evenodd" d="M120.618 98.5676L118.668 102.861L120.618 103.986V98.5676Z" fill="#5C8400"/>
<path fill-rule="evenodd" clip-rule="evenodd" d="M120.618 98.5676L122.568 102.861L120.618 103.986V98.5676Z" fill="#527600"/>
<path fill-rule="evenodd" clip-rule="evenodd" d="M115.888 103.778L114.104 107.706L115.888 108.736V103.778Z" fill="#5C8400"/>
<path fill-rule="evenodd" clip-rule="evenodd" d="M115.888 103.778L117.672 107.706L115.888 108.736V103.778Z" fill="#527600"/>
<path fill-rule="evenodd" clip-rule="evenodd" d="M122.057 104.817L120.405 108.453L122.057 109.406V104.817Z" fill="#5C8400"/>
<path fill-rule="evenodd" clip-rule="evenodd" d="M122.057 104.817L123.708 108.453L122.057 109.406V104.817Z" fill="#527600"/>
<path fill-rule="evenodd" clip-rule="evenodd" d="M126.879 109.001L124.545 114.139L126.879 115.487V109.001Z" fill="#5C8400"/>
<path fill-rule="evenodd" clip-rule="evenodd" d="M126.879 109.001L129.213 114.139L126.879 115.487V109.001Z" fill="#527600"/>
</svg>
