<svg width="180" height="90" viewBox="0 0 180 90" fill="none" xmlns="http://www.w3.org/2000/svg">
<path fill-rule="evenodd" clip-rule="evenodd" d="M23.864 56.9193H28.9504L31.8253 53.9965L34.7001 56.9193H39.7667L31.8153 48.8354L23.864 56.9193ZM9 39.5004L17.5682 56.3192L22.7547 51.3017L16.5543 41.4788L9 39.5004ZM54.7339 39.4978L46.1658 56.3166L40.9793 51.2991L47.1798 41.4762L54.7339 39.4978ZM31.8184 33L23.2699 44.725L25.5513 48.5693L31.8184 42.391L38.0853 48.5693L40.3667 44.725L31.8184 33Z" fill="white"/>
<path d="M68.178 48.8799L67.3162 50.4213C67.1033 50.7983 66.8936 50.9952 66.6866 51.0119C66.4624 51.0283 66.2385 50.8308 66.0149 50.4184L62.9883 44.9033H64.3422L66.6859 49.2779L67.5277 47.7034L65.9971 44.9033H67.3444L69.6931 49.2815L72.0721 44.9033H73.4143L70.3202 50.4184C70.108 50.7973 69.8987 50.9952 69.6926 51.0119C69.4691 51.0283 69.2462 50.8308 69.0232 50.4193L68.178 48.8799Z" fill="white"/>
<path d="M79.5826 48.3879H76.1461V47.3434H79.5826V48.3879ZM75.7033 49.867H79.8505V50.9116H74.6582V44.9033H79.8505V45.9478H75.7033V49.867Z" fill="white"/>
<path d="M86.1992 49.867C86.5841 49.867 86.8907 49.7945 87.1193 49.6499C87.3198 49.5212 87.4205 49.3627 87.4205 49.1733C87.4205 48.984 87.3169 48.825 87.1106 48.6969C86.8876 48.5465 86.5841 48.471 86.1992 48.471H83.382V47.4265H86.1992C86.5841 47.4265 86.8876 47.3489 87.1106 47.1929C87.3169 47.0538 87.4205 46.8838 87.4205 46.6828C87.4205 46.4823 87.3198 46.3126 87.1193 46.1732C86.8907 46.0229 86.5841 45.9478 86.1992 45.9478H82.7716V49.867H86.1992ZM87.7966 47.9448C88.2199 48.2736 88.4317 48.6834 88.4317 49.1733C88.4317 49.6412 88.2314 50.0394 87.8297 50.3684C87.3892 50.7304 86.7901 50.9116 86.0323 50.9116H81.7266V44.9033H86.0323C86.7901 44.9033 87.3892 45.0899 87.8297 45.4629C88.2314 45.7976 88.4317 46.2065 88.4317 46.6915C88.4317 47.1872 88.2199 47.6051 87.7966 47.9448Z" fill="white"/>
<path d="M99.0108 49.242H96.1582L96.7949 48.1975H98.3866L97.3407 46.4674L94.628 50.922H93.2822L96.5431 45.4902C96.6487 45.3171 96.7854 45.1755 96.9527 45.0639C97.0971 44.9638 97.2257 44.9108 97.3371 44.9051C97.4601 44.8939 97.5963 44.9357 97.7469 45.0306C97.9196 45.1423 98.0648 45.2951 98.1815 45.4902L101.376 50.922H100.028L99.0108 49.242Z" fill="white"/>
<path d="M102.275 50.9116V44.9033H103.32V49.867H107.459V50.9116H102.275Z" fill="white"/>
<path d="M111.965 45.9478V50.9116H110.919V45.9478H108.545V44.9033H114.331V45.9478H111.965Z" fill="white"/>
<path d="M120.639 48.3879H117.203V47.3434H120.639V48.3879ZM116.76 49.867H120.907V50.9116H115.715V44.9033H120.907V45.9478H116.76V49.867Z" fill="white"/>
<path d="M129.77 50.9116H128.224L126.544 49.2232H124.287V48.1788H127.096C127.586 48.1788 127.959 48.0595 128.216 47.8197C128.439 47.6023 128.542 47.3352 128.526 47.0174C128.487 46.3044 128.011 45.9478 127.096 45.9478H123.668V50.9116H122.623V44.9033H126.937C127.846 44.9033 128.534 45.1237 129.002 45.5638C129.398 45.9317 129.605 46.4167 129.621 47.0184C129.637 47.4921 129.512 47.9105 129.245 48.2725C128.948 48.674 128.519 48.9498 127.955 49.1003L129.77 50.9116Z" fill="white"/>
<path d="M136.383 50.6107L132.528 46.7385V50.9116H131.483V45.4298C131.483 45.2681 131.524 45.1401 131.609 45.0453C131.692 44.9508 131.8 44.9033 131.935 44.9033C132.13 44.9033 132.328 45.0065 132.528 45.2124L136.383 49.073V44.9033H137.428V50.3935C137.428 50.7778 137.296 50.9702 137.035 50.9702C136.839 50.9702 136.622 50.8504 136.383 50.6107Z" fill="white"/>
<path d="M144.699 49.242H141.847L142.484 48.1975H144.075L143.029 46.4674L140.317 50.922H138.971L142.232 45.4902C142.337 45.3171 142.475 45.1755 142.641 45.0639C142.787 44.9638 142.914 44.9108 143.026 44.9051C143.149 44.8939 143.285 44.9357 143.436 45.0306C143.609 45.1423 143.754 45.2951 143.87 45.4902L147.064 50.922H145.717L144.699 49.242Z" fill="white"/>
<path d="M150.951 45.9478V50.9116H149.906V45.9478H147.531V44.9033H153.317V45.9478H150.951Z" fill="white"/>
<path d="M155.911 44.9033H154.866V50.9116H155.911V44.9033Z" fill="white"/>
<path d="M162.165 50.4184C161.925 50.7973 161.716 50.9952 161.538 51.0121C161.338 51.0283 161.111 50.831 160.861 50.4184L157.509 44.9033H158.859L161.54 49.364L164.245 44.9033H165.593L162.165 50.4184Z" fill="white"/>
<path d="M171.706 48.3879H168.27V47.3434H171.706V48.3879ZM167.827 49.867H171.975V50.9116H166.782V44.9033H171.975V45.9478H167.827V49.867Z" fill="white"/>
</svg>
