<svg width="51" height="51" viewBox="0 0 51 51" fill="none" xmlns="http://www.w3.org/2000/svg">
<path fill-rule="evenodd" clip-rule="evenodd" d="M3.0708 21.3889L19.9166 49.426L3.0708 39.7001L3.0708 21.3889Z" fill="#B61F28"/>
<path d="M6.88449 38.6314L7.46924 38.969V40.1793L6.88449 39.8417V38.6314Z" fill="black"/>
<path d="M9.99875 36.8338L10.5835 37.1714V38.3817L9.99875 38.0441V36.8338Z" fill="black"/>
<path d="M7.0261 31.6836L7.61084 32.0212V33.2316L7.0261 32.894V31.6836Z" fill="black"/>
<path fill-rule="evenodd" clip-rule="evenodd" d="M3.0708 21.3889L4.50003 23.5001L4.50003 40.5001L3.0708 39.7001L3.0708 21.3889Z" fill="white"/>
<path d="M3.06787 21.3909L0.0341797 19.6394L0.0341797 37.9513L3.06787 39.7028L3.06787 21.3909Z" fill="#849435"/>
<path d="M3.06787 34.1448L0.0341797 32.3933L0.0341797 36.2952L3.06787 38.0467L3.06787 34.1448Z" fill="#97CA3B"/>
<path d="M3.06787 26.4585L0.0341797 24.707L0.0341797 27.0431L3.06787 28.7946L3.06787 26.4585Z" fill="#97CA3B"/>
<path d="M30.7559 1.91476L33.7896 3.66626L3.0782 21.3975L0.0445073 19.646L30.7559 1.91476Z" fill="#84B235"/>
<path fill-rule="evenodd" clip-rule="evenodd" d="M33.7993 3.66796L3.0752 21.4093L19.9209 49.4277L50.5986 31.7004L33.7993 3.66796Z" fill="#EC1C28"/>
<path fill-rule="evenodd" clip-rule="evenodd" d="M26.1748 27.0808L25.6353 27.382L26.3422 28.4772L26.8352 28.1901L26.7329 28.0157L26.1748 27.0808Z" fill="black"/>
<path fill-rule="evenodd" clip-rule="evenodd" d="M19.4248 23.1836L18.8853 23.4847L19.5922 24.58L20.0852 24.2929L19.9829 24.1185L19.4248 23.1836Z" fill="black"/>
<path fill-rule="evenodd" clip-rule="evenodd" d="M32.5606 30.7678L32.021 31.069L32.728 32.1642L33.221 31.8771L33.1187 31.7027L32.5606 30.7678Z" fill="black"/>
<path fill-rule="evenodd" clip-rule="evenodd" d="M24.9766 38.1773L24.437 38.4784L25.144 39.5737L25.637 39.2866L25.5347 39.1121L24.9766 38.1773Z" fill="black"/>
<path fill-rule="evenodd" clip-rule="evenodd" d="M13.7329 31.6863L13.1934 31.9874L13.9003 33.0827L14.3933 32.7956L14.291 32.6212L13.7329 31.6863Z" fill="black"/>
<path fill-rule="evenodd" clip-rule="evenodd" d="M31.0777 24.2512L30.5381 24.5524L31.245 25.6476L31.7381 25.3605L31.6358 25.1861L31.0777 24.2512Z" fill="black"/>
<path fill-rule="evenodd" clip-rule="evenodd" d="M34.9297 11.8562L34.3901 12.1573L35.0971 13.2526L35.5901 12.9655L35.4878 12.7911L34.9297 11.8562Z" fill="black"/>
<path fill-rule="evenodd" clip-rule="evenodd" d="M38.8189 24.2512L38.2793 24.5524L38.9863 25.6476L39.4793 25.3605L39.377 25.1861L38.8189 24.2512Z" fill="black"/>
<path fill-rule="evenodd" clip-rule="evenodd" d="M29.501 18.8709L28.9614 19.172L29.6684 20.2673L30.1614 19.9802L30.0591 19.8057L29.501 18.8709Z" fill="black"/>
<path fill-rule="evenodd" clip-rule="evenodd" d="M33.7993 3.66796L3.0752 21.4093L4.43324 23.6643L35.1109 5.93707L33.7993 3.66796Z" fill="white"/>
</svg>
