<svg width="134" height="150" viewBox="0 0 134 150" fill="none" xmlns="http://www.w3.org/2000/svg">
<g filter="url(#filter0_d)">
<path d="M64.183 25.3784V76.5605H115.365C115.365 48.2933 92.4502 25.3784 64.183 25.3784Z" fill="#7CB72E"/>
<path d="M115.365 76.5532H64.183L100.375 112.744C109.636 103.481 115.365 90.6874 115.365 76.5532Z" fill="#F4D7A5"/>
<path d="M64.183 45.876V76.5674C84.1576 76.5674 102.136 63.5926 105.146 45.876H64.183Z" fill="#658434"/>
<path d="M64.183 76.5532V127.735C78.3172 127.735 91.1124 122.007 100.375 112.745L64.183 76.5532Z" fill="#ECAC19"/>
<path d="M13 76.5532C13 90.6874 18.7287 103.481 27.9913 112.744L64.182 76.5532H13Z" fill="#7CB72E"/>
<path d="M64.1831 76.5532L27.9924 112.745C37.2549 122.007 50.0501 127.735 64.1831 127.735V76.5532Z" fill="#204C3D"/>
<path d="M95.177 32.9983H120.93C120.93 40.5018 115.757 45.8748 108.054 45.8748H95.682L95.177 32.9983Z" fill="#DC590C"/>
<path d="M64.1829 76.5532L15.986 59.3477C15.5211 60.6539 15.1168 61.9759 14.7587 63.31L14.7514 63.3076C14.7138 63.4496 14.681 63.5941 14.6434 63.7373C14.5681 64.0299 14.4953 64.3237 14.4236 64.6175C14.3739 64.8287 14.3241 65.0412 14.2767 65.2524C14.193 65.6166 14.1141 65.9819 14.0388 66.3486C14.0072 66.5039 13.9769 66.6581 13.9465 66.8135C13.8676 67.2226 13.7924 67.6329 13.7232 68.0433C13.7013 68.1707 13.6807 68.297 13.66 68.4245C13.5908 68.8494 13.5277 69.2755 13.4695 69.7016C13.4525 69.8302 13.4355 69.9589 13.4185 70.0876C13.3663 70.4991 13.3189 70.9107 13.2764 71.3234C13.2594 71.4849 13.2437 71.6451 13.2279 71.8066C13.2097 72.0069 13.1854 72.2072 13.1696 72.4075L13.1793 72.4087C13.0652 73.7878 13.0021 75.1705 13.0021 76.5532H64.1829Z" fill="#ECAC19"/>
<path d="M36.2951 5.00293C35.8909 17.4946 41.6293 27.5075 52.2977 32.9922C56.9544 35.6192 62.3384 37.1233 68.0659 37.1233H80.9849L80.2881 5.00293L36.2951 5.00293Z" fill="#204C3D"/>
<path d="M108.278 32.9905C108.278 48.448 95.7471 60.9785 80.2884 60.9785C64.831 60.9785 52.2992 48.448 52.2992 32.9905C52.2992 17.5319 64.831 5.0001 80.2884 5.0001C95.7471 5.0001 108.278 17.5319 108.278 32.9905Z" fill="#7CB72E"/>
<path d="M108.278 32.9851C102.829 23.1167 92.3394 16.4326 80.2884 16.4326C68.2361 16.4326 57.7463 23.1167 52.298 32.9851H108.278Z" fill="white"/>
<path d="M100.233 32.9938C100.233 35.6305 98.0951 37.7683 95.4584 37.7683C92.8217 37.7683 90.6839 35.6305 90.6839 32.9938C90.6839 30.357 92.8217 28.2193 95.4584 28.2193C98.0951 28.2193 100.233 30.357 100.233 32.9938Z" fill="#204C3D"/>
</g>
<defs>
<filter id="filter0_d" x="0.103992" y="0.701331" width="133.722" height="148.527" filterUnits="userSpaceOnUse" color-interpolation-filters="sRGB">
<feFlood flood-opacity="0" result="BackgroundImageFix"/>
<feColorMatrix in="SourceAlpha" type="matrix" values="0 0 0 0 0 0 0 0 0 0 0 0 0 0 0 0 0 0 127 0"/>
<feOffset dy="8.59734"/>
<feGaussianBlur stdDeviation="6.448"/>
<feColorMatrix type="matrix" values="0 0 0 0 0 0 0 0 0 0 0 0 0 0 0 0 0 0 0.2 0"/>
<feBlend mode="normal" in2="BackgroundImageFix" result="effect1_dropShadow"/>
<feBlend mode="normal" in="SourceGraphic" in2="effect1_dropShadow" result="shape"/>
</filter>
</defs>
</svg>
