<svg width="184" height="209" viewBox="0 0 184 209" fill="none" xmlns="http://www.w3.org/2000/svg">
<path d="M96.7428 34.741V121.997H9.48729C9.48729 73.8064 48.5527 34.741 96.7428 34.741Z" fill="#7CB72E"/>
<path d="M9.48729 121.985H96.7428L35.0424 183.683C19.2536 167.892 9.48729 146.081 9.48729 121.985Z" fill="#F4D7A5"/>
<path d="M96.7428 69.6853V122.008C62.69 122.008 32.0395 99.8887 26.909 69.6853H96.7428Z" fill="#658434"/>
<path d="M96.7428 121.985V209.241C72.6467 209.241 50.8333 199.474 35.0424 183.685L96.7428 121.985Z" fill="#ECAC19"/>
<path d="M184 121.985C184 146.081 174.234 167.892 158.443 183.683L96.7444 121.985H184Z" fill="#7CB72E"/>
<path d="M96.7429 121.985L158.441 183.685C142.65 199.474 120.837 209.241 96.7429 209.241V121.985Z" fill="#204C3D"/>
<path d="M43.904 47.7315H-1.79194e-05C-1.79194e-05 60.5236 8.81845 69.6835 21.952 69.6835H43.0431L43.904 47.7315Z" fill="#DC590C"/>
<path d="M96.7432 121.985L178.91 92.6524C179.702 94.8793 180.391 97.133 181.002 99.4075L181.014 99.4033C181.079 99.6454 181.134 99.8917 181.199 100.136C181.327 100.635 181.451 101.136 181.573 101.636C181.658 101.997 181.743 102.359 181.824 102.719C181.966 103.34 182.101 103.963 182.229 104.588C182.283 104.853 182.335 105.115 182.387 105.38C182.521 106.078 182.649 106.777 182.767 107.477C182.805 107.694 182.84 107.909 182.875 108.127C182.993 108.851 183.101 109.577 183.2 110.304C183.229 110.523 183.258 110.743 183.287 110.962C183.376 111.664 183.456 112.365 183.529 113.069C183.558 113.344 183.585 113.617 183.612 113.893C183.643 114.234 183.684 114.575 183.711 114.917L183.695 114.919C183.889 117.27 183.997 119.627 183.997 121.985H96.7432Z" fill="#ECAC19"/>
<path d="M144.286 0.00457764C144.975 21.3006 135.193 38.3705 117.005 47.7209C109.066 52.1994 99.8876 54.7636 90.1233 54.7636H68.0988L69.2868 0.00457764H144.286Z" fill="#204C3D"/>
<path d="M21.5702 47.7183C21.5702 74.0702 42.9323 95.4324 69.2864 95.4324C95.6383 95.4324 117.003 74.0702 117.003 47.7183C117.003 21.3642 95.6383 -1.55887e-05 69.2864 -1.55887e-05C42.9323 -1.55887e-05 21.5702 21.3642 21.5702 47.7183Z" fill="#7CB72E"/>
<path d="M21.5703 47.709C30.8585 30.8854 48.7418 19.4902 69.2865 19.4902C89.8333 19.4902 107.717 30.8854 117.005 47.709H21.5703Z" fill="white"/>
<path d="M35.2848 47.7238C35.2848 52.2189 38.9293 55.8635 43.4244 55.8635C47.9196 55.8635 51.5641 52.2189 51.5641 47.7238C51.5641 43.2287 47.9196 39.5842 43.4244 39.5842C38.9293 39.5842 35.2848 43.2287 35.2848 47.7238Z" fill="#204C3D"/>
</svg>
