<svg width="661" height="381" viewBox="0 0 661 381" fill="none" xmlns="http://www.w3.org/2000/svg">
<path d="M584.809 208.157C546.988 186.321 502.089 169 452.674 157.182C403.257 145.365 350.294 139.282 296.808 139.283C243.321 139.282 190.359 145.365 140.942 157.182C91.5278 168.999 46.6277 186.321 8.80676 208.157L296.808 374.435L584.809 208.157Z" fill="#AF73EF"/>
<path d="M162.834 200.961L142.178 212.886L79.9844 206.334L116.756 227.564L98.5971 238.048L19.1527 192.18L37.3114 181.696L71.813 201.616L61.5987 167.674L82.2542 155.749L94.1709 193.556L162.834 200.961ZM148.191 117.68L166.349 107.196L199.489 152.801C209.174 166.169 205.845 177.089 189.502 185.564L172.478 175.735C180.498 171.891 183.184 167.326 180.536 162.04L100.524 145.201L118.683 134.717L168.96 145.79L148.191 117.68ZM307.826 97.0675L316.338 92.1531L349.024 111.024L330.865 121.508L315.657 112.728L275.935 135.661L291.143 144.442L272.984 154.926L240.298 136.055L248.356 131.402C246.541 125.549 239.845 119.28 228.268 112.597L192.632 92.0221L245.86 61.291L307.826 97.0675ZM267.65 120.263L289.668 107.551L244.725 81.6036L227.814 91.3668L246.654 102.244C257.928 108.753 264.926 114.759 267.65 120.263ZM411.602 57.3341L395.145 52.4198L365.638 69.4562L374.149 78.9573L354.288 90.4241L301.855 28.962L325.007 15.5949L431.463 45.8673L411.602 57.3341ZM354.061 56.4823L372.674 45.7363L334.2 34.2695L354.061 56.4823ZM251.584 282.604C239.705 289.463 225.897 292.892 210.16 292.892C194.422 292.804 180.69 289.375 168.962 282.604C157.235 275.834 151.333 267.927 151.257 258.885C151.182 249.755 157.083 241.761 168.962 234.902C176.074 230.796 184.321 227.957 193.703 226.384C203.01 224.768 212.24 224.593 221.395 225.86L214.813 240.144C209.97 239.358 205.09 239.424 200.172 240.341C195.179 241.215 190.677 242.809 186.667 245.124C179.63 249.187 176.15 253.686 176.226 258.622C176.377 263.515 180.009 268.014 187.121 272.12C194.233 276.227 202.026 278.323 210.5 278.411C219.05 278.455 226.843 276.445 233.879 272.383C237.89 270.067 240.651 267.468 242.164 264.585C243.753 261.658 243.867 258.841 242.505 256.132L267.246 252.332C269.516 257.574 269.289 262.903 266.565 268.32C263.766 273.693 258.772 278.455 251.584 282.604ZM364.127 215.793L343.471 227.719L307.154 222.215L316.687 243.183L296.032 255.108L279.008 217.89L217.722 208.586L238.378 196.66L271.631 201.705L262.892 182.507L283.547 170.581L299.663 205.965L364.127 215.793ZM433.552 163.785C433.476 173.002 427.688 180.931 416.188 187.57C404.687 194.21 390.955 197.552 374.99 197.596C359.026 197.639 345.218 194.298 333.566 187.57C321.914 180.843 316.126 172.871 316.201 163.654C316.277 154.437 322.065 146.508 333.566 139.868C345.066 133.229 358.799 129.887 374.763 129.843C390.728 129.799 404.536 133.141 416.188 139.868C427.84 146.596 433.628 154.568 433.552 163.785ZM375.331 183.115C384.183 183.071 391.901 181.149 398.483 177.349C405.066 173.548 408.357 169.114 408.357 164.047C408.433 158.936 404.99 154.371 398.029 150.352C391.068 146.334 383.162 144.346 374.309 144.39C365.533 144.39 357.853 146.29 351.27 150.09C344.688 153.891 341.359 158.346 341.283 163.457C341.283 168.525 344.764 173.068 351.724 177.086C358.685 181.105 366.554 183.115 375.331 183.115ZM516.793 107.47L525.305 102.555L557.991 121.426L539.832 131.91L524.624 123.13L484.902 146.064L500.11 154.844L481.951 165.328L449.265 146.457L457.323 141.805C455.507 135.951 448.811 129.683 437.235 122.999L401.599 102.424L454.826 71.6932L516.793 107.47ZM476.617 130.665L498.634 117.954L453.691 92.0058L436.781 101.769L455.621 112.646C466.894 119.155 473.893 125.161 476.617 130.665ZM369.843 343.542L326.716 318.643L339.2 361.234L325.581 369.097L246.137 323.23L264.295 312.746L307.422 337.645L294.938 295.054L308.557 287.191L388.002 333.058L369.843 343.542ZM398.085 235.502L415.563 245.593L395.134 257.387L457.101 293.164L438.942 303.648L376.976 267.871L356.547 279.666L339.069 269.575L398.085 235.502ZM483.653 214.93C491.446 210.431 500.677 208.159 511.345 208.116C522.014 208.072 531.131 210.234 538.697 214.603C546.263 218.971 550.008 224.235 549.933 230.394C549.857 236.553 545.923 241.883 538.129 246.382L508.054 263.746L428.61 217.879L446.768 207.395L471.737 221.81L483.653 214.93ZM521.106 236.553C523.905 234.937 525.229 233.037 525.078 230.853C524.927 228.668 523.413 226.746 520.538 225.086C517.663 223.426 514.334 222.553 510.551 222.465C506.768 222.378 503.477 223.143 500.677 224.759L488.76 231.639L509.189 243.433L521.106 236.553ZM583.955 187.162C581.533 185.765 579.831 184.083 578.847 182.117C577.864 180.064 577.41 178.055 577.486 176.089C577.561 174.036 577.675 172.048 577.826 170.126C578.053 168.16 577.864 166.304 577.259 164.556C576.729 162.765 575.556 161.346 573.74 160.297C569.352 157.764 564.358 158.113 558.759 161.346C553.312 164.491 552.404 168.685 556.036 173.926L531.408 177.792C528.154 173.031 527.473 168.27 529.365 163.508C531.256 158.659 535.38 154.4 541.736 150.731C548.696 146.712 556.792 144.397 566.023 143.785C575.254 143.174 583.349 144.877 590.31 148.896C593.412 150.687 595.682 152.74 597.12 155.055C598.633 157.327 599.427 159.533 599.503 161.673C599.654 163.77 599.617 165.801 599.39 167.767C599.238 169.689 599.276 171.458 599.503 173.075C599.806 174.647 600.676 175.849 602.113 176.679L583.955 187.162ZM627.422 192.994C627.422 195.44 625.947 197.515 622.996 199.219C620.045 200.923 616.451 201.774 612.214 201.774C607.977 201.774 604.383 200.923 601.432 199.219C598.482 197.515 597.006 195.44 597.006 192.994C597.006 190.548 598.482 188.473 601.432 186.769C604.383 185.066 607.977 184.214 612.214 184.214C616.451 184.214 620.045 185.066 622.996 186.769C625.947 188.473 627.422 190.548 627.422 192.994Z" fill="#2F4D42"/>
</svg>
