<svg width="746" height="431" viewBox="0 0 746 431" fill="none" xmlns="http://www.w3.org/2000/svg">
<path d="M726.742 217.531C679.855 190.461 624.195 168.988 562.935 154.338C501.673 139.688 436.015 132.147 369.709 132.148C303.402 132.147 237.744 139.688 176.483 154.338C115.224 168.987 59.5621 190.461 12.6758 217.531L369.709 423.664L726.742 217.531Z" fill="#7CB72E"/>
<path d="M75.1109 169.121L97.6222 156.124L196.109 212.986L173.598 225.983L139.268 206.162C135.985 210.44 131.436 214.258 125.62 217.616C115.49 223.464 104.235 226.714 91.8537 227.363C79.4725 227.905 68.2638 225.279 58.2275 219.484L23.0537 199.177L45.5649 186.18L77.3621 204.538C81.7705 207.083 86.4134 208.356 91.2909 208.356C96.0745 208.301 100.483 207.11 104.516 204.781C110.425 201.37 114.74 197.633 117.46 193.572L75.1109 169.121ZM191.945 101.667L213.612 114.176L188.287 128.798L265.107 173.15L242.596 186.146L165.776 141.795L140.451 156.416L118.784 143.907L191.945 101.667ZM376.488 94.0601C376.394 105.486 369.218 115.315 354.961 123.547C340.704 131.778 323.68 135.921 303.889 135.975C284.098 136.029 266.98 131.886 252.535 123.547C238.09 115.207 230.915 105.324 231.009 93.8976C231.103 82.4712 238.278 72.6423 252.535 64.411C266.792 56.1796 283.816 52.0369 303.607 51.9827C323.399 51.9286 340.516 56.0713 354.961 64.411C369.406 72.7506 376.581 82.6337 376.488 94.0601ZM304.311 118.023C315.285 117.969 324.852 115.586 333.013 110.875C341.173 106.163 345.253 100.667 345.253 94.385C345.347 88.049 341.079 82.39 332.45 77.4078C323.821 72.4257 314.019 69.9617 303.045 70.0159C292.164 70.0159 282.644 72.3716 274.484 77.0829C266.323 81.7943 262.196 87.318 262.102 93.6539C262.102 99.9357 266.417 105.568 275.046 110.55C283.676 115.532 293.431 118.023 304.311 118.023ZM343.979 290.073L318.373 304.857L241.272 296.734L286.857 323.053L264.346 336.05L165.859 279.188L188.371 266.192L231.142 290.886L218.479 248.808L244.086 234.024L258.859 280.894L343.979 290.073ZM315.993 192.509L338.504 179.512L379.587 236.048C391.593 252.619 387.466 266.158 367.206 276.663L346.102 264.479C356.044 259.713 359.374 254.054 356.091 247.502L256.901 226.625L279.412 213.629L341.74 227.356L315.993 192.509ZM434.318 124.194L532.804 181.055L510.293 194.052L433.474 149.7L403.928 166.759L480.747 211.11L458.236 224.107L359.749 167.246L434.318 124.194ZM459.912 385.6L406.448 354.733L421.925 407.532L405.041 417.28L306.555 360.419L329.066 347.422L382.53 378.289L367.053 325.49L383.937 315.742L482.423 372.603L459.912 385.6ZM478.283 261.271L499.95 273.781L474.625 288.402L551.444 332.754L528.933 345.751L452.113 301.399L426.788 316.021L405.121 303.511L478.283 261.271ZM567.72 245.377C577.381 239.799 588.824 236.983 602.049 236.929C615.275 236.874 626.577 239.555 635.957 244.97C645.336 250.386 649.979 256.911 649.886 264.547C649.792 272.183 644.914 278.789 635.253 284.367L597.969 305.893L499.482 249.032L521.994 236.035L552.947 253.906L567.72 245.377ZM614.149 272.183C617.619 270.179 619.261 267.823 619.073 265.115C618.886 262.408 617.01 260.025 613.445 257.967C609.881 255.909 605.754 254.826 601.064 254.718C596.374 254.61 592.294 255.557 588.824 257.561L574.051 266.09L599.376 280.712L614.149 272.183Z" fill="#2F4D42"/>
<path d="M663.03 225.791C660.029 224.058 657.918 221.973 656.699 219.537C655.479 216.991 654.917 214.5 655.01 212.063C655.104 209.518 655.245 207.054 655.433 204.671C655.714 202.235 655.479 199.933 654.729 197.767C654.073 195.547 652.619 193.787 650.368 192.487C644.927 189.346 638.737 189.779 631.796 193.787C625.042 197.686 623.917 202.884 628.419 209.383L597.888 214.175C593.855 208.273 593.011 202.37 595.356 196.467C597.701 190.456 602.813 185.176 610.692 180.627C619.321 175.645 629.357 172.775 640.8 172.017C652.243 171.259 662.28 173.371 670.909 178.353C674.755 180.573 677.569 183.118 679.351 185.988C681.227 188.804 682.212 191.539 682.305 194.193C682.493 196.792 682.446 199.31 682.165 201.747C681.977 204.13 682.024 206.323 682.305 208.327C682.681 210.276 683.759 211.766 685.541 212.794L663.03 225.791ZM716.916 233.021C716.916 236.053 715.087 238.626 711.429 240.738C707.771 242.85 703.316 243.906 698.063 243.906C692.811 243.906 688.355 242.85 684.697 240.738C681.039 238.626 679.21 236.053 679.21 233.021C679.21 229.988 681.039 227.416 684.697 225.304C688.355 223.192 692.811 222.136 698.063 222.136C703.316 222.136 707.771 223.192 711.429 225.304C715.087 227.416 716.916 229.988 716.916 233.021Z" fill="#2F4D42"/>
</svg>
