<svg width="86" height="152" viewBox="0 0 86 152" fill="none" xmlns="http://www.w3.org/2000/svg">
<path d="M38.5695 48.6769V85.17L6.96546 103.417C6.96546 83.2619 21.115 58.7543 38.5695 48.6769Z" fill="#629024"/>
<path d="M6.96546 103.427L38.5695 85.1801L16.2215 123.887C10.5028 120.584 6.96546 113.504 6.96546 103.427Z" fill="#EFC379"/>
<path d="M38.5695 85.1801V121.673C29.8418 126.712 21.941 127.189 16.2215 123.888L38.5695 85.1801Z" fill="#ECAC19"/>
<path d="M70.171 66.9285C70.171 77.0063 66.6336 88.1708 60.9142 98.0772L38.567 85.1751L70.171 66.9285Z" fill="#7CB72E"/>
<path d="M38.5693 85.1693L60.9165 98.0722C55.197 107.978 47.2962 116.624 38.5693 121.662V85.1693Z" fill="#204C3D"/>
<path d="M38.5678 85.1797L68.3285 55.7297C68.6156 56.4953 68.8652 57.2937 69.0863 58.1173L69.0908 58.113C69.1141 58.2008 69.1343 58.2922 69.1576 58.3809C69.204 58.5626 69.249 58.7462 69.2932 58.9301C69.324 59.063 69.3547 59.1967 69.3839 59.3304C69.4357 59.5602 69.4844 59.7926 69.5309 60.0272C69.5504 60.1267 69.5691 60.2258 69.5878 60.3258C69.6366 60.5894 69.683 60.8551 69.7258 61.123C69.7392 61.2061 69.752 61.2888 69.7647 61.3723C69.8075 61.6506 69.8464 61.9319 69.8824 62.2149C69.8929 62.3006 69.9034 62.3863 69.9139 62.472C69.9461 62.7468 69.9754 63.0234 70.0016 63.3025C70.0121 63.4116 70.0219 63.5202 70.0316 63.6297C70.0428 63.766 70.0578 63.9002 70.0676 64.0374L70.0616 64.0417C70.132 64.9843 70.171 65.9477 70.171 66.9335L38.5678 85.1797Z" fill="#ECAC19"/>
<path d="M19.4304 65.167L3.52835 74.3481C3.52835 79.6981 6.72241 81.685 11.4794 78.9386L19.1186 74.5281L19.4304 65.167Z" fill="#DC590C"/>
<path d="M55.7892 24.2142C56.0388 32.9767 52.4954 42.1617 45.9079 49.8756C43.0324 53.4089 39.7079 56.4007 36.1713 58.4426L28.194 63.0482L28.6243 39.8978L55.7892 24.2142Z" fill="#204C3D"/>
<path d="M11.3412 69.8314C11.3412 80.8526 19.0786 85.3198 28.624 79.8087C38.1687 74.2981 45.9069 60.8961 45.9069 49.8748C45.9069 38.8527 38.1687 34.3851 28.624 39.8958C19.0786 45.4068 11.3412 58.8092 11.3412 69.8314Z" fill="#659526"/>
<path d="M11.6682 69.6415L3.52979 74.3402L19.3323 83.4637L27.4707 78.765L11.6682 69.6415Z" fill="#B0470A"/>
<path fill-rule="evenodd" clip-rule="evenodd" d="M3.52883 74.3353C3.52883 74.3353 3.58169 75.6347 3.67696 76.195C3.7574 76.661 3.9262 77.2642 4.10237 77.6976C4.23247 78.0182 4.56878 78.6118 4.82566 78.9341C4.98517 79.1331 5.64248 79.6304 5.64248 79.6304L21.5208 88.7977L25.0497 86.7603L3.52883 74.3353Z" fill="#8F3A08"/>
<path fill-rule="evenodd" clip-rule="evenodd" d="M71.5895 33.3302L55.7877 24.206L29.6638 39.2887L45.4659 48.4119L71.5895 33.3302Z" fill="#204C3D"/>
<path fill-rule="evenodd" clip-rule="evenodd" d="M84.1327 64.8445L68.3281 55.7228L54.3719 69.5102V94.2936L84.1327 64.8445Z" fill="#CE9511"/>
<path fill-rule="evenodd" clip-rule="evenodd" d="M22.7658 112.539L6.9646 103.416L14.8651 89.7328L26.8628 91.9272L30.6654 98.8552L22.7658 112.537" fill="#629024"/>
<path fill-rule="evenodd" clip-rule="evenodd" d="M32.0244 132.998L16.2225 123.875L22.7682 112.537L32.0244 132.998Z" fill="#EFC379"/>
<path d="M54.3685 57.8163V94.3094L22.7645 112.556C22.7645 92.4013 36.914 67.8937 54.3685 57.8163Z" fill="#7CB72E"/>
<path d="M22.7645 112.553L54.3685 94.3059L32.0206 133.013C26.3019 129.71 22.7645 122.63 22.7645 112.553Z" fill="#F4D7A5"/>
<path d="M54.3685 72.423V94.3062C42.0346 101.427 30.9329 98.5856 29.0747 87.0264L54.3685 72.423Z" fill="#658434"/>
<path d="M54.3685 94.3059V130.799C45.6409 135.838 37.7401 136.315 32.0206 133.014L54.3685 94.3059Z" fill="#ECAC19"/>
<path d="M85.9735 76.0543C85.9735 86.1321 82.4361 97.2966 76.7167 107.203L54.3695 94.3009L85.9735 76.0543Z" fill="#7CB72E"/>
<path d="M54.3684 94.3087L76.7156 107.212C70.9961 117.117 63.0953 125.763 54.3684 130.802V94.3087Z" fill="#204C3D"/>
<path d="M54.3703 94.3056L84.131 64.8555C84.4181 65.6211 84.6677 66.4196 84.8888 67.2432L84.8933 67.2388C84.9166 67.3267 84.9368 67.418 84.96 67.5067C85.0065 67.6885 85.0515 67.872 85.0957 68.056C85.1265 68.1888 85.1572 68.3226 85.1864 68.4563C85.2382 68.6861 85.2869 68.9185 85.3334 69.153C85.3528 69.2526 85.3716 69.3517 85.3903 69.4517C85.439 69.7152 85.4855 69.9809 85.5282 70.2488C85.5417 70.3319 85.5545 70.4146 85.5672 70.4981C85.61 70.7764 85.6489 71.0577 85.6849 71.3408C85.6954 71.4265 85.7059 71.5121 85.7164 71.5978C85.7486 71.8727 85.7779 72.1492 85.8041 72.4284C85.8146 72.5374 85.8243 72.6461 85.8341 72.7555C85.8453 72.8919 85.8603 73.026 85.8701 73.1632L85.8641 73.1675C85.9345 74.1101 85.9735 75.0735 85.9735 76.0594L54.3703 94.3056Z" fill="#ECAC19"/>
<path d="M35.2295 74.293L19.3274 83.4741C19.3274 88.8241 22.5215 90.811 27.2785 88.0646L34.9177 83.6541L35.2295 74.293Z" fill="#DC590C"/>
<path d="M71.5882 33.3401C71.8379 42.1027 68.2945 51.2877 61.707 59.0016C58.8315 62.5349 55.507 65.5267 51.9704 67.5685L43.9931 72.1742L44.4234 49.0238L71.5882 33.3401Z" fill="#204C3D"/>
<path d="M27.1403 78.9573C27.1403 89.9786 34.8776 94.4458 44.4231 88.9347C53.9678 83.4241 61.7059 70.022 61.7059 59.0008C61.7059 47.9787 53.9678 43.5111 44.4231 49.0217C34.8776 54.5328 27.1403 67.9352 27.1403 78.9573Z" fill="#7CB72E"/>
<path d="M27.1394 78.9523C30.5036 69.9738 36.9809 61.4683 44.4222 57.1721C51.8643 52.8754 58.3416 53.9015 61.7058 58.9954L27.1394 78.9523Z" fill="white"/>
<path d="M32.1096 76.0918C32.1096 77.9718 33.4297 78.734 35.0578 77.794C36.6859 76.854 38.006 74.5676 38.006 72.6876C38.006 70.8075 36.6859 70.0454 35.0578 70.9854C33.4297 71.9254 32.1096 74.2118 32.1096 76.0918Z" fill="#204C3D"/>
<path d="M48.5524 46.6379L71.329 33.4875" stroke="#204C3D" stroke-width="0.30411" stroke-miterlimit="1.5" stroke-linecap="round" stroke-linejoin="round"/>
</svg>
