<svg width="541" height="623" viewBox="0 0 541 623" fill="none" xmlns="http://www.w3.org/2000/svg">
<g filter="url(#filter0_d)">
<path d="M236.456 176.485L285.597 382.539L79.5561 431.677C52.4162 317.875 122.668 203.621 236.456 176.485Z" fill="#7AB62D"/>
<path d="M79.5635 431.706L285.604 382.569L174.646 563.006C128.473 534.615 93.1335 488.607 79.5635 431.706Z" fill="#F1D5A3"/>
<path d="M256.138 259.015L285.602 382.564C205.195 401.74 120.36 366.776 91.2377 298.341L256.138 259.015Z" fill="#658434"/>
<path d="M285.604 382.569L334.742 588.61C277.855 602.177 220.836 591.407 174.649 563.02L285.604 382.569Z" fill="#EAAA19"/>
<path d="M491.654 333.428C505.224 390.329 494.452 447.335 466.047 493.51L285.6 382.569L491.654 333.428Z" fill="#7AB62D"/>
<path d="M285.228 382.21L465.68 493.166C437.289 539.338 391.267 574.681 334.366 588.251L285.228 382.21Z" fill="#204C3D"/>
<path d="M285.619 382.586L463.127 267.047C466.256 271.868 469.16 276.802 471.876 281.826L471.901 281.805C472.194 282.346 472.458 282.893 472.751 283.433C473.329 284.546 473.906 285.659 474.484 286.771C474.883 287.569 475.285 288.381 475.684 289.179C476.371 290.563 477.034 291.968 477.679 293.362C477.957 293.966 478.232 294.556 478.509 295.159C479.223 296.716 479.912 298.293 480.59 299.888C480.795 300.375 481.004 300.875 481.209 301.362C481.883 303.002 482.561 304.658 483.196 306.322C483.391 306.826 483.582 307.317 483.776 307.821C484.384 309.432 484.978 311.047 485.54 312.654C485.754 313.303 485.979 313.935 486.19 314.569C486.466 315.352 486.742 316.134 487.007 316.934L486.965 316.944C488.753 322.383 490.333 327.885 491.66 333.449L285.619 382.586Z" fill="#EAAA19"/>
<path d="M133.034 67.6091C147.001 64.2781 148.507 79.9039 160.61 92.3824C168.937 100.968 188.424 103.176 195.652 116.417C203.796 130.498 210.569 147.409 215.015 166.055L225.044 208.107L169.148 219.042L133.034 67.6091Z" fill="#194033"/>
<path d="M133.034 67.6091C124.897 69.5496 118.484 74.2977 113.525 81.205C104.114 94.313 99.9438 115.197 99.1821 139.424C98.2695 155.664 99.8576 173.812 104.304 192.457L114.333 234.51L169.148 219.042L133.034 67.6091Z" fill="#204C3D"/>
<path d="M280.951 198.314C295.79 260.539 257.386 323.018 195.147 337.861C132.922 352.7 70.4399 314.281 55.6002 252.057C40.7605 189.832 79.1759 127.336 141.401 112.496C203.64 97.6529 266.111 136.089 280.951 198.314Z" fill="#7AB62D"/>
<path d="M151.062 147.747L154.471 132.27C155.674 126.807 159.689 122.395 165.014 120.684L192.349 111.898L168.255 106.269L141.772 108.793L118.025 118.248L99.601 131.851L126.971 129.267C132.188 128.774 137.308 130.913 140.624 134.972L151.062 147.747Z" fill="#204C3D"/>
<path d="M151.062 147.747L154.471 132.27C155.675 126.807 159.69 122.395 165.015 120.684L192.35 111.898L168.255 106.269L142.797 108.548L151.062 147.747Z" fill="#194033"/>
<mask id="mask0" mask-type="alpha" maskUnits="userSpaceOnUse" x="28" y="85" width="281" height="281">
<path d="M281.302 198.853C296.198 261.312 257.788 323.992 195.488 338.849C133.202 353.704 70.6248 315.107 55.7294 252.649C40.834 190.19 79.254 127.493 141.54 112.639C203.841 97.7809 266.407 136.395 281.302 198.853Z" fill="#7AB62D"/>
</mask>
<g mask="url(#mask0)">
<path d="M149.155 235.242C119.602 199.157 71.9059 179.789 22.8461 188.805C-26.2138 197.821 -63.9065 232.882 -78.6991 277.117L149.155 235.242Z" fill="white"/>
<path d="M412.257 160.031C379.094 127.234 329.635 112.957 281.786 127.052C233.937 141.147 200.116 179.956 190.028 225.494L412.257 160.031Z" fill="white"/>
<path d="M244.72 205.311C246.847 214.23 241.343 223.18 232.425 225.307C223.518 227.431 214.556 221.93 212.429 213.012C210.302 204.094 215.817 195.14 224.724 193.016C233.643 190.889 242.593 196.393 244.72 205.311Z" fill="#204C3D"/>
<path d="M124.5 233.982C126.627 242.9 121.123 251.851 112.205 253.978C103.298 256.102 94.3359 250.601 92.209 241.683C90.082 232.764 95.5973 223.811 104.504 221.687C113.422 219.56 122.373 225.063 124.5 233.982Z" fill="#204C3D"/>
<path d="M228.113 244.682L124.438 269.407C132.095 301.512 157.619 316.287 188.633 308.89C219.646 301.494 235.318 274.893 228.113 244.682Z" fill="#B94805"/>
<path d="M124.5 269.392L228.113 244.682C225.742 234.742 203.481 233.591 172.486 240.983C141.49 248.375 122.27 260.038 124.5 269.392Z" fill="#B94805"/>
<path d="M210.601 248.859L140.553 265.564C145.942 288.157 163.319 298.694 184.273 293.696C205.228 288.699 215.672 270.119 210.601 248.859Z" fill="#DC590C"/>
<path d="M154.571 253.638C157.03 253.512 158.284 253.064 160.308 251.625C159.685 249.848 158.15 249.16 156.433 249.763C154.717 250.365 153.985 251.966 154.571 253.638Z" fill="#151515"/>
<path d="M187.721 245.085C190.15 245.484 191.47 245.312 193.754 244.336C193.522 242.468 192.168 241.47 190.363 241.694C188.558 241.918 187.502 243.327 187.721 245.085Z" fill="#151515"/>
</g>
</g>
<defs>
<filter id="filter0_d" x="20.1497" y="51.5491" width="514.825" height="586.102" filterUnits="userSpaceOnUse" color-interpolation-filters="sRGB">
<feFlood flood-opacity="0" result="BackgroundImageFix"/>
<feColorMatrix in="SourceAlpha" type="matrix" values="0 0 0 0 0 0 0 0 0 0 0 0 0 0 0 0 0 0 127 0"/>
<feOffset dy="5.71723"/>
<feGaussianBlur stdDeviation="4.28792"/>
<feColorMatrix type="matrix" values="0 0 0 0 0 0 0 0 0 0 0 0 0 0 0 0 0 0 0.1 0"/>
<feBlend mode="normal" in2="BackgroundImageFix" result="effect1_dropShadow"/>
<feBlend mode="normal" in="SourceGraphic" in2="effect1_dropShadow" result="shape"/>
</filter>
</defs>
</svg>
