<svg width="779" height="450" viewBox="0 0 779 450" fill="none" xmlns="http://www.w3.org/2000/svg">
<path d="M713.699 243.807C666.837 216.751 611.204 195.289 549.976 180.646C488.746 166.004 423.122 158.467 356.849 158.468C290.577 158.467 224.953 166.004 163.723 180.646C102.496 195.288 46.8622 216.751 0 243.807L356.85 449.834L713.699 243.807Z" fill="#EA8119"/>
<path d="M190.937 256.853C204.308 254.882 215.83 256.771 225.788 262.52C234.607 267.612 238.732 273.443 237.879 280.013C237.025 286.583 231.62 292.825 221.52 298.656L179.557 322.883L79.9844 265.395L119.245 242.728C129.202 236.979 139.728 233.858 150.681 233.283C161.776 232.79 171.734 235.09 180.411 240.1C188.803 244.945 192.217 250.53 190.937 256.853ZM141.293 256.278L128.206 263.834L143.853 272.868L156.94 265.312C159.216 263.998 160.496 262.438 160.638 260.713C160.923 259.071 159.643 257.51 157.225 256.114C154.806 254.718 152.246 254.061 149.259 254.143C146.272 254.225 143.711 254.882 141.293 256.278ZM198.049 285.926C200.61 284.448 201.89 282.723 201.89 280.916C201.89 279.11 200.752 277.467 198.334 276.071C195.773 274.593 192.929 273.936 189.799 273.936C186.67 273.936 183.825 274.757 181.264 276.235L165.475 285.351L182.26 295.042L198.049 285.926Z" fill="#2F4D42"/>
<path d="M335.892 232.654L317.258 226.823L284.114 245.958L294.214 256.717L266.618 272.649L199.904 196.19L230.914 178.286L363.346 216.803L335.892 232.654ZM268.752 229.533L288.808 217.953L244.854 204.238L268.752 229.533Z" fill="#2F4D42"/>
<path d="M463.08 159.189L434.631 175.614L361.516 166.416L406.039 192.122L380.577 206.822L281.004 149.334L306.466 134.633L348.287 158.778L333.635 118.947L362.085 102.522L378.87 148.677L463.08 159.189Z" fill="#2F4D42"/>
<path d="M544.697 112.325L526.062 106.494L492.919 125.63L503.018 136.388L475.423 152.321L408.709 75.8611L439.719 57.9575L572.151 96.4747L544.697 112.325ZM477.556 109.204L497.613 97.6245L453.659 83.9094L477.556 109.204Z" fill="#2F4D42"/>
<path d="M275.739 316.643L301.059 302.024L400.632 359.513L375.312 374.131L337.047 352.039L309.025 368.218L347.289 390.31L321.827 405.011L222.254 347.522L247.716 332.822L284.558 354.092L312.581 337.913L275.739 316.643Z" fill="#2F4D42"/>
<path d="M476.401 318.042C461.465 326.665 444.111 330.936 424.339 330.854C404.709 330.854 387.354 326.583 372.561 318.042C357.767 309.501 350.37 299.482 350.228 288.066C350.228 276.733 357.625 266.713 372.561 258.09C381.522 252.916 392.049 249.302 403.997 247.331C415.946 245.36 427.61 245.196 439.275 246.839L429.886 266.877C424.481 265.892 418.933 265.974 413.101 266.877C407.269 267.945 402.148 269.752 397.454 272.462C389.488 277.061 385.505 282.153 385.648 287.82C385.79 293.651 389.773 298.742 397.881 303.424C405.989 308.105 414.808 310.404 424.765 310.404C434.58 310.486 443.542 308.269 451.508 303.67C456.202 300.96 459.331 298.003 461.038 294.554C462.745 291.269 462.745 287.984 461.038 284.863L495.889 279.525C498.734 286.259 498.592 293.076 495.178 299.81C491.764 306.709 485.505 312.786 476.401 318.042Z" fill="#2F4D42"/>
<path d="M591.203 249.442L541.132 220.534L556.068 269.728L536.296 281.143L436.723 223.655L462.185 208.954L512.256 237.863L497.32 188.669L516.95 177.336L616.523 234.824L591.203 249.442Z" fill="#2F4D42"/>
<path d="M697.375 188.216L647.304 159.308L662.24 208.501L642.467 219.917L542.895 162.428L568.357 147.728L618.428 176.636L603.492 127.443L623.122 116.109L722.695 173.597L697.375 188.216Z" fill="#2F4D42"/>
</svg>
