<svg width="45" height="45" viewBox="0 0 45 45" fill="none" xmlns="http://www.w3.org/2000/svg">
<g clip-path="url(#clip0)">
<path d="M37.8455 0.270404C37.485 -0.0901348 36.8948 -0.0901348 36.5343 0.270404L23.1556 13.6491C22.7951 14.0096 22.2049 14.0096 21.8444 13.6491L8.46596 0.270404C8.10542 -0.0901348 7.51528 -0.0901348 7.15474 0.270404L0.270404 7.15448C-0.0901348 7.51502 -0.0901348 8.10516 0.270404 8.4657L13.6491 21.8444C14.0096 22.2049 14.0096 22.7951 13.6491 23.1556L0.270404 36.5343C-0.0901348 36.8948 -0.0901348 37.485 0.270404 37.8455L7.15448 44.7296C7.51502 45.0901 8.10516 45.0901 8.4657 44.7296L21.8444 31.3509C22.2049 30.9904 22.7951 30.9904 23.1556 31.3509L36.534 44.7293C36.8946 45.0899 37.4847 45.0899 37.8453 44.7293L44.7293 37.8453C45.0899 37.4847 45.0899 36.8946 44.7293 36.534L31.3509 23.1556C30.9904 22.7951 30.9904 22.2049 31.3509 21.8444L44.7293 8.46596C45.0899 8.10542 45.0899 7.51528 44.7293 7.15474L37.8455 0.270404Z" fill="white"/>
</g>
<defs>
<clipPath id="clip0">
<rect width="45" height="45" fill="white"/>
</clipPath>
</defs>
</svg>
