<svg width="1920" height="1208" viewBox="0 0 1920 1208" fill="none" xmlns="http://www.w3.org/2000/svg">
<rect width="1920" height="1208" fill="white"/>
<g clip-path="url(#clip0)">
<path d="M-3.02551 1190.54C0.768199 1192.68 -9.01056 1200.33 -9.88086 1200.29C-10.6628 1200.25 -8.87234 1196.99 -9.66724 1196.77C-10.5221 1196.54 -17.4107 1199.59 -18.1541 1199.16C-18.8542 1198.75 -13.3515 1194.92 -13.75 1194.46C-14.1253 1194.02 -19.7683 1194.55 -19.8611 1194.12C-19.9754 1193.58 -6.81962 1188.39 -3.02551 1190.54Z" fill="#BD3E00"/>
<path d="M-2.33525 1189.99C-3.29107 1189.43 -4.71954 1189.27 -4.81683 1189.14C-4.93722 1188.98 -2.04583 1188.22 -0.615332 1189.04C0.815973 1189.85 -0.71586 1191.49 -0.96799 1191.44C-1.19701 1191.38 -1.37983 1190.54 -2.33525 1189.99Z" fill="#BD3E00"/>
<path d="M29.7001 1188.45C33.4938 1190.59 23.715 1198.24 22.8447 1198.2C22.0628 1198.16 23.8532 1194.9 23.0584 1194.68C22.2035 1194.45 15.3149 1197.5 14.5715 1197.07C13.8714 1196.66 19.3741 1192.83 18.9756 1192.37C18.6003 1191.93 12.9573 1192.46 12.8645 1192.03C12.7502 1191.49 25.906 1186.3 29.7001 1188.45Z" fill="#BD3E00"/>
<path d="M30.3903 1187.9C29.4345 1187.34 28.006 1187.18 27.9088 1187.05C27.7884 1186.89 30.6798 1186.13 32.1103 1186.95C33.5416 1187.76 32.0097 1189.4 31.7576 1189.35C31.5286 1189.29 31.3458 1188.45 30.3903 1187.9Z" fill="#BD3E00"/>
<path d="M33.7611 1169.28C37.5548 1171.43 27.7761 1179.08 26.9058 1179.04C26.1238 1179 27.9143 1175.73 27.1194 1175.52C26.2645 1175.29 19.3759 1178.34 18.6325 1177.91C17.9324 1177.5 23.4351 1173.67 23.0367 1173.21C22.6613 1172.77 17.0184 1173.3 16.9255 1172.87C16.8112 1172.33 29.967 1167.14 33.7611 1169.28Z" fill="#BD3E00"/>
<path d="M34.4514 1168.73C33.4955 1168.18 32.0671 1168.01 31.9698 1167.88C31.8494 1167.72 34.7408 1166.97 36.1713 1167.78C37.6026 1168.6 36.0708 1170.24 35.8186 1170.18C35.5896 1170.13 35.4068 1169.29 34.4514 1168.73Z" fill="#BD3E00"/>
<path d="M66.4872 1167.19C70.2809 1169.34 60.5021 1176.99 59.6318 1176.95C58.8499 1176.91 60.6404 1173.64 59.8455 1173.43C58.9906 1173.2 52.102 1176.25 51.3586 1175.82C50.6585 1175.41 56.1612 1171.58 55.7627 1171.12C55.3874 1170.68 49.7444 1171.21 49.6516 1170.78C49.5373 1170.24 62.6931 1165.05 66.4872 1167.19Z" fill="#BD3E00"/>
<path d="M67.177 1166.64C66.2211 1166.09 64.7927 1165.92 64.6954 1165.79C64.575 1165.63 67.4664 1164.88 68.8969 1165.69C70.3282 1166.51 68.7963 1168.15 68.5442 1168.09C68.3152 1168.04 68.1324 1167.2 67.177 1166.64Z" fill="#BD3E00"/>
<path d="M70.5087 1148.07C74.3024 1150.22 64.5236 1157.87 63.6533 1157.83C62.8714 1157.79 64.6618 1154.52 63.8669 1154.31C63.0121 1154.07 56.1235 1157.12 55.38 1156.69C54.68 1156.29 60.1827 1152.46 59.7842 1152C59.4089 1151.56 53.7659 1152.09 53.6731 1151.65C53.5588 1151.12 66.7146 1145.92 70.5087 1148.07Z" fill="#BD3E00"/>
<path d="M71.1984 1147.52C70.2426 1146.96 68.8141 1146.8 68.7169 1146.67C68.5965 1146.51 71.4879 1145.75 72.9184 1146.57C74.3497 1147.39 72.8178 1149.03 72.5657 1148.97C72.3367 1148.92 72.1539 1148.08 71.1984 1147.52Z" fill="#BD3E00"/>
<path d="M103.195 1145.98C106.989 1148.13 97.2101 1155.78 96.3398 1155.74C95.5579 1155.7 97.3484 1152.43 96.5535 1152.22C95.6986 1151.98 88.81 1155.03 88.0666 1154.6C87.3665 1154.2 92.8692 1150.37 92.4707 1149.91C92.0954 1149.47 86.4524 1150 86.3596 1149.56C86.2453 1149.03 99.4011 1143.83 103.195 1145.98Z" fill="#BD3E00"/>
<path d="M103.885 1145.43C102.929 1144.87 101.501 1144.71 101.403 1144.58C101.283 1144.42 104.174 1143.66 105.605 1144.48C107.036 1145.3 105.504 1146.94 105.252 1146.88C105.023 1146.83 104.84 1145.99 103.885 1145.43Z" fill="#BD3E00"/>
<path d="M107.335 1126.82C111.129 1128.97 101.35 1136.61 100.48 1136.57C99.6981 1136.54 101.489 1133.27 100.694 1133.05C99.8387 1132.82 92.9501 1135.87 92.2067 1135.44C91.5067 1135.04 97.0093 1131.21 96.6109 1130.74C96.2355 1130.31 90.5926 1130.84 90.4998 1130.4C90.3854 1129.86 103.541 1124.67 107.335 1126.82Z" fill="#BD3E00"/>
<path d="M108.025 1126.27C107.069 1125.71 105.641 1125.55 105.544 1125.42C105.423 1125.26 108.315 1124.5 109.745 1125.32C111.176 1126.14 109.644 1127.78 109.392 1127.72C109.163 1127.67 108.981 1126.83 108.025 1126.27Z" fill="#BD3E00"/>
<path d="M140.061 1124.73C143.855 1126.88 134.076 1134.52 133.206 1134.48C132.424 1134.45 134.214 1131.18 133.419 1130.97C132.564 1130.73 125.676 1133.78 124.932 1133.35C124.232 1132.95 129.735 1129.12 129.336 1128.65C128.961 1128.22 123.318 1128.75 123.225 1128.31C123.111 1127.77 136.267 1122.58 140.061 1124.73Z" fill="#BD3E00"/>
<path d="M140.751 1124.18C139.795 1123.62 138.367 1123.46 138.27 1123.33C138.149 1123.17 141.041 1122.41 142.471 1123.23C143.902 1124.05 142.371 1125.69 142.118 1125.63C141.889 1125.58 141.707 1124.74 140.751 1124.18Z" fill="#BD3E00"/>
<path d="M144.477 1105.37C148.271 1107.52 138.492 1115.16 137.622 1115.12C136.84 1115.09 138.63 1111.82 137.835 1111.61C136.98 1111.37 130.092 1114.42 129.348 1113.99C128.648 1113.59 134.151 1109.76 133.752 1109.29C133.377 1108.86 127.734 1109.39 127.641 1108.95C127.527 1108.41 140.683 1103.22 144.477 1105.37Z" fill="#BD3E00"/>
<path d="M145.167 1104.82C144.211 1104.26 142.783 1104.1 142.686 1103.97C142.565 1103.81 145.457 1103.05 146.887 1103.87C148.318 1104.69 146.787 1106.33 146.534 1106.27C146.305 1106.22 146.123 1105.38 145.167 1104.82Z" fill="#BD3E00"/>
<path d="M177.203 1103.28C180.997 1105.43 171.218 1113.08 170.348 1113.04C169.566 1113 171.356 1109.73 170.561 1109.52C169.706 1109.28 162.818 1112.33 162.074 1111.9C161.374 1111.5 166.877 1107.67 166.479 1107.2C166.103 1106.77 160.46 1107.3 160.367 1106.86C160.253 1106.33 173.409 1101.13 177.203 1103.28Z" fill="#BD3E00"/>
<path d="M177.893 1102.73C176.937 1102.17 175.508 1102.01 175.411 1101.88C175.291 1101.72 178.182 1100.96 179.613 1101.78C181.044 1102.6 179.512 1104.24 179.26 1104.18C179.031 1104.13 178.848 1103.29 177.893 1102.73Z" fill="#BD3E00"/>
<path d="M179.079 1083.24C182.873 1085.39 173.094 1093.04 172.224 1093C171.442 1092.96 173.233 1089.69 172.438 1089.48C171.583 1089.24 164.694 1092.29 163.951 1091.86C163.251 1091.46 168.753 1087.63 168.355 1087.17C167.98 1086.73 162.337 1087.26 162.244 1086.82C162.13 1086.29 175.285 1081.1 179.079 1083.24Z" fill="#BD3E00"/>
<path d="M179.769 1082.69C178.813 1082.13 177.385 1081.97 177.288 1081.84C177.167 1081.68 180.059 1080.92 181.489 1081.74C182.92 1082.56 181.389 1084.2 181.137 1084.14C180.907 1084.09 180.725 1083.25 179.769 1082.69Z" fill="#BD3E00"/>
<path d="M211.809 1081.15C215.603 1083.3 205.824 1090.95 204.954 1090.91C204.172 1090.87 205.962 1087.6 205.167 1087.39C204.312 1087.16 197.424 1090.2 196.68 1089.77C195.98 1089.37 201.483 1085.54 201.085 1085.08C200.709 1084.64 195.066 1085.17 194.973 1084.73C194.859 1084.2 208.015 1079.01 211.809 1081.15Z" fill="#BD3E00"/>
<path d="M212.499 1080.6C211.543 1080.05 210.115 1079.88 210.018 1079.75C209.897 1079.59 212.789 1078.83 214.219 1079.65C215.65 1080.47 214.119 1082.11 213.866 1082.05C213.637 1082 213.455 1081.16 212.499 1080.6Z" fill="#BD3E00"/>
<path d="M215.752 1062.07C219.546 1064.22 209.767 1071.86 208.896 1071.82C208.115 1071.79 209.905 1068.52 209.11 1068.3C208.255 1068.07 201.367 1071.12 200.623 1070.69C199.923 1070.29 205.426 1066.46 205.027 1065.99C204.652 1065.56 199.009 1066.09 198.916 1065.65C198.802 1065.11 211.958 1059.92 215.752 1062.07Z" fill="#BD3E00"/>
<path d="M216.442 1061.52C215.486 1060.96 214.058 1060.8 213.961 1060.67C213.84 1060.51 216.732 1059.75 218.162 1060.57C219.593 1061.39 218.061 1063.03 217.809 1062.97C217.58 1062.92 217.398 1062.08 216.442 1061.52Z" fill="#BD3E00"/>
<path d="M248.477 1059.98C252.271 1062.13 242.492 1069.77 241.622 1069.73C240.84 1069.7 242.631 1066.43 241.836 1066.21C240.981 1065.98 234.092 1069.03 233.349 1068.6C232.649 1068.2 238.151 1064.37 237.753 1063.9C237.378 1063.47 231.735 1064 231.642 1063.56C231.528 1063.02 244.683 1057.83 248.477 1059.98Z" fill="#BD3E00"/>
<path d="M249.168 1059.43C248.212 1058.87 246.783 1058.71 246.686 1058.58C246.566 1058.42 249.457 1057.66 250.888 1058.48C252.319 1059.3 250.787 1060.94 250.535 1060.88C250.306 1060.83 250.123 1059.99 249.168 1059.43Z" fill="#BD3E00"/>
<path d="M249.266 1042.75C253.06 1044.9 243.281 1052.54 242.411 1052.5C241.629 1052.47 243.419 1049.2 242.624 1048.98C241.769 1048.75 234.881 1051.8 234.137 1051.37C233.437 1050.97 238.94 1047.14 238.542 1046.67C238.166 1046.24 232.523 1046.77 232.43 1046.33C232.316 1045.79 245.472 1040.6 249.266 1042.75Z" fill="#BD3E00"/>
<path d="M249.956 1042.2C249 1041.64 247.572 1041.48 247.475 1041.35C247.354 1041.19 250.246 1040.43 251.676 1041.25C253.107 1042.07 251.576 1043.71 251.324 1043.65C251.094 1043.6 250.912 1042.76 249.956 1042.2Z" fill="#BD3E00"/>
<path d="M281.953 1040.62C285.746 1042.77 275.967 1050.41 275.097 1050.37C274.315 1050.34 276.106 1047.07 275.311 1046.85C274.456 1046.62 267.567 1049.67 266.824 1049.24C266.124 1048.84 271.627 1045.01 271.228 1044.54C270.853 1044.11 265.21 1044.64 265.117 1044.2C265.003 1043.66 278.158 1038.47 281.953 1040.62Z" fill="#BD3E00"/>
<path d="M282.643 1040.07C281.687 1039.51 280.258 1039.35 280.161 1039.22C280.041 1039.06 282.932 1038.3 284.363 1039.12C285.794 1039.94 284.262 1041.58 284.01 1041.52C283.781 1041.47 283.598 1040.63 282.643 1040.07Z" fill="#BD3E00"/>
<path d="M285.974 1021.54C289.768 1023.68 279.989 1031.33 279.119 1031.29C278.337 1031.25 280.128 1027.99 279.333 1027.77C278.478 1027.54 271.589 1030.59 270.846 1030.16C270.146 1029.75 275.649 1025.92 275.25 1025.46C274.875 1025.02 269.232 1025.55 269.139 1025.12C269.025 1024.58 282.18 1019.39 285.974 1021.54Z" fill="#BD3E00"/>
<path d="M286.665 1020.99C285.709 1020.43 284.28 1020.27 284.183 1020.14C284.063 1019.98 286.954 1019.22 288.385 1020.04C289.816 1020.85 288.284 1022.49 288.032 1022.44C287.803 1022.38 287.62 1021.54 286.665 1020.99Z" fill="#BD3E00"/>
<path d="M318.7 1019.45C322.494 1021.59 312.715 1029.24 311.845 1029.2C311.063 1029.16 312.853 1025.9 312.058 1025.68C311.203 1025.45 304.315 1028.5 303.571 1028.07C302.871 1027.66 308.374 1023.83 307.976 1023.37C307.6 1022.93 301.957 1023.46 301.865 1023.03C301.75 1022.49 314.906 1017.3 318.7 1019.45Z" fill="#BD3E00"/>
<path d="M319.39 1018.9C318.435 1018.34 317.006 1018.18 316.909 1018.05C316.788 1017.89 319.68 1017.13 321.11 1017.95C322.542 1018.76 321.01 1020.4 320.758 1020.35C320.529 1020.29 320.346 1019.45 319.39 1018.9Z" fill="#BD3E00"/>
<path d="M322.761 1000.28C326.555 1002.43 316.776 1010.08 315.906 1010.04C315.124 1010 316.914 1006.73 316.119 1006.52C315.264 1006.29 308.376 1009.34 307.632 1008.91C306.932 1008.5 312.435 1004.67 312.037 1004.21C311.661 1003.77 306.018 1004.3 305.926 1003.87C305.811 1003.33 318.967 998.137 322.761 1000.28Z" fill="#BD3E00"/>
<path d="M323.451 999.734C322.496 999.177 321.067 999.013 320.97 998.883C320.849 998.725 323.741 997.966 325.171 998.784C326.603 999.602 325.071 1001.24 324.819 1001.18C324.59 1001.13 324.407 1000.29 323.451 999.734Z" fill="#BD3E00"/>
<path d="M355.487 998.195C359.281 1000.34 349.502 1007.99 348.632 1007.95C347.85 1007.91 349.64 1004.64 348.845 1004.43C347.991 1004.2 341.102 1007.25 340.359 1006.82C339.659 1006.41 345.161 1002.58 344.763 1002.12C344.387 1001.68 338.744 1002.21 338.652 1001.78C338.537 1001.24 351.693 996.047 355.487 998.195Z" fill="#BD3E00"/>
<path d="M356.177 997.645C355.221 997.087 353.793 996.923 353.695 996.794C353.575 996.635 356.466 995.876 357.897 996.694C359.328 997.513 357.796 999.152 357.544 999.094C357.315 999.042 357.132 998.202 356.177 997.645Z" fill="#BD3E00"/>
<path d="M359.509 979.072C363.302 981.219 353.524 988.866 352.653 988.826C351.871 988.79 353.662 985.521 352.867 985.306C352.012 985.074 345.123 988.122 344.38 987.693C343.68 987.289 349.183 983.458 348.784 982.995C348.409 982.558 342.766 983.089 342.673 982.654C342.559 982.116 355.715 976.924 359.509 979.072Z" fill="#BD3E00"/>
<path d="M360.198 978.522C359.243 977.964 357.814 977.8 357.717 977.671C357.596 977.512 360.488 976.753 361.918 977.571C363.35 978.39 361.818 980.029 361.566 979.971C361.337 979.919 361.154 979.079 360.198 978.522Z" fill="#BD3E00"/>
<path d="M392.195 976.982C395.989 979.129 386.21 986.776 385.34 986.736C384.558 986.7 386.348 983.432 385.553 983.217C384.699 982.984 377.81 986.033 377.067 985.603C376.367 985.199 381.869 981.368 381.471 980.905C381.095 980.469 375.452 981 375.36 980.564C375.245 980.026 388.401 974.834 392.195 976.982Z" fill="#BD3E00"/>
<path d="M392.885 976.432C391.929 975.874 390.501 975.71 390.403 975.581C390.283 975.422 393.174 974.663 394.605 975.481C396.036 976.3 394.504 977.94 394.252 977.881C394.023 977.829 393.84 976.989 392.885 976.432Z" fill="#BD3E00"/>
<path d="M396.335 957.82C400.129 959.967 390.35 967.614 389.48 967.574C388.698 967.538 390.489 964.27 389.694 964.054C388.839 963.822 381.95 966.871 381.207 966.441C380.507 966.037 386.009 962.206 385.611 961.743C385.236 961.306 379.593 961.837 379.5 961.402C379.385 960.864 392.541 955.672 396.335 957.82Z" fill="#BD3E00"/>
<path d="M397.025 957.27C396.069 956.712 394.641 956.548 394.544 956.419C394.423 956.26 397.315 955.501 398.745 956.319C400.176 957.138 398.644 958.777 398.392 958.719C398.163 958.667 397.981 957.827 397.025 957.27Z" fill="#BD3E00"/>
<path d="M429.061 955.73C432.855 957.878 423.076 965.524 422.206 965.484C421.424 965.448 423.214 962.18 422.419 961.965C421.564 961.732 414.676 964.781 413.932 964.351C413.232 963.947 418.735 960.116 418.336 959.653C417.961 959.217 412.318 959.748 412.225 959.312C412.111 958.774 425.267 953.582 429.061 955.73Z" fill="#BD3E00"/>
<path d="M429.751 955.18C428.795 954.622 427.367 954.458 427.27 954.329C427.149 954.17 430.041 953.411 431.471 954.229C432.902 955.048 431.371 956.688 431.118 956.629C430.889 956.577 430.707 955.737 429.751 955.18Z" fill="#BD3E00"/>
<path d="M433.477 936.37C437.271 938.518 427.492 946.165 426.622 946.125C425.84 946.089 427.63 942.82 426.835 942.605C425.98 942.373 419.092 945.421 418.348 944.992C417.648 944.588 423.151 940.757 422.752 940.294C422.377 939.857 416.734 940.388 416.641 939.953C416.527 939.414 429.683 934.223 433.477 936.37Z" fill="#BD3E00"/>
<path d="M434.167 935.82C433.211 935.263 431.783 935.099 431.686 934.969C431.565 934.81 434.457 934.052 435.887 934.87C437.318 935.688 435.787 937.328 435.534 937.27C435.305 937.217 435.123 936.378 434.167 935.82Z" fill="#BD3E00"/>
<path d="M466.203 934.281C469.997 936.428 460.218 944.075 459.348 944.035C458.566 943.999 460.356 940.73 459.561 940.515C458.706 940.283 451.818 943.331 451.074 942.902C450.374 942.498 455.877 938.667 455.479 938.204C455.103 937.767 449.46 938.298 449.367 937.863C449.253 937.325 462.409 932.133 466.203 934.281Z" fill="#BD3E00"/>
<path d="M466.893 933.73C465.937 933.173 464.508 933.009 464.411 932.88C464.291 932.721 467.182 931.962 468.613 932.78C470.044 933.598 468.512 935.238 468.26 935.18C468.031 935.128 467.848 934.288 466.893 933.73Z" fill="#BD3E00"/>
<path d="M464.079 916.243C467.873 918.39 458.094 926.037 457.224 925.997C456.442 925.961 458.233 922.692 457.438 922.477C456.583 922.245 449.694 925.293 448.951 924.864C448.251 924.46 453.753 920.629 453.355 920.166C452.98 919.729 447.337 920.26 447.244 919.825C447.13 919.287 460.285 914.095 464.079 916.243Z" fill="#BD3E00"/>
<path d="M464.769 915.692C463.813 915.135 462.385 914.971 462.288 914.841C462.167 914.683 465.059 913.924 466.489 914.742C467.92 915.56 466.389 917.2 466.137 917.142C465.907 917.09 465.725 916.25 464.769 915.692Z" fill="#BD3E00"/>
<path d="M496.809 914.153C500.603 916.3 490.824 923.947 489.954 923.907C489.172 923.871 490.962 920.603 490.167 920.387C489.312 920.155 482.424 923.204 481.68 922.774C480.98 922.37 486.483 918.539 486.085 918.076C485.709 917.639 480.066 918.17 479.973 917.735C479.859 917.197 493.015 912.005 496.809 914.153Z" fill="#BD3E00"/>
<path d="M497.499 913.603C496.543 913.045 495.115 912.881 495.018 912.752C494.897 912.593 497.789 911.834 499.219 912.652C500.65 913.471 499.119 915.11 498.866 915.052C498.637 915 498.455 914.16 497.499 913.603Z" fill="#BD3E00"/>
<path d="M500.752 895.069C504.546 897.217 494.767 904.864 493.896 904.824C493.115 904.787 494.905 901.519 494.11 901.304C493.255 901.072 486.367 904.12 485.623 903.691C484.923 903.287 490.426 899.455 490.027 898.993C489.652 898.556 484.009 899.087 483.916 898.651C483.802 898.113 496.958 892.922 500.752 895.069Z" fill="#BD3E00"/>
<path d="M501.442 894.519C500.486 893.962 499.058 893.798 498.961 893.668C498.84 893.509 501.732 892.75 503.162 893.569C504.593 894.387 503.061 896.027 502.809 895.968C502.58 895.916 502.398 895.076 501.442 894.519Z" fill="#BD3E00"/>
<path d="M533.477 892.979C537.271 895.127 527.492 902.774 526.622 902.734C525.84 902.697 527.631 899.429 526.836 899.214C525.981 898.982 519.092 902.03 518.349 901.601C517.649 901.197 523.151 897.366 522.753 896.903C522.378 896.466 516.735 896.997 516.642 896.562C516.528 896.023 529.683 890.832 533.477 892.979Z" fill="#BD3E00"/>
<path d="M534.168 892.429C533.212 891.872 531.783 891.708 531.686 891.578C531.566 891.419 534.457 890.66 535.888 891.479C537.319 892.297 535.787 893.937 535.535 893.879C535.306 893.826 535.123 892.986 534.168 892.429Z" fill="#BD3E00"/>
<path d="M534.266 875.749C538.06 877.897 528.281 885.543 527.411 885.503C526.629 885.467 528.419 882.199 527.624 881.984C526.769 881.751 519.881 884.8 519.137 884.371C518.437 883.966 523.94 880.135 523.542 879.672C523.166 879.236 517.523 879.767 517.43 879.331C517.316 878.793 530.472 873.601 534.266 875.749Z" fill="#BD3E00"/>
<path d="M534.956 875.199C534 874.641 532.572 874.477 532.475 874.348C532.354 874.189 535.246 873.43 536.676 874.248C538.107 875.067 536.576 876.707 536.324 876.648C536.094 876.596 535.912 875.756 534.956 875.199Z" fill="#BD3E00"/>
<path d="M566.953 873.62C570.746 875.768 560.967 883.414 560.097 883.374C559.315 883.338 561.106 880.07 560.311 879.855C559.456 879.622 552.567 882.671 551.824 882.242C551.124 881.837 556.627 878.006 556.228 877.543C555.853 877.107 550.21 877.638 550.117 877.202C550.003 876.664 563.158 871.472 566.953 873.62Z" fill="#BD3E00"/>
<path d="M567.643 873.07C566.687 872.512 565.258 872.349 565.161 872.219C565.041 872.06 567.932 871.301 569.363 872.119C570.794 872.938 569.262 874.578 569.01 874.519C568.781 874.467 568.598 873.627 567.643 873.07Z" fill="#BD3E00"/>
<path d="M570.974 854.536C574.768 856.684 564.989 864.331 564.119 864.291C563.337 864.255 565.128 860.986 564.333 860.771C563.478 860.539 556.589 863.587 555.846 863.158C555.146 862.754 560.649 858.923 560.25 858.46C559.875 858.023 554.232 858.554 554.139 858.119C554.025 857.58 567.18 852.389 570.974 854.536Z" fill="#BD3E00"/>
<path d="M571.665 853.986C570.709 853.429 569.28 853.265 569.183 853.135C569.063 852.977 571.954 852.218 573.385 853.036C574.816 853.854 573.284 855.494 573.032 855.436C572.803 855.384 572.62 854.544 571.665 853.986Z" fill="#BD3E00"/>
<path d="M603.7 852.447C607.494 854.594 597.715 862.241 596.845 862.201C596.063 862.165 597.853 858.896 597.058 858.681C596.203 858.449 589.315 861.497 588.571 861.068C587.871 860.664 593.374 856.833 592.976 856.37C592.6 855.933 586.957 856.464 586.865 856.029C586.75 855.491 599.906 850.299 603.7 852.447Z" fill="#BD3E00"/>
<path d="M604.39 851.897C603.435 851.339 602.006 851.175 601.909 851.046C601.788 850.887 604.68 850.128 606.11 850.946C607.542 851.765 606.01 853.404 605.758 853.346C605.529 853.294 605.346 852.454 604.39 851.897Z" fill="#BD3E00"/>
<path d="M607.761 833.285C611.555 835.432 601.776 843.079 600.906 843.039C600.124 843.003 601.914 839.734 601.119 839.519C600.264 839.287 593.376 842.335 592.632 841.906C591.932 841.502 597.435 837.671 597.037 837.208C596.661 836.771 591.018 837.302 590.926 836.867C590.811 836.329 603.967 831.137 607.761 833.285Z" fill="#BD3E00"/>
<path d="M608.451 832.734C607.496 832.177 606.067 832.013 605.97 831.883C605.849 831.725 608.741 830.966 610.171 831.784C611.603 832.602 610.071 834.242 609.819 834.184C609.59 834.132 609.407 833.292 608.451 832.734Z" fill="#BD3E00"/>
<path d="M640.487 831.195C644.281 833.342 634.502 840.989 633.632 840.949C632.85 840.913 634.64 837.645 633.845 837.429C632.991 837.197 626.102 840.246 625.359 839.816C624.659 839.412 630.161 835.581 629.763 835.118C629.387 834.681 623.744 835.212 623.652 834.777C623.537 834.239 636.693 829.047 640.487 831.195Z" fill="#BD3E00"/>
<path d="M641.177 830.645C640.221 830.087 638.793 829.923 638.695 829.794C638.575 829.635 641.466 828.876 642.897 829.694C644.328 830.513 642.796 832.152 642.544 832.094C642.315 832.042 642.132 831.202 641.177 830.645Z" fill="#BD3E00"/>
<path d="M644.509 812.072C648.302 814.219 638.524 821.866 637.653 821.826C636.871 821.79 638.662 818.521 637.867 818.306C637.012 818.074 630.123 821.122 629.38 820.693C628.68 820.289 634.183 816.458 633.784 815.995C633.409 815.558 627.766 816.089 627.673 815.654C627.559 815.116 640.715 809.924 644.509 812.072Z" fill="#BD3E00"/>
<path d="M645.198 811.522C644.243 810.964 642.814 810.8 642.717 810.671C642.596 810.512 645.488 809.753 646.918 810.571C648.35 811.39 646.818 813.029 646.566 812.971C646.337 812.919 646.154 812.079 645.198 811.522Z" fill="#BD3E00"/>
<path d="M677.195 809.982C680.989 812.129 671.21 819.776 670.34 819.736C669.558 819.7 671.348 816.432 670.553 816.217C669.699 815.984 662.81 819.033 662.067 818.603C661.367 818.199 666.869 814.368 666.471 813.905C666.095 813.469 660.452 814 660.36 813.564C660.245 813.026 673.401 807.834 677.195 809.982Z" fill="#BD3E00"/>
<path d="M677.885 809.432C676.929 808.874 675.501 808.71 675.403 808.581C675.283 808.422 678.174 807.663 679.605 808.481C681.036 809.3 679.504 810.94 679.252 810.881C679.023 810.829 678.84 809.989 677.885 809.432Z" fill="#BD3E00"/>
<path d="M681.335 790.82C685.129 792.967 675.35 800.614 674.48 800.574C673.698 800.538 675.489 797.27 674.694 797.054C673.839 796.822 666.95 799.871 666.207 799.441C665.507 799.037 671.009 795.206 670.611 794.743C670.236 794.306 664.593 794.837 664.5 794.402C664.385 793.864 677.541 788.672 681.335 790.82Z" fill="#BD3E00"/>
<path d="M682.025 790.27C681.069 789.712 679.641 789.548 679.544 789.419C679.423 789.26 682.315 788.501 683.745 789.319C685.176 790.138 683.644 791.777 683.392 791.719C683.163 791.667 682.981 790.827 682.025 790.27Z" fill="#BD3E00"/>
<path d="M714.061 788.73C717.855 790.878 708.076 798.524 707.206 798.484C706.424 798.448 708.214 795.18 707.419 794.965C706.564 794.732 699.676 797.781 698.932 797.351C698.232 796.947 703.735 793.116 703.336 792.653C702.961 792.217 697.318 792.748 697.225 792.312C697.111 791.774 710.267 786.582 714.061 788.73Z" fill="#BD3E00"/>
<path d="M714.751 788.18C713.795 787.622 712.367 787.458 712.27 787.329C712.149 787.17 715.041 786.411 716.471 787.229C717.902 788.048 716.371 789.688 716.118 789.629C715.889 789.577 715.707 788.737 714.751 788.18Z" fill="#BD3E00"/>
<path d="M718.477 769.37C722.271 771.518 712.492 779.165 711.622 779.125C710.84 779.089 712.63 775.82 711.835 775.605C710.98 775.373 704.092 778.421 703.348 777.992C702.648 777.588 708.151 773.757 707.752 773.294C707.377 772.857 701.734 773.388 701.641 772.953C701.527 772.414 714.683 767.223 718.477 769.37Z" fill="#BD3E00"/>
<path d="M719.167 768.82C718.211 768.263 716.783 768.099 716.686 767.969C716.565 767.81 719.457 767.052 720.887 767.87C722.318 768.688 720.787 770.328 720.534 770.27C720.305 770.217 720.123 769.378 719.167 768.82Z" fill="#BD3E00"/>
<path d="M751.203 767.281C754.997 769.428 745.218 777.075 744.348 777.035C743.566 776.999 745.356 773.73 744.561 773.515C743.706 773.283 736.818 776.331 736.074 775.902C735.374 775.498 740.877 771.667 740.479 771.204C740.103 770.767 734.46 771.298 734.367 770.863C734.253 770.325 747.409 765.133 751.203 767.281Z" fill="#BD3E00"/>
<path d="M751.893 766.73C750.937 766.173 749.508 766.009 749.411 765.88C749.291 765.721 752.182 764.962 753.613 765.78C755.044 766.598 753.512 768.238 753.26 768.18C753.031 768.128 752.848 767.288 751.893 766.73Z" fill="#BD3E00"/>
<path d="M749.079 746.243C752.873 748.39 743.094 756.037 742.224 755.997C741.442 755.961 743.233 752.692 742.438 752.477C741.583 752.245 734.694 755.293 733.951 754.864C733.251 754.46 738.753 750.629 738.355 750.166C737.98 749.729 732.337 750.26 732.244 749.825C732.13 749.287 745.285 744.095 749.079 746.243Z" fill="#BD3E00"/>
<path d="M749.769 745.692C748.813 745.135 747.385 744.971 747.288 744.841C747.167 744.683 750.059 743.924 751.489 744.742C752.92 745.56 751.389 747.2 751.137 747.142C750.907 747.09 750.725 746.25 749.769 745.692Z" fill="#BD3E00"/>
<path d="M781.809 744.153C785.603 746.3 775.824 753.947 774.954 753.907C774.172 753.871 775.962 750.603 775.167 750.387C774.312 750.155 767.424 753.204 766.68 752.774C765.98 752.37 771.483 748.539 771.085 748.076C770.709 747.639 765.066 748.17 764.973 747.735C764.859 747.197 778.015 742.005 781.809 744.153Z" fill="#BD3E00"/>
<path d="M782.499 743.603C781.543 743.045 780.115 742.881 780.018 742.752C779.897 742.593 782.789 741.834 784.219 742.652C785.65 743.471 784.119 745.11 783.866 745.052C783.637 745 783.455 744.16 782.499 743.603Z" fill="#BD3E00"/>
<path d="M785.752 725.069C789.546 727.217 779.767 734.864 778.896 734.824C778.115 734.787 779.905 731.519 779.11 731.304C778.255 731.072 771.367 734.12 770.623 733.691C769.923 733.287 775.426 729.455 775.027 728.993C774.652 728.556 769.009 729.087 768.916 728.651C768.802 728.113 781.958 722.922 785.752 725.069Z" fill="#BD3E00"/>
<path d="M786.442 724.519C785.486 723.962 784.058 723.798 783.961 723.668C783.84 723.509 786.732 722.75 788.162 723.569C789.593 724.387 788.061 726.027 787.809 725.968C787.58 725.916 787.398 725.076 786.442 724.519Z" fill="#BD3E00"/>
<path d="M818.477 722.979C822.271 725.127 812.492 732.774 811.622 732.734C810.84 732.697 812.631 729.429 811.836 729.214C810.981 728.982 804.092 732.03 803.349 731.601C802.649 731.197 808.151 727.366 807.753 726.903C807.378 726.466 801.735 726.997 801.642 726.562C801.528 726.023 814.683 720.832 818.477 722.979Z" fill="#BD3E00"/>
<path d="M819.168 722.429C818.212 721.872 816.783 721.708 816.686 721.578C816.566 721.419 819.457 720.66 820.888 721.479C822.319 722.297 820.787 723.937 820.535 723.879C820.306 723.826 820.123 722.986 819.168 722.429Z" fill="#BD3E00"/>
<path d="M819.266 705.749C823.06 707.897 813.281 715.543 812.411 715.503C811.629 715.467 813.419 712.199 812.624 711.984C811.769 711.751 804.881 714.8 804.137 714.371C803.437 713.966 808.94 710.135 808.542 709.672C808.166 709.236 802.523 709.767 802.43 709.331C802.316 708.793 815.472 703.601 819.266 705.749Z" fill="#BD3E00"/>
<path d="M819.956 705.199C819 704.641 817.572 704.477 817.475 704.348C817.354 704.189 820.246 703.43 821.676 704.248C823.107 705.067 821.576 706.707 821.324 706.648C821.094 706.596 820.912 705.756 819.956 705.199Z" fill="#BD3E00"/>
<path d="M851.953 703.62C855.746 705.768 845.967 713.414 845.097 713.374C844.315 713.338 846.106 710.07 845.311 709.855C844.456 709.622 837.567 712.671 836.824 712.242C836.124 711.837 841.627 708.006 841.228 707.543C840.853 707.107 835.21 707.638 835.117 707.202C835.003 706.664 848.158 701.472 851.953 703.62Z" fill="#BD3E00"/>
<path d="M852.643 703.07C851.687 702.512 850.258 702.349 850.161 702.219C850.041 702.06 852.932 701.301 854.363 702.119C855.794 702.938 854.262 704.578 854.01 704.519C853.781 704.467 853.598 703.627 852.643 703.07Z" fill="#BD3E00"/>
<path d="M855.974 684.536C859.768 686.684 849.989 694.331 849.119 694.291C848.337 694.255 850.128 690.986 849.333 690.771C848.478 690.539 841.589 693.587 840.846 693.158C840.146 692.754 845.649 688.923 845.25 688.46C844.875 688.023 839.232 688.554 839.139 688.119C839.025 687.58 852.18 682.389 855.974 684.536Z" fill="#BD3E00"/>
<path d="M856.665 683.986C855.709 683.429 854.28 683.265 854.183 683.135C854.063 682.977 856.954 682.218 858.385 683.036C859.816 683.854 858.284 685.494 858.032 685.436C857.803 685.384 857.62 684.544 856.665 683.986Z" fill="#BD3E00"/>
<path d="M888.7 682.447C892.494 684.594 882.715 692.241 881.845 692.201C881.063 692.165 882.853 688.896 882.058 688.681C881.203 688.449 874.315 691.497 873.571 691.068C872.871 690.664 878.374 686.833 877.976 686.37C877.6 685.933 871.957 686.464 871.865 686.029C871.75 685.491 884.906 680.299 888.7 682.447Z" fill="#BD3E00"/>
<path d="M889.39 681.897C888.435 681.339 887.006 681.175 886.909 681.046C886.788 680.887 889.68 680.128 891.11 680.946C892.542 681.765 891.01 683.404 890.758 683.346C890.529 683.294 890.346 682.454 889.39 681.897Z" fill="#BD3E00"/>
<path d="M892.761 663.285C896.555 665.432 886.776 673.079 885.906 673.039C885.124 673.003 886.914 669.734 886.119 669.519C885.264 669.287 878.376 672.335 877.632 671.906C876.932 671.502 882.435 667.671 882.037 667.208C881.661 666.771 876.018 667.302 875.926 666.867C875.811 666.329 888.967 661.137 892.761 663.285Z" fill="#BD3E00"/>
<path d="M893.451 662.734C892.496 662.177 891.067 662.013 890.97 661.883C890.849 661.725 893.741 660.966 895.171 661.784C896.603 662.602 895.071 664.242 894.819 664.184C894.59 664.132 894.407 663.292 893.451 662.734Z" fill="#BD3E00"/>
<path d="M925.487 661.195C929.281 663.342 919.502 670.989 918.632 670.949C917.85 670.913 919.64 667.645 918.845 667.429C917.991 667.197 911.102 670.246 910.359 669.816C909.659 669.412 915.161 665.581 914.763 665.118C914.387 664.681 908.744 665.212 908.652 664.777C908.537 664.239 921.693 659.047 925.487 661.195Z" fill="#BD3E00"/>
<path d="M926.177 660.645C925.221 660.087 923.793 659.923 923.695 659.794C923.575 659.635 926.466 658.876 927.897 659.694C929.328 660.513 927.796 662.152 927.544 662.094C927.315 662.042 927.132 661.202 926.177 660.645Z" fill="#BD3E00"/>
<path d="M929.509 642.072C933.302 644.219 923.524 651.866 922.653 651.826C921.871 651.79 923.662 648.521 922.867 648.306C922.012 648.074 915.123 651.122 914.38 650.693C913.68 650.289 919.183 646.458 918.784 645.995C918.409 645.558 912.766 646.089 912.673 645.654C912.559 645.116 925.715 639.924 929.509 642.072Z" fill="#BD3E00"/>
<path d="M930.198 641.522C929.243 640.964 927.814 640.8 927.717 640.671C927.596 640.512 930.488 639.753 931.918 640.571C933.35 641.39 931.818 643.029 931.566 642.971C931.337 642.919 931.154 642.079 930.198 641.522Z" fill="#BD3E00"/>
<path d="M962.195 639.982C965.989 642.129 956.21 649.776 955.34 649.736C954.558 649.7 956.348 646.432 955.553 646.217C954.699 645.984 947.81 649.033 947.067 648.603C946.367 648.199 951.869 644.368 951.471 643.905C951.095 643.469 945.452 644 945.36 643.564C945.245 643.026 958.401 637.834 962.195 639.982Z" fill="#BD3E00"/>
<path d="M962.885 639.432C961.929 638.874 960.501 638.71 960.403 638.581C960.283 638.422 963.174 637.663 964.605 638.481C966.036 639.3 964.504 640.94 964.252 640.881C964.023 640.829 963.84 639.989 962.885 639.432Z" fill="#BD3E00"/>
<path d="M966.335 620.82C970.129 622.967 960.35 630.614 959.48 630.574C958.698 630.538 960.489 627.27 959.694 627.054C958.839 626.822 951.95 629.871 951.207 629.441C950.507 629.037 956.009 625.206 955.611 624.743C955.236 624.306 949.593 624.837 949.5 624.402C949.385 623.864 962.541 618.672 966.335 620.82Z" fill="#BD3E00"/>
<path d="M967.025 620.27C966.069 619.712 964.641 619.548 964.544 619.419C964.423 619.26 967.315 618.501 968.745 619.319C970.176 620.138 968.644 621.777 968.392 621.719C968.163 621.667 967.981 620.827 967.025 620.27Z" fill="#BD3E00"/>
<path d="M999.061 618.73C1002.85 620.878 993.076 628.524 992.206 628.484C991.424 628.448 993.214 625.18 992.419 624.965C991.564 624.732 984.676 627.781 983.932 627.351C983.232 626.947 988.735 623.116 988.336 622.653C987.961 622.217 982.318 622.748 982.225 622.312C982.111 621.774 995.267 616.582 999.061 618.73Z" fill="#BD3E00"/>
<path d="M999.751 618.18C998.795 617.622 997.367 617.458 997.27 617.329C997.149 617.17 1000.04 616.411 1001.47 617.229C1002.9 618.048 1001.37 619.688 1001.12 619.629C1000.89 619.577 1000.71 618.737 999.751 618.18Z" fill="#BD3E00"/>
<path d="M1003.48 599.37C1007.27 601.518 997.492 609.165 996.622 609.125C995.84 609.089 997.63 605.82 996.835 605.605C995.98 605.373 989.092 608.421 988.348 607.992C987.648 607.588 993.151 603.757 992.752 603.294C992.377 602.857 986.734 603.388 986.641 602.953C986.527 602.414 999.683 597.223 1003.48 599.37Z" fill="#BD3E00"/>
<path d="M1004.17 598.82C1003.21 598.263 1001.78 598.099 1001.69 597.969C1001.57 597.81 1004.46 597.052 1005.89 597.87C1007.32 598.688 1005.79 600.328 1005.53 600.27C1005.31 600.217 1005.12 599.378 1004.17 598.82Z" fill="#BD3E00"/>
<path d="M1036.2 597.281C1040 599.428 1030.22 607.075 1029.35 607.035C1028.57 606.999 1030.36 603.73 1029.56 603.515C1028.71 603.283 1021.82 606.331 1021.07 605.902C1020.37 605.498 1025.88 601.667 1025.48 601.204C1025.1 600.767 1019.46 601.298 1019.37 600.863C1019.25 600.325 1032.41 595.133 1036.2 597.281Z" fill="#BD3E00"/>
<path d="M1036.89 596.73C1035.94 596.173 1034.51 596.009 1034.41 595.88C1034.29 595.721 1037.18 594.962 1038.61 595.78C1040.04 596.598 1038.51 598.238 1038.26 598.18C1038.03 598.128 1037.85 597.288 1036.89 596.73Z" fill="#BD3E00"/>
<path d="M1038.08 573.243C1041.87 575.39 1032.09 583.037 1031.22 582.997C1030.44 582.961 1032.23 579.692 1031.44 579.477C1030.58 579.245 1023.69 582.293 1022.95 581.864C1022.25 581.46 1027.75 577.629 1027.36 577.166C1026.98 576.729 1021.34 577.26 1021.24 576.825C1021.13 576.287 1034.29 571.095 1038.08 573.243Z" fill="#BD3E00"/>
<path d="M1038.77 572.692C1037.81 572.135 1036.38 571.971 1036.29 571.841C1036.17 571.683 1039.06 570.924 1040.49 571.742C1041.92 572.56 1040.39 574.2 1040.14 574.142C1039.91 574.09 1039.72 573.25 1038.77 572.692Z" fill="#BD3E00"/>
<path d="M1070.81 571.153C1074.6 573.3 1064.82 580.947 1063.95 580.907C1063.17 580.871 1064.96 577.603 1064.17 577.387C1063.31 577.155 1056.42 580.204 1055.68 579.774C1054.98 579.37 1060.48 575.539 1060.08 575.076C1059.71 574.639 1054.07 575.17 1053.97 574.735C1053.86 574.197 1067.01 569.005 1070.81 571.153Z" fill="#BD3E00"/>
<path d="M1071.5 570.603C1070.54 570.045 1069.11 569.881 1069.02 569.752C1068.9 569.593 1071.79 568.834 1073.22 569.652C1074.65 570.471 1073.12 572.11 1072.87 572.052C1072.64 572 1072.45 571.16 1071.5 570.603Z" fill="#BD3E00"/>
<path d="M1074.75 552.069C1078.55 554.217 1068.77 561.864 1067.9 561.824C1067.11 561.787 1068.91 558.519 1068.11 558.304C1067.26 558.072 1060.37 561.12 1059.62 560.691C1058.92 560.287 1064.43 556.455 1064.03 555.993C1063.65 555.556 1058.01 556.087 1057.92 555.651C1057.8 555.113 1070.96 549.922 1074.75 552.069Z" fill="#BD3E00"/>
<path d="M1075.44 551.519C1074.49 550.962 1073.06 550.798 1072.96 550.668C1072.84 550.509 1075.73 549.75 1077.16 550.569C1078.59 551.387 1077.06 553.027 1076.81 552.968C1076.58 552.916 1076.4 552.076 1075.44 551.519Z" fill="#BD3E00"/>
<path d="M1107.48 549.979C1111.27 552.127 1101.49 559.774 1100.62 559.734C1099.84 559.697 1101.63 556.429 1100.84 556.214C1099.98 555.982 1093.09 559.03 1092.35 558.601C1091.65 558.197 1097.15 554.366 1096.75 553.903C1096.38 553.466 1090.73 553.997 1090.64 553.562C1090.53 553.023 1103.68 547.832 1107.48 549.979Z" fill="#BD3E00"/>
<path d="M1108.17 549.429C1107.21 548.872 1105.78 548.708 1105.69 548.578C1105.57 548.419 1108.46 547.66 1109.89 548.479C1111.32 549.297 1109.79 550.937 1109.53 550.879C1109.31 550.826 1109.12 549.986 1108.17 549.429Z" fill="#BD3E00"/>
<path d="M1108.27 532.749C1112.06 534.897 1102.28 542.543 1101.41 542.503C1100.63 542.467 1102.42 539.199 1101.62 538.984C1100.77 538.751 1093.88 541.8 1093.14 541.371C1092.44 540.966 1097.94 537.135 1097.54 536.672C1097.17 536.236 1091.52 536.767 1091.43 536.331C1091.32 535.793 1104.47 530.601 1108.27 532.749Z" fill="#BD3E00"/>
<path d="M1108.96 532.199C1108 531.641 1106.57 531.477 1106.47 531.348C1106.35 531.189 1109.25 530.43 1110.68 531.248C1112.11 532.067 1110.58 533.707 1110.32 533.648C1110.09 533.596 1109.91 532.756 1108.96 532.199Z" fill="#BD3E00"/>
<path d="M1140.95 530.62C1144.75 532.768 1134.97 540.414 1134.1 540.374C1133.32 540.338 1135.11 537.07 1134.31 536.855C1133.46 536.622 1126.57 539.671 1125.82 539.242C1125.12 538.837 1130.63 535.006 1130.23 534.543C1129.85 534.107 1124.21 534.638 1124.12 534.202C1124 533.664 1137.16 528.472 1140.95 530.62Z" fill="#BD3E00"/>
<path d="M1141.64 530.07C1140.69 529.512 1139.26 529.349 1139.16 529.219C1139.04 529.06 1141.93 528.301 1143.36 529.119C1144.79 529.938 1143.26 531.578 1143.01 531.519C1142.78 531.467 1142.6 530.627 1141.64 530.07Z" fill="#BD3E00"/>
<path d="M1144.97 511.536C1148.77 513.684 1138.99 521.331 1138.12 521.291C1137.34 521.255 1139.13 517.986 1138.33 517.771C1137.48 517.539 1130.59 520.587 1129.85 520.158C1129.15 519.754 1134.65 515.923 1134.25 515.46C1133.87 515.023 1128.23 515.554 1128.14 515.119C1128.02 514.58 1141.18 509.389 1144.97 511.536Z" fill="#BD3E00"/>
<path d="M1145.66 510.986C1144.71 510.429 1143.28 510.265 1143.18 510.135C1143.06 509.977 1145.95 509.218 1147.38 510.036C1148.82 510.854 1147.28 512.494 1147.03 512.436C1146.8 512.384 1146.62 511.544 1145.66 510.986Z" fill="#BD3E00"/>
<path d="M1177.7 509.447C1181.49 511.594 1171.72 519.241 1170.84 519.201C1170.06 519.165 1171.85 515.896 1171.06 515.681C1170.2 515.449 1163.31 518.497 1162.57 518.068C1161.87 517.664 1167.37 513.833 1166.98 513.37C1166.6 512.933 1160.96 513.464 1160.86 513.029C1160.75 512.491 1173.91 507.299 1177.7 509.447Z" fill="#BD3E00"/>
<path d="M1178.39 508.897C1177.43 508.339 1176.01 508.175 1175.91 508.046C1175.79 507.887 1178.68 507.128 1180.11 507.946C1181.54 508.765 1180.01 510.404 1179.76 510.346C1179.53 510.294 1179.35 509.454 1178.39 508.897Z" fill="#BD3E00"/>
<path d="M1181.76 490.285C1185.55 492.432 1175.78 500.079 1174.91 500.039C1174.12 500.003 1175.91 496.734 1175.12 496.519C1174.26 496.287 1167.38 499.335 1166.63 498.906C1165.93 498.502 1171.44 494.671 1171.04 494.208C1170.66 493.771 1165.02 494.302 1164.93 493.867C1164.81 493.329 1177.97 488.137 1181.76 490.285Z" fill="#BD3E00"/>
<path d="M1182.45 489.734C1181.5 489.177 1180.07 489.013 1179.97 488.883C1179.85 488.725 1182.74 487.966 1184.17 488.784C1185.6 489.602 1184.07 491.242 1183.82 491.184C1183.59 491.132 1183.41 490.292 1182.45 489.734Z" fill="#BD3E00"/>
<path d="M1214.49 488.195C1218.28 490.342 1208.5 497.989 1207.63 497.949C1206.85 497.913 1208.64 494.645 1207.85 494.429C1206.99 494.197 1200.1 497.246 1199.36 496.816C1198.66 496.412 1204.16 492.581 1203.76 492.118C1203.39 491.681 1197.74 492.212 1197.65 491.777C1197.54 491.239 1210.69 486.047 1214.49 488.195Z" fill="#BD3E00"/>
<path d="M1215.18 487.645C1214.22 487.087 1212.79 486.923 1212.7 486.794C1212.57 486.635 1215.47 485.876 1216.9 486.694C1218.33 487.513 1216.8 489.152 1216.54 489.094C1216.32 489.042 1216.13 488.202 1215.18 487.645Z" fill="#BD3E00"/>
<path d="M1218.51 469.072C1222.3 471.219 1212.52 478.866 1211.65 478.826C1210.87 478.79 1212.66 475.521 1211.87 475.306C1211.01 475.074 1204.12 478.122 1203.38 477.693C1202.68 477.289 1208.18 473.458 1207.78 472.995C1207.41 472.558 1201.77 473.089 1201.67 472.654C1201.56 472.116 1214.71 466.924 1218.51 469.072Z" fill="#BD3E00"/>
<path d="M1219.2 468.522C1218.24 467.964 1216.81 467.8 1216.72 467.671C1216.6 467.512 1219.49 466.753 1220.92 467.571C1222.35 468.39 1220.82 470.029 1220.57 469.971C1220.34 469.919 1220.15 469.079 1219.2 468.522Z" fill="#BD3E00"/>
<path d="M1251.2 466.982C1254.99 469.129 1245.21 476.776 1244.34 476.736C1243.56 476.7 1245.35 473.432 1244.55 473.217C1243.7 472.984 1236.81 476.033 1236.07 475.603C1235.37 475.199 1240.87 471.368 1240.47 470.905C1240.1 470.469 1234.45 471 1234.36 470.564C1234.25 470.026 1247.4 464.834 1251.2 466.982Z" fill="#BD3E00"/>
<path d="M1251.88 466.432C1250.93 465.874 1249.5 465.71 1249.4 465.581C1249.28 465.422 1252.17 464.663 1253.6 465.481C1255.04 466.3 1253.5 467.94 1253.25 467.881C1253.02 467.829 1252.84 466.989 1251.88 466.432Z" fill="#BD3E00"/>
<path d="M1255.34 447.82C1259.13 449.967 1249.35 457.614 1248.48 457.574C1247.7 457.538 1249.49 454.27 1248.69 454.054C1247.84 453.822 1240.95 456.871 1240.21 456.441C1239.51 456.037 1245.01 452.206 1244.61 451.743C1244.24 451.306 1238.59 451.837 1238.5 451.402C1238.39 450.864 1251.54 445.672 1255.34 447.82Z" fill="#BD3E00"/>
<path d="M1256.03 447.27C1255.07 446.712 1253.64 446.548 1253.54 446.419C1253.42 446.26 1256.31 445.501 1257.75 446.319C1259.18 447.138 1257.64 448.777 1257.39 448.719C1257.16 448.667 1256.98 447.827 1256.03 447.27Z" fill="#BD3E00"/>
<path d="M1288.06 445.73C1291.85 447.878 1282.08 455.524 1281.21 455.484C1280.42 455.448 1282.21 452.18 1281.42 451.965C1280.56 451.732 1273.68 454.781 1272.93 454.351C1272.23 453.947 1277.73 450.116 1277.34 449.653C1276.96 449.217 1271.32 449.748 1271.23 449.312C1271.11 448.774 1284.27 443.582 1288.06 445.73Z" fill="#BD3E00"/>
<path d="M1288.75 445.18C1287.8 444.622 1286.37 444.458 1286.27 444.329C1286.15 444.17 1289.04 443.411 1290.47 444.229C1291.9 445.048 1290.37 446.688 1290.12 446.629C1289.89 446.577 1289.71 445.737 1288.75 445.18Z" fill="#BD3E00"/>
<path d="M1292.48 426.37C1296.27 428.518 1286.49 436.165 1285.62 436.125C1284.84 436.089 1286.63 432.82 1285.84 432.605C1284.98 432.373 1278.09 435.421 1277.35 434.992C1276.65 434.588 1282.15 430.757 1281.75 430.294C1281.38 429.857 1275.73 430.388 1275.64 429.953C1275.53 429.414 1288.68 424.223 1292.48 426.37Z" fill="#BD3E00"/>
<path d="M1293.17 425.82C1292.21 425.263 1290.78 425.099 1290.69 424.969C1290.57 424.81 1293.46 424.052 1294.89 424.87C1296.32 425.688 1294.79 427.328 1294.53 427.27C1294.31 427.217 1294.12 426.378 1293.17 425.82Z" fill="#BD3E00"/>
<path d="M1325.2 424.281C1329 426.428 1319.22 434.075 1318.35 434.035C1317.57 433.999 1319.36 430.73 1318.56 430.515C1317.71 430.283 1310.82 433.331 1310.07 432.902C1309.37 432.498 1314.88 428.667 1314.48 428.204C1314.1 427.767 1308.46 428.298 1308.37 427.863C1308.25 427.325 1321.41 422.133 1325.2 424.281Z" fill="#BD3E00"/>
<path d="M1325.89 423.73C1324.94 423.173 1323.51 423.009 1323.41 422.88C1323.29 422.721 1326.18 421.962 1327.61 422.78C1329.04 423.598 1327.51 425.238 1327.26 425.18C1327.03 425.128 1326.85 424.288 1325.89 423.73Z" fill="#BD3E00"/>
<path d="M1327.08 405.243C1330.87 407.39 1321.09 415.037 1320.22 414.997C1319.44 414.961 1321.23 411.692 1320.44 411.477C1319.58 411.245 1312.69 414.293 1311.95 413.864C1311.25 413.46 1316.75 409.629 1316.36 409.166C1315.98 408.729 1310.34 409.26 1310.24 408.825C1310.13 408.287 1323.29 403.095 1327.08 405.243Z" fill="#BD3E00"/>
<path d="M1327.77 404.692C1326.81 404.135 1325.38 403.971 1325.29 403.841C1325.17 403.683 1328.06 402.924 1329.49 403.742C1330.92 404.56 1329.39 406.2 1329.14 406.142C1328.91 406.09 1328.72 405.25 1327.77 404.692Z" fill="#BD3E00"/>
<path d="M1359.81 403.153C1363.6 405.3 1353.82 412.947 1352.95 412.907C1352.17 412.871 1353.96 409.603 1353.17 409.387C1352.31 409.155 1345.42 412.204 1344.68 411.774C1343.98 411.37 1349.48 407.539 1349.08 407.076C1348.71 406.639 1343.07 407.17 1342.97 406.735C1342.86 406.197 1356.01 401.005 1359.81 403.153Z" fill="#BD3E00"/>
<path d="M1360.5 402.603C1359.54 402.045 1358.11 401.881 1358.02 401.752C1357.9 401.593 1360.79 400.834 1362.22 401.652C1363.65 402.471 1362.12 404.11 1361.87 404.052C1361.64 404 1361.45 403.16 1360.5 402.603Z" fill="#BD3E00"/>
<path d="M1363.75 384.069C1367.55 386.217 1357.77 393.864 1356.9 393.824C1356.11 393.787 1357.91 390.519 1357.11 390.304C1356.26 390.072 1349.37 393.12 1348.62 392.691C1347.92 392.287 1353.43 388.455 1353.03 387.993C1352.65 387.556 1347.01 388.087 1346.92 387.651C1346.8 387.113 1359.96 381.922 1363.75 384.069Z" fill="#BD3E00"/>
<path d="M1364.44 383.519C1363.49 382.962 1362.06 382.798 1361.96 382.668C1361.84 382.509 1364.73 381.75 1366.16 382.569C1367.59 383.387 1366.06 385.027 1365.81 384.968C1365.58 384.916 1365.4 384.076 1364.44 383.519Z" fill="#BD3E00"/>
<path d="M1396.48 381.979C1400.27 384.127 1390.49 391.774 1389.62 391.734C1388.84 391.697 1390.63 388.429 1389.84 388.214C1388.98 387.982 1382.09 391.03 1381.35 390.601C1380.65 390.197 1386.15 386.366 1385.75 385.903C1385.38 385.466 1379.73 385.997 1379.64 385.562C1379.53 385.023 1392.68 379.832 1396.48 381.979Z" fill="#BD3E00"/>
<path d="M1397.17 381.429C1396.21 380.872 1394.78 380.708 1394.69 380.578C1394.57 380.419 1397.46 379.66 1398.89 380.479C1400.32 381.297 1398.79 382.937 1398.53 382.879C1398.31 382.826 1398.12 381.986 1397.17 381.429Z" fill="#BD3E00"/>
<path d="M1397.27 364.749C1401.06 366.897 1391.28 374.543 1390.41 374.503C1389.63 374.467 1391.42 371.199 1390.62 370.984C1389.77 370.751 1382.88 373.8 1382.14 373.371C1381.44 372.966 1386.94 369.135 1386.54 368.672C1386.17 368.236 1380.52 368.767 1380.43 368.331C1380.32 367.793 1393.47 362.601 1397.27 364.749Z" fill="#BD3E00"/>
<path d="M1397.96 364.199C1397 363.641 1395.57 363.477 1395.47 363.348C1395.35 363.189 1398.25 362.43 1399.68 363.248C1401.11 364.067 1399.58 365.707 1399.32 365.648C1399.09 365.596 1398.91 364.756 1397.96 364.199Z" fill="#BD3E00"/>
<path d="M1429.95 362.62C1433.75 364.768 1423.97 372.414 1423.1 372.374C1422.32 372.338 1424.11 369.07 1423.31 368.855C1422.46 368.622 1415.57 371.671 1414.82 371.242C1414.12 370.837 1419.63 367.006 1419.23 366.543C1418.85 366.107 1413.21 366.638 1413.12 366.202C1413 365.664 1426.16 360.472 1429.95 362.62Z" fill="#BD3E00"/>
<path d="M1430.64 362.07C1429.69 361.512 1428.26 361.349 1428.16 361.219C1428.04 361.06 1430.93 360.301 1432.36 361.119C1433.79 361.938 1432.26 363.578 1432.01 363.519C1431.78 363.467 1431.6 362.627 1430.64 362.07Z" fill="#BD3E00"/>
<path d="M1433.97 343.536C1437.77 345.684 1427.99 353.331 1427.12 353.291C1426.34 353.255 1428.13 349.986 1427.33 349.771C1426.48 349.539 1419.59 352.587 1418.85 352.158C1418.15 351.754 1423.65 347.923 1423.25 347.46C1422.87 347.023 1417.23 347.554 1417.14 347.119C1417.02 346.58 1430.18 341.389 1433.97 343.536Z" fill="#BD3E00"/>
<path d="M1434.66 342.986C1433.71 342.429 1432.28 342.265 1432.18 342.135C1432.06 341.977 1434.95 341.218 1436.38 342.036C1437.82 342.854 1436.28 344.494 1436.03 344.436C1435.8 344.384 1435.62 343.544 1434.66 342.986Z" fill="#BD3E00"/>
<path d="M1466.7 341.447C1470.49 343.594 1460.72 351.241 1459.84 351.201C1459.06 351.165 1460.85 347.896 1460.06 347.681C1459.2 347.449 1452.31 350.497 1451.57 350.068C1450.87 349.664 1456.37 345.833 1455.98 345.37C1455.6 344.933 1449.96 345.464 1449.86 345.029C1449.75 344.491 1462.91 339.299 1466.7 341.447Z" fill="#BD3E00"/>
<path d="M1467.39 340.897C1466.43 340.339 1465.01 340.175 1464.91 340.046C1464.79 339.887 1467.68 339.128 1469.11 339.946C1470.54 340.765 1469.01 342.404 1468.76 342.346C1468.53 342.294 1468.35 341.454 1467.39 340.897Z" fill="#BD3E00"/>
<path d="M1470.76 322.285C1474.55 324.432 1464.78 332.079 1463.91 332.039C1463.12 332.003 1464.91 328.734 1464.12 328.519C1463.26 328.287 1456.38 331.335 1455.63 330.906C1454.93 330.502 1460.44 326.671 1460.04 326.208C1459.66 325.771 1454.02 326.302 1453.93 325.867C1453.81 325.329 1466.97 320.137 1470.76 322.285Z" fill="#BD3E00"/>
<path d="M1471.45 321.734C1470.5 321.177 1469.07 321.013 1468.97 320.883C1468.85 320.725 1471.74 319.966 1473.17 320.784C1474.6 321.602 1473.07 323.242 1472.82 323.184C1472.59 323.132 1472.41 322.292 1471.45 321.734Z" fill="#BD3E00"/>
<path d="M1503.49 320.195C1507.28 322.342 1497.5 329.989 1496.63 329.949C1495.85 329.913 1497.64 326.645 1496.85 326.429C1495.99 326.197 1489.1 329.246 1488.36 328.816C1487.66 328.412 1493.16 324.581 1492.76 324.118C1492.39 323.681 1486.74 324.212 1486.65 323.777C1486.54 323.239 1499.69 318.047 1503.49 320.195Z" fill="#BD3E00"/>
<path d="M1504.18 319.645C1503.22 319.087 1501.79 318.923 1501.7 318.794C1501.57 318.635 1504.47 317.876 1505.9 318.694C1507.33 319.513 1505.8 321.152 1505.54 321.094C1505.32 321.042 1505.13 320.202 1504.18 319.645Z" fill="#BD3E00"/>
<path d="M1507.51 301.072C1511.3 303.219 1501.52 310.866 1500.65 310.826C1499.87 310.79 1501.66 307.521 1500.87 307.306C1500.01 307.074 1493.12 310.122 1492.38 309.693C1491.68 309.289 1497.18 305.458 1496.78 304.995C1496.41 304.558 1490.77 305.089 1490.67 304.654C1490.56 304.116 1503.71 298.924 1507.51 301.072Z" fill="#BD3E00"/>
<path d="M1508.2 300.522C1507.24 299.964 1505.81 299.8 1505.72 299.671C1505.6 299.512 1508.49 298.753 1509.92 299.571C1511.35 300.39 1509.82 302.029 1509.57 301.971C1509.34 301.919 1509.15 301.079 1508.2 300.522Z" fill="#BD3E00"/>
<path d="M1540.2 298.982C1543.99 301.129 1534.21 308.776 1533.34 308.736C1532.56 308.7 1534.35 305.432 1533.55 305.217C1532.7 304.984 1525.81 308.033 1525.07 307.603C1524.37 307.199 1529.87 303.368 1529.47 302.905C1529.1 302.469 1523.45 303 1523.36 302.564C1523.25 302.026 1536.4 296.834 1540.2 298.982Z" fill="#BD3E00"/>
<path d="M1540.88 298.432C1539.93 297.874 1538.5 297.71 1538.4 297.581C1538.28 297.422 1541.17 296.663 1542.6 297.481C1544.04 298.3 1542.5 299.94 1542.25 299.881C1542.02 299.829 1541.84 298.989 1540.88 298.432Z" fill="#BD3E00"/>
<path d="M1544.34 279.82C1548.13 281.967 1538.35 289.614 1537.48 289.574C1536.7 289.538 1538.49 286.27 1537.69 286.054C1536.84 285.822 1529.95 288.871 1529.21 288.441C1528.51 288.037 1534.01 284.206 1533.61 283.743C1533.24 283.306 1527.59 283.837 1527.5 283.402C1527.39 282.864 1540.54 277.672 1544.34 279.82Z" fill="#BD3E00"/>
<path d="M1545.03 279.27C1544.07 278.712 1542.64 278.548 1542.54 278.419C1542.42 278.26 1545.31 277.501 1546.75 278.319C1548.18 279.138 1546.64 280.777 1546.39 280.719C1546.16 280.667 1545.98 279.827 1545.03 279.27Z" fill="#BD3E00"/>
<path d="M1577.06 277.73C1580.85 279.878 1571.08 287.524 1570.21 287.484C1569.42 287.448 1571.21 284.18 1570.42 283.965C1569.56 283.732 1562.68 286.781 1561.93 286.351C1561.23 285.947 1566.73 282.116 1566.34 281.653C1565.96 281.217 1560.32 281.748 1560.23 281.312C1560.11 280.774 1573.27 275.582 1577.06 277.73Z" fill="#BD3E00"/>
<path d="M1577.75 277.18C1576.8 276.622 1575.37 276.458 1575.27 276.329C1575.15 276.17 1578.04 275.411 1579.47 276.229C1580.9 277.048 1579.37 278.688 1579.12 278.629C1578.89 278.577 1578.71 277.737 1577.75 277.18Z" fill="#BD3E00"/>
<path d="M1581.48 258.37C1585.27 260.518 1575.49 268.165 1574.62 268.125C1573.84 268.089 1575.63 264.82 1574.84 264.605C1573.98 264.373 1567.09 267.421 1566.35 266.992C1565.65 266.588 1571.15 262.757 1570.75 262.294C1570.38 261.857 1564.73 262.388 1564.64 261.953C1564.53 261.414 1577.68 256.223 1581.48 258.37Z" fill="#BD3E00"/>
<path d="M1582.17 257.82C1581.21 257.263 1579.78 257.099 1579.69 256.969C1579.57 256.81 1582.46 256.052 1583.89 256.87C1585.32 257.688 1583.79 259.328 1583.53 259.27C1583.31 259.217 1583.12 258.378 1582.17 257.82Z" fill="#BD3E00"/>
<path d="M1614.2 256.281C1618 258.428 1608.22 266.075 1607.35 266.035C1606.57 265.999 1608.36 262.73 1607.56 262.515C1606.71 262.283 1599.82 265.331 1599.07 264.902C1598.37 264.498 1603.88 260.667 1603.48 260.204C1603.1 259.767 1597.46 260.298 1597.37 259.863C1597.25 259.325 1610.41 254.133 1614.2 256.281Z" fill="#BD3E00"/>
<path d="M1614.89 255.73C1613.94 255.173 1612.51 255.009 1612.41 254.88C1612.29 254.721 1615.18 253.962 1616.61 254.78C1618.04 255.598 1616.51 257.238 1616.26 257.18C1616.03 257.128 1615.85 256.288 1614.89 255.73Z" fill="#BD3E00"/>
<path d="M1619.08 235.243C1622.87 237.39 1613.09 245.037 1612.22 244.997C1611.44 244.961 1613.23 241.692 1612.44 241.477C1611.58 241.245 1604.69 244.293 1603.95 243.864C1603.25 243.46 1608.75 239.629 1608.36 239.166C1607.98 238.729 1602.34 239.26 1602.24 238.825C1602.13 238.287 1615.29 233.095 1619.08 235.243Z" fill="#BD3E00"/>
<path d="M1619.77 234.692C1618.81 234.135 1617.38 233.971 1617.29 233.841C1617.17 233.683 1620.06 232.924 1621.49 233.742C1622.92 234.56 1621.39 236.2 1621.14 236.142C1620.91 236.09 1620.72 235.25 1619.77 234.692Z" fill="#BD3E00"/>
<path d="M1651.81 233.153C1655.6 235.3 1645.82 242.947 1644.95 242.907C1644.17 242.871 1645.96 239.603 1645.17 239.387C1644.31 239.155 1637.42 242.204 1636.68 241.774C1635.98 241.37 1641.48 237.539 1641.08 237.076C1640.71 236.639 1635.07 237.17 1634.97 236.735C1634.86 236.197 1648.01 231.005 1651.81 233.153Z" fill="#BD3E00"/>
<path d="M1652.5 232.603C1651.54 232.045 1650.11 231.881 1650.02 231.752C1649.9 231.593 1652.79 230.834 1654.22 231.652C1655.65 232.471 1654.12 234.11 1653.87 234.052C1653.64 234 1653.45 233.16 1652.5 232.603Z" fill="#BD3E00"/>
<path d="M1655.75 214.069C1659.55 216.217 1649.77 223.864 1648.9 223.824C1648.11 223.787 1649.91 220.519 1649.11 220.304C1648.26 220.072 1641.37 223.12 1640.62 222.691C1639.92 222.287 1645.43 218.455 1645.03 217.993C1644.65 217.556 1639.01 218.087 1638.92 217.651C1638.8 217.113 1651.96 211.922 1655.75 214.069Z" fill="#BD3E00"/>
<path d="M1656.44 213.519C1655.49 212.962 1654.06 212.798 1653.96 212.668C1653.84 212.509 1656.73 211.75 1658.16 212.569C1659.59 213.387 1658.06 215.027 1657.81 214.968C1657.58 214.916 1657.4 214.076 1656.44 213.519Z" fill="#BD3E00"/>
<path d="M1688.48 211.979C1692.27 214.127 1682.49 221.774 1681.62 221.734C1680.84 221.697 1682.63 218.429 1681.84 218.214C1680.98 217.982 1674.09 221.03 1673.35 220.601C1672.65 220.197 1678.15 216.366 1677.75 215.903C1677.38 215.466 1671.73 215.997 1671.64 215.562C1671.53 215.023 1684.68 209.832 1688.48 211.979Z" fill="#BD3E00"/>
<path d="M1689.17 211.429C1688.21 210.872 1686.78 210.708 1686.69 210.578C1686.57 210.419 1689.46 209.66 1690.89 210.479C1692.32 211.297 1690.79 212.937 1690.53 212.879C1690.31 212.826 1690.12 211.986 1689.17 211.429Z" fill="#BD3E00"/>
<path d="M1689.27 194.749C1693.06 196.897 1683.28 204.543 1682.41 204.503C1681.63 204.467 1683.42 201.199 1682.62 200.984C1681.77 200.751 1674.88 203.8 1674.14 203.371C1673.44 202.966 1678.94 199.135 1678.54 198.672C1678.17 198.236 1672.52 198.767 1672.43 198.331C1672.32 197.793 1685.47 192.601 1689.27 194.749Z" fill="#BD3E00"/>
<path d="M1689.96 194.199C1689 193.641 1687.57 193.477 1687.47 193.348C1687.35 193.189 1690.25 192.43 1691.68 193.248C1693.11 194.067 1691.58 195.707 1691.32 195.648C1691.09 195.596 1690.91 194.756 1689.96 194.199Z" fill="#BD3E00"/>
<path d="M1721.95 192.62C1725.75 194.768 1715.97 202.414 1715.1 202.374C1714.32 202.338 1716.11 199.07 1715.31 198.855C1714.46 198.622 1707.57 201.671 1706.82 201.242C1706.12 200.837 1711.63 197.006 1711.23 196.543C1710.85 196.107 1705.21 196.638 1705.12 196.202C1705 195.664 1718.16 190.472 1721.95 192.62Z" fill="#BD3E00"/>
<path d="M1722.64 192.07C1721.69 191.512 1720.26 191.349 1720.16 191.219C1720.04 191.06 1722.93 190.301 1724.36 191.119C1725.79 191.938 1724.26 193.578 1724.01 193.519C1723.78 193.467 1723.6 192.627 1722.64 192.07Z" fill="#BD3E00"/>
<path d="M1725.97 173.536C1729.77 175.684 1719.99 183.331 1719.12 183.291C1718.34 183.255 1720.13 179.986 1719.33 179.771C1718.48 179.539 1711.59 182.587 1710.85 182.158C1710.15 181.754 1715.65 177.923 1715.25 177.46C1714.87 177.023 1709.23 177.554 1709.14 177.119C1709.02 176.58 1722.18 171.389 1725.97 173.536Z" fill="#BD3E00"/>
<path d="M1726.66 172.986C1725.71 172.429 1724.28 172.265 1724.18 172.135C1724.06 171.977 1726.95 171.218 1728.38 172.036C1729.82 172.854 1728.28 174.494 1728.03 174.436C1727.8 174.384 1727.62 173.544 1726.66 172.986Z" fill="#BD3E00"/>
<path d="M1758.7 171.447C1762.49 173.594 1752.72 181.241 1751.84 181.201C1751.06 181.165 1752.85 177.896 1752.06 177.681C1751.2 177.449 1744.31 180.497 1743.57 180.068C1742.87 179.664 1748.37 175.833 1747.98 175.37C1747.6 174.933 1741.96 175.464 1741.86 175.029C1741.75 174.491 1754.91 169.299 1758.7 171.447Z" fill="#BD3E00"/>
<path d="M1759.39 170.897C1758.43 170.339 1757.01 170.175 1756.91 170.046C1756.79 169.887 1759.68 169.128 1761.11 169.946C1762.54 170.765 1761.01 172.404 1760.76 172.346C1760.53 172.294 1760.35 171.454 1759.39 170.897Z" fill="#BD3E00"/>
<path d="M1762.76 152.285C1766.55 154.432 1756.78 162.079 1755.91 162.039C1755.12 162.003 1756.91 158.734 1756.12 158.519C1755.26 158.287 1748.38 161.335 1747.63 160.906C1746.93 160.502 1752.44 156.671 1752.04 156.208C1751.66 155.771 1746.02 156.302 1745.93 155.867C1745.81 155.329 1758.97 150.137 1762.76 152.285Z" fill="#BD3E00"/>
<path d="M1763.45 151.734C1762.5 151.177 1761.07 151.013 1760.97 150.883C1760.85 150.725 1763.74 149.966 1765.17 150.784C1766.6 151.602 1765.07 153.242 1764.82 153.184C1764.59 153.132 1764.41 152.292 1763.45 151.734Z" fill="#BD3E00"/>
<path d="M1795.49 150.195C1799.28 152.342 1789.5 159.989 1788.63 159.949C1787.85 159.913 1789.64 156.645 1788.85 156.429C1787.99 156.197 1781.1 159.246 1780.36 158.816C1779.66 158.412 1785.16 154.581 1784.76 154.118C1784.39 153.681 1778.74 154.212 1778.65 153.777C1778.54 153.239 1791.69 148.047 1795.49 150.195Z" fill="#BD3E00"/>
<path d="M1796.18 149.645C1795.22 149.087 1793.79 148.923 1793.7 148.794C1793.57 148.635 1796.47 147.876 1797.9 148.694C1799.33 149.513 1797.8 151.152 1797.54 151.094C1797.32 151.042 1797.13 150.202 1796.18 149.645Z" fill="#BD3E00"/>
<path d="M1799.51 131.072C1803.3 133.219 1793.52 140.866 1792.65 140.826C1791.87 140.79 1793.66 137.521 1792.87 137.306C1792.01 137.074 1785.12 140.122 1784.38 139.693C1783.68 139.289 1789.18 135.458 1788.78 134.995C1788.41 134.558 1782.77 135.089 1782.67 134.654C1782.56 134.116 1795.71 128.924 1799.51 131.072Z" fill="#BD3E00"/>
<path d="M1800.2 130.522C1799.24 129.964 1797.81 129.8 1797.72 129.671C1797.6 129.512 1800.49 128.753 1801.92 129.571C1803.35 130.39 1801.82 132.029 1801.57 131.971C1801.34 131.919 1801.15 131.079 1800.2 130.522Z" fill="#BD3E00"/>
<path d="M1832.2 128.982C1835.99 131.129 1826.21 138.776 1825.34 138.736C1824.56 138.7 1826.35 135.432 1825.55 135.217C1824.7 134.984 1817.81 138.033 1817.07 137.603C1816.37 137.199 1821.87 133.368 1821.47 132.905C1821.1 132.469 1815.45 133 1815.36 132.564C1815.25 132.026 1828.4 126.834 1832.2 128.982Z" fill="#BD3E00"/>
<path d="M1832.88 128.432C1831.93 127.874 1830.5 127.71 1830.4 127.581C1830.28 127.422 1833.17 126.663 1834.6 127.481C1836.04 128.3 1834.5 129.94 1834.25 129.881C1834.02 129.829 1833.84 128.989 1832.88 128.432Z" fill="#BD3E00"/>
<path d="M1836.34 109.82C1840.13 111.967 1830.35 119.614 1829.48 119.574C1828.7 119.538 1830.49 116.27 1829.69 116.054C1828.84 115.822 1821.95 118.871 1821.21 118.441C1820.51 118.037 1826.01 114.206 1825.61 113.743C1825.24 113.306 1819.59 113.837 1819.5 113.402C1819.39 112.864 1832.54 107.672 1836.34 109.82Z" fill="#BD3E00"/>
<path d="M1837.03 109.27C1836.07 108.712 1834.64 108.548 1834.54 108.419C1834.42 108.26 1837.31 107.501 1838.75 108.319C1840.18 109.138 1838.64 110.777 1838.39 110.719C1838.16 110.667 1837.98 109.827 1837.03 109.27Z" fill="#BD3E00"/>
<path d="M1869.06 107.73C1872.85 109.878 1863.08 117.524 1862.21 117.484C1861.42 117.448 1863.21 114.18 1862.42 113.965C1861.56 113.732 1854.68 116.781 1853.93 116.351C1853.23 115.947 1858.73 112.116 1858.34 111.653C1857.96 111.217 1852.32 111.748 1852.23 111.312C1852.11 110.774 1865.27 105.582 1869.06 107.73Z" fill="#BD3E00"/>
<path d="M1869.75 107.18C1868.8 106.622 1867.37 106.458 1867.27 106.329C1867.15 106.17 1870.04 105.411 1871.47 106.229C1872.9 107.048 1871.37 108.688 1871.12 108.629C1870.89 108.577 1870.71 107.737 1869.75 107.18Z" fill="#BD3E00"/>
<path d="M1873.48 88.3704C1877.27 90.5181 1867.49 98.1648 1866.62 98.1248C1865.84 98.0885 1867.63 94.8203 1866.84 94.6052C1865.98 94.3728 1859.09 97.4213 1858.35 96.9921C1857.65 96.5879 1863.15 92.7566 1862.75 92.294C1862.38 91.8573 1856.73 92.3883 1856.64 91.9527C1856.53 91.4145 1869.68 86.223 1873.48 88.3704Z" fill="#BD3E00"/>
<path d="M1874.17 87.8203C1873.21 87.2629 1871.78 87.0991 1871.69 86.9694C1871.57 86.8105 1874.46 86.0515 1875.89 86.8699C1877.32 87.6883 1875.79 89.3282 1875.53 89.2697C1875.31 89.2175 1875.12 88.3776 1874.17 87.8203Z" fill="#BD3E00"/>
<path d="M1906.2 86.2806C1910 88.4283 1900.22 96.075 1899.35 96.035C1898.57 95.9987 1900.36 92.7305 1899.56 92.5154C1898.71 92.283 1891.82 95.3315 1891.07 94.9023C1890.37 94.4981 1895.88 90.6668 1895.48 90.2041C1895.1 89.7674 1889.46 90.2984 1889.37 89.8629C1889.25 89.3246 1902.41 84.1331 1906.2 86.2806Z" fill="#BD3E00"/>
<path d="M1906.89 85.7305C1905.94 85.173 1904.51 85.0092 1904.41 84.8796C1904.29 84.7206 1907.18 83.9617 1908.61 84.7801C1910.04 85.5985 1908.51 87.2383 1908.26 87.1798C1908.03 87.1276 1907.85 86.2877 1906.89 85.7305Z" fill="#BD3E00"/>
</g>
<defs>
<clipPath id="clip0">
<rect width="1920" height="1109" fill="white" transform="translate(0 82)"/>
</clipPath>
</defs>
</svg>
