<svg width="297" height="172" viewBox="0 0 297 172" fill="none" xmlns="http://www.w3.org/2000/svg">
<path d="M45.4784 62.0814L52.9315 53.4761L28.1766 39.1851L13.2704 43.4877L0.0500374 35.8556L83.8974 12.5495L99.0698 21.3085L58.7875 69.7648L45.4784 62.0814ZM43.5264 34.8312L60.5621 44.6658L77.4203 25.0989L43.5264 34.8312Z" fill="black"/>
<path d="M187.706 72.478L125.596 108.334L113.441 101.316L153.723 78.0612L107.407 84.6176L105.988 83.7981L117.256 57.1113L77.0626 80.315L64.8182 73.2463L126.927 37.3907L139.527 44.6642L127.992 71.9145L175.106 65.2044L187.706 72.478Z" fill="black"/>
<path d="M233.616 98.9819L245.86 106.051L182.243 121.264C165.207 125.361 151.336 123.944 140.63 117.012L152.075 110.404C155.092 112.488 158.198 113.768 161.392 114.246C164.704 114.724 168.401 114.571 172.483 113.785L195.552 77.0075L207.796 84.0762L191.382 109.226L233.616 98.9819Z" fill="black"/>
<path d="M275.638 123.241C281.612 126.69 284.629 130.754 284.688 135.432C284.747 140.11 281.849 144.14 275.993 147.521C270.137 150.901 263.157 152.575 255.053 152.54C246.949 152.506 239.91 150.765 233.936 147.316L223.023 141.015L202.615 152.797L190.371 145.728L252.48 109.872L275.638 123.241ZM245.382 140.708C247.985 142.211 251.031 142.945 254.521 142.911C258.07 142.842 261.175 142.04 263.837 140.503C266.558 138.932 267.948 137.14 268.007 135.125C268.066 133.11 266.795 131.351 264.192 129.849L253.279 123.549L234.468 134.408L245.382 140.708Z" fill="black"/>
</svg>
