<svg xmlns="http://www.w3.org/2000/svg" fill="none" viewBox="0 0 86 152"><path fill="#629024" d="M38.57 48.677V85.17L6.964 103.417c0-20.155 14.15-44.663 31.604-54.74z"/><path fill="#EFC379" d="M6.965 103.427L38.57 85.18l-22.348 38.707c-5.718-3.303-9.256-10.383-9.256-20.46z"/><path fill="#ECAC19" d="M38.57 85.18v36.493c-8.728 5.039-16.629 5.516-22.349 2.215L38.57 85.18z"/><path fill="#7CB72E" d="M70.171 66.928c0 10.078-3.537 21.243-9.257 31.15L38.567 85.174 70.171 66.93z"/><path fill="#204C3D" d="M38.57 85.17l22.346 12.902c-5.719 9.906-13.62 18.552-22.347 23.59V85.169z"/><path fill="#ECAC19" d="M38.568 85.18l29.76-29.45c.288.765.537 1.564.758 2.387l.005-.004c.023.088.043.18.067.268a32.325 32.325 0 0 1 .725 3.834l.03.257a36.22 36.22 0 0 1 .119 1.158c.01.136.026.27.036.407l-.006.005c.07.942.109 1.906.109 2.891L38.568 85.18z"/><path fill="#DC590C" d="M19.43 65.167L3.528 74.348c0 5.35 3.194 7.337 7.951 4.59l7.64-4.41.311-9.361z"/><path fill="#204C3D" d="M55.79 24.214c.249 8.763-3.295 17.948-9.882 25.662-2.876 3.533-6.2 6.525-9.737 8.567l-7.977 4.605.43-23.15L55.79 24.214z"/><path fill="#659526" d="M11.341 69.831c0 11.022 7.738 15.489 17.283 9.978 9.545-5.51 17.283-18.913 17.283-29.934 0-11.022-7.738-15.49-17.283-9.98-9.545 5.512-17.283 18.914-17.283 29.936z"/><path fill="#B0470A" d="M11.668 69.641l-8.138 4.7 15.802 9.123 8.139-4.699-15.803-9.124z"/><path fill="#8F3A08" fill-rule="evenodd" d="M3.529 74.335s.053 1.3.148 1.86c.08.466.25 1.07.425 1.503.13.32.467.914.724 1.236.16.2.816.696.816.696l15.879 9.168 3.529-2.038L3.529 74.335z" clip-rule="evenodd"/><path fill="#204C3D" fill-rule="evenodd" d="M71.59 33.33l-15.802-9.124-26.124 15.083 15.802 9.123L71.589 33.33z" clip-rule="evenodd"/><path fill="#CE9511" fill-rule="evenodd" d="M84.133 64.844l-15.805-9.121L54.372 69.51v24.784l29.76-29.45z" clip-rule="evenodd"/><path fill="#629024" fill-rule="evenodd" d="M22.766 112.539l-15.801-9.123 7.9-13.683 11.998 2.194 3.802 6.928-7.9 13.682" clip-rule="evenodd"/><path fill="#EFC379" fill-rule="evenodd" d="M32.024 132.998l-15.802-9.123 6.546-11.338 9.256 20.461z" clip-rule="evenodd"/><path fill="#7CB72E" d="M54.368 57.816V94.31l-31.604 18.247c0-20.155 14.15-44.662 31.604-54.74z"/><path fill="#F4D7A5" d="M22.765 112.553l31.603-18.247-22.347 38.707c-5.72-3.303-9.256-10.383-9.256-20.46z"/><path fill="#658434" d="M54.368 72.423v21.883c-12.333 7.121-23.435 4.28-25.293-7.28l25.293-14.603z"/><path fill="#ECAC19" d="M54.368 94.306v36.493c-8.727 5.039-16.628 5.516-22.347 2.215l22.347-38.708z"/><path fill="#7CB72E" d="M85.974 76.054c0 10.078-3.538 21.243-9.257 31.149L54.37 94.301l31.604-18.247z"/><path fill="#204C3D" d="M54.368 94.309l22.348 12.903c-5.72 9.905-13.62 18.551-22.348 23.59V94.309z"/><path fill="#ECAC19" d="M54.37 94.306l29.761-29.45c.287.765.537 1.564.758 2.387l.004-.004c.024.088.044.179.067.268.047.181.092.365.136.549a31.92 31.92 0 0 1 .589 3.285l.031.257c.033.275.062.551.088.83l.03.328c.011.136.026.27.036.407l-.006.005c.07.942.11 1.905.11 2.891L54.37 94.306z"/><path fill="#DC590C" d="M35.23 74.293l-15.903 9.181c0 5.35 3.194 7.337 7.951 4.59l7.64-4.41.312-9.361z"/><path fill="#204C3D" d="M71.588 33.34c.25 8.763-3.293 17.948-9.881 25.662-2.876 3.533-6.2 6.525-9.737 8.566l-7.977 4.606.43-23.15L71.588 33.34z"/><path fill="#7CB72E" d="M27.14 78.957c0 11.022 7.738 15.489 17.283 9.978C53.968 83.425 61.706 70.022 61.706 59c0-11.022-7.738-15.49-17.283-9.98-9.545 5.512-17.283 18.914-17.283 29.936z"/><path fill="#fff" d="M27.14 78.952c3.364-8.978 9.84-17.484 17.282-21.78 7.442-4.297 13.92-3.27 17.284 1.823L27.139 78.952z"/><path fill="#204C3D" d="M32.11 76.092c0 1.88 1.32 2.642 2.948 1.702s2.948-3.226 2.948-5.106-1.32-2.643-2.948-1.703c-1.628.94-2.948 3.227-2.948 5.107z"/><path stroke="#204C3D" stroke-linecap="round" stroke-linejoin="round" stroke-miterlimit="1.5" stroke-width=".304" d="M48.552 46.638l22.777-13.15"/></svg>