<svg width="17" height="17" viewBox="0 0 17 17" fill="none" xmlns="http://www.w3.org/2000/svg">
<path d="M15.8421 3.93965C15.7971 3.9274 15.4346 4.08786 15.3954 4.06526C15.3586 4.04399 15.6482 3.84235 15.6273 3.818C15.6075 3.795 15.3105 3.82296 15.3056 3.80004C15.2996 3.7717 15.992 3.49846 16.1917 3.61151C16.3914 3.72454 15.8767 4.12701 15.8309 4.1249C15.7897 4.12297 15.884 3.95094 15.8421 3.93965Z" fill="#BD3E00"/>
<path d="M14.1197 4.03926C14.0747 4.02701 13.7122 4.18747 13.673 4.16487C13.6362 4.1436 13.9258 3.94196 13.9048 3.91761C13.8851 3.89461 13.5881 3.92257 13.5832 3.89965C13.5772 3.87131 14.2696 3.59807 14.4693 3.71112C14.669 3.82415 14.1543 4.22662 14.1085 4.22451C14.0673 4.22258 14.1616 4.05055 14.1197 4.03926Z" fill="#BD3E00"/>
<path d="M14.5045 3.68217C14.4543 3.65284 14.3791 3.6442 14.3739 3.63738C14.3676 3.62902 14.5198 3.58908 14.5951 3.63215C14.6704 3.67521 14.5898 3.76154 14.5765 3.75844C14.5645 3.7557 14.5549 3.71148 14.5045 3.68217Z" fill="#BD3E00"/>
<path d="M13.8878 5.06855C13.8428 5.05631 13.4803 5.21677 13.4411 5.19417C13.4043 5.17289 13.6939 4.97126 13.6729 4.94691C13.6532 4.92391 13.3562 4.95187 13.3513 4.92895C13.3453 4.90061 14.0377 4.62737 14.2374 4.74042C14.4371 4.85344 13.9224 5.25591 13.8766 5.25381C13.8354 5.25187 13.9297 5.07985 13.8878 5.06855Z" fill="#BD3E00"/>
<path d="M14.2726 4.71146C14.2224 4.68214 14.1472 4.6735 14.142 4.66668C14.1357 4.65831 14.2879 4.61838 14.3632 4.66144C14.4385 4.7045 14.3579 4.79084 14.3446 4.78773C14.3326 4.785 14.323 4.74078 14.2726 4.71146Z" fill="#BD3E00"/>
<path d="M12.1659 5.16816C12.1209 5.15592 11.7584 5.31638 11.7192 5.29377C11.6824 5.2725 11.972 5.07087 11.951 5.04652C11.9313 5.02352 11.6343 5.05148 11.6294 5.02856C11.6234 5.00021 12.3158 4.72698 12.5155 4.84003C12.7152 4.95305 12.2005 5.35552 12.1547 5.35342C12.1135 5.35148 12.2078 5.17946 12.1659 5.16816Z" fill="#BD3E00"/>
<path d="M12.5508 4.81107C12.5005 4.78174 12.4253 4.77311 12.4201 4.76629C12.4138 4.75792 12.566 4.71799 12.6413 4.76105C12.7166 4.80411 12.636 4.89045 12.6227 4.88734C12.6107 4.88461 12.6011 4.84039 12.5508 4.81107Z" fill="#BD3E00"/>
<path d="M11.9485 6.18086C11.9035 6.16861 11.541 6.32907 11.5018 6.30647C11.465 6.2852 11.7546 6.08356 11.7337 6.05921C11.7139 6.03621 11.4169 6.06417 11.412 6.04125C11.406 6.01291 12.0984 5.73967 12.2981 5.85272C12.4978 5.96575 11.9831 6.36822 11.9373 6.36611C11.8961 6.36418 11.9904 6.19215 11.9485 6.18086Z" fill="#BD3E00"/>
<path d="M12.3334 5.82377C12.2831 5.79444 12.2079 5.78581 12.2028 5.77898C12.1964 5.77062 12.3486 5.73069 12.4239 5.77375C12.4992 5.81681 12.4186 5.90314 12.4054 5.90004C12.3933 5.8973 12.3837 5.85308 12.3334 5.82377Z" fill="#BD3E00"/>
<path d="M10.2267 6.29707C10.1816 6.28482 9.8191 6.44528 9.77996 6.42268C9.74311 6.40141 10.0327 6.19977 10.0118 6.17542C9.992 6.15243 9.69502 6.18039 9.69014 6.15746C9.68414 6.12912 10.3766 5.85588 10.5762 5.96893C10.7759 6.08196 10.2612 6.48443 10.2154 6.48232C10.1742 6.48039 10.2685 6.30836 10.2267 6.29707Z" fill="#BD3E00"/>
<path d="M10.6115 5.93998C10.5612 5.91065 10.486 5.90202 10.4809 5.89519C10.4745 5.88683 10.6267 5.8469 10.702 5.88996C10.7773 5.93302 10.6967 6.01935 10.6835 6.01625C10.6714 6.01351 10.6618 5.96929 10.6115 5.93998Z" fill="#BD3E00"/>
<path d="M10.015 7.29316C9.96997 7.28092 9.60743 7.44138 9.56829 7.41877C9.53144 7.3975 9.82108 7.19587 9.80011 7.17152C9.78033 7.14852 9.48335 7.17648 9.47847 7.15356C9.47247 7.12521 10.1649 6.85198 10.3646 6.96503C10.5643 7.07805 10.0496 7.48052 10.0038 7.47842C9.96257 7.47648 10.0568 7.30446 10.015 7.29316Z" fill="#BD3E00"/>
<path d="M10.3998 6.93607C10.3495 6.90674 10.2743 6.89811 10.2692 6.89129C10.2629 6.88292 10.4151 6.84299 10.4903 6.88605C10.5656 6.92911 10.4851 7.01545 10.4718 7.01234C10.4597 7.00961 10.4501 6.96539 10.3998 6.93607Z" fill="#BD3E00"/>
<path d="M8.29309 7.40937C8.24808 7.39713 7.88554 7.55759 7.84639 7.53499C7.80955 7.51371 8.09918 7.31208 8.07821 7.28773C8.05844 7.26473 7.76146 7.29269 7.75657 7.26977C7.75058 7.24143 8.44299 6.96819 8.64268 7.08124C8.84237 7.19426 8.32768 7.59673 8.28187 7.59463C8.24067 7.59269 8.33493 7.42067 8.29309 7.40937Z" fill="#BD3E00"/>
<path d="M8.67792 7.05228C8.62763 7.02296 8.55243 7.01432 8.54731 7.0075C8.54097 6.99913 8.69317 6.9592 8.76844 7.00226C8.84375 7.04532 8.76317 7.13166 8.7499 7.12855C8.73782 7.12582 8.72822 7.0816 8.67792 7.05228Z" fill="#BD3E00"/>
<path d="M8.07883 8.42207C8.03381 8.40982 7.67128 8.57028 7.63213 8.54768C7.59528 8.52641 7.88492 8.32477 7.86395 8.30042C7.84417 8.27743 7.5472 8.30539 7.54231 8.28246C7.53632 8.25412 8.22872 7.98088 8.42841 8.09393C8.6281 8.20696 8.11341 8.60943 8.06761 8.60732C8.02641 8.60539 8.12067 8.43336 8.07883 8.42207Z" fill="#BD3E00"/>
<path d="M8.46365 8.06498C8.41337 8.03565 8.33816 8.02702 8.33304 8.02019C8.32671 8.01183 8.47891 7.9719 8.55418 8.01496C8.62949 8.05802 8.54891 8.14435 8.53564 8.14125C8.52356 8.13851 8.51396 8.09429 8.46365 8.06498Z" fill="#BD3E00"/>
<path d="M6.35694 8.52168C6.31192 8.50943 5.94938 8.66989 5.91023 8.64729C5.87339 8.62602 6.16303 8.42438 6.14205 8.40003C6.12228 8.37703 5.8253 8.405 5.82042 8.38207C5.81442 8.35373 6.50683 8.08049 6.70652 8.19354C6.90621 8.30657 6.39152 8.70904 6.34571 8.70693C6.30452 8.705 6.39877 8.53297 6.35694 8.52168Z" fill="#BD3E00"/>
<path d="M6.74176 8.16459C6.69147 8.13526 6.61627 8.12663 6.61115 8.1198C6.60481 8.11144 6.75701 8.07151 6.83228 8.11457C6.90759 8.15763 6.82701 8.24396 6.81374 8.24086C6.80167 8.23812 6.79207 8.1939 6.74176 8.16459Z" fill="#BD3E00"/>
<path d="M6.14578 9.53437C6.10077 9.52213 5.73823 9.68259 5.69908 9.65999C5.66224 9.63871 5.95188 9.43708 5.9309 9.41273C5.91113 9.38973 5.61415 9.41769 5.60927 9.39477C5.60327 9.36643 6.29568 9.09319 6.49537 9.20624C6.69506 9.31926 6.18037 9.72173 6.13456 9.71963C6.09337 9.71769 6.18762 9.54567 6.14578 9.53437Z" fill="#BD3E00"/>
<path d="M6.53061 9.17728C6.48032 9.14796 6.40512 9.13932 6.4 9.1325C6.39366 9.12413 6.54586 9.0842 6.62113 9.12726C6.69644 9.17032 6.61586 9.25666 6.60259 9.25355C6.59052 9.25082 6.58092 9.2066 6.53061 9.17728Z" fill="#BD3E00"/>
<path d="M4.42389 9.65058C4.37888 9.63834 4.01634 9.7988 3.97719 9.7762C3.94035 9.75492 4.22998 9.55329 4.20901 9.52894C4.18923 9.50594 3.89226 9.5339 3.88737 9.51098C3.88138 9.48264 4.57379 9.2094 4.77348 9.32245C4.97317 9.43547 4.45847 9.83794 4.41267 9.83584C4.37147 9.8339 4.46573 9.66188 4.42389 9.65058Z" fill="#BD3E00"/>
<path d="M4.80872 9.29349C4.75843 9.26417 4.68323 9.25553 4.67811 9.24871C4.67177 9.24034 4.82397 9.20041 4.89924 9.24347C4.97455 9.28653 4.89397 9.37287 4.8807 9.36976C4.86862 9.36703 4.85902 9.32281 4.80872 9.29349Z" fill="#BD3E00"/>
<path d="M4.38291 10.5471C4.33789 10.5348 3.97535 10.6953 3.93621 10.6727C3.89936 10.6514 4.189 10.4498 4.16803 10.4254C4.14825 10.4024 3.85127 10.4304 3.84639 10.4075C3.84039 10.3791 4.5328 10.1059 4.73249 10.2189C4.93218 10.332 4.41749 10.7344 4.37168 10.7323C4.33049 10.7304 4.42474 10.5584 4.38291 10.5471Z" fill="#BD3E00"/>
<path d="M4.76773 10.19C4.71745 10.1607 4.64224 10.152 4.63712 10.1452C4.63078 10.1368 4.78298 10.0969 4.85825 10.14C4.93356 10.183 4.85298 10.2694 4.83971 10.2662C4.82764 10.2635 4.81804 10.2193 4.76773 10.19Z" fill="#BD3E00"/>
<path d="M2.66101 10.6633C2.616 10.651 2.25346 10.8115 2.21431 10.7889C2.17747 10.7676 2.4671 10.566 2.44613 10.5416C2.42635 10.5186 2.12938 10.5466 2.12449 10.5237C2.1185 10.4953 2.81091 10.2221 3.0106 10.3351C3.21029 10.4482 2.6956 10.8506 2.64979 10.8485C2.60859 10.8466 2.70285 10.6746 2.66101 10.6633Z" fill="#BD3E00"/>
<path d="M3.04584 10.3062C2.99555 10.2769 2.92035 10.2682 2.91523 10.2614C2.90889 10.253 3.06109 10.2131 3.13636 10.2562C3.21167 10.2992 3.13109 10.3856 3.11782 10.3825C3.10574 10.3797 3.09614 10.3355 3.04584 10.3062Z" fill="#BD3E00"/>
<path d="M2.45297 11.6594C2.40796 11.6471 2.04542 11.8076 2.00627 11.785C1.96943 11.7637 2.25907 11.5621 2.23809 11.5377C2.21832 11.5147 1.92134 11.5427 1.91646 11.5198C1.91046 11.4914 2.60287 11.2182 2.80256 11.3312C3.00225 11.4443 2.48756 11.8467 2.44175 11.8446C2.40056 11.8427 2.49481 11.6707 2.45297 11.6594Z" fill="#BD3E00"/>
<path d="M2.8378 11.3023C2.78751 11.273 2.71231 11.2643 2.70719 11.2575C2.70085 11.2491 2.85305 11.2092 2.92832 11.2523C3.00363 11.2953 2.92305 11.3817 2.90978 11.3786C2.89771 11.3758 2.88811 11.3316 2.8378 11.3023Z" fill="#BD3E00"/>
<path d="M0.731081 11.7756C0.686065 11.7633 0.323529 11.9238 0.28438 11.9012C0.247536 11.8799 0.537172 11.6783 0.5162 11.6539C0.496423 11.6309 0.199448 11.6589 0.194563 11.636C0.188568 11.6076 0.880976 11.3344 1.08067 11.4474C1.28036 11.5605 0.765664 11.9629 0.719859 11.9608C0.678662 11.9589 0.772917 11.7869 0.731081 11.7756Z" fill="#BD3E00"/>
<path d="M1.11591 11.4185C1.06562 11.3892 0.990416 11.3805 0.985296 11.3737C0.97896 11.3653 1.13116 11.3254 1.20643 11.3685C1.28174 11.4115 1.20116 11.4979 1.18789 11.4948C1.17581 11.492 1.16621 11.4478 1.11591 11.4185Z" fill="#BD3E00"/>
</svg>
