<?xml version="1.0" encoding="UTF-8" standalone="no"?>
<!DOCTYPE svg PUBLIC "-//W3C//DTD SVG 1.1//EN" "http://www.w3.org/Graphics/SVG/1.1/DTD/svg11.dtd">
<svg width="100%" height="100%" viewBox="0 0 319 429" version="1.1" xmlns="http://www.w3.org/2000/svg" xmlns:xlink="http://www.w3.org/1999/xlink" xml:space="preserve" xmlns:serif="http://www.serif.com/" style="fill-rule:evenodd;clip-rule:evenodd;stroke-linecap:round;stroke-linejoin:round;stroke-miterlimit:1.5;">
    <g transform="matrix(1,0,0,1,-954,-883)">
        <g transform="matrix(1,0,0,1,2825.78,896.48)">
            <g id="Maloy" transform="matrix(-1.17313,0,0,1.17313,-1170.55,-41.7702)">
                <g transform="matrix(-2.46491,1.42312,1.3683e-16,2.84623,753.94,-847.274)">
                    <g transform="matrix(1,0,0,1,1.42109e-14,-257.266)">
                        <path d="M126.685,528.497L126.685,570.658L168.846,570.658C168.846,547.373 149.97,528.497 126.685,528.497" style="fill:rgb(206,149,17);fill-rule:nonzero;"/>
                    </g>
                    <g transform="matrix(1,0,0,1,1.42109e-14,-185.292)">
                        <path d="M168.846,498.685L126.685,498.685L156.498,528.497C164.127,520.867 168.846,510.328 168.846,498.685" style="fill:rgb(206,149,17);fill-rule:nonzero;"/>
                    </g>
                    <g transform="matrix(1,0,0,1,1.42109e-14,-172.944)">
                        <path d="M126.685,486.336L126.685,528.497C138.328,528.497 148.868,523.778 156.498,516.149L126.685,486.336Z" style="fill:rgb(236,172,25);fill-rule:nonzero;"/>
                    </g>
                    <g transform="matrix(1,0,0,1,1.42109e-14,-185.292)">
                        <path d="M84.524,498.685C84.524,510.328 89.243,520.867 96.873,528.497L126.685,498.685L84.524,498.685Z" style="fill:rgb(124,183,46);fill-rule:nonzero;"/>
                    </g>
                    <g transform="matrix(1,0,0,1,1.42109e-14,-172.944)">
                        <path d="M126.685,486.336L96.873,516.149C104.503,523.778 115.043,528.497 126.685,528.497L126.685,486.336Z" style="fill:rgb(32,76,61);fill-rule:nonzero;"/>
                    </g>
                    <g transform="matrix(1,0,0,1,1.42109e-14,-229.277)">
                        <path d="M126.685,542.67L86.983,528.497C86.6,529.573 86.267,530.662 85.972,531.761L85.966,531.759C85.935,531.876 85.908,531.995 85.877,532.113C85.815,532.354 85.755,532.596 85.696,532.838C85.655,533.012 85.614,533.187 85.575,533.361C85.506,533.661 85.441,533.962 85.379,534.264C85.353,534.392 85.328,534.519 85.303,534.647C85.238,534.984 85.176,535.322 85.119,535.66C85.101,535.765 85.084,535.869 85.067,535.974C85.01,536.324 84.958,536.675 84.91,537.026C84.896,537.132 84.882,537.238 84.868,537.344C84.825,537.683 84.786,538.022 84.751,538.362C84.737,538.495 84.724,538.627 84.711,538.76C84.696,538.925 84.676,539.09 84.663,539.255L84.671,539.256C84.577,540.392 84.525,541.531 84.525,542.67L126.685,542.67Z" style="fill:rgb(236,172,25);fill-rule:nonzero;"/>
                    </g>
                    <g id="Head">
                        <g transform="matrix(1,-1.11022e-16,0,1,-1.13687e-13,-276.275)">
                            <path d="M152.216,553.779L173.43,553.779C173.43,559.96 169.169,564.386 162.823,564.386L152.632,564.386L152.216,553.779Z" style="fill:rgb(220,89,12);fill-rule:nonzero;"/>
                        </g>
                        <g transform="matrix(1,-1.11022e-16,0,1,-9.9476e-14,-306.533)">
                            <path d="M103.713,560.982C103.38,571.272 108.107,579.52 116.895,584.038C120.731,586.202 125.166,587.441 129.884,587.441L140.526,587.441L139.952,560.982L103.713,560.982Z" style="fill:rgb(32,76,61);fill-rule:nonzero;"/>
                        </g>
                        <g transform="matrix(0,-1,-1,1.11022e-16,704.337,417.456)">
                            <path d="M139.951,541.33C127.218,541.33 116.896,551.652 116.896,564.386C116.896,577.119 127.218,587.442 139.951,587.442C152.685,587.442 163.008,577.119 163.008,564.386C163.008,551.652 152.685,541.33 139.951,541.33" style="fill:rgb(206,149,17);fill-rule:nonzero;"/>
                        </g>
                        <g transform="matrix(-0.3619,-1.66942e-16,-1.47855,1.47855,657.259,-206.325)">
                            <rect x="0" y="327.232" width="30" height="14.258" style="fill:rgb(176,71,10);"/>
                        </g>
                        <g transform="matrix(-0.15692,-1.13919e-16,-2.01372,2.01372,837.091,-381.45)">
                            <path d="M30,327.232C30,327.232 20.658,327.995 16.938,328.348C13.849,328.642 10.125,329.044 7.683,329.351C5.876,329.578 2.935,330.03 1.654,330.3C0.867,330.467 0,330.97 0,330.97L0,341.489L30,341.489L30,327.232Z" style="fill:rgb(143,58,8);"/>
                        </g>
                    </g>
                    <g transform="matrix(-0.405694,0.202847,1.95034e-17,0.351342,305.869,144.748)">
                        <path d="M550.258,54.543L498.297,24.54L412.394,74.136L464.356,104.136L550.258,54.543Z" style="fill:rgb(27,65,52);"/>
                    </g>
                </g>
                <path d="M591.496,158.163L539.526,128.168L493.634,173.505L493.634,255L591.496,158.163Z" style="fill:rgb(206,149,17);"/>
                <path d="M389.711,315L337.752,285.001L363.731,240.006L403.183,247.222L415.687,270.003L389.711,314.994" style="fill:rgb(206,149,17);"/>
                <path d="M420.148,382.282L368.187,352.282L389.711,315L420.148,382.282" style="fill:rgb(206,149,17);"/>
                <g transform="matrix(-2.46491,1.42312,1.3683e-16,2.84623,805.902,-817.274)">
                    <g transform="matrix(1,0,-3.432e-19,1.00618,1.42992e-14,-260.533)">
                        <path d="M126.685,528.497L126.685,570.658L168.846,570.658C168.846,547.373 149.97,528.497 126.685,528.497" style="fill:rgb(236,172,25);fill-rule:nonzero;"/>
                    </g>
                    <g transform="matrix(1,0,0,1,1.42109e-14,-185.292)">
                        <path d="M168.846,498.685L126.685,498.685L156.498,528.497C164.127,520.867 168.846,510.328 168.846,498.685" style="fill:rgb(236,172,25);fill-rule:nonzero;"/>
                    </g>
                    <g transform="matrix(1,0,0,1,1.42109e-14,-240.386)">
                        <path d="M126.685,528.497L126.685,553.779C143.139,553.779 157.949,543.091 160.428,528.497L126.685,528.497Z" style="fill:rgb(211,153,17);fill-rule:nonzero;"/>
                    </g>
                    <g transform="matrix(1,0,0,1,1.42109e-14,-172.944)">
                        <path d="M126.685,486.336L126.685,528.497C138.328,528.497 148.868,523.778 156.498,516.149L126.685,486.336Z" style="fill:rgb(21,49,40);fill-rule:nonzero;"/>
                    </g>
                    <g transform="matrix(1,2.22045e-16,-1.61997e-19,1.00292,1.42409e-14,-186.834)">
                        <path d="M84.524,498.685C84.524,510.328 89.243,520.867 96.873,528.497L126.685,498.685L84.524,498.685Z" style="fill:rgb(236,172,25);fill-rule:nonzero;"/>
                    </g>
                    <g transform="matrix(1,0,0,1,1.42109e-14,-172.944)">
                        <path d="M126.685,486.336L96.873,516.149C104.503,523.778 115.043,528.497 126.685,528.497L126.685,486.336Z" style="fill:rgb(25,57,47);fill-rule:nonzero;"/>
                    </g>
                    <g transform="matrix(1,0,0,1,1.42109e-14,-229.277)">
                        <path d="M126.685,542.67L86.983,528.497C86.6,529.573 86.267,530.662 85.972,531.761L85.966,531.759C85.935,531.876 85.908,531.995 85.877,532.113C85.815,532.354 85.755,532.596 85.696,532.838C85.655,533.012 85.614,533.187 85.575,533.361C85.506,533.661 85.441,533.962 85.379,534.264C85.353,534.392 85.328,534.519 85.303,534.647C85.238,534.984 85.176,535.322 85.119,535.66C85.101,535.765 85.084,535.869 85.067,535.974C85.01,536.324 84.958,536.675 84.91,537.026C84.896,537.132 84.882,537.238 84.868,537.344C84.825,537.683 84.786,538.022 84.751,538.362C84.737,538.495 84.724,538.627 84.711,538.76C84.696,538.925 84.676,539.09 84.663,539.255L84.671,539.256C84.577,540.392 84.525,541.531 84.525,542.67L126.685,542.67Z" style="fill:rgb(236,172,25);fill-rule:nonzero;"/>
                    </g>
                    <g id="Head1" serif:id="Head">
                        <g transform="matrix(1,-1.11022e-16,0,1,-1.13687e-13,-276.275)">
                            <path d="M152.216,553.779L173.43,553.779C173.43,559.96 169.169,564.386 162.823,564.386L152.632,564.386L152.216,553.779Z" style="fill:rgb(220,89,12);fill-rule:nonzero;"/>
                        </g>
                        <g transform="matrix(1,-1.11022e-16,0,1,-9.9476e-14,-306.533)">
                            <path d="M103.713,560.982C103.38,571.272 108.107,579.52 116.895,584.038C120.731,586.202 125.166,587.441 129.884,587.441L140.526,587.441L139.952,560.982L103.713,560.982Z" style="fill:rgb(21,49,40);fill-rule:nonzero;"/>
                        </g>
                        <g transform="matrix(0,-1,-1,1.11022e-16,704.337,417.456)">
                            <path d="M139.951,541.33C127.218,541.33 116.896,551.652 116.896,564.386C116.896,577.119 127.218,587.442 139.951,587.442C152.685,587.442 163.008,577.119 163.008,564.386C163.008,551.652 152.685,541.33 139.951,541.33" style="fill:rgb(236,172,25);fill-rule:nonzero;"/>
                        </g>
                        <g transform="matrix(1,-1.11022e-16,0,1,-9.9476e-14,-300.517)">
                            <path d="M163.008,578.021C158.52,569.892 149.879,564.386 139.952,564.386C130.024,564.386 121.383,569.892 116.895,578.021L163.008,578.021Z" style="fill:white;fill-rule:nonzero;"/>
                        </g>
                        <g transform="matrix(0,-1,-1,1.11022e-16,716.833,429.951)">
                            <path d="M152.447,560.453C150.275,560.453 148.514,562.214 148.514,564.386C148.514,566.558 150.275,568.319 152.447,568.319C154.619,568.319 156.38,566.558 156.38,564.386C156.38,562.214 154.619,560.453 152.447,560.453" style="fill:rgb(32,76,61);fill-rule:nonzero;"/>
                        </g>
                    </g>
                </g>
                <path d="M474.5,98.282L549.396,55.04" style="fill:none;stroke:rgb(32,76,61);stroke-width:1px;"/>
            </g>
        </g>
    </g>
</svg>
