<svg width="22" height="22" viewBox="0 0 22 22" fill="none" xmlns="http://www.w3.org/2000/svg">
<path d="M4.35417 22H17.6458C20.0466 22 22 20.0466 22 17.6458V4.35417C22 1.95342 20.0466 0 17.6458 0H4.35417C1.95342 0 0 1.95342 0 4.35417V17.6458C0 20.0466 1.95342 22 4.35417 22ZM1.375 4.35417C1.375 2.7115 2.7115 1.375 4.35417 1.375H17.6458C19.2885 1.375 20.625 2.7115 20.625 4.35417V17.6458C20.625 19.2885 19.2885 20.625 17.6458 20.625H4.35417C2.7115 20.625 1.375 19.2885 1.375 17.6458V4.35417Z" fill="white"/>
<path d="M11 16.6193C14.0984 16.6193 16.6192 14.0985 16.6192 11.0001C16.6192 7.90181 14.0984 5.38098 11 5.38098C7.90169 5.38098 5.38086 7.90181 5.38086 11.0001C5.38086 14.0985 7.90169 16.6193 11 16.6193ZM11 6.75598C13.3403 6.75598 15.2442 8.6599 15.2442 11.0001C15.2442 13.3404 13.3403 15.2443 11 15.2443C8.65978 15.2443 6.75586 13.3404 6.75586 11.0001C6.75586 8.6599 8.65978 6.75598 11 6.75598Z" fill="white"/>
<path d="M16.8281 6.74861C17.732 6.74861 18.4131 6.07028 18.4131 5.17103C18.4131 4.23328 17.6962 3.59344 16.8291 3.59344C15.9252 3.59344 15.2441 4.27178 15.2441 5.17103C15.2441 6.10694 15.9573 6.74861 16.8281 6.74861ZM16.9904 5.01978C17.2801 5.27553 16.6191 5.58628 16.6191 5.17194C16.6191 4.92444 16.9556 4.98861 16.9904 5.01978Z" fill="white"/>
</svg>
