<svg width="305" height="92" viewBox="0 0 305 92" fill="none" xmlns="http://www.w3.org/2000/svg">
<g filter="url(#filter0_d)">
<rect x="20" y="16" width="265" height="45" rx="22.5" fill="white"/>
<rect x="124" y="10" width="57" height="57" rx="28.5" fill="white"/>
<path d="M151.062 27.9185V40.2683H163.411C163.411 33.4476 157.882 27.9185 151.062 27.9185Z" fill="#7AB62D"/>
<path d="M163.411 40.2705H151.062L159.794 49.0023C162.029 46.7679 163.411 43.6809 163.411 40.2705Z" fill="#F1D5A3"/>
<path d="M151.062 32.865V40.2699C155.881 40.2699 160.219 37.1397 160.945 32.865H151.062Z" fill="#658434"/>
<path d="M151.062 40.2705V52.6195C154.471 52.6195 157.559 51.2377 159.794 49.0032L151.062 40.2705Z" fill="#EAAA19"/>
<path d="M138.712 40.2705C138.712 43.6809 140.094 46.7679 142.329 49.0023L151.062 40.2705H138.712Z" fill="#7AB62D"/>
<path d="M151.062 40.2705L142.329 49.0032C144.564 51.2377 147.652 52.6195 151.062 52.6195V40.2705Z" fill="#204C3D"/>
<path d="M158.542 29.7488H164.755C164.755 31.5595 163.507 32.8561 161.648 32.8561H158.663L158.542 29.7488Z" fill="#DC590C"/>
<path d="M151.061 40.2721L139.432 36.1206C139.319 36.4363 139.222 36.7554 139.135 37.077L139.134 37.0762C139.124 37.1108 139.117 37.1454 139.108 37.18C139.09 37.2509 139.072 37.3218 139.054 37.3927C139.043 37.4434 139.031 37.4949 139.019 37.5455C138.999 37.6333 138.98 37.7219 138.962 37.8097C138.955 37.8477 138.947 37.8849 138.94 37.9229C138.92 38.0208 138.902 38.1196 138.886 38.2192C138.88 38.2496 138.875 38.2808 138.87 38.3111C138.854 38.4133 138.838 38.5163 138.825 38.6193C138.821 38.6505 138.816 38.6809 138.812 38.7121C138.799 38.8117 138.788 38.9113 138.778 39.0101C138.774 39.0498 138.77 39.0886 138.767 39.1275C138.761 39.1756 138.756 39.2237 138.752 39.2727H138.755C138.727 39.6052 138.712 39.9387 138.712 40.2721H151.061Z" fill="#EAAA19"/>
<path d="M144.332 23C144.235 26.0136 145.62 28.4304 148.194 29.7532C149.318 30.3871 150.617 30.7501 151.999 30.7501H155.116L154.948 23H144.332Z" fill="#204C3D"/>
<path d="M161.697 29.7586C161.697 33.488 158.674 36.5117 154.944 36.5117C151.214 36.5117 148.191 33.488 148.191 29.7586C148.191 26.0291 151.214 23.0045 154.944 23.0045C158.674 23.0045 161.697 26.0291 161.697 29.7586Z" fill="#7AB62D"/>
<path d="M161.7 29.7603C160.386 27.3798 157.855 25.7666 154.947 25.7666C152.039 25.7666 149.508 27.3798 148.194 29.7603H161.7Z" fill="white"/>
<path d="M159.761 29.7564C159.761 30.3929 159.245 30.9087 158.608 30.9087C157.973 30.9087 157.456 30.3929 157.456 29.7564C157.456 29.12 157.973 28.6042 158.608 28.6042C159.245 28.6042 159.761 29.12 159.761 29.7564Z" fill="#204C3D"/>
<path d="M213.075 31.5874C216.378 31.5874 219.238 32.5582 219.238 36.0276C219.238 39.4987 216.545 40.467 213.37 40.467C211.099 40.467 209.376 40.4695 209.376 40.4695V45.5167H207.107V31.5874H213.075ZM213.569 33.4969H209.376V38.5558C209.376 38.5558 211.244 38.5584 213.47 38.5584C215.609 38.5584 217.091 38.0882 217.091 36.0276C217.091 33.9983 215.609 33.4969 213.569 33.4969Z" fill="#7AB62D"/>
<path d="M204.107 45.5129L197.824 31.5735H195.343L189.039 45.5129H191.35L191.898 44.2796C192.752 43.1214 194.728 41.4171 198.321 41.4171H199.998L201.844 45.5129H204.107ZM198.277 39.4966C196.312 39.4966 194.819 39.8537 193.603 40.4784L196.573 33.8729L199.132 39.4966H198.277Z" fill="#7AB62D"/>
<path d="M267.861 31.5874V33.5062H262.774V45.515H260.506V33.5062H255.428V31.5874H267.861Z" fill="#7AB62D"/>
<path d="M231.71 38.5516L236.668 31.5874H234.061L229.781 37.5783H224.958L224.969 31.5874H222.698V45.515H224.969V39.4987H229.787L234.109 45.515H236.828L231.71 38.5516Z" fill="#7AB62D"/>
<path d="M183.759 31.5869L178.492 38.0674L173.226 31.5869H170.958V45.5145H173.226V34.9086L178.492 41.3697L183.759 34.9086V45.5145H186.027V31.5869H183.759Z" fill="#7AB62D"/>
<path d="M252.166 31.5874V33.5062H242.472V37.5783H250.257V39.4987H242.472V43.6055H252.166V45.515H240.204V31.5874H252.166Z" fill="#7AB62D"/>
<path d="M124.404 31.5735C120.437 31.5735 117.239 34.6926 117.239 38.7386C117.239 42.7846 120.437 45.9037 124.404 45.9037C128.391 45.9037 131.569 42.7846 131.569 38.7386C131.569 34.6926 128.391 31.5735 124.404 31.5735ZM124.404 43.7942C121.607 43.7942 119.509 41.5758 119.509 38.7386C119.509 35.9015 121.607 33.6839 124.404 33.6839C127.202 33.6839 129.299 35.9015 129.299 38.7386C129.299 41.5758 127.202 43.7942 124.404 43.7942Z" fill="#204C3D"/>
<path d="M76.3738 31.5735C72.4064 31.5735 69.2087 34.6926 69.2087 38.7386C69.2087 42.7846 72.4064 45.9037 76.3738 45.9037C80.3607 45.9037 83.539 42.7846 83.539 38.7386C83.539 34.6926 80.3607 31.5735 76.3738 31.5735ZM76.3738 43.7942C73.5763 43.7942 71.4778 41.5758 71.4778 38.7386C71.4778 35.9015 73.5763 33.6839 76.3738 33.6839C79.1705 33.6839 81.2691 35.9015 81.2691 38.7386C81.2691 41.5758 79.1705 43.7942 76.3738 43.7942Z" fill="#204C3D"/>
<path d="M60.5182 31.769C63.8213 31.769 66.6813 32.7398 66.6813 36.2093C66.6813 39.6804 63.9885 40.6486 60.8136 40.6486C58.5429 40.6486 56.8191 40.6512 56.8191 40.6512V45.6983H54.5509V31.769H60.5182ZM61.0128 33.6785H56.8191V38.7375C56.8191 38.7375 58.6872 38.74 60.9124 38.74C63.0515 38.74 64.5346 38.2698 64.5346 36.2093C64.5346 34.1799 63.0515 33.6785 61.0128 33.6785Z" fill="#204C3D"/>
<path d="M110.776 38.7332L115.733 31.769H113.126L108.846 37.7599H104.024L104.034 31.769H101.764V45.6966H104.034V39.6804H108.853L113.174 45.6966H115.894L110.776 38.7332Z" fill="#204C3D"/>
<path d="M45.262 36.8232C42.9912 36.8232 41.2666 36.8206 41.2666 36.8206V33.6939H49.0168V31.7734H41.2666H41.2329H38.9993V45.7027H44.9665C48.2688 45.7027 51.1288 44.7319 51.1288 41.2625C51.1288 37.7914 48.436 36.8232 45.262 36.8232ZM45.4604 43.7932H41.2666V38.7343C41.2666 38.7343 43.1347 38.7326 45.3599 38.7326C47.4998 38.7326 48.9821 39.2028 48.9821 41.2625C48.9821 43.2918 47.4998 43.7932 45.4604 43.7932Z" fill="#204C3D"/>
<path d="M97.3175 41.9531C96.4353 43.0834 95.0771 43.7942 93.4943 43.7942C90.6968 43.7942 88.5991 41.5758 88.5991 38.7386C88.5991 35.9015 90.6968 33.6839 93.4943 33.6839C95.0653 33.6839 96.4159 34.3828 97.2981 35.4988L98.6039 33.6712C97.3082 32.367 95.5043 31.5735 93.4943 31.5735C89.5269 31.5735 86.3292 34.6926 86.3292 38.7386C86.3292 42.7846 89.5269 45.9037 93.4943 45.9037C95.5178 45.9037 97.3327 45.0993 98.6293 43.779L97.3175 41.9531Z" fill="#204C3D"/>
</g>
<defs>
<filter id="filter0_d" x="-16" y="-17" width="331" height="119" filterUnits="userSpaceOnUse" color-interpolation-filters="sRGB">
<feFlood flood-opacity="0" result="BackgroundImageFix"/>
<feColorMatrix in="SourceAlpha" type="matrix" values="0 0 0 0 0 0 0 0 0 0 0 0 0 0 0 0 0 0 127 0"/>
<feOffset dy="5"/>
<feGaussianBlur stdDeviation="10"/>
<feColorMatrix type="matrix" values="0 0 0 0 0 0 0 0 0 0 0 0 0 0 0 0 0 0 0.15 0"/>
<feBlend mode="normal" in2="BackgroundImageFix" result="effect1_dropShadow"/>
<feBlend mode="normal" in="SourceGraphic" in2="effect1_dropShadow" result="shape"/>
</filter>
</defs>
</svg>
