<svg width="1920" height="1109" viewBox="0 0 1920 1109" fill="none" xmlns="http://www.w3.org/2000/svg">
<g clip-path="url(#clip0)">
<path d="M1615.2 172.281C1619 174.428 1609.22 182.075 1608.35 182.035C1607.57 181.999 1609.36 178.73 1608.56 178.515C1607.71 178.283 1600.82 181.331 1600.07 180.902C1599.37 180.498 1604.88 176.667 1604.48 176.204C1604.1 175.767 1598.46 176.298 1598.37 175.863C1598.25 175.325 1611.41 170.133 1615.2 172.281Z" fill="#BD3E00"/>
<path d="M1615.89 171.73C1614.94 171.173 1613.51 171.009 1613.41 170.88C1613.29 170.721 1616.18 169.962 1617.61 170.78C1619.04 171.598 1617.51 173.238 1617.26 173.18C1617.03 173.128 1616.85 172.288 1615.89 171.73Z" fill="#BD3E00"/>
<path d="M1582.48 174.37C1586.27 176.518 1576.49 184.165 1575.62 184.125C1574.84 184.089 1576.63 180.82 1575.84 180.605C1574.98 180.373 1568.09 183.421 1567.35 182.992C1566.65 182.588 1572.15 178.757 1571.75 178.294C1571.38 177.857 1565.73 178.388 1565.64 177.953C1565.53 177.414 1578.68 172.223 1582.48 174.37Z" fill="#BD3E00"/>
<path d="M1583.17 173.82C1582.21 173.263 1580.78 173.099 1580.69 172.969C1580.57 172.81 1583.46 172.052 1584.89 172.87C1586.32 173.688 1584.79 175.328 1584.53 175.27C1584.31 175.217 1584.12 174.378 1583.17 173.82Z" fill="#BD3E00"/>
<path d="M1578.06 193.73C1581.85 195.878 1572.08 203.524 1571.21 203.484C1570.42 203.448 1572.21 200.18 1571.42 199.965C1570.56 199.732 1563.68 202.781 1562.93 202.351C1562.23 201.947 1567.73 198.116 1567.34 197.653C1566.96 197.217 1561.32 197.748 1561.23 197.312C1561.11 196.774 1574.27 191.582 1578.06 193.73Z" fill="#BD3E00"/>
<path d="M1578.75 193.18C1577.8 192.622 1576.37 192.458 1576.27 192.329C1576.15 192.17 1579.04 191.411 1580.47 192.229C1581.9 193.048 1580.37 194.688 1580.12 194.629C1579.89 194.577 1579.71 193.737 1578.75 193.18Z" fill="#BD3E00"/>
<path d="M1545.34 195.82C1549.13 197.967 1539.35 205.614 1538.48 205.574C1537.7 205.538 1539.49 202.27 1538.69 202.054C1537.84 201.822 1530.95 204.871 1530.21 204.441C1529.51 204.037 1535.01 200.206 1534.61 199.743C1534.24 199.306 1528.59 199.837 1528.5 199.402C1528.39 198.864 1541.54 193.672 1545.34 195.82Z" fill="#BD3E00"/>
<path d="M1546.03 195.27C1545.07 194.712 1543.64 194.548 1543.54 194.419C1543.42 194.26 1546.31 193.501 1547.75 194.319C1549.18 195.138 1547.64 196.777 1547.39 196.719C1547.16 196.667 1546.98 195.827 1546.03 195.27Z" fill="#BD3E00"/>
<path d="M1541.2 214.982C1544.99 217.129 1535.21 224.776 1534.34 224.736C1533.56 224.7 1535.35 221.432 1534.55 221.217C1533.7 220.984 1526.81 224.033 1526.07 223.603C1525.37 223.199 1530.87 219.368 1530.47 218.905C1530.1 218.469 1524.45 219 1524.36 218.564C1524.25 218.026 1537.4 212.834 1541.2 214.982Z" fill="#BD3E00"/>
<path d="M1541.88 214.432C1540.93 213.874 1539.5 213.71 1539.4 213.581C1539.28 213.422 1542.17 212.663 1543.6 213.481C1545.04 214.3 1543.5 215.94 1543.25 215.881C1543.02 215.829 1542.84 214.989 1541.88 214.432Z" fill="#BD3E00"/>
<path d="M1508.51 217.072C1512.3 219.219 1502.52 226.866 1501.65 226.826C1500.87 226.79 1502.66 223.521 1501.87 223.306C1501.01 223.074 1494.12 226.122 1493.38 225.693C1492.68 225.289 1498.18 221.458 1497.78 220.995C1497.41 220.558 1491.77 221.089 1491.67 220.654C1491.56 220.116 1504.71 214.924 1508.51 217.072Z" fill="#BD3E00"/>
<path d="M1509.2 216.522C1508.24 215.964 1506.81 215.8 1506.72 215.671C1506.6 215.512 1509.49 214.753 1510.92 215.571C1512.35 216.39 1510.82 218.029 1510.57 217.971C1510.34 217.919 1510.15 217.079 1509.2 216.522Z" fill="#BD3E00"/>
<path d="M1504.49 236.195C1508.28 238.342 1498.5 245.989 1497.63 245.949C1496.85 245.913 1498.64 242.645 1497.85 242.429C1496.99 242.197 1490.1 245.246 1489.36 244.816C1488.66 244.412 1494.16 240.581 1493.76 240.118C1493.39 239.681 1487.74 240.212 1487.65 239.777C1487.54 239.239 1500.69 234.047 1504.49 236.195Z" fill="#BD3E00"/>
<path d="M1505.18 235.645C1504.22 235.087 1502.79 234.923 1502.7 234.794C1502.57 234.635 1505.47 233.876 1506.9 234.694C1508.33 235.513 1506.8 237.152 1506.54 237.094C1506.32 237.042 1506.13 236.202 1505.18 235.645Z" fill="#BD3E00"/>
<path d="M1471.76 238.285C1475.55 240.432 1465.78 248.079 1464.91 248.039C1464.12 248.003 1465.91 244.734 1465.12 244.519C1464.26 244.287 1457.38 247.335 1456.63 246.906C1455.93 246.502 1461.44 242.671 1461.04 242.208C1460.66 241.771 1455.02 242.302 1454.93 241.867C1454.81 241.329 1467.97 236.137 1471.76 238.285Z" fill="#BD3E00"/>
<path d="M1472.45 237.734C1471.5 237.177 1470.07 237.013 1469.97 236.883C1469.85 236.725 1472.74 235.966 1474.17 236.784C1475.6 237.602 1474.07 239.242 1473.82 239.184C1473.59 239.132 1473.41 238.292 1472.45 237.734Z" fill="#BD3E00"/>
<path d="M1467.7 257.447C1471.49 259.594 1461.72 267.241 1460.84 267.201C1460.06 267.165 1461.85 263.896 1461.06 263.681C1460.2 263.449 1453.31 266.497 1452.57 266.068C1451.87 265.664 1457.37 261.833 1456.98 261.37C1456.6 260.933 1450.96 261.464 1450.86 261.029C1450.75 260.491 1463.91 255.299 1467.7 257.447Z" fill="#BD3E00"/>
<path d="M1468.39 256.897C1467.43 256.339 1466.01 256.175 1465.91 256.046C1465.79 255.887 1468.68 255.128 1470.11 255.946C1471.54 256.765 1470.01 258.404 1469.76 258.346C1469.53 258.294 1469.35 257.454 1468.39 256.897Z" fill="#BD3E00"/>
<path d="M1434.97 259.536C1438.77 261.684 1428.99 269.331 1428.12 269.291C1427.34 269.255 1429.13 265.986 1428.33 265.771C1427.48 265.539 1420.59 268.587 1419.85 268.158C1419.15 267.754 1424.65 263.923 1424.25 263.46C1423.87 263.023 1418.23 263.554 1418.14 263.119C1418.02 262.58 1431.18 257.389 1434.97 259.536Z" fill="#BD3E00"/>
<path d="M1435.66 258.986C1434.71 258.429 1433.28 258.265 1433.18 258.135C1433.06 257.977 1435.95 257.218 1437.38 258.036C1438.82 258.854 1437.28 260.494 1437.03 260.436C1436.8 260.384 1436.62 259.544 1435.66 258.986Z" fill="#BD3E00"/>
<path d="M1430.95 278.62C1434.75 280.768 1424.97 288.414 1424.1 288.374C1423.32 288.338 1425.11 285.07 1424.31 284.855C1423.46 284.622 1416.57 287.671 1415.82 287.242C1415.12 286.837 1420.63 283.006 1420.23 282.543C1419.85 282.107 1414.21 282.638 1414.12 282.202C1414 281.664 1427.16 276.472 1430.95 278.62Z" fill="#BD3E00"/>
<path d="M1431.64 278.07C1430.69 277.512 1429.26 277.349 1429.16 277.219C1429.04 277.06 1431.93 276.301 1433.36 277.119C1434.79 277.938 1433.26 279.578 1433.01 279.519C1432.78 279.467 1432.6 278.627 1431.64 278.07Z" fill="#BD3E00"/>
<path d="M1398.27 280.749C1402.06 282.897 1392.28 290.543 1391.41 290.503C1390.63 290.467 1392.42 287.199 1391.62 286.984C1390.77 286.751 1383.88 289.8 1383.14 289.371C1382.44 288.966 1387.94 285.135 1387.54 284.672C1387.17 284.236 1381.52 284.767 1381.43 284.331C1381.32 283.793 1394.47 278.601 1398.27 280.749Z" fill="#BD3E00"/>
<path d="M1398.96 280.199C1398 279.641 1396.57 279.477 1396.47 279.348C1396.35 279.189 1399.25 278.43 1400.68 279.248C1402.11 280.067 1400.58 281.707 1400.32 281.648C1400.09 281.596 1399.91 280.756 1398.96 280.199Z" fill="#BD3E00"/>
<path d="M1397.48 297.979C1401.27 300.127 1391.49 307.774 1390.62 307.734C1389.84 307.697 1391.63 304.429 1390.84 304.214C1389.98 303.982 1383.09 307.03 1382.35 306.601C1381.65 306.197 1387.15 302.366 1386.75 301.903C1386.38 301.466 1380.73 301.997 1380.64 301.562C1380.53 301.023 1393.68 295.832 1397.48 297.979Z" fill="#BD3E00"/>
<path d="M1398.17 297.429C1397.21 296.872 1395.78 296.708 1395.69 296.578C1395.57 296.419 1398.46 295.66 1399.89 296.479C1401.32 297.297 1399.79 298.937 1399.53 298.879C1399.31 298.826 1399.12 297.986 1398.17 297.429Z" fill="#BD3E00"/>
<path d="M1364.75 300.069C1368.55 302.217 1358.77 309.864 1357.9 309.824C1357.11 309.787 1358.91 306.519 1358.11 306.304C1357.26 306.072 1350.37 309.12 1349.62 308.691C1348.92 308.287 1354.43 304.455 1354.03 303.993C1353.65 303.556 1348.01 304.087 1347.92 303.651C1347.8 303.113 1360.96 297.922 1364.75 300.069Z" fill="#BD3E00"/>
<path d="M1365.44 299.519C1364.49 298.962 1363.06 298.798 1362.96 298.668C1362.84 298.509 1365.73 297.75 1367.16 298.569C1368.59 299.387 1367.06 301.027 1366.81 300.968C1366.58 300.916 1366.4 300.076 1365.44 299.519Z" fill="#BD3E00"/>
<path d="M1360.81 319.153C1364.6 321.3 1354.82 328.947 1353.95 328.907C1353.17 328.871 1354.96 325.603 1354.17 325.387C1353.31 325.155 1346.42 328.204 1345.68 327.774C1344.98 327.37 1350.48 323.539 1350.08 323.076C1349.71 322.639 1344.07 323.17 1343.97 322.735C1343.86 322.197 1357.01 317.005 1360.81 319.153Z" fill="#BD3E00"/>
<path d="M1361.5 318.603C1360.54 318.045 1359.11 317.881 1359.02 317.752C1358.9 317.593 1361.79 316.834 1363.22 317.652C1364.65 318.471 1363.12 320.11 1362.87 320.052C1362.64 320 1362.45 319.16 1361.5 318.603Z" fill="#BD3E00"/>
<path d="M1328.08 321.243C1331.87 323.39 1322.09 331.037 1321.22 330.997C1320.44 330.961 1322.23 327.692 1321.44 327.477C1320.58 327.245 1313.69 330.293 1312.95 329.864C1312.25 329.46 1317.75 325.629 1317.36 325.166C1316.98 324.729 1311.34 325.26 1311.24 324.825C1311.13 324.287 1324.29 319.095 1328.08 321.243Z" fill="#BD3E00"/>
<path d="M1328.77 320.692C1327.81 320.135 1326.38 319.971 1326.29 319.841C1326.17 319.683 1329.06 318.924 1330.49 319.742C1331.92 320.56 1330.39 322.2 1330.14 322.142C1329.91 322.09 1329.72 321.25 1328.77 320.692Z" fill="#BD3E00"/>
<path d="M1906.2 3.2806C1910 5.42829 1900.22 13.075 1899.35 13.035C1898.57 12.9987 1900.36 9.73046 1899.56 9.51539C1898.71 9.283 1891.82 12.3315 1891.07 11.9023C1890.37 11.4981 1895.88 7.66679 1895.48 7.20411C1895.1 6.76741 1889.46 7.29842 1889.37 6.86289C1889.25 6.32462 1902.41 1.13314 1906.2 3.2806Z" fill="#BD3E00"/>
<path d="M1906.89 2.73049C1905.94 2.17303 1904.51 2.00921 1904.41 1.87956C1904.29 1.72065 1907.18 0.961689 1908.61 1.78009C1910.04 2.5985 1908.51 4.23834 1908.26 4.17984C1908.03 4.12765 1907.85 3.28771 1906.89 2.73049Z" fill="#BD3E00"/>
<path d="M1873.48 5.37044C1877.27 7.51813 1867.49 15.1648 1866.62 15.1248C1865.84 15.0885 1867.63 11.8203 1866.84 11.6052C1865.98 11.3728 1859.09 14.4213 1858.35 13.9921C1857.65 13.5879 1863.15 9.75663 1862.75 9.29395C1862.38 8.85725 1856.73 9.38827 1856.64 8.95274C1856.53 8.41447 1869.68 3.22298 1873.48 5.37044Z" fill="#BD3E00"/>
<path d="M1874.17 4.82033C1873.21 4.26287 1871.78 4.09905 1871.69 3.9694C1871.57 3.81049 1874.46 3.05153 1875.89 3.86994C1877.32 4.68834 1875.79 6.32819 1875.53 6.26968C1875.31 6.21749 1875.12 5.37756 1874.17 4.82033Z" fill="#BD3E00"/>
<path d="M1869.06 24.7298C1872.85 26.8775 1863.08 34.5242 1862.21 34.4842C1861.42 34.4479 1863.21 31.1797 1862.42 30.9646C1861.56 30.7322 1854.68 33.7807 1853.93 33.3515C1853.23 32.9473 1858.73 29.116 1858.34 28.6533C1857.96 28.2166 1852.32 28.7476 1852.23 28.3121C1852.11 27.7738 1865.27 22.5824 1869.06 24.7298Z" fill="#BD3E00"/>
<path d="M1869.75 24.1797C1868.8 23.6222 1867.37 23.4584 1867.27 23.3288C1867.15 23.1699 1870.04 22.4109 1871.47 23.2293C1872.9 24.0477 1871.37 25.6876 1871.12 25.6291C1870.89 25.5769 1870.71 24.7369 1869.75 24.1797Z" fill="#BD3E00"/>
<path d="M1836.34 26.8197C1840.13 28.9674 1830.35 36.614 1829.48 36.574C1828.7 36.5378 1830.49 33.2695 1829.69 33.0545C1828.84 32.8221 1821.95 35.8705 1821.21 35.4413C1820.51 35.0372 1826.01 31.2058 1825.61 30.7432C1825.24 30.3065 1819.59 30.8375 1819.5 30.402C1819.39 29.8637 1832.54 24.6722 1836.34 26.8197Z" fill="#BD3E00"/>
<path d="M1837.03 26.2696C1836.07 25.7121 1834.64 25.5483 1834.54 25.4186C1834.42 25.2597 1837.31 24.5008 1838.75 25.3192C1840.18 26.1376 1838.64 27.7774 1838.39 27.7189C1838.16 27.6667 1837.98 26.8268 1837.03 26.2696Z" fill="#BD3E00"/>
<path d="M1832.2 45.9818C1835.99 48.1295 1826.21 55.7762 1825.34 55.7361C1824.56 55.6999 1826.35 52.4316 1825.55 52.2166C1824.7 51.9842 1817.81 55.0326 1817.07 54.6034C1816.37 54.1993 1821.87 50.368 1821.47 49.9053C1821.1 49.4686 1815.45 49.9996 1815.36 49.5641C1815.25 49.0258 1828.4 43.8343 1832.2 45.9818Z" fill="#BD3E00"/>
<path d="M1832.88 45.4317C1831.93 44.8742 1830.5 44.7104 1830.4 44.5807C1830.28 44.4218 1833.17 43.6629 1834.6 44.4813C1836.04 45.2997 1834.5 46.9395 1834.25 46.881C1834.02 46.8288 1833.84 45.9889 1832.88 45.4317Z" fill="#BD3E00"/>
<path d="M1799.51 48.0716C1803.3 50.2193 1793.52 57.866 1792.65 57.826C1791.87 57.7897 1793.66 54.5215 1792.87 54.3064C1792.01 54.074 1785.12 57.1225 1784.38 56.6933C1783.68 56.2891 1789.18 52.4578 1788.78 51.9951C1788.41 51.5584 1782.77 52.0894 1782.67 51.6539C1782.56 51.1156 1795.71 45.9242 1799.51 48.0716Z" fill="#BD3E00"/>
<path d="M1800.2 47.5215C1799.24 46.964 1797.81 46.8002 1797.72 46.6706C1797.6 46.5117 1800.49 45.7527 1801.92 46.5711C1803.35 47.3895 1801.82 49.0294 1801.57 48.9709C1801.34 48.9187 1801.15 48.0787 1800.2 47.5215Z" fill="#BD3E00"/>
<path d="M1795.49 67.1947C1799.28 69.3424 1789.5 76.989 1788.63 76.949C1787.85 76.9128 1789.64 73.6445 1788.85 73.4295C1787.99 73.1971 1781.1 76.2455 1780.36 75.8163C1779.66 75.4122 1785.16 71.5808 1784.76 71.1182C1784.39 70.6815 1778.74 71.2125 1778.65 70.777C1778.54 70.2387 1791.69 65.0472 1795.49 67.1947Z" fill="#BD3E00"/>
<path d="M1796.18 66.6446C1795.22 66.0871 1793.79 65.9233 1793.7 65.7936C1793.57 65.6347 1796.47 64.8758 1797.9 65.6942C1799.33 66.5126 1797.8 68.1524 1797.54 68.0939C1797.32 68.0417 1797.13 67.2018 1796.18 66.6446Z" fill="#BD3E00"/>
<path d="M1762.76 69.2845C1766.55 71.4322 1756.78 79.0789 1755.91 79.0389C1755.12 79.0026 1756.91 75.7344 1756.12 75.5193C1755.26 75.2869 1748.38 78.3354 1747.63 77.9062C1746.93 77.502 1752.44 73.6707 1752.04 73.208C1751.66 72.7713 1746.02 73.3023 1745.93 72.8668C1745.81 72.3285 1758.97 67.137 1762.76 69.2845Z" fill="#BD3E00"/>
<path d="M1763.45 68.7344C1762.5 68.1769 1761.07 68.0131 1760.97 67.8835C1760.85 67.7246 1763.74 66.9656 1765.17 67.784C1766.6 68.6024 1765.07 70.2423 1764.82 70.1837C1764.59 70.1316 1764.41 69.2916 1763.45 68.7344Z" fill="#BD3E00"/>
<path d="M1758.7 88.4466C1762.49 90.5943 1752.72 98.241 1751.84 98.201C1751.06 98.1647 1752.85 94.8965 1752.06 94.6814C1751.2 94.449 1744.31 97.4975 1743.57 97.0683C1742.87 96.6641 1748.37 92.8328 1747.98 92.3701C1747.6 91.9334 1741.96 92.4644 1741.86 92.0289C1741.75 91.4906 1754.91 86.2992 1758.7 88.4466Z" fill="#BD3E00"/>
<path d="M1759.39 87.8965C1758.43 87.339 1757.01 87.1752 1756.91 87.0456C1756.79 86.8867 1759.68 86.1277 1761.11 86.9461C1762.54 87.7645 1761.01 89.4044 1760.76 89.3459C1760.53 89.2937 1760.35 88.4537 1759.39 87.8965Z" fill="#BD3E00"/>
<path d="M1725.97 90.5365C1729.77 92.6841 1719.99 100.331 1719.12 100.291C1718.34 100.255 1720.13 96.9863 1719.33 96.7712C1718.48 96.5389 1711.59 99.5873 1710.85 99.1581C1710.15 98.754 1715.65 94.9226 1715.25 94.46C1714.87 94.0233 1709.23 94.5543 1709.14 94.1188C1709.02 93.5805 1722.18 88.389 1725.97 90.5365Z" fill="#BD3E00"/>
<path d="M1726.66 89.9863C1725.71 89.4289 1724.28 89.2651 1724.18 89.1354C1724.06 88.9765 1726.95 88.2175 1728.38 89.036C1729.82 89.8544 1728.28 91.4942 1728.03 91.4357C1727.8 91.3835 1727.62 90.5436 1726.66 89.9863Z" fill="#BD3E00"/>
<path d="M1721.95 109.62C1725.75 111.768 1715.97 119.414 1715.1 119.374C1714.32 119.338 1716.11 116.07 1715.31 115.855C1714.46 115.622 1707.57 118.671 1706.82 118.242C1706.12 117.837 1711.63 114.006 1711.23 113.543C1710.85 113.107 1705.21 113.638 1705.12 113.202C1705 112.664 1718.16 107.472 1721.95 109.62Z" fill="#BD3E00"/>
<path d="M1722.64 109.07C1721.69 108.512 1720.26 108.349 1720.16 108.219C1720.04 108.06 1722.93 107.301 1724.36 108.119C1725.79 108.938 1724.26 110.578 1724.01 110.519C1723.78 110.467 1723.6 109.627 1722.64 109.07Z" fill="#BD3E00"/>
<path d="M1689.27 111.749C1693.06 113.897 1683.28 121.543 1682.41 121.503C1681.63 121.467 1683.42 118.199 1682.62 117.984C1681.77 117.751 1674.88 120.8 1674.14 120.371C1673.44 119.966 1678.94 116.135 1678.54 115.672C1678.17 115.236 1672.52 115.767 1672.43 115.331C1672.32 114.793 1685.47 109.601 1689.27 111.749Z" fill="#BD3E00"/>
<path d="M1689.96 111.199C1689 110.641 1687.57 110.477 1687.47 110.348C1687.35 110.189 1690.25 109.43 1691.68 110.248C1693.11 111.067 1691.58 112.707 1691.32 112.648C1691.09 112.596 1690.91 111.756 1689.96 111.199Z" fill="#BD3E00"/>
<path d="M1688.48 128.979C1692.27 131.127 1682.49 138.774 1681.62 138.734C1680.84 138.697 1682.63 135.429 1681.84 135.214C1680.98 134.982 1674.09 138.03 1673.35 137.601C1672.65 137.197 1678.15 133.366 1677.75 132.903C1677.38 132.466 1671.73 132.997 1671.64 132.562C1671.53 132.023 1684.68 126.832 1688.48 128.979Z" fill="#BD3E00"/>
<path d="M1689.17 128.429C1688.21 127.872 1686.78 127.708 1686.69 127.578C1686.57 127.419 1689.46 126.66 1690.89 127.479C1692.32 128.297 1690.79 129.937 1690.53 129.879C1690.31 129.826 1690.12 128.986 1689.17 128.429Z" fill="#BD3E00"/>
<path d="M1655.75 131.069C1659.55 133.217 1649.77 140.864 1648.9 140.824C1648.11 140.787 1649.91 137.519 1649.11 137.304C1648.26 137.072 1641.37 140.12 1640.62 139.691C1639.92 139.287 1645.43 135.455 1645.03 134.993C1644.65 134.556 1639.01 135.087 1638.92 134.651C1638.8 134.113 1651.96 128.922 1655.75 131.069Z" fill="#BD3E00"/>
<path d="M1656.44 130.519C1655.49 129.962 1654.06 129.798 1653.96 129.668C1653.84 129.509 1656.73 128.75 1658.16 129.569C1659.59 130.387 1658.06 132.027 1657.81 131.968C1657.58 131.916 1657.4 131.076 1656.44 130.519Z" fill="#BD3E00"/>
<path d="M1651.81 150.153C1655.6 152.3 1645.82 159.947 1644.95 159.907C1644.17 159.871 1645.96 156.603 1645.17 156.387C1644.31 156.155 1637.42 159.204 1636.68 158.774C1635.98 158.37 1641.48 154.539 1641.08 154.076C1640.71 153.639 1635.07 154.17 1634.97 153.735C1634.86 153.197 1648.01 148.005 1651.81 150.153Z" fill="#BD3E00"/>
<path d="M1652.5 149.603C1651.54 149.045 1650.11 148.881 1650.02 148.752C1649.9 148.593 1652.79 147.834 1654.22 148.652C1655.65 149.471 1654.12 151.11 1653.87 151.052C1653.64 151 1653.45 150.16 1652.5 149.603Z" fill="#BD3E00"/>
<path d="M1619.08 152.243C1622.87 154.39 1613.09 162.037 1612.22 161.997C1611.44 161.961 1613.23 158.692 1612.44 158.477C1611.58 158.245 1604.69 161.293 1603.95 160.864C1603.25 160.46 1608.75 156.629 1608.36 156.166C1607.98 155.729 1602.34 156.26 1602.24 155.825C1602.13 155.287 1615.29 150.095 1619.08 152.243Z" fill="#BD3E00"/>
<path d="M1619.77 151.692C1618.81 151.135 1617.38 150.971 1617.29 150.841C1617.17 150.683 1620.06 149.924 1621.49 150.742C1622.92 151.56 1621.39 153.2 1621.14 153.142C1620.91 153.09 1620.72 152.25 1619.77 151.692Z" fill="#BD3E00"/>
<path d="M1034.2 508.281C1038 510.428 1028.22 518.075 1027.35 518.035C1026.57 517.999 1028.36 514.73 1027.56 514.515C1026.71 514.283 1019.82 517.331 1019.07 516.902C1018.37 516.498 1023.88 512.667 1023.48 512.204C1023.1 511.767 1017.46 512.298 1017.37 511.863C1017.25 511.325 1030.41 506.133 1034.2 508.281Z" fill="#BD3E00"/>
<path d="M1034.89 507.73C1033.94 507.173 1032.51 507.009 1032.41 506.88C1032.29 506.721 1035.18 505.962 1036.61 506.78C1038.04 507.598 1036.51 509.238 1036.26 509.18C1036.03 509.128 1035.85 508.288 1034.89 507.73Z" fill="#BD3E00"/>
<path d="M1001.48 510.37C1005.27 512.518 995.492 520.165 994.622 520.125C993.84 520.089 995.63 516.82 994.835 516.605C993.98 516.373 987.092 519.421 986.348 518.992C985.648 518.588 991.151 514.757 990.752 514.294C990.377 513.857 984.734 514.388 984.641 513.953C984.527 513.414 997.683 508.223 1001.48 510.37Z" fill="#BD3E00"/>
<path d="M1002.17 509.82C1001.21 509.263 999.783 509.099 999.686 508.969C999.565 508.81 1002.46 508.052 1003.89 508.87C1005.32 509.688 1003.79 511.328 1003.53 511.27C1003.31 511.217 1003.12 510.378 1002.17 509.82Z" fill="#BD3E00"/>
<path d="M997.061 529.73C1000.85 531.878 991.076 539.524 990.206 539.484C989.424 539.448 991.214 536.18 990.419 535.965C989.564 535.732 982.676 538.781 981.932 538.351C981.232 537.947 986.735 534.116 986.336 533.653C985.961 533.217 980.318 533.748 980.225 533.312C980.111 532.774 993.267 527.582 997.061 529.73Z" fill="#BD3E00"/>
<path d="M997.751 529.18C996.795 528.622 995.367 528.458 995.27 528.329C995.149 528.17 998.041 527.411 999.471 528.229C1000.9 529.048 999.371 530.688 999.118 530.629C998.889 530.577 998.707 529.737 997.751 529.18Z" fill="#BD3E00"/>
<path d="M964.335 531.82C968.129 533.967 958.35 541.614 957.48 541.574C956.698 541.538 958.489 538.27 957.694 538.054C956.839 537.822 949.95 540.871 949.207 540.441C948.507 540.037 954.009 536.206 953.611 535.743C953.236 535.306 947.593 535.837 947.5 535.402C947.385 534.864 960.541 529.672 964.335 531.82Z" fill="#BD3E00"/>
<path d="M965.025 531.27C964.069 530.712 962.641 530.548 962.544 530.419C962.423 530.26 965.315 529.501 966.745 530.319C968.176 531.138 966.644 532.777 966.392 532.719C966.163 532.667 965.981 531.827 965.025 531.27Z" fill="#BD3E00"/>
<path d="M960.195 550.982C963.989 553.129 954.21 560.776 953.34 560.736C952.558 560.7 954.348 557.432 953.553 557.217C952.699 556.984 945.81 560.033 945.067 559.603C944.367 559.199 949.869 555.368 949.471 554.905C949.095 554.469 943.452 555 943.36 554.564C943.245 554.026 956.401 548.834 960.195 550.982Z" fill="#BD3E00"/>
<path d="M960.885 550.432C959.929 549.874 958.501 549.71 958.403 549.581C958.283 549.422 961.174 548.663 962.605 549.481C964.036 550.3 962.504 551.94 962.252 551.881C962.023 551.829 961.84 550.989 960.885 550.432Z" fill="#BD3E00"/>
<path d="M927.509 553.072C931.302 555.219 921.524 562.866 920.653 562.826C919.871 562.79 921.662 559.521 920.867 559.306C920.012 559.074 913.123 562.122 912.38 561.693C911.68 561.289 917.183 557.458 916.784 556.995C916.409 556.558 910.766 557.089 910.673 556.654C910.559 556.116 923.715 550.924 927.509 553.072Z" fill="#BD3E00"/>
<path d="M928.198 552.522C927.243 551.964 925.814 551.8 925.717 551.671C925.596 551.512 928.488 550.753 929.918 551.571C931.35 552.39 929.818 554.029 929.566 553.971C929.337 553.919 929.154 553.079 928.198 552.522Z" fill="#BD3E00"/>
<path d="M923.487 572.195C927.281 574.342 917.502 581.989 916.632 581.949C915.85 581.913 917.64 578.645 916.845 578.429C915.991 578.197 909.102 581.246 908.359 580.816C907.659 580.412 913.161 576.581 912.763 576.118C912.387 575.681 906.744 576.212 906.652 575.777C906.537 575.239 919.693 570.047 923.487 572.195Z" fill="#BD3E00"/>
<path d="M924.177 571.645C923.221 571.087 921.793 570.923 921.695 570.794C921.575 570.635 924.466 569.876 925.897 570.694C927.328 571.513 925.796 573.152 925.544 573.094C925.315 573.042 925.132 572.202 924.177 571.645Z" fill="#BD3E00"/>
<path d="M890.761 574.285C894.555 576.432 884.776 584.079 883.906 584.039C883.124 584.003 884.914 580.734 884.119 580.519C883.264 580.287 876.376 583.335 875.632 582.906C874.932 582.502 880.435 578.671 880.037 578.208C879.661 577.771 874.018 578.302 873.926 577.867C873.811 577.329 886.967 572.137 890.761 574.285Z" fill="#BD3E00"/>
<path d="M891.451 573.734C890.496 573.177 889.067 573.013 888.97 572.883C888.849 572.725 891.741 571.966 893.171 572.784C894.603 573.602 893.071 575.242 892.819 575.184C892.59 575.132 892.407 574.292 891.451 573.734Z" fill="#BD3E00"/>
<path d="M886.7 593.447C890.494 595.594 880.715 603.241 879.845 603.201C879.063 603.165 880.853 599.896 880.058 599.681C879.203 599.449 872.315 602.497 871.571 602.068C870.871 601.664 876.374 597.833 875.976 597.37C875.6 596.933 869.957 597.464 869.865 597.029C869.75 596.491 882.906 591.299 886.7 593.447Z" fill="#BD3E00"/>
<path d="M887.39 592.897C886.435 592.339 885.006 592.175 884.909 592.046C884.788 591.887 887.68 591.128 889.11 591.946C890.542 592.765 889.01 594.404 888.758 594.346C888.529 594.294 888.346 593.454 887.39 592.897Z" fill="#BD3E00"/>
<path d="M853.974 595.536C857.768 597.684 847.989 605.331 847.119 605.291C846.337 605.255 848.128 601.986 847.333 601.771C846.478 601.539 839.589 604.587 838.846 604.158C838.146 603.754 843.649 599.923 843.25 599.46C842.875 599.023 837.232 599.554 837.139 599.119C837.025 598.58 850.18 593.389 853.974 595.536Z" fill="#BD3E00"/>
<path d="M854.665 594.986C853.709 594.429 852.28 594.265 852.183 594.135C852.063 593.977 854.954 593.218 856.385 594.036C857.816 594.854 856.284 596.494 856.032 596.436C855.803 596.384 855.62 595.544 854.665 594.986Z" fill="#BD3E00"/>
<path d="M849.953 614.62C853.746 616.768 843.967 624.414 843.097 624.374C842.315 624.338 844.106 621.07 843.311 620.855C842.456 620.622 835.567 623.671 834.824 623.242C834.124 622.837 839.627 619.006 839.228 618.543C838.853 618.107 833.21 618.638 833.117 618.202C833.003 617.664 846.158 612.472 849.953 614.62Z" fill="#BD3E00"/>
<path d="M850.643 614.07C849.687 613.512 848.258 613.349 848.161 613.219C848.041 613.06 850.932 612.301 852.363 613.119C853.794 613.938 852.262 615.578 852.01 615.519C851.781 615.467 851.598 614.627 850.643 614.07Z" fill="#BD3E00"/>
<path d="M817.266 616.749C821.06 618.897 811.281 626.543 810.411 626.503C809.629 626.467 811.419 623.199 810.624 622.984C809.769 622.751 802.881 625.8 802.137 625.371C801.437 624.966 806.94 621.135 806.542 620.672C806.166 620.236 800.523 620.767 800.43 620.331C800.316 619.793 813.472 614.601 817.266 616.749Z" fill="#BD3E00"/>
<path d="M817.956 616.199C817 615.641 815.572 615.477 815.475 615.348C815.354 615.189 818.246 614.43 819.676 615.248C821.107 616.067 819.576 617.707 819.324 617.648C819.094 617.596 818.912 616.756 817.956 616.199Z" fill="#BD3E00"/>
<path d="M816.477 633.979C820.271 636.127 810.492 643.774 809.622 643.734C808.84 643.697 810.631 640.429 809.836 640.214C808.981 639.982 802.092 643.03 801.349 642.601C800.649 642.197 806.151 638.366 805.753 637.903C805.378 637.466 799.735 637.997 799.642 637.562C799.528 637.023 812.683 631.832 816.477 633.979Z" fill="#BD3E00"/>
<path d="M817.168 633.429C816.212 632.872 814.783 632.708 814.686 632.578C814.566 632.419 817.457 631.66 818.888 632.479C820.319 633.297 818.787 634.937 818.535 634.879C818.306 634.826 818.123 633.986 817.168 633.429Z" fill="#BD3E00"/>
<path d="M783.752 636.069C787.546 638.217 777.767 645.864 776.896 645.824C776.115 645.787 777.905 642.519 777.11 642.304C776.255 642.072 769.367 645.12 768.623 644.691C767.923 644.287 773.426 640.455 773.027 639.993C772.652 639.556 767.009 640.087 766.916 639.651C766.802 639.113 779.958 633.922 783.752 636.069Z" fill="#BD3E00"/>
<path d="M784.442 635.519C783.486 634.962 782.058 634.798 781.961 634.668C781.84 634.509 784.732 633.75 786.162 634.569C787.593 635.387 786.061 637.027 785.809 636.968C785.58 636.916 785.398 636.076 784.442 635.519Z" fill="#BD3E00"/>
<path d="M779.809 655.153C783.603 657.3 773.824 664.947 772.954 664.907C772.172 664.871 773.962 661.603 773.167 661.387C772.312 661.155 765.424 664.204 764.68 663.774C763.98 663.37 769.483 659.539 769.085 659.076C768.709 658.639 763.066 659.17 762.973 658.735C762.859 658.197 776.015 653.005 779.809 655.153Z" fill="#BD3E00"/>
<path d="M780.499 654.603C779.543 654.045 778.115 653.881 778.018 653.752C777.897 653.593 780.789 652.834 782.219 653.652C783.65 654.471 782.119 656.11 781.866 656.052C781.637 656 781.455 655.16 780.499 654.603Z" fill="#BD3E00"/>
<path d="M747.079 657.243C750.873 659.39 741.094 667.037 740.224 666.997C739.442 666.961 741.233 663.692 740.438 663.477C739.583 663.245 732.694 666.293 731.951 665.864C731.251 665.46 736.753 661.629 736.355 661.166C735.98 660.729 730.337 661.26 730.244 660.825C730.13 660.287 743.285 655.095 747.079 657.243Z" fill="#BD3E00"/>
<path d="M747.769 656.692C746.813 656.135 745.385 655.971 745.288 655.841C745.167 655.683 748.059 654.924 749.489 655.742C750.92 656.56 749.389 658.2 749.137 658.142C748.907 658.09 748.725 657.25 747.769 656.692Z" fill="#BD3E00"/>
<path d="M1325.2 339.281C1329 341.428 1319.22 349.075 1318.35 349.035C1317.57 348.999 1319.36 345.73 1318.56 345.515C1317.71 345.283 1310.82 348.331 1310.07 347.902C1309.37 347.498 1314.88 343.667 1314.48 343.204C1314.1 342.767 1308.46 343.298 1308.37 342.863C1308.25 342.325 1321.41 337.133 1325.2 339.281Z" fill="#BD3E00"/>
<path d="M1325.89 338.73C1324.94 338.173 1323.51 338.009 1323.41 337.88C1323.29 337.721 1326.18 336.962 1327.61 337.78C1329.04 338.598 1327.51 340.238 1327.26 340.18C1327.03 340.128 1326.85 339.288 1325.89 338.73Z" fill="#BD3E00"/>
<path d="M1292.48 341.37C1296.27 343.518 1286.49 351.165 1285.62 351.125C1284.84 351.089 1286.63 347.82 1285.84 347.605C1284.98 347.373 1278.09 350.421 1277.35 349.992C1276.65 349.588 1282.15 345.757 1281.75 345.294C1281.38 344.857 1275.73 345.388 1275.64 344.953C1275.53 344.414 1288.68 339.223 1292.48 341.37Z" fill="#BD3E00"/>
<path d="M1293.17 340.82C1292.21 340.263 1290.78 340.099 1290.69 339.969C1290.57 339.81 1293.46 339.052 1294.89 339.87C1296.32 340.688 1294.79 342.328 1294.53 342.27C1294.31 342.217 1294.12 341.378 1293.17 340.82Z" fill="#BD3E00"/>
<path d="M1288.06 360.73C1291.85 362.878 1282.08 370.524 1281.21 370.484C1280.42 370.448 1282.21 367.18 1281.42 366.965C1280.56 366.732 1273.68 369.781 1272.93 369.351C1272.23 368.947 1277.73 365.116 1277.34 364.653C1276.96 364.217 1271.32 364.748 1271.23 364.312C1271.11 363.774 1284.27 358.582 1288.06 360.73Z" fill="#BD3E00"/>
<path d="M1288.75 360.18C1287.8 359.622 1286.37 359.458 1286.27 359.329C1286.15 359.17 1289.04 358.411 1290.47 359.229C1291.9 360.048 1290.37 361.688 1290.12 361.629C1289.89 361.577 1289.71 360.737 1288.75 360.18Z" fill="#BD3E00"/>
<path d="M1255.34 362.82C1259.13 364.967 1249.35 372.614 1248.48 372.574C1247.7 372.538 1249.49 369.27 1248.69 369.054C1247.84 368.822 1240.95 371.871 1240.21 371.441C1239.51 371.037 1245.01 367.206 1244.61 366.743C1244.24 366.306 1238.59 366.837 1238.5 366.402C1238.39 365.864 1251.54 360.672 1255.34 362.82Z" fill="#BD3E00"/>
<path d="M1256.03 362.27C1255.07 361.712 1253.64 361.548 1253.54 361.419C1253.42 361.26 1256.31 360.501 1257.75 361.319C1259.18 362.138 1257.64 363.777 1257.39 363.719C1257.16 363.667 1256.98 362.827 1256.03 362.27Z" fill="#BD3E00"/>
<path d="M1251.2 381.982C1254.99 384.129 1245.21 391.776 1244.34 391.736C1243.56 391.7 1245.35 388.432 1244.55 388.217C1243.7 387.984 1236.81 391.033 1236.07 390.603C1235.37 390.199 1240.87 386.368 1240.47 385.905C1240.1 385.469 1234.45 386 1234.36 385.564C1234.25 385.026 1247.4 379.834 1251.2 381.982Z" fill="#BD3E00"/>
<path d="M1251.88 381.432C1250.93 380.874 1249.5 380.71 1249.4 380.581C1249.28 380.422 1252.17 379.663 1253.6 380.481C1255.04 381.3 1253.5 382.94 1253.25 382.881C1253.02 382.829 1252.84 381.989 1251.88 381.432Z" fill="#BD3E00"/>
<path d="M1218.51 384.072C1222.3 386.219 1212.52 393.866 1211.65 393.826C1210.87 393.79 1212.66 390.521 1211.87 390.306C1211.01 390.074 1204.12 393.122 1203.38 392.693C1202.68 392.289 1208.18 388.458 1207.78 387.995C1207.41 387.558 1201.77 388.089 1201.67 387.654C1201.56 387.116 1214.71 381.924 1218.51 384.072Z" fill="#BD3E00"/>
<path d="M1219.2 383.522C1218.24 382.964 1216.81 382.8 1216.72 382.671C1216.6 382.512 1219.49 381.753 1220.92 382.571C1222.35 383.39 1220.82 385.029 1220.57 384.971C1220.34 384.919 1220.15 384.079 1219.2 383.522Z" fill="#BD3E00"/>
<path d="M1214.49 403.195C1218.28 405.342 1208.5 412.989 1207.63 412.949C1206.85 412.913 1208.64 409.645 1207.85 409.429C1206.99 409.197 1200.1 412.246 1199.36 411.816C1198.66 411.412 1204.16 407.581 1203.76 407.118C1203.39 406.681 1197.74 407.212 1197.65 406.777C1197.54 406.239 1210.69 401.047 1214.49 403.195Z" fill="#BD3E00"/>
<path d="M1215.18 402.645C1214.22 402.087 1212.79 401.923 1212.7 401.794C1212.57 401.635 1215.47 400.876 1216.9 401.694C1218.33 402.513 1216.8 404.152 1216.54 404.094C1216.32 404.042 1216.13 403.202 1215.18 402.645Z" fill="#BD3E00"/>
<path d="M1181.76 405.285C1185.55 407.432 1175.78 415.079 1174.91 415.039C1174.12 415.003 1175.91 411.734 1175.12 411.519C1174.26 411.287 1167.38 414.335 1166.63 413.906C1165.93 413.502 1171.44 409.671 1171.04 409.208C1170.66 408.771 1165.02 409.302 1164.93 408.867C1164.81 408.329 1177.97 403.137 1181.76 405.285Z" fill="#BD3E00"/>
<path d="M1182.45 404.734C1181.5 404.177 1180.07 404.013 1179.97 403.883C1179.85 403.725 1182.74 402.966 1184.17 403.784C1185.6 404.602 1184.07 406.242 1183.82 406.184C1183.59 406.132 1183.41 405.292 1182.45 404.734Z" fill="#BD3E00"/>
<path d="M1177.7 424.447C1181.49 426.594 1171.72 434.241 1170.84 434.201C1170.06 434.165 1171.85 430.896 1171.06 430.681C1170.2 430.449 1163.31 433.497 1162.57 433.068C1161.87 432.664 1167.37 428.833 1166.98 428.37C1166.6 427.933 1160.96 428.464 1160.86 428.029C1160.75 427.491 1173.91 422.299 1177.7 424.447Z" fill="#BD3E00"/>
<path d="M1178.39 423.897C1177.43 423.339 1176.01 423.175 1175.91 423.046C1175.79 422.887 1178.68 422.128 1180.11 422.946C1181.54 423.765 1180.01 425.404 1179.76 425.346C1179.53 425.294 1179.35 424.454 1178.39 423.897Z" fill="#BD3E00"/>
<path d="M1144.97 426.536C1148.77 428.684 1138.99 436.331 1138.12 436.291C1137.34 436.255 1139.13 432.986 1138.33 432.771C1137.48 432.539 1130.59 435.587 1129.85 435.158C1129.15 434.754 1134.65 430.923 1134.25 430.46C1133.87 430.023 1128.23 430.554 1128.14 430.119C1128.02 429.58 1141.18 424.389 1144.97 426.536Z" fill="#BD3E00"/>
<path d="M1145.66 425.986C1144.71 425.429 1143.28 425.265 1143.18 425.135C1143.06 424.977 1145.95 424.218 1147.38 425.036C1148.82 425.854 1147.28 427.494 1147.03 427.436C1146.8 427.384 1146.62 426.544 1145.66 425.986Z" fill="#BD3E00"/>
<path d="M1140.95 445.62C1144.75 447.768 1134.97 455.414 1134.1 455.374C1133.32 455.338 1135.11 452.07 1134.31 451.855C1133.46 451.622 1126.57 454.671 1125.82 454.242C1125.12 453.837 1130.63 450.006 1130.23 449.543C1129.85 449.107 1124.21 449.638 1124.12 449.202C1124 448.664 1137.16 443.472 1140.95 445.62Z" fill="#BD3E00"/>
<path d="M1141.64 445.07C1140.69 444.512 1139.26 444.349 1139.16 444.219C1139.04 444.06 1141.93 443.301 1143.36 444.119C1144.79 444.938 1143.26 446.578 1143.01 446.519C1142.78 446.467 1142.6 445.627 1141.64 445.07Z" fill="#BD3E00"/>
<path d="M1108.27 447.749C1112.06 449.897 1102.28 457.543 1101.41 457.503C1100.63 457.467 1102.42 454.199 1101.62 453.984C1100.77 453.751 1093.88 456.8 1093.14 456.371C1092.44 455.966 1097.94 452.135 1097.54 451.672C1097.17 451.236 1091.52 451.767 1091.43 451.331C1091.32 450.793 1104.47 445.601 1108.27 447.749Z" fill="#BD3E00"/>
<path d="M1108.96 447.199C1108 446.641 1106.57 446.477 1106.47 446.348C1106.35 446.189 1109.25 445.43 1110.68 446.248C1112.11 447.067 1110.58 448.707 1110.32 448.648C1110.09 448.596 1109.91 447.756 1108.96 447.199Z" fill="#BD3E00"/>
<path d="M1107.48 464.979C1111.27 467.127 1101.49 474.774 1100.62 474.734C1099.84 474.697 1101.63 471.429 1100.84 471.214C1099.98 470.982 1093.09 474.03 1092.35 473.601C1091.65 473.197 1097.15 469.366 1096.75 468.903C1096.38 468.466 1090.73 468.997 1090.64 468.562C1090.53 468.023 1103.68 462.832 1107.48 464.979Z" fill="#BD3E00"/>
<path d="M1108.17 464.429C1107.21 463.872 1105.78 463.708 1105.69 463.578C1105.57 463.419 1108.46 462.66 1109.89 463.479C1111.32 464.297 1109.79 465.937 1109.53 465.879C1109.31 465.826 1109.12 464.986 1108.17 464.429Z" fill="#BD3E00"/>
<path d="M1074.75 467.069C1078.55 469.217 1068.77 476.864 1067.9 476.824C1067.11 476.787 1068.91 473.519 1068.11 473.304C1067.26 473.072 1060.37 476.12 1059.62 475.691C1058.92 475.287 1064.43 471.455 1064.03 470.993C1063.65 470.556 1058.01 471.087 1057.92 470.651C1057.8 470.113 1070.96 464.922 1074.75 467.069Z" fill="#BD3E00"/>
<path d="M1075.44 466.519C1074.49 465.962 1073.06 465.798 1072.96 465.668C1072.84 465.509 1075.73 464.75 1077.16 465.569C1078.59 466.387 1077.06 468.027 1076.81 467.968C1076.58 467.916 1076.4 467.076 1075.44 466.519Z" fill="#BD3E00"/>
<path d="M1070.81 486.153C1074.6 488.3 1064.82 495.947 1063.95 495.907C1063.17 495.871 1064.96 492.603 1064.17 492.387C1063.31 492.155 1056.42 495.204 1055.68 494.774C1054.98 494.37 1060.48 490.539 1060.08 490.076C1059.71 489.639 1054.07 490.17 1053.97 489.735C1053.86 489.197 1067.01 484.005 1070.81 486.153Z" fill="#BD3E00"/>
<path d="M1071.5 485.603C1070.54 485.045 1069.11 484.881 1069.02 484.752C1068.9 484.593 1071.79 483.834 1073.22 484.652C1074.65 485.471 1073.12 487.11 1072.87 487.052C1072.64 487 1072.45 486.16 1071.5 485.603Z" fill="#BD3E00"/>
<path d="M1038.08 488.243C1041.87 490.39 1032.09 498.037 1031.22 497.997C1030.44 497.961 1032.23 494.692 1031.44 494.477C1030.58 494.245 1023.69 497.293 1022.95 496.864C1022.25 496.46 1027.75 492.629 1027.36 492.166C1026.98 491.729 1021.34 492.26 1021.24 491.825C1021.13 491.287 1034.29 486.095 1038.08 488.243Z" fill="#BD3E00"/>
<path d="M1038.77 487.692C1037.81 487.135 1036.38 486.971 1036.29 486.841C1036.17 486.683 1039.06 485.924 1040.49 486.742C1041.92 487.56 1040.39 489.2 1040.14 489.142C1039.91 489.09 1039.72 488.25 1038.77 487.692Z" fill="#BD3E00"/>
<path d="M454.203 844.281C457.997 846.428 448.218 854.075 447.348 854.035C446.566 853.999 448.356 850.73 447.561 850.515C446.706 850.283 439.818 853.331 439.074 852.902C438.374 852.498 443.877 848.667 443.479 848.204C443.103 847.767 437.46 848.298 437.367 847.863C437.253 847.325 450.409 842.133 454.203 844.281Z" fill="#BD3E00"/>
<path d="M454.893 843.73C453.937 843.173 452.508 843.009 452.411 842.88C452.291 842.721 455.182 841.962 456.613 842.78C458.044 843.598 456.512 845.238 456.26 845.18C456.031 845.128 455.848 844.288 454.893 843.73Z" fill="#BD3E00"/>
<path d="M421.477 846.37C425.271 848.518 415.492 856.165 414.622 856.125C413.84 856.089 415.63 852.82 414.835 852.605C413.98 852.373 407.092 855.421 406.348 854.992C405.648 854.588 411.151 850.757 410.752 850.294C410.377 849.857 404.734 850.388 404.641 849.953C404.527 849.414 417.683 844.223 421.477 846.37Z" fill="#BD3E00"/>
<path d="M422.167 845.82C421.211 845.263 419.783 845.099 419.686 844.969C419.565 844.81 422.457 844.052 423.887 844.87C425.318 845.688 423.787 847.328 423.534 847.27C423.305 847.217 423.123 846.378 422.167 845.82Z" fill="#BD3E00"/>
<path d="M417.061 865.73C420.855 867.878 411.076 875.524 410.206 875.484C409.424 875.448 411.214 872.18 410.419 871.965C409.564 871.732 402.676 874.781 401.932 874.351C401.232 873.947 406.735 870.116 406.336 869.653C405.961 869.217 400.318 869.748 400.225 869.312C400.111 868.774 413.267 863.582 417.061 865.73Z" fill="#BD3E00"/>
<path d="M417.751 865.18C416.795 864.622 415.367 864.458 415.27 864.329C415.149 864.17 418.041 863.411 419.471 864.229C420.902 865.048 419.371 866.688 419.118 866.629C418.889 866.577 418.707 865.737 417.751 865.18Z" fill="#BD3E00"/>
<path d="M384.335 867.82C388.129 869.967 378.35 877.614 377.48 877.574C376.698 877.538 378.489 874.27 377.694 874.054C376.839 873.822 369.95 876.871 369.207 876.441C368.507 876.037 374.009 872.206 373.611 871.743C373.236 871.306 367.593 871.837 367.5 871.402C367.385 870.864 380.541 865.672 384.335 867.82Z" fill="#BD3E00"/>
<path d="M385.025 867.27C384.069 866.712 382.641 866.548 382.544 866.419C382.423 866.26 385.315 865.501 386.745 866.319C388.176 867.138 386.644 868.777 386.392 868.719C386.163 868.667 385.981 867.827 385.025 867.27Z" fill="#BD3E00"/>
<path d="M380.195 886.982C383.989 889.129 374.21 896.776 373.34 896.736C372.558 896.7 374.348 893.432 373.553 893.217C372.699 892.984 365.81 896.033 365.067 895.603C364.367 895.199 369.869 891.368 369.471 890.905C369.095 890.469 363.452 891 363.36 890.564C363.245 890.026 376.401 884.834 380.195 886.982Z" fill="#BD3E00"/>
<path d="M380.885 886.432C379.929 885.874 378.501 885.71 378.403 885.581C378.283 885.422 381.174 884.663 382.605 885.481C384.036 886.3 382.504 887.94 382.252 887.881C382.023 887.829 381.84 886.989 380.885 886.432Z" fill="#BD3E00"/>
<path d="M347.509 889.072C351.302 891.219 341.524 898.866 340.653 898.826C339.871 898.79 341.662 895.521 340.867 895.306C340.012 895.074 333.123 898.122 332.38 897.693C331.68 897.289 337.183 893.458 336.784 892.995C336.409 892.558 330.766 893.089 330.673 892.654C330.559 892.116 343.715 886.924 347.509 889.072Z" fill="#BD3E00"/>
<path d="M348.198 888.522C347.243 887.964 345.814 887.8 345.717 887.671C345.596 887.512 348.488 886.753 349.918 887.571C351.35 888.39 349.818 890.029 349.566 889.971C349.337 889.919 349.154 889.079 348.198 888.522Z" fill="#BD3E00"/>
<path d="M343.487 908.195C347.281 910.342 337.502 917.989 336.632 917.949C335.85 917.913 337.64 914.645 336.845 914.429C335.991 914.197 329.102 917.246 328.359 916.816C327.659 916.412 333.161 912.581 332.763 912.118C332.387 911.681 326.744 912.212 326.652 911.777C326.537 911.239 339.693 906.047 343.487 908.195Z" fill="#BD3E00"/>
<path d="M344.177 907.645C343.221 907.087 341.793 906.923 341.695 906.794C341.575 906.635 344.466 905.876 345.897 906.694C347.328 907.513 345.796 909.152 345.544 909.094C345.315 909.042 345.132 908.202 344.177 907.645Z" fill="#BD3E00"/>
<path d="M310.761 910.285C314.555 912.432 304.776 920.079 303.906 920.039C303.124 920.003 304.914 916.734 304.119 916.519C303.264 916.287 296.376 919.335 295.632 918.906C294.932 918.502 300.435 914.671 300.037 914.208C299.661 913.771 294.018 914.302 293.926 913.867C293.811 913.329 306.967 908.137 310.761 910.285Z" fill="#BD3E00"/>
<path d="M311.451 909.734C310.496 909.177 309.067 909.013 308.97 908.883C308.849 908.725 311.741 907.966 313.171 908.784C314.603 909.602 313.071 911.242 312.819 911.184C312.59 911.132 312.407 910.292 311.451 909.734Z" fill="#BD3E00"/>
<path d="M306.7 929.447C310.494 931.594 300.715 939.241 299.845 939.201C299.063 939.165 300.853 935.896 300.058 935.681C299.203 935.449 292.315 938.497 291.571 938.068C290.871 937.664 296.374 933.833 295.976 933.37C295.6 932.933 289.957 933.464 289.865 933.029C289.75 932.491 302.906 927.299 306.7 929.447Z" fill="#BD3E00"/>
<path d="M307.39 928.897C306.435 928.339 305.006 928.175 304.909 928.046C304.788 927.887 307.68 927.128 309.11 927.946C310.542 928.765 309.01 930.404 308.758 930.346C308.529 930.294 308.346 929.454 307.39 928.897Z" fill="#BD3E00"/>
<path d="M273.974 931.536C277.768 933.684 267.989 941.331 267.119 941.291C266.337 941.255 268.128 937.986 267.333 937.771C266.478 937.539 259.589 940.587 258.846 940.158C258.146 939.754 263.649 935.923 263.25 935.46C262.875 935.023 257.232 935.554 257.139 935.119C257.025 934.58 270.18 929.389 273.974 931.536Z" fill="#BD3E00"/>
<path d="M274.665 930.986C273.709 930.429 272.28 930.265 272.183 930.135C272.063 929.977 274.954 929.218 276.385 930.036C277.816 930.854 276.284 932.494 276.032 932.436C275.803 932.384 275.62 931.544 274.665 930.986Z" fill="#BD3E00"/>
<path d="M269.953 950.62C273.746 952.768 263.967 960.414 263.097 960.374C262.315 960.338 264.106 957.07 263.311 956.855C262.456 956.622 255.567 959.671 254.824 959.242C254.124 958.837 259.627 955.006 259.228 954.543C258.853 954.107 253.21 954.638 253.117 954.202C253.003 953.664 266.158 948.472 269.953 950.62Z" fill="#BD3E00"/>
<path d="M270.643 950.07C269.687 949.512 268.258 949.349 268.161 949.219C268.041 949.06 270.932 948.301 272.363 949.119C273.794 949.938 272.262 951.578 272.01 951.519C271.781 951.467 271.598 950.627 270.643 950.07Z" fill="#BD3E00"/>
<path d="M237.266 952.749C241.06 954.897 231.281 962.543 230.411 962.503C229.629 962.467 231.419 959.199 230.624 958.984C229.769 958.751 222.881 961.8 222.137 961.371C221.437 960.966 226.94 957.135 226.542 956.672C226.166 956.236 220.523 956.767 220.43 956.331C220.316 955.793 233.472 950.601 237.266 952.749Z" fill="#BD3E00"/>
<path d="M237.956 952.199C237 951.641 235.572 951.477 235.475 951.348C235.354 951.189 238.246 950.43 239.676 951.248C241.107 952.067 239.576 953.707 239.324 953.648C239.094 953.596 238.912 952.756 237.956 952.199Z" fill="#BD3E00"/>
<path d="M236.477 969.979C240.271 972.127 230.492 979.774 229.622 979.734C228.84 979.697 230.631 976.429 229.836 976.214C228.981 975.982 222.092 979.03 221.349 978.601C220.649 978.197 226.151 974.366 225.753 973.903C225.378 973.466 219.735 973.997 219.642 973.562C219.528 973.023 232.683 967.832 236.477 969.979Z" fill="#BD3E00"/>
<path d="M237.168 969.429C236.212 968.872 234.783 968.708 234.686 968.578C234.566 968.419 237.457 967.66 238.888 968.479C240.319 969.297 238.787 970.937 238.535 970.879C238.306 970.826 238.123 969.986 237.168 969.429Z" fill="#BD3E00"/>
<path d="M203.752 972.069C207.546 974.217 197.767 981.864 196.896 981.824C196.115 981.787 197.905 978.519 197.11 978.304C196.255 978.072 189.367 981.12 188.623 980.691C187.923 980.287 193.426 976.455 193.027 975.993C192.652 975.556 187.009 976.087 186.916 975.651C186.802 975.113 199.958 969.922 203.752 972.069Z" fill="#BD3E00"/>
<path d="M204.442 971.519C203.486 970.962 202.058 970.798 201.961 970.668C201.84 970.509 204.732 969.75 206.162 970.569C207.593 971.387 206.061 973.027 205.809 972.968C205.58 972.916 205.398 972.076 204.442 971.519Z" fill="#BD3E00"/>
<path d="M199.809 991.153C203.603 993.3 193.824 1000.95 192.954 1000.91C192.172 1000.87 193.962 997.603 193.167 997.387C192.312 997.155 185.424 1000.2 184.68 999.774C183.98 999.37 189.483 995.539 189.085 995.076C188.709 994.639 183.066 995.17 182.973 994.735C182.859 994.197 196.015 989.005 199.809 991.153Z" fill="#BD3E00"/>
<path d="M200.499 990.603C199.543 990.045 198.115 989.881 198.018 989.752C197.897 989.593 200.789 988.834 202.219 989.652C203.65 990.471 202.119 992.11 201.866 992.052C201.637 992 201.455 991.16 200.499 990.603Z" fill="#BD3E00"/>
<path d="M167.079 993.243C170.873 995.39 161.094 1003.04 160.224 1003C159.442 1002.96 161.233 999.692 160.438 999.477C159.583 999.245 152.694 1002.29 151.951 1001.86C151.251 1001.46 156.753 997.629 156.355 997.166C155.98 996.729 150.337 997.26 150.244 996.825C150.13 996.287 163.285 991.095 167.079 993.243Z" fill="#BD3E00"/>
<path d="M167.769 992.692C166.813 992.135 165.385 991.971 165.288 991.841C165.167 991.683 168.059 990.924 169.489 991.742C170.92 992.56 169.389 994.2 169.137 994.142C168.907 994.09 168.725 993.25 167.769 992.692Z" fill="#BD3E00"/>
<path d="M745.203 675.281C748.997 677.428 739.218 685.075 738.348 685.035C737.566 684.999 739.356 681.73 738.561 681.515C737.706 681.283 730.818 684.331 730.074 683.902C729.374 683.498 734.877 679.667 734.479 679.204C734.103 678.767 728.46 679.298 728.367 678.863C728.253 678.325 741.409 673.133 745.203 675.281Z" fill="#BD3E00"/>
<path d="M745.893 674.73C744.937 674.173 743.508 674.009 743.411 673.88C743.291 673.721 746.182 672.962 747.613 673.78C749.044 674.598 747.512 676.238 747.26 676.18C747.031 676.128 746.848 675.288 745.893 674.73Z" fill="#BD3E00"/>
<path d="M712.477 677.37C716.271 679.518 706.492 687.165 705.622 687.125C704.84 687.089 706.63 683.82 705.835 683.605C704.98 683.373 698.092 686.421 697.348 685.992C696.648 685.588 702.151 681.757 701.752 681.294C701.377 680.857 695.734 681.388 695.641 680.953C695.527 680.414 708.683 675.223 712.477 677.37Z" fill="#BD3E00"/>
<path d="M713.167 676.82C712.211 676.263 710.783 676.099 710.686 675.969C710.565 675.81 713.457 675.052 714.887 675.87C716.318 676.688 714.787 678.328 714.534 678.27C714.305 678.217 714.123 677.378 713.167 676.82Z" fill="#BD3E00"/>
<path d="M708.061 696.73C711.855 698.878 702.076 706.524 701.206 706.484C700.424 706.448 702.214 703.18 701.419 702.965C700.564 702.732 693.676 705.781 692.932 705.351C692.232 704.947 697.735 701.116 697.336 700.653C696.961 700.217 691.318 700.748 691.225 700.312C691.111 699.774 704.267 694.582 708.061 696.73Z" fill="#BD3E00"/>
<path d="M708.751 696.18C707.795 695.622 706.367 695.458 706.27 695.329C706.149 695.17 709.041 694.411 710.471 695.229C711.902 696.048 710.371 697.688 710.118 697.629C709.889 697.577 709.707 696.737 708.751 696.18Z" fill="#BD3E00"/>
<path d="M675.335 698.82C679.129 700.967 669.35 708.614 668.48 708.574C667.698 708.538 669.489 705.27 668.694 705.054C667.839 704.822 660.95 707.871 660.207 707.441C659.507 707.037 665.009 703.206 664.611 702.743C664.236 702.306 658.593 702.837 658.5 702.402C658.385 701.864 671.541 696.672 675.335 698.82Z" fill="#BD3E00"/>
<path d="M676.025 698.27C675.069 697.712 673.641 697.548 673.544 697.419C673.423 697.26 676.315 696.501 677.745 697.319C679.176 698.138 677.644 699.777 677.392 699.719C677.163 699.667 676.981 698.827 676.025 698.27Z" fill="#BD3E00"/>
<path d="M671.195 717.982C674.989 720.129 665.21 727.776 664.34 727.736C663.558 727.7 665.348 724.432 664.553 724.217C663.699 723.984 656.81 727.033 656.067 726.603C655.367 726.199 660.869 722.368 660.471 721.905C660.095 721.469 654.452 722 654.36 721.564C654.245 721.026 667.401 715.834 671.195 717.982Z" fill="#BD3E00"/>
<path d="M671.885 717.432C670.929 716.874 669.501 716.71 669.403 716.581C669.283 716.422 672.174 715.663 673.605 716.481C675.036 717.3 673.504 718.94 673.252 718.881C673.023 718.829 672.84 717.989 671.885 717.432Z" fill="#BD3E00"/>
<path d="M638.509 720.072C642.302 722.219 632.524 729.866 631.653 729.826C630.871 729.79 632.662 726.521 631.867 726.306C631.012 726.074 624.123 729.122 623.38 728.693C622.68 728.289 628.183 724.458 627.784 723.995C627.409 723.558 621.766 724.089 621.673 723.654C621.559 723.116 634.715 717.924 638.509 720.072Z" fill="#BD3E00"/>
<path d="M639.198 719.522C638.243 718.964 636.814 718.8 636.717 718.671C636.596 718.512 639.488 717.753 640.918 718.571C642.35 719.39 640.818 721.029 640.566 720.971C640.337 720.919 640.154 720.079 639.198 719.522Z" fill="#BD3E00"/>
<path d="M634.487 739.195C638.281 741.342 628.502 748.989 627.632 748.949C626.85 748.913 628.64 745.645 627.845 745.429C626.991 745.197 620.102 748.246 619.359 747.816C618.659 747.412 624.161 743.581 623.763 743.118C623.387 742.681 617.744 743.212 617.652 742.777C617.537 742.239 630.693 737.047 634.487 739.195Z" fill="#BD3E00"/>
<path d="M635.177 738.645C634.221 738.087 632.793 737.923 632.695 737.794C632.575 737.635 635.466 736.876 636.897 737.694C638.328 738.513 636.796 740.152 636.544 740.094C636.315 740.042 636.132 739.202 635.177 738.645Z" fill="#BD3E00"/>
<path d="M601.761 741.285C605.555 743.432 595.776 751.079 594.906 751.039C594.124 751.003 595.914 747.734 595.119 747.519C594.264 747.287 587.376 750.335 586.632 749.906C585.932 749.502 591.435 745.671 591.037 745.208C590.661 744.771 585.018 745.302 584.926 744.867C584.811 744.329 597.967 739.137 601.761 741.285Z" fill="#BD3E00"/>
<path d="M602.451 740.734C601.496 740.177 600.067 740.013 599.97 739.883C599.849 739.725 602.741 738.966 604.171 739.784C605.603 740.602 604.071 742.242 603.819 742.184C603.59 742.132 603.407 741.292 602.451 740.734Z" fill="#BD3E00"/>
<path d="M597.7 760.447C601.494 762.594 591.715 770.241 590.845 770.201C590.063 770.165 591.853 766.896 591.058 766.681C590.203 766.449 583.315 769.497 582.571 769.068C581.871 768.664 587.374 764.833 586.976 764.37C586.6 763.933 580.957 764.464 580.865 764.029C580.75 763.491 593.906 758.299 597.7 760.447Z" fill="#BD3E00"/>
<path d="M598.39 759.897C597.435 759.339 596.006 759.175 595.909 759.046C595.788 758.887 598.68 758.128 600.11 758.946C601.542 759.765 600.01 761.404 599.758 761.346C599.529 761.294 599.346 760.454 598.39 759.897Z" fill="#BD3E00"/>
<path d="M564.974 762.536C568.768 764.684 558.989 772.331 558.119 772.291C557.337 772.255 559.128 768.986 558.333 768.771C557.478 768.539 550.589 771.587 549.846 771.158C549.146 770.754 554.649 766.923 554.25 766.46C553.875 766.023 548.232 766.554 548.139 766.119C548.025 765.58 561.18 760.389 564.974 762.536Z" fill="#BD3E00"/>
<path d="M565.665 761.986C564.709 761.429 563.28 761.265 563.183 761.135C563.063 760.977 565.954 760.218 567.385 761.036C568.816 761.854 567.284 763.494 567.032 763.436C566.803 763.384 566.62 762.544 565.665 761.986Z" fill="#BD3E00"/>
<path d="M560.953 781.62C564.746 783.768 554.967 791.414 554.097 791.374C553.315 791.338 555.106 788.07 554.311 787.855C553.456 787.622 546.567 790.671 545.824 790.242C545.124 789.837 550.627 786.006 550.228 785.543C549.853 785.107 544.21 785.638 544.117 785.202C544.003 784.664 557.158 779.472 560.953 781.62Z" fill="#BD3E00"/>
<path d="M561.643 781.07C560.687 780.512 559.258 780.349 559.161 780.219C559.041 780.06 561.932 779.301 563.363 780.119C564.794 780.938 563.262 782.578 563.01 782.519C562.781 782.467 562.598 781.627 561.643 781.07Z" fill="#BD3E00"/>
<path d="M528.266 783.749C532.06 785.897 522.281 793.543 521.411 793.503C520.629 793.467 522.419 790.199 521.624 789.984C520.769 789.751 513.881 792.8 513.137 792.371C512.437 791.966 517.94 788.135 517.542 787.672C517.166 787.236 511.523 787.767 511.43 787.331C511.316 786.793 524.472 781.601 528.266 783.749Z" fill="#BD3E00"/>
<path d="M528.956 783.199C528 782.641 526.572 782.477 526.475 782.348C526.354 782.189 529.246 781.43 530.676 782.248C532.107 783.067 530.576 784.707 530.324 784.648C530.094 784.596 529.912 783.756 528.956 783.199Z" fill="#BD3E00"/>
<path d="M527.477 800.979C531.271 803.127 521.492 810.774 520.622 810.734C519.84 810.697 521.631 807.429 520.836 807.214C519.981 806.982 513.092 810.03 512.349 809.601C511.649 809.197 517.151 805.366 516.753 804.903C516.378 804.466 510.735 804.997 510.642 804.562C510.528 804.023 523.683 798.832 527.477 800.979Z" fill="#BD3E00"/>
<path d="M528.168 800.429C527.212 799.872 525.783 799.708 525.686 799.578C525.566 799.419 528.457 798.66 529.888 799.479C531.319 800.297 529.787 801.937 529.535 801.879C529.306 801.826 529.123 800.986 528.168 800.429Z" fill="#BD3E00"/>
<path d="M494.752 803.069C498.546 805.217 488.767 812.864 487.896 812.824C487.115 812.787 488.905 809.519 488.11 809.304C487.255 809.072 480.367 812.12 479.623 811.691C478.923 811.287 484.426 807.455 484.027 806.993C483.652 806.556 478.009 807.087 477.916 806.651C477.802 806.113 490.958 800.922 494.752 803.069Z" fill="#BD3E00"/>
<path d="M495.442 802.519C494.486 801.962 493.058 801.798 492.961 801.668C492.84 801.509 495.732 800.75 497.162 801.569C498.593 802.387 497.061 804.027 496.809 803.968C496.58 803.916 496.398 803.076 495.442 802.519Z" fill="#BD3E00"/>
<path d="M490.809 822.153C494.603 824.3 484.824 831.947 483.954 831.907C483.172 831.871 484.962 828.603 484.167 828.387C483.312 828.155 476.424 831.204 475.68 830.774C474.98 830.37 480.483 826.539 480.085 826.076C479.709 825.639 474.066 826.17 473.973 825.735C473.859 825.197 487.015 820.005 490.809 822.153Z" fill="#BD3E00"/>
<path d="M491.499 821.603C490.543 821.045 489.115 820.881 489.018 820.752C488.897 820.593 491.789 819.834 493.219 820.652C494.65 821.471 493.119 823.11 492.866 823.052C492.637 823 492.455 822.16 491.499 821.603Z" fill="#BD3E00"/>
<path d="M458.079 824.243C461.873 826.39 452.094 834.037 451.224 833.997C450.442 833.961 452.233 830.692 451.438 830.477C450.583 830.245 443.694 833.293 442.951 832.864C442.251 832.46 447.753 828.629 447.355 828.166C446.98 827.729 441.337 828.26 441.244 827.825C441.13 827.287 454.285 822.095 458.079 824.243Z" fill="#BD3E00"/>
<path d="M458.769 823.692C457.813 823.135 456.385 822.971 456.288 822.841C456.167 822.683 459.059 821.924 460.489 822.742C461.92 823.56 460.389 825.2 460.137 825.142C459.907 825.09 459.725 824.25 458.769 823.692Z" fill="#BD3E00"/>
<path d="M165.203 1012.28C168.997 1014.43 159.218 1022.07 158.348 1022.03C157.566 1022 159.356 1018.73 158.561 1018.52C157.706 1018.28 150.818 1021.33 150.074 1020.9C149.374 1020.5 154.877 1016.67 154.479 1016.2C154.103 1015.77 148.46 1016.3 148.367 1015.86C148.253 1015.32 161.409 1010.13 165.203 1012.28Z" fill="#BD3E00"/>
<path d="M165.893 1011.73C164.937 1011.17 163.508 1011.01 163.411 1010.88C163.291 1010.72 166.182 1009.96 167.613 1010.78C169.044 1011.6 167.512 1013.24 167.26 1013.18C167.031 1013.13 166.848 1012.29 165.893 1011.73Z" fill="#BD3E00"/>
<path d="M132.477 1014.37C136.271 1016.52 126.492 1024.16 125.622 1024.12C124.84 1024.09 126.63 1020.82 125.835 1020.61C124.98 1020.37 118.092 1023.42 117.348 1022.99C116.648 1022.59 122.151 1018.76 121.752 1018.29C121.377 1017.86 115.734 1018.39 115.641 1017.95C115.527 1017.41 128.683 1012.22 132.477 1014.37Z" fill="#BD3E00"/>
<path d="M133.167 1013.82C132.211 1013.26 130.783 1013.1 130.686 1012.97C130.565 1012.81 133.457 1012.05 134.887 1012.87C136.318 1013.69 134.787 1015.33 134.534 1015.27C134.305 1015.22 134.123 1014.38 133.167 1013.82Z" fill="#BD3E00"/>
<path d="M128.061 1033.73C131.855 1035.88 122.076 1043.52 121.206 1043.48C120.424 1043.45 122.214 1040.18 121.419 1039.96C120.564 1039.73 113.676 1042.78 112.932 1042.35C112.232 1041.95 117.735 1038.12 117.336 1037.65C116.961 1037.22 111.318 1037.75 111.225 1037.31C111.111 1036.77 124.267 1031.58 128.061 1033.73Z" fill="#BD3E00"/>
<path d="M128.751 1033.18C127.795 1032.62 126.367 1032.46 126.27 1032.33C126.149 1032.17 129.041 1031.41 130.471 1032.23C131.902 1033.05 130.371 1034.69 130.118 1034.63C129.889 1034.58 129.707 1033.74 128.751 1033.18Z" fill="#BD3E00"/>
<path d="M95.3353 1035.82C99.129 1037.97 89.3503 1045.61 88.48 1045.57C87.6981 1045.54 89.4885 1042.27 88.6936 1042.05C87.8387 1041.82 80.9501 1044.87 80.2067 1044.44C79.5067 1044.04 85.0093 1040.21 84.6109 1039.74C84.2355 1039.31 78.5926 1039.84 78.4998 1039.4C78.3854 1038.86 91.5412 1033.67 95.3353 1035.82Z" fill="#BD3E00"/>
<path d="M96.0251 1035.27C95.0693 1034.71 93.6408 1034.55 93.5435 1034.42C93.4231 1034.26 96.3145 1033.5 97.745 1034.32C99.1763 1035.14 97.6445 1036.78 97.3924 1036.72C97.1633 1036.67 96.9805 1035.83 96.0251 1035.27Z" fill="#BD3E00"/>
<path d="M91.1952 1054.98C94.9889 1057.13 85.2101 1064.78 84.3398 1064.74C83.5579 1064.7 85.3484 1061.43 84.5535 1061.22C83.6986 1060.98 76.81 1064.03 76.0666 1063.6C75.3665 1063.2 80.8692 1059.37 80.4707 1058.91C80.0954 1058.47 74.4524 1059 74.3596 1058.56C74.2453 1058.03 87.4011 1052.83 91.1952 1054.98Z" fill="#BD3E00"/>
<path d="M91.885 1054.43C90.9291 1053.87 89.5007 1053.71 89.4034 1053.58C89.283 1053.42 92.1744 1052.66 93.6049 1053.48C95.0362 1054.3 93.5044 1055.94 93.2522 1055.88C93.0232 1055.83 92.8404 1054.99 91.885 1054.43Z" fill="#BD3E00"/>
<path d="M58.5087 1057.07C62.3024 1059.22 52.5236 1066.87 51.6533 1066.83C50.8714 1066.79 52.6618 1063.52 51.8669 1063.31C51.0121 1063.07 44.1235 1066.12 43.38 1065.69C42.68 1065.29 48.1827 1061.46 47.7842 1061C47.4089 1060.56 41.7659 1061.09 41.6731 1060.65C41.5588 1060.12 54.7146 1054.92 58.5087 1057.07Z" fill="#BD3E00"/>
<path d="M59.1984 1056.52C58.2426 1055.96 56.8141 1055.8 56.7169 1055.67C56.5965 1055.51 59.4879 1054.75 60.9184 1055.57C62.3497 1056.39 60.8178 1058.03 60.5657 1057.97C60.3367 1057.92 60.1539 1057.08 59.1984 1056.52Z" fill="#BD3E00"/>
<path d="M54.4872 1076.19C58.2809 1078.34 48.5021 1085.99 47.6318 1085.95C46.8499 1085.91 48.6404 1082.64 47.8455 1082.43C46.9906 1082.2 40.102 1085.25 39.3586 1084.82C38.6585 1084.41 44.1612 1080.58 43.7627 1080.12C43.3874 1079.68 37.7444 1080.21 37.6516 1079.78C37.5373 1079.24 50.6931 1074.05 54.4872 1076.19Z" fill="#BD3E00"/>
<path d="M55.177 1075.64C54.2211 1075.09 52.7927 1074.92 52.6954 1074.79C52.575 1074.63 55.4664 1073.88 56.8969 1074.69C58.3282 1075.51 56.7963 1077.15 56.5442 1077.09C56.3152 1077.04 56.1324 1076.2 55.177 1075.64Z" fill="#BD3E00"/>
<path d="M21.7611 1078.28C25.5548 1080.43 15.7761 1088.08 14.9058 1088.04C14.1238 1088 15.9143 1084.73 15.1194 1084.52C14.2645 1084.29 7.37591 1087.34 6.63249 1086.91C5.93244 1086.5 11.4351 1082.67 11.0367 1082.21C10.6613 1081.77 5.01837 1082.3 4.92554 1081.87C4.81123 1081.33 17.967 1076.14 21.7611 1078.28Z" fill="#BD3E00"/>
<path d="M22.4514 1077.73C21.4955 1077.18 20.0671 1077.01 19.9698 1076.88C19.8494 1076.72 22.7408 1075.97 24.1713 1076.78C25.6026 1077.6 24.0708 1079.24 23.8186 1079.18C23.5896 1079.13 23.4068 1078.29 22.4514 1077.73Z" fill="#BD3E00"/>
<path d="M17.7001 1097.45C21.4938 1099.59 11.715 1107.24 10.8447 1107.2C10.0628 1107.16 11.8532 1103.9 11.0584 1103.68C10.2035 1103.45 3.31487 1106.5 2.57145 1106.07C1.87141 1105.66 7.37409 1101.83 6.97562 1101.37C6.60027 1100.93 0.957331 1101.46 0.864505 1101.03C0.750195 1100.49 13.906 1095.3 17.7001 1097.45Z" fill="#BD3E00"/>
<path d="M18.3903 1096.9C17.4345 1096.34 16.006 1096.18 15.9088 1096.05C15.7884 1095.89 18.6798 1095.13 20.1103 1095.95C21.5416 1096.76 20.0097 1098.4 19.7576 1098.35C19.5286 1098.29 19.3458 1097.45 18.3903 1096.9Z" fill="#BD3E00"/>
</g>
<defs>
<clipPath id="clip0">
<rect width="1920" height="1109" fill="white"/>
</clipPath>
</defs>
</svg>
