<svg width="414" height="492" viewBox="0 0 414 492" fill="none" xmlns="http://www.w3.org/2000/svg">
<path d="M400.203 85.2806C403.997 87.4283 394.218 95.075 393.348 95.035C392.566 94.9987 394.356 91.7305 393.561 91.5154C392.706 91.283 385.818 94.3315 385.074 93.9023C384.374 93.4981 389.877 89.6668 389.479 89.2041C389.103 88.7674 383.46 89.2984 383.367 88.8629C383.253 88.3246 396.409 83.1331 400.203 85.2806Z" fill="#BD3E00"/>
<path d="M400.893 84.7305C399.937 84.173 398.509 84.0092 398.411 83.8796C398.291 83.7206 401.182 82.9617 402.613 83.7801C404.044 84.5985 402.512 86.2383 402.26 86.1798C402.031 86.1276 401.848 85.2877 400.893 84.7305Z" fill="#BD3E00"/>
<path d="M367.477 87.3704C371.271 89.5181 361.492 97.1648 360.622 97.1248C359.84 97.0885 361.63 93.8203 360.835 93.6052C359.981 93.3728 353.092 96.4213 352.349 95.9921C351.649 95.5879 357.151 91.7566 356.753 91.294C356.377 90.8573 350.734 91.3883 350.642 90.9527C350.527 90.4145 363.683 85.223 367.477 87.3704Z" fill="#BD3E00"/>
<path d="M368.167 86.8203C367.211 86.2629 365.783 86.0991 365.686 85.9694C365.565 85.8105 368.457 85.0515 369.887 85.8699C371.318 86.6883 369.787 88.3282 369.534 88.2697C369.305 88.2175 369.123 87.3776 368.167 86.8203Z" fill="#BD3E00"/>
<path d="M363.061 106.73C366.855 108.878 357.076 116.524 356.206 116.484C355.424 116.448 357.214 113.18 356.419 112.965C355.565 112.732 348.676 115.781 347.933 115.351C347.232 114.947 352.735 111.116 352.337 110.653C351.961 110.217 346.318 110.748 346.226 110.312C346.111 109.774 359.267 104.582 363.061 106.73Z" fill="#BD3E00"/>
<path d="M363.751 106.18C362.795 105.622 361.367 105.458 361.27 105.329C361.149 105.17 364.041 104.411 365.471 105.229C366.902 106.048 365.371 107.688 365.118 107.629C364.889 107.577 364.707 106.737 363.751 106.18Z" fill="#BD3E00"/>
<path d="M330.335 108.82C334.129 110.967 324.35 118.614 323.48 118.574C322.698 118.538 324.489 115.27 323.694 115.054C322.839 114.822 315.95 117.871 315.207 117.441C314.507 117.037 320.009 113.206 319.611 112.743C319.236 112.306 313.593 112.837 313.5 112.402C313.385 111.864 326.541 106.672 330.335 108.82Z" fill="#BD3E00"/>
<path d="M331.025 108.27C330.07 107.712 328.641 107.548 328.544 107.419C328.423 107.26 331.315 106.501 332.745 107.319C334.177 108.138 332.645 109.777 332.393 109.719C332.164 109.667 331.981 108.827 331.025 108.27Z" fill="#BD3E00"/>
<path d="M326.195 127.982C329.989 130.129 320.21 137.776 319.34 137.736C318.558 137.7 320.348 134.432 319.553 134.217C318.699 133.984 311.81 137.033 311.067 136.603C310.367 136.199 315.869 132.368 315.471 131.905C315.095 131.469 309.452 132 309.36 131.564C309.245 131.026 322.401 125.834 326.195 127.982Z" fill="#BD3E00"/>
<path d="M326.885 127.432C325.929 126.874 324.501 126.71 324.404 126.581C324.283 126.422 327.175 125.663 328.605 126.481C330.036 127.3 328.505 128.94 328.252 128.881C328.023 128.829 327.841 127.989 326.885 127.432Z" fill="#BD3E00"/>
<path d="M293.509 130.072C297.303 132.219 287.524 139.866 286.654 139.826C285.872 139.79 287.662 136.521 286.867 136.306C286.012 136.074 279.124 139.122 278.38 138.693C277.68 138.289 283.183 134.458 282.784 133.995C282.409 133.558 276.766 134.089 276.673 133.654C276.559 133.116 289.715 127.924 293.509 130.072Z" fill="#BD3E00"/>
<path d="M294.199 129.522C293.243 128.964 291.815 128.8 291.717 128.671C291.597 128.512 294.488 127.753 295.919 128.571C297.35 129.39 295.818 131.029 295.566 130.971C295.337 130.919 295.154 130.079 294.199 129.522Z" fill="#BD3E00"/>
<path d="M289.487 149.195C293.281 151.342 283.502 158.989 282.632 158.949C281.85 158.913 283.64 155.645 282.845 155.429C281.991 155.197 275.102 158.246 274.359 157.816C273.659 157.412 279.161 153.581 278.763 153.118C278.387 152.681 272.744 153.212 272.652 152.777C272.537 152.239 285.693 147.047 289.487 149.195Z" fill="#BD3E00"/>
<path d="M290.177 148.645C289.221 148.087 287.793 147.923 287.696 147.794C287.575 147.635 290.467 146.876 291.897 147.694C293.328 148.513 291.797 150.152 291.544 150.094C291.315 150.042 291.133 149.202 290.177 148.645Z" fill="#BD3E00"/>
<path d="M256.761 151.285C260.555 153.432 250.776 161.079 249.906 161.039C249.124 161.003 250.915 157.734 250.12 157.519C249.265 157.287 242.376 160.335 241.633 159.906C240.933 159.502 246.435 155.671 246.037 155.208C245.662 154.771 240.019 155.302 239.926 154.867C239.811 154.329 252.967 149.137 256.761 151.285Z" fill="#BD3E00"/>
<path d="M257.451 150.734C256.496 150.177 255.067 150.013 254.97 149.883C254.849 149.725 257.741 148.966 259.171 149.784C260.603 150.602 259.071 152.242 258.819 152.184C258.59 152.132 258.407 151.292 257.451 150.734Z" fill="#BD3E00"/>
<path d="M252.7 170.447C256.494 172.594 246.715 180.241 245.845 180.201C245.063 180.165 246.853 176.896 246.058 176.681C245.203 176.449 238.315 179.497 237.571 179.068C236.871 178.664 242.374 174.833 241.976 174.37C241.6 173.933 235.957 174.464 235.865 174.029C235.75 173.491 248.906 168.299 252.7 170.447Z" fill="#BD3E00"/>
<path d="M253.39 169.897C252.434 169.339 251.006 169.175 250.909 169.046C250.788 168.887 253.68 168.128 255.11 168.946C256.541 169.765 255.009 171.404 254.757 171.346C254.528 171.294 254.346 170.454 253.39 169.897Z" fill="#BD3E00"/>
<path d="M219.974 172.536C223.768 174.684 213.989 182.331 213.119 182.291C212.337 182.255 214.127 178.986 213.333 178.771C212.478 178.539 205.589 181.587 204.846 181.158C204.146 180.754 209.648 176.923 209.25 176.46C208.874 176.023 203.232 176.554 203.139 176.119C203.024 175.58 216.18 170.389 219.974 172.536Z" fill="#BD3E00"/>
<path d="M220.664 171.986C219.708 171.429 218.28 171.265 218.183 171.135C218.062 170.977 220.954 170.218 222.384 171.036C223.815 171.854 222.284 173.494 222.032 173.436C221.802 173.384 221.62 172.544 220.664 171.986Z" fill="#BD3E00"/>
<path d="M215.953 191.62C219.746 193.768 209.967 201.414 209.097 201.374C208.315 201.338 210.106 198.07 209.311 197.855C208.456 197.622 201.567 200.671 200.824 200.242C200.124 199.837 205.627 196.006 205.228 195.543C204.853 195.107 199.21 195.638 199.117 195.202C199.003 194.664 212.158 189.472 215.953 191.62Z" fill="#BD3E00"/>
<path d="M216.643 191.07C215.687 190.512 214.258 190.349 214.161 190.219C214.041 190.06 216.932 189.301 218.362 190.119C219.794 190.938 218.262 192.578 218.01 192.519C217.781 192.467 217.598 191.627 216.643 191.07Z" fill="#BD3E00"/>
<path d="M183.266 193.749C187.06 195.897 177.281 203.543 176.411 203.503C175.629 203.467 177.419 200.199 176.625 199.984C175.77 199.751 168.881 202.8 168.138 202.371C167.438 201.966 172.94 198.135 172.542 197.672C172.166 197.236 166.523 197.767 166.431 197.331C166.316 196.793 179.472 191.601 183.266 193.749Z" fill="#BD3E00"/>
<path d="M183.956 193.199C183 192.641 181.572 192.477 181.475 192.348C181.354 192.189 184.246 191.43 185.676 192.248C187.107 193.067 185.576 194.707 185.324 194.648C185.094 194.596 184.912 193.756 183.956 193.199Z" fill="#BD3E00"/>
<path d="M182.478 210.979C186.271 213.127 176.493 220.774 175.622 220.734C174.84 220.697 176.631 217.429 175.836 217.214C174.981 216.982 168.092 220.03 167.349 219.601C166.649 219.197 172.152 215.366 171.753 214.903C171.378 214.466 165.735 214.997 165.642 214.562C165.528 214.023 178.684 208.832 182.478 210.979Z" fill="#BD3E00"/>
<path d="M183.168 210.429C182.212 209.872 180.783 209.708 180.686 209.578C180.566 209.419 183.457 208.66 184.888 209.479C186.319 210.297 184.787 211.937 184.535 211.879C184.306 211.826 184.123 210.986 183.168 210.429Z" fill="#BD3E00"/>
<path d="M149.752 213.069C153.546 215.217 143.767 222.864 142.896 222.824C142.115 222.787 143.905 219.519 143.11 219.304C142.255 219.072 135.367 222.12 134.623 221.691C133.923 221.287 139.426 217.455 139.027 216.993C138.652 216.556 133.009 217.087 132.916 216.651C132.802 216.113 145.958 210.922 149.752 213.069Z" fill="#BD3E00"/>
<path d="M150.442 212.519C149.486 211.962 148.058 211.798 147.96 211.668C147.84 211.509 150.731 210.75 152.162 211.569C153.593 212.387 152.061 214.027 151.809 213.968C151.58 213.916 151.397 213.076 150.442 212.519Z" fill="#BD3E00"/>
<path d="M145.809 232.153C149.603 234.3 139.824 241.947 138.954 241.907C138.172 241.871 139.962 238.603 139.167 238.387C138.312 238.155 131.424 241.204 130.68 240.774C129.98 240.37 135.483 236.539 135.085 236.076C134.709 235.639 129.066 236.17 128.973 235.735C128.859 235.197 142.015 230.005 145.809 232.153Z" fill="#BD3E00"/>
<path d="M146.499 231.603C145.543 231.045 144.115 230.881 144.017 230.752C143.897 230.593 146.788 229.834 148.219 230.652C149.65 231.471 148.118 233.11 147.866 233.052C147.637 233 147.454 232.16 146.499 231.603Z" fill="#BD3E00"/>
<path d="M113.079 234.243C116.873 236.39 107.094 244.037 106.224 243.997C105.442 243.961 107.232 240.692 106.438 240.477C105.583 240.245 98.694 243.293 97.9506 242.864C97.2506 242.46 102.753 238.629 102.355 238.166C101.979 237.729 96.3365 238.26 96.2437 237.825C96.1293 237.287 109.285 232.095 113.079 234.243Z" fill="#BD3E00"/>
<path d="M113.769 233.692C112.813 233.135 111.385 232.971 111.287 232.841C111.167 232.683 114.058 231.924 115.489 232.742C116.92 233.56 115.388 235.2 115.136 235.142C114.907 235.09 114.724 234.25 113.769 233.692Z" fill="#BD3E00"/>
<g clip-path="url(#clip0)">
<path d="M110.203 254.281C113.997 256.428 104.218 264.075 103.348 264.035C102.566 263.999 104.356 260.73 103.561 260.515C102.706 260.283 95.8178 263.331 95.0744 262.902C94.3743 262.498 99.877 258.667 99.4786 258.204C99.1032 257.767 93.4603 258.298 93.3674 257.863C93.2531 257.325 106.409 252.133 110.203 254.281Z" fill="#BD3E00"/>
<path d="M110.893 253.73C109.937 253.173 108.509 253.009 108.411 252.88C108.291 252.721 111.182 251.962 112.613 252.78C114.044 253.598 112.512 255.238 112.26 255.18C112.031 255.128 111.848 254.288 110.893 253.73Z" fill="#BD3E00"/>
<path d="M77.4772 256.37C81.2709 258.518 71.4921 266.165 70.6218 266.125C69.8399 266.089 71.6303 262.82 70.8354 262.605C69.9806 262.373 63.092 265.421 62.3486 264.992C61.6485 264.588 67.1512 260.757 66.7527 260.294C66.3774 259.857 60.7344 260.388 60.6416 259.953C60.5273 259.414 73.6831 254.223 77.4772 256.37Z" fill="#BD3E00"/>
<path d="M78.1672 255.82C77.2114 255.263 75.7829 255.099 75.6856 254.969C75.5652 254.81 78.4566 254.052 79.8871 254.87C81.3184 255.688 79.7866 257.328 79.5345 257.27C79.3054 257.217 79.1226 256.378 78.1672 255.82Z" fill="#BD3E00"/>
<path d="M73.0612 275.73C76.8549 277.878 67.0761 285.524 66.2058 285.484C65.4239 285.448 67.2143 282.18 66.4194 281.965C65.5645 281.732 58.676 284.781 57.9325 284.351C57.2325 283.947 62.7352 280.116 62.3367 279.653C61.9614 279.217 56.3184 279.748 56.2256 279.312C56.1113 278.774 69.267 273.582 73.0612 275.73Z" fill="#BD3E00"/>
<path d="M73.7512 275.18C72.7954 274.622 71.3669 274.458 71.2696 274.329C71.1492 274.17 74.0406 273.411 75.4711 274.229C76.9024 275.048 75.3706 276.688 75.1184 276.629C74.8894 276.577 74.7066 275.737 73.7512 275.18Z" fill="#BD3E00"/>
<path d="M40.3353 277.82C44.129 279.967 34.3503 287.614 33.48 287.574C32.6981 287.538 34.4885 284.27 33.6936 284.054C32.8387 283.822 25.9501 286.871 25.2067 286.441C24.5067 286.037 30.0093 282.206 29.6109 281.743C29.2355 281.306 23.5926 281.837 23.4998 281.402C23.3854 280.864 36.5412 275.672 40.3353 277.82Z" fill="#BD3E00"/>
<path d="M41.0253 277.27C40.0695 276.712 38.6411 276.548 38.5438 276.419C38.4234 276.26 41.3148 275.501 42.7453 276.319C44.1766 277.138 42.6447 278.777 42.3926 278.719C42.1636 278.667 41.9808 277.827 41.0253 277.27Z" fill="#BD3E00"/>
<path d="M36.1952 296.982C39.9889 299.129 30.2101 306.776 29.3398 306.736C28.5579 306.7 30.3484 303.432 29.5535 303.217C28.6986 302.984 21.81 306.033 21.0666 305.603C20.3665 305.199 25.8692 301.368 25.4707 300.905C25.0954 300.469 19.4524 301 19.3596 300.564C19.2453 300.026 32.4011 294.834 36.1952 296.982Z" fill="#BD3E00"/>
<path d="M36.8852 296.432C35.9294 295.874 34.5009 295.71 34.4036 295.581C34.2832 295.422 37.1746 294.663 38.6051 295.481C40.0364 296.3 38.5046 297.94 38.2525 297.881C38.0234 297.829 37.8406 296.989 36.8852 296.432Z" fill="#BD3E00"/>
</g>
<defs>
<clipPath id="clip0">
<rect width="124" height="323" fill="white" transform="translate(0 169)"/>
</clipPath>
</defs>
</svg>
