<svg width="316" height="173" viewBox="0 0 316 173" fill="none" xmlns="http://www.w3.org/2000/svg">
<path d="M308.203 3.2806C311.997 5.42829 302.218 13.075 301.348 13.035C300.566 12.9987 302.356 9.73046 301.561 9.51539C300.706 9.283 293.818 12.3315 293.074 11.9023C292.374 11.4981 297.877 7.66679 297.479 7.20411C297.103 6.76741 291.46 7.29842 291.367 6.86289C291.253 6.32462 304.409 1.13314 308.203 3.2806Z" fill="#BD3E00"/>
<path d="M308.893 2.73049C307.937 2.17303 306.508 2.00921 306.411 1.87956C306.291 1.72065 309.182 0.961689 310.613 1.78009C312.044 2.5985 310.512 4.23834 310.26 4.17984C310.031 4.12765 309.848 3.28771 308.893 2.73049Z" fill="#BD3E00"/>
<path d="M275.477 5.37044C279.271 7.51813 269.492 15.1648 268.622 15.1248C267.84 15.0885 269.63 11.8203 268.835 11.6052C267.98 11.3728 261.092 14.4213 260.348 13.9921C259.648 13.5879 265.151 9.75663 264.752 9.29395C264.377 8.85725 258.734 9.38827 258.641 8.95274C258.527 8.41447 271.683 3.22298 275.477 5.37044Z" fill="#BD3E00"/>
<path d="M276.167 4.82033C275.211 4.26287 273.783 4.09905 273.686 3.9694C273.565 3.81049 276.457 3.05153 277.887 3.86994C279.318 4.68834 277.787 6.32819 277.534 6.26968C277.305 6.21749 277.123 5.37756 276.167 4.82033Z" fill="#BD3E00"/>
<path d="M271.061 24.7298C274.855 26.8775 265.076 34.5242 264.206 34.4842C263.424 34.4479 265.214 31.1797 264.419 30.9646C263.564 30.7322 256.676 33.7807 255.932 33.3515C255.232 32.9473 260.735 29.116 260.336 28.6533C259.961 28.2166 254.318 28.7476 254.225 28.3121C254.111 27.7738 267.267 22.5824 271.061 24.7298Z" fill="#BD3E00"/>
<path d="M271.751 24.1797C270.795 23.6222 269.367 23.4584 269.27 23.3288C269.149 23.1699 272.041 22.4109 273.471 23.2293C274.902 24.0477 273.371 25.6876 273.118 25.6291C272.889 25.5769 272.707 24.7369 271.751 24.1797Z" fill="#BD3E00"/>
<path d="M238.335 26.8197C242.129 28.9674 232.35 36.614 231.48 36.574C230.698 36.5378 232.489 33.2695 231.694 33.0545C230.839 32.8221 223.95 35.8705 223.207 35.4413C222.507 35.0372 228.009 31.2058 227.611 30.7432C227.236 30.3065 221.593 30.8375 221.5 30.402C221.385 29.8637 234.541 24.6722 238.335 26.8197Z" fill="#BD3E00"/>
<path d="M239.025 26.2696C238.069 25.7121 236.641 25.5483 236.544 25.4186C236.423 25.2597 239.315 24.5008 240.745 25.3192C242.176 26.1376 240.644 27.7774 240.392 27.7189C240.163 27.6667 239.981 26.8268 239.025 26.2696Z" fill="#BD3E00"/>
<path d="M234.195 45.9818C237.989 48.1295 228.21 55.7762 227.34 55.7361C226.558 55.6999 228.348 52.4316 227.553 52.2166C226.699 51.9842 219.81 55.0326 219.067 54.6034C218.367 54.1993 223.869 50.368 223.471 49.9053C223.095 49.4686 217.452 49.9996 217.36 49.5641C217.245 49.0258 230.401 43.8343 234.195 45.9818Z" fill="#BD3E00"/>
<path d="M234.885 45.4317C233.929 44.8742 232.501 44.7104 232.403 44.5807C232.283 44.4218 235.174 43.6629 236.605 44.4813C238.036 45.2997 236.504 46.9395 236.252 46.881C236.023 46.8288 235.84 45.9889 234.885 45.4317Z" fill="#BD3E00"/>
<path d="M201.509 48.0716C205.302 50.2193 195.524 57.866 194.653 57.826C193.871 57.7897 195.662 54.5215 194.867 54.3064C194.012 54.074 187.123 57.1225 186.38 56.6933C185.68 56.2891 191.183 52.4578 190.784 51.9951C190.409 51.5584 184.766 52.0894 184.673 51.6539C184.559 51.1156 197.715 45.9242 201.509 48.0716Z" fill="#BD3E00"/>
<path d="M202.198 47.5215C201.243 46.964 199.814 46.8002 199.717 46.6706C199.596 46.5117 202.488 45.7527 203.918 46.5711C205.35 47.3895 203.818 49.0294 203.566 48.9709C203.337 48.9187 203.154 48.0787 202.198 47.5215Z" fill="#BD3E00"/>
<path d="M197.487 67.1947C201.281 69.3424 191.502 76.989 190.632 76.949C189.85 76.9128 191.64 73.6445 190.845 73.4295C189.991 73.1971 183.102 76.2455 182.359 75.8163C181.659 75.4122 187.161 71.5808 186.763 71.1182C186.387 70.6815 180.744 71.2125 180.652 70.777C180.537 70.2387 193.693 65.0472 197.487 67.1947Z" fill="#BD3E00"/>
<path d="M198.177 66.6446C197.221 66.0871 195.793 65.9233 195.695 65.7936C195.575 65.6347 198.466 64.8758 199.897 65.6942C201.328 66.5126 199.796 68.1524 199.544 68.0939C199.315 68.0417 199.132 67.2018 198.177 66.6446Z" fill="#BD3E00"/>
<path d="M164.761 69.2845C168.555 71.4322 158.776 79.0789 157.906 79.0389C157.124 79.0026 158.914 75.7344 158.119 75.5193C157.264 75.2869 150.376 78.3354 149.632 77.9062C148.932 77.502 154.435 73.6707 154.037 73.208C153.661 72.7713 148.018 73.3023 147.926 72.8668C147.811 72.3285 160.967 67.137 164.761 69.2845Z" fill="#BD3E00"/>
<path d="M165.451 68.7344C164.496 68.1769 163.067 68.0131 162.97 67.8835C162.849 67.7246 165.741 66.9656 167.171 67.784C168.603 68.6024 167.071 70.2423 166.819 70.1837C166.59 70.1316 166.407 69.2916 165.451 68.7344Z" fill="#BD3E00"/>
<path d="M160.7 88.4466C164.494 90.5943 154.715 98.241 153.845 98.201C153.063 98.1647 154.853 94.8965 154.058 94.6814C153.203 94.449 146.315 97.4975 145.571 97.0683C144.871 96.6641 150.374 92.8328 149.976 92.3701C149.6 91.9334 143.957 92.4644 143.865 92.0289C143.75 91.4906 156.906 86.2992 160.7 88.4466Z" fill="#BD3E00"/>
<path d="M161.39 87.8965C160.435 87.339 159.006 87.1752 158.909 87.0456C158.788 86.8867 161.68 86.1277 163.11 86.9461C164.542 87.7645 163.01 89.4044 162.758 89.3459C162.529 89.2937 162.346 88.4537 161.39 87.8965Z" fill="#BD3E00"/>
<path d="M127.974 90.5365C131.768 92.6841 121.989 100.331 121.119 100.291C120.337 100.255 122.128 96.9863 121.333 96.7712C120.478 96.5389 113.589 99.5873 112.846 99.1581C112.146 98.754 117.649 94.9226 117.25 94.46C116.875 94.0233 111.232 94.5543 111.139 94.1188C111.025 93.5805 124.18 88.389 127.974 90.5365Z" fill="#BD3E00"/>
<path d="M128.665 89.9863C127.709 89.4289 126.28 89.2651 126.183 89.1354C126.063 88.9765 128.954 88.2175 130.385 89.036C131.816 89.8544 130.284 91.4942 130.032 91.4357C129.803 91.3835 129.62 90.5436 128.665 89.9863Z" fill="#BD3E00"/>
<path d="M123.953 109.62C127.746 111.768 117.967 119.414 117.097 119.374C116.315 119.338 118.106 116.07 117.311 115.855C116.456 115.622 109.567 118.671 108.824 118.242C108.124 117.837 113.627 114.006 113.228 113.543C112.853 113.107 107.21 113.638 107.117 113.202C107.003 112.664 120.158 107.472 123.953 109.62Z" fill="#BD3E00"/>
<path d="M124.643 109.07C123.687 108.512 122.258 108.349 122.161 108.219C122.041 108.06 124.932 107.301 126.363 108.119C127.794 108.938 126.262 110.578 126.01 110.519C125.781 110.467 125.598 109.627 124.643 109.07Z" fill="#BD3E00"/>
<path d="M91.266 111.749C95.0597 113.897 85.2809 121.543 84.4106 121.503C83.6287 121.467 85.4192 118.199 84.6243 117.984C83.7694 117.751 76.8808 120.8 76.1374 120.371C75.4373 119.966 80.94 116.135 80.5415 115.672C80.1662 115.236 74.5232 115.767 74.4304 115.331C74.3161 114.793 87.4719 109.601 91.266 111.749Z" fill="#BD3E00"/>
<path d="M91.9563 111.199C91.0004 110.641 89.572 110.477 89.4747 110.348C89.3543 110.189 92.2457 109.43 93.6762 110.248C95.1075 111.067 93.5756 112.707 93.3235 112.648C93.0945 112.596 92.9117 111.756 91.9563 111.199Z" fill="#BD3E00"/>
<path d="M90.4774 128.979C94.2711 131.127 84.4924 138.774 83.6221 138.734C82.8401 138.697 84.6306 135.429 83.8357 135.214C82.9808 134.982 76.0922 138.03 75.3488 137.601C74.6487 137.197 80.1514 133.366 79.753 132.903C79.3776 132.466 73.7347 132.997 73.6418 132.562C73.5275 132.023 86.6833 126.832 90.4774 128.979Z" fill="#BD3E00"/>
<path d="M91.1677 128.429C90.2119 127.872 88.7834 127.708 88.6861 127.578C88.5657 127.419 91.4571 126.66 92.8876 127.479C94.3189 128.297 92.7871 129.937 92.5349 129.879C92.3059 129.826 92.1231 128.986 91.1677 128.429Z" fill="#BD3E00"/>
<path d="M57.7518 131.069C61.5455 133.217 51.7668 140.864 50.8965 140.824C50.1146 140.787 51.905 137.519 51.1101 137.304C50.2552 137.072 43.3666 140.12 42.6232 139.691C41.9232 139.287 47.4258 135.455 47.0274 134.993C46.652 134.556 41.0091 135.087 40.9163 134.651C40.802 134.113 53.9577 128.922 57.7518 131.069Z" fill="#BD3E00"/>
<path d="M58.4421 130.519C57.4863 129.962 56.0578 129.798 55.9605 129.668C55.8401 129.509 58.7315 128.75 60.162 129.569C61.5933 130.387 60.0615 132.027 59.8094 131.968C59.5803 131.916 59.3975 131.076 58.4421 130.519Z" fill="#BD3E00"/>
<path d="M53.809 150.153C57.6027 152.3 47.8239 159.947 46.9536 159.907C46.1717 159.871 47.9621 156.603 47.1672 156.387C46.3123 156.155 39.4238 159.204 38.6803 158.774C37.9803 158.37 43.483 154.539 43.0845 154.076C42.7092 153.639 37.0662 154.17 36.9734 153.735C36.8591 153.197 50.0148 148.005 53.809 150.153Z" fill="#BD3E00"/>
<path d="M54.4992 149.603C53.5434 149.045 52.1149 148.881 52.0176 148.752C51.8973 148.593 54.7886 147.834 56.2191 148.652C57.6504 149.471 56.1186 151.11 55.8665 151.052C55.6375 151 55.4546 150.16 54.4992 149.603Z" fill="#BD3E00"/>
<path d="M21.0795 152.243C24.8732 154.39 15.0944 162.037 14.2241 161.997C13.4422 161.961 15.2326 158.692 14.4377 158.477C13.5829 158.245 6.69427 161.293 5.95085 160.864C5.2508 160.46 10.7535 156.629 10.355 156.166C9.97966 155.729 4.33673 156.26 4.2439 155.825C4.12959 155.287 17.2854 150.095 21.0795 152.243Z" fill="#BD3E00"/>
<path d="M21.7692 151.692C20.8134 151.135 19.385 150.971 19.2877 150.841C19.1673 150.683 22.0587 149.924 23.4892 150.742C24.9205 151.56 23.3886 153.2 23.1365 153.142C22.9075 153.09 22.7247 152.25 21.7692 151.692Z" fill="#BD3E00"/>
</svg>
