<svg xmlns="http://www.w3.org/2000/svg" width="260" height="183" fill="none">
  <path fill="#629024" d="M224.563 64.677v36.493l31.604 18.247c0-20.155-14.149-44.663-31.604-54.74z"/>
  <path fill="#EFC379" d="M256.167 119.427l-31.604-18.247 22.348 38.707c5.719-3.303 9.256-10.382 9.256-20.46z"/>
  <path fill="#ECAC19" d="M224.563 101.18v36.493c8.728 5.039 16.629 5.516 22.348 2.215l-22.348-38.708z"/>
  <path fill="#7CB72E" d="M192.962 82.929c0 10.078 3.537 21.242 9.257 31.148l22.347-12.902-31.604-18.246z"/>
  <path fill="#204C3D" d="M224.563 101.169l-22.347 12.903c5.72 9.906 13.621 18.552 22.347 23.59v-36.493z"/>
  <path fill="#ECAC19" d="M224.565 101.18l-29.761-29.45a26.332 26.332 0 00-.758 2.387l-.004-.004-.067.268a26.143 26.143 0 00-.226.95c-.052.23-.101.462-.147.696l-.057.299c-.049.264-.095.53-.138.797l-.039.25c-.043.278-.082.559-.118.842l-.031.257c-.032.275-.062.552-.088.83l-.03.328c-.011.136-.026.27-.036.407l.006.005c-.07.942-.109 1.906-.109 2.892l31.603 18.246z"/>
  <path fill="#DC590C" d="M243.702 81.167l15.902 9.181c0 5.35-3.194 7.337-7.951 4.59l-7.639-4.41-.312-9.361z"/>
  <path fill="#204C3D" d="M207.344 40.214c-.25 8.763 3.293 17.948 9.881 25.662 2.875 3.533 6.2 6.525 9.737 8.567l7.977 4.605-.43-23.15-27.165-15.684z"/>
  <path fill="#659526" d="M251.792 85.831c0 11.021-7.738 15.488-17.283 9.977-9.545-5.51-17.283-18.912-17.283-29.934 0-11.022 7.738-15.49 17.283-9.979 9.545 5.511 17.283 18.914 17.283 29.936z"/>
  <path fill="#B0470A" d="M251.465 85.641l8.138 4.699-15.802 9.123-8.139-4.698 15.803-9.124z"/>
  <path fill="#8F3A08" fill-rule="evenodd" d="M259.604 90.335s-.053 1.3-.148 1.86a8.048 8.048 0 01-.426 1.503 6.3 6.3 0 01-.723 1.236c-.159.199-.817.696-.817.696l-15.878 9.168-3.529-2.038 21.521-12.425z" clip-rule="evenodd"/>
  <path fill="#204C3D" fill-rule="evenodd" d="M191.543 49.33l15.802-9.124 26.124 15.083-15.802 9.123-26.124-15.082z" clip-rule="evenodd"/>
  <path fill="#CE9511" fill-rule="evenodd" d="M179 80.844l15.805-9.121 13.956 13.787v24.783L179 80.844z" clip-rule="evenodd"/>
  <path fill="#629024" fill-rule="evenodd" d="M240.367 128.539l15.801-9.123-7.9-13.683-11.998 2.194-3.803 6.928 7.9 13.682" clip-rule="evenodd"/>
  <path fill="#EFC379" fill-rule="evenodd" d="M231.108 148.998l15.802-9.123-6.545-11.338-9.257 20.461z" clip-rule="evenodd"/>
  <path fill="#7CB72E" d="M208.605 73.784v36.493l31.604 18.246c0-20.154-14.15-44.662-31.604-54.74z"/>
  <path fill="#F4D7A5" d="M240.209 128.52l-31.604-18.247 22.348 38.707c5.719-3.302 9.256-10.382 9.256-20.46z"/>
  <path fill="#658434" d="M208.605 88.39v21.884c12.334 7.121 23.436 4.279 25.294-7.28l-25.294-14.603z"/>
  <path fill="#ECAC19" d="M208.605 110.273v36.494c8.728 5.038 16.628 5.515 22.348 2.214l-22.348-38.708z"/>
  <path fill="#7CB72E" d="M177 92.022c0 10.078 3.537 21.242 9.257 31.149l22.347-12.902L177 92.022z"/>
  <path fill="#204C3D" d="M208.605 110.276l-22.347 12.903c5.719 9.906 13.62 18.552 22.347 23.59v-36.493z"/>
  <path fill="#ECAC19" d="M208.603 110.273l-29.76-29.45a25.706 25.706 0 00-.758 2.388l-.005-.005c-.023.088-.043.18-.067.268a26.403 26.403 0 00-.226.95c-.052.23-.1.462-.147.697l-.057.298c-.049.264-.095.53-.138.797l-.039.25c-.042.278-.081.56-.117.842l-.032.257c-.032.275-.061.552-.088.83l-.03.328c-.011.136-.026.27-.036.408l.006.004c-.07.943-.109 1.906-.109 2.892l31.603 18.246z"/>
  <path fill="#DC590C" d="M227.744 90.26l15.902 9.182c0 5.35-3.194 7.337-7.951 4.59l-7.639-4.41-.312-9.361z"/>
  <path fill="#204C3D" d="M191.385 49.307c-.249 8.763 3.294 17.948 9.882 25.662 2.875 3.533 6.2 6.525 9.736 8.567l7.977 4.605-.43-23.15-27.165-15.684z"/>
  <path fill="#7CB72E" d="M235.833 94.925c0 11.021-7.737 15.488-17.283 9.977-9.544-5.51-17.282-18.913-17.282-29.934 0-11.022 7.738-15.49 17.282-9.979 9.546 5.511 17.283 18.914 17.283 29.936z"/>
  <path fill="#fff" d="M235.834 94.92c-3.364-8.978-9.841-17.484-17.283-21.78-7.442-4.297-13.919-3.27-17.283 1.823l34.566 19.957z"/>
  <path fill="#204C3D" d="M230.864 92.06c0 1.88-1.32 2.642-2.948 1.702s-2.948-3.227-2.948-5.107c0-1.88 1.32-2.642 2.948-1.702s2.948 3.227 2.948 5.107z"/>
  <path stroke="#204C3D" stroke-linecap="round" stroke-linejoin="round" stroke-miterlimit="1.5" stroke-width=".304" d="M214.58 62.638l-22.776-13.15"/>
  <path fill="#CE9511" d="M133.211 63.745v15.563l13.478 7.782c0-8.596-6.034-19.048-13.478-23.345z"/>
  <path fill="#CE9511" d="M146.689 87.088l-13.478-7.781 9.531 16.507c2.439-1.408 3.947-4.428 3.947-8.726z"/>
  <path fill="#ECAC19" d="M133.211 79.307V94.87c3.722 2.149 7.092 2.352 9.531.944l-9.531-16.507z"/>
  <path fill="#7CB72E" d="M119.733 71.525c0 4.298 1.509 9.06 3.948 13.284l9.53-5.502-13.478-7.782z"/>
  <path fill="#204C3D" d="M133.212 79.32l-9.531 5.504c2.44 4.224 5.809 7.911 9.531 10.06V79.321z"/>
  <path fill="#ECAC19" d="M133.211 79.328l-12.692-12.56c-.123.327-.229.668-.324 1.019l-.001-.002-.029.114a16.347 16.347 0 00-.096.405 13.09 13.09 0 00-.063.297l-.024.128c-.021.112-.041.225-.059.34l-.017.106c-.018.119-.035.239-.05.36l-.013.109a13.324 13.324 0 00-.051.494c-.004.058-.011.115-.015.174l.003.002c-.03.402-.047.812-.047 1.233l13.478 7.781z"/>
  <path fill="#DC590C" d="M141.374 70.785l6.782 3.915c0 2.282-1.362 3.13-3.391 1.958l-3.258-1.881-.133-3.992z"/>
  <path fill="#204C3D" d="M125.869 53.326c-.106 3.737 1.405 7.654 4.214 10.944 1.227 1.507 2.645 2.783 4.153 3.654l3.402 1.964-.184-9.873-11.585-6.689z"/>
  <path fill="#CE9511" d="M144.825 72.788c0 4.7-3.3 6.605-7.371 4.255-4.071-2.35-7.371-8.066-7.371-12.766 0-4.7 3.3-6.606 7.371-4.256 4.071 2.35 7.371 8.066 7.371 12.767z"/>
  <path fill="#B0470A" d="M144.689 72.694l3.471 2.004-6.74 3.891-3.471-2.004 6.74-3.89z"/>
  <path fill="#8F3A08" fill-rule="evenodd" d="M148.154 74.71s-.022.553-.063.792a3.425 3.425 0 01-.181.641c-.056.137-.199.39-.309.528-.068.084-.348.296-.348.296l-6.772 3.91-1.505-.869 9.178-5.299z" clip-rule="evenodd"/>
  <path fill="#1B4134" fill-rule="evenodd" d="M119.129 57.214l6.739-3.89 11.141 6.432-6.739 3.89-11.141-6.432z" clip-rule="evenodd"/>
  <path fill="#CE9511" fill-rule="evenodd" d="M113.785 70.645l6.741-3.89 5.952 5.88v10.57l-12.693-12.56zM139.956 90.978l6.739-3.89-3.37-5.836-5.116.936-1.622 2.954 3.369 5.836M136.007 99.705l6.739-3.891-2.791-4.835-3.948 8.726z" clip-rule="evenodd"/>
  <path fill="#ECAC19" d="M126.479 67.665v15.66l13.478 7.782c0-8.649-6.035-19.144-13.478-23.442z"/>
  <path fill="#ECAC19" d="M139.957 91.01l-13.478-7.782 9.53 16.507c2.439-1.408 3.948-4.428 3.948-8.726z"/>
  <path fill="#D39911" d="M126.479 73.895v9.333c5.26 3.037 9.994 1.825 10.787-3.105l-10.787-6.228z"/>
  <path fill="#153128" d="M126.479 83.228V98.79c3.722 2.149 7.091 2.352 9.53.944l-9.53-16.507z"/>
  <path fill="#ECAC19" d="M113 75.4c0 4.31 1.509 9.084 3.948 13.317l9.531-5.535L113 75.4z"/>
  <path fill="#19392F" d="M126.479 83.219l-9.53 5.503c2.439 4.224 5.809 7.911 9.53 10.06V83.22z"/>
  <path fill="#ECAC19" d="M126.478 83.226l-12.692-12.56a11.14 11.14 0 00-.323 1.019l-.002-.002-.028.114-.058.234-.039.171c-.022.098-.043.197-.063.297l-.024.128c-.021.112-.04.225-.059.34l-.016.106a13.46 13.46 0 00-.05.36l-.014.109a13.29 13.29 0 00-.05.494c-.005.058-.011.115-.015.174l.002.001c-.03.402-.047.813-.047 1.234l13.478 7.781z"/>
  <path fill="#DC590C" d="M134.642 74.683l6.782 3.915c0 2.282-1.363 3.13-3.391 1.958l-3.258-1.881-.133-3.992z"/>
  <path fill="#153128" d="M119.137 57.224c-.107 3.737 1.405 7.654 4.214 10.944 1.226 1.507 2.644 2.783 4.152 3.654l3.402 1.964-.183-9.873-11.585-6.689z"/>
  <path fill="#ECAC19" d="M138.092 76.686c0 4.7-3.299 6.605-7.37 4.255-4.071-2.35-7.371-8.066-7.371-12.766 0-4.7 3.3-6.606 7.371-4.256 4.071 2.35 7.37 8.066 7.37 12.767z"/>
  <path fill="#fff" d="M138.094 76.67c-1.435-3.828-4.197-7.456-7.371-9.288-3.174-1.832-5.936-1.395-7.371.778l14.742 8.51z"/>
  <path fill="#204C3D" d="M135.973 75.454c0 .802-.563 1.127-1.257.726s-1.257-1.376-1.257-2.178.563-1.127 1.257-.726 1.257 1.376 1.257 2.178z"/>
  <path stroke="#204C3D" stroke-linecap="round" stroke-linejoin="round" stroke-miterlimit="1.5" stroke-width=".111" d="M128.961 62.892l-9.713-5.609"/>
  <path fill="#CE9511" d="M78.211 32.745v15.563L91.69 56.09c0-8.596-6.034-19.048-13.478-23.345z"/>
  <path fill="#CE9511" d="M91.69 56.088L78.21 48.307l9.531 16.507c2.439-1.408 3.947-4.428 3.947-8.726z"/>
  <path fill="#ECAC19" d="M78.211 48.307V63.87c3.722 2.149 7.092 2.352 9.531.944l-9.53-16.507z"/>
  <path fill="#7CB72E" d="M64.733 40.525c0 4.298 1.509 9.06 3.948 13.285l9.53-5.503-13.478-7.782z"/>
  <path fill="#204C3D" d="M78.212 48.32l-9.53 5.504c2.439 4.224 5.808 7.911 9.53 10.06V48.321z"/>
  <path fill="#ECAC19" d="M78.211 48.328L65.52 35.768c-.123.327-.229.668-.323 1.019l-.002-.002-.029.114a16.348 16.348 0 00-.096.405 12.085 12.085 0 00-.146.765l-.017.106a14.394 14.394 0 00-.1.823c-.005.047-.01.093-.013.14-.005.058-.012.115-.016.174l.003.002c-.03.401-.047.812-.047 1.233l13.478 7.781z"/>
  <path fill="#DC590C" d="M86.374 39.785l6.782 3.915c0 2.282-1.362 3.13-3.39 1.958l-3.259-1.881-.133-3.992z"/>
  <path fill="#204C3D" d="M70.87 22.326c-.107 3.737 1.404 7.654 4.214 10.944 1.226 1.507 2.644 2.783 4.152 3.654l3.402 1.964-.183-9.873-11.585-6.689z"/>
  <path fill="#CE9511" d="M89.825 41.788c0 4.7-3.3 6.605-7.37 4.255-4.071-2.35-7.371-8.066-7.371-12.766 0-4.7 3.3-6.606 7.37-4.256 4.071 2.35 7.371 8.066 7.371 12.767z"/>
  <path fill="#B0470A" d="M89.689 41.694l3.47 2.004-6.739 3.891-3.47-2.004 6.739-3.89z"/>
  <path fill="#8F3A08" fill-rule="evenodd" d="M93.154 43.71s-.022.553-.063.792a3.434 3.434 0 01-.181.641 2.69 2.69 0 01-.309.527c-.068.085-.348.297-.348.297l-6.772 3.91-1.505-.869 9.178-5.299z" clip-rule="evenodd"/>
  <path fill="#1B4134" fill-rule="evenodd" d="M64.129 26.214l6.739-3.89 11.141 6.432-6.739 3.89-11.141-6.432z" clip-rule="evenodd"/>
  <path fill="#CE9511" fill-rule="evenodd" d="M58.786 39.645l6.74-3.89 5.952 5.88v10.57l-12.692-12.56zM84.956 59.978l6.74-3.89-3.37-5.836-5.117.936-1.622 2.954 3.37 5.835M81.007 68.705l6.74-3.891-2.792-4.835-3.948 8.726z" clip-rule="evenodd"/>
  <path fill="#ECAC19" d="M71.479 36.666v15.66l13.478 7.78c0-8.648-6.034-19.143-13.478-23.44z"/>
  <path fill="#ECAC19" d="M84.957 60.01l-13.478-7.782 9.53 16.507c2.44-1.408 3.948-4.428 3.948-8.726z"/>
  <path fill="#D39911" d="M71.479 42.895v9.333c5.26 3.037 9.994 1.825 10.787-3.105l-10.787-6.228z"/>
  <path fill="#153128" d="M71.479 52.227v15.564c3.722 2.149 7.091 2.352 9.53.944l-9.53-16.508z"/>
  <path fill="#ECAC19" d="M58 44.4c0 4.31 1.51 9.084 3.949 13.317l9.53-5.535L58.001 44.4z"/>
  <path fill="#19392F" d="M71.48 52.219l-9.53 5.502c2.438 4.225 5.808 7.912 9.53 10.061V52.22z"/>
  <path fill="#ECAC19" d="M71.479 52.226l-12.693-12.56a11.11 11.11 0 00-.323 1.019l-.002-.002-.028.114a16.362 16.362 0 00-.097.405 11.98 11.98 0 00-.162.871c-.018.119-.035.239-.05.36l-.014.109a15.183 15.183 0 00-.05.494c-.005.058-.011.115-.015.174l.002.001c-.03.402-.046.813-.046 1.234l13.478 7.781z"/>
  <path fill="#DC590C" d="M79.642 43.683l6.782 3.915c0 2.282-1.362 3.13-3.391 1.958l-3.258-1.881-.133-3.992z"/>
  <path fill="#153128" d="M64.137 26.224c-.106 3.737 1.405 7.654 4.214 10.944 1.227 1.507 2.644 2.783 4.153 3.654l3.402 1.964-.184-9.873-11.585-6.689z"/>
  <path fill="#ECAC19" d="M83.093 45.686c0 4.7-3.3 6.605-7.371 4.255-4.07-2.35-7.37-8.066-7.37-12.766 0-4.7 3.3-6.606 7.37-4.256 4.07 2.35 7.37 8.066 7.37 12.767z"/>
  <path fill="#fff" d="M83.094 45.67c-1.435-3.828-4.197-7.456-7.37-9.288-3.174-1.832-5.937-1.395-7.372.778l14.742 8.51z"/>
  <path fill="#204C3D" d="M80.974 44.454c0 .802-.563 1.127-1.258.726-.694-.401-1.257-1.376-1.257-2.178s.563-1.127 1.257-.726c.695.401 1.258 1.376 1.258 2.178z"/>
  <path stroke="#204C3D" stroke-linecap="round" stroke-linejoin="round" stroke-miterlimit="1.5" stroke-width=".111" d="M73.962 31.892l-9.714-5.609"/>
  <path fill="#CE9511" d="M15.818 12.236v12.18l10.55 6.091c0-6.727-4.724-14.908-10.55-18.271z"/>
  <path fill="#CE9511" d="M26.367 30.506l-10.549-6.09 7.46 12.92c1.909-1.102 3.09-3.466 3.09-6.83z"/>
  <path fill="#ECAC19" d="M15.818 24.416v12.18c2.913 1.683 5.55 1.842 7.46.74l-7.46-12.92z"/>
  <path fill="#7CB72E" d="M5.27 18.326c0 3.363 1.18 7.09 3.09 10.397l7.459-4.307-10.55-6.09z"/>
  <path fill="#204C3D" d="M15.819 24.427l-7.46 4.307c1.91 3.306 4.547 6.192 7.46 7.874v-12.18z"/>
  <path fill="#ECAC19" d="M15.818 24.433l-9.933-9.83c-.096.255-.18.522-.253.797l-.002-.002-.022.09a12.917 12.917 0 00-.076.317 9.179 9.179 0 00-.127.681l-.04.281-.01.086a12.07 12.07 0 00-.039.386c-.004.046-.009.09-.012.137l.002.001c-.023.315-.036.636-.036.965l10.548 6.09z"/>
  <path fill="#DC590C" d="M22.207 17.746l5.308 3.065c0 1.785-1.066 2.449-2.654 1.532l-2.55-1.472-.104-3.125z"/>
  <path fill="#204C3D" d="M10.072 4.082c-.083 2.925 1.1 5.99 3.299 8.565.96 1.18 2.069 2.178 3.25 2.86l2.662 1.537-.143-7.727-9.068-5.235z"/>
  <path fill="#CE9511" d="M24.908 19.314c0 3.678-2.583 5.17-5.769 3.33-3.186-1.84-5.769-6.313-5.769-9.991 0-3.68 2.583-5.17 5.77-3.331 3.185 1.84 5.768 6.313 5.768 9.992z"/>
  <path fill="#B0470A" d="M24.802 19.24l2.716 1.57-5.275 3.044-2.716-1.568 5.274-3.045z"/>
  <path fill="#8F3A08" fill-rule="evenodd" d="M27.514 20.817s-.018.434-.05.621a2.69 2.69 0 01-.142.502 2.104 2.104 0 01-.241.412c-.053.067-.273.233-.273.233l-5.3 3.06-1.178-.68 7.184-4.148z" clip-rule="evenodd"/>
  <path fill="#1B4134" fill-rule="evenodd" d="M4.797 7.125L10.07 4.08l8.72 5.034-5.275 3.045-8.72-5.034z" clip-rule="evenodd"/>
  <path fill="#CE9511" fill-rule="evenodd" d="M.615 17.637l5.275-3.045 4.658 4.602v8.273l-9.933-9.83zM21.097 33.55l5.275-3.044-2.637-4.567-4.005.732-1.27 2.312 2.637 4.567M18.007 40.38l5.274-3.045-2.185-3.784-3.09 6.83z" clip-rule="evenodd"/>
  <path fill="#ECAC19" d="M10.549 15.309v12.256l10.549 6.09c0-6.769-4.723-14.983-10.55-18.346z"/>
  <path fill="#ECAC19" d="M21.098 33.579l-10.55-6.09 7.46 12.92c1.909-1.103 3.09-3.466 3.09-6.83z"/>
  <path fill="#D39911" d="M10.549 20.184v7.304c4.117 2.377 7.822 1.429 8.442-2.43l-8.442-4.874z"/>
  <path fill="#153128" d="M10.549 27.488V39.67c2.913 1.682 5.55 1.841 7.46.74l-7.46-12.92z"/>
  <path fill="#ECAC19" d="M0 21.362c0 3.374 1.18 7.11 3.09 10.422l7.459-4.331L0 21.363z"/>
  <path fill="#19392F" d="M10.55 27.481l-7.46 4.307c1.91 3.306 4.547 6.192 7.46 7.874v-12.18z"/>
  <path fill="#ECAC19" d="M10.549 27.487l-9.934-9.83c-.096.256-.18.522-.253.797l-.001-.001-.023.09a12.903 12.903 0 00-.075.316 9.214 9.214 0 00-.127.682c-.015.093-.028.186-.04.281l-.01.086a12.057 12.057 0 00-.04.386l-.011.136.002.002c-.024.314-.037.636-.037.965l10.549 6.09z"/>
  <path fill="#DC590C" d="M16.938 20.8l5.308 3.065c0 1.786-1.066 2.449-2.654 1.532l-2.55-1.472-.104-3.125z"/>
  <path fill="#153128" d="M4.803 7.137c-.084 2.925 1.1 5.99 3.298 8.565.96 1.18 2.07 2.178 3.25 2.86l2.663 1.537-.144-7.727-9.067-5.235z"/>
  <path fill="#ECAC19" d="M19.639 22.368c0 3.68-2.583 5.17-5.77 3.33-3.185-1.839-5.768-6.312-5.768-9.99 0-3.68 2.583-5.171 5.769-3.332 3.186 1.84 5.769 6.313 5.769 9.992z"/>
  <path fill="#fff" d="M19.64 22.357c-1.123-2.997-3.285-5.836-5.77-7.27-2.483-1.435-4.645-1.092-5.768.608l11.538 6.662z"/>
  <path fill="#204C3D" d="M17.98 21.404c0 .628-.44.882-.984.568-.543-.313-.984-1.077-.984-1.704 0-.628.44-.882.984-.568.543.314.984 1.077.984 1.704z"/>
  <path stroke="#204C3D" stroke-linecap="round" stroke-linejoin="round" stroke-miterlimit="1.5" stroke-width=".087" d="M12.492 11.568L4.89 7.178"/>
</svg>