<svg width="780" height="451" viewBox="0 0 780 451" fill="none" xmlns="http://www.w3.org/2000/svg">
<path d="M714.757 244.001C667.825 216.905 612.11 195.412 550.791 180.747C489.47 166.083 423.749 158.535 357.378 158.536C291.007 158.535 225.286 166.083 163.965 180.747C102.648 195.411 46.9316 216.905 0 244.001L357.378 450.333L714.757 244.001Z" fill="#EAAA19"/>
<path d="M229.713 296.706C214.755 305.342 197.375 309.618 177.573 309.536C157.914 309.536 140.534 305.259 125.719 296.706C110.903 288.152 103.495 278.118 103.353 266.685C103.353 255.335 110.761 245.301 125.719 236.665C134.694 231.483 145.236 227.864 157.202 225.89C169.168 223.916 180.85 223.752 192.532 225.397L183.129 245.465C177.716 244.478 172.16 244.56 166.319 245.465C160.479 246.534 155.35 248.344 150.649 251.058C142.671 255.664 138.682 260.763 138.825 266.438C138.967 272.278 142.956 277.377 151.076 282.065C159.196 286.754 168.029 289.056 178.001 289.056C187.83 289.139 196.805 286.918 204.783 282.312C209.484 279.598 212.618 276.637 214.328 273.183C216.037 269.893 216.037 266.603 214.328 263.477L249.23 258.131C252.079 264.876 251.936 271.702 248.517 278.446C245.098 285.355 238.83 291.442 229.713 296.706Z" fill="#2F4D42"/>
<path d="M338.454 234.161C323.781 242.632 306.543 246.827 286.314 246.827C266.228 246.909 248.848 242.797 234.175 234.325C219.502 225.854 212.379 215.82 212.379 204.14C212.521 192.543 219.787 182.591 234.46 174.12C249.133 165.648 266.513 161.371 286.599 161.289C306.828 161.289 324.066 165.484 338.739 173.955C353.412 182.427 360.677 192.379 360.535 203.976C360.535 215.655 353.127 225.689 338.454 234.161ZM313.524 219.768C321.217 215.326 325.063 210.145 325.063 204.223C325.205 198.383 321.217 193.119 313.381 188.596C305.546 184.072 296.429 181.769 286.172 181.769C276.057 181.851 267.083 184.072 259.39 188.513C251.697 192.955 247.851 198.136 247.708 203.976C247.708 209.898 251.697 215.162 259.532 219.685C267.368 224.209 276.485 226.512 286.599 226.43C296.856 226.43 305.831 224.209 313.524 219.768Z" fill="#2F4D42"/>
<path d="M388.407 130.161C398.521 124.321 409.491 121.278 421.315 121.031C433.139 120.784 443.681 123.416 453.225 128.927C462.77 134.438 467.328 140.524 467.044 147.433C466.759 154.342 461.488 160.675 451.373 166.514L410.203 190.284L310.482 132.71L376.583 94.5473L401.228 108.776L360.628 132.217L372.736 139.208L388.407 130.161ZM427.013 153.601C429.72 152.039 431.287 150.311 431.572 148.502C431.856 146.857 430.574 145.13 427.868 143.567C425.161 142.004 422.169 141.264 419.178 141.346C416.044 141.511 413.052 142.416 410.345 143.978L395.672 152.45L412.34 162.073L427.013 153.601Z" fill="#2F4D42"/>
<path d="M321.595 405.424L221.875 347.85L247.375 333.128L277.291 350.4L290.54 342.751C300.654 336.911 312.336 333.95 325.727 333.786C339.26 333.704 350.942 336.5 361.056 342.34C371.171 348.179 376.157 355.006 375.872 362.737C375.587 370.469 370.459 377.213 360.344 383.052L321.595 405.424ZM404.221 357.72L304.501 300.146L329.858 285.506L429.579 343.08L404.221 357.72ZM322.878 376.719L336.126 369.07C338.975 367.425 340.4 365.451 340.4 363.148C340.257 360.928 338.69 358.872 335.556 357.062C332.422 355.253 328.861 354.348 325.014 354.266C321.168 354.348 317.749 355.17 314.9 356.815L301.651 364.464L322.878 376.719Z" fill="#2F4D42"/>
<path d="M424.259 231.303L448.904 245.532L424.259 259.761L499.334 303.106L473.834 317.828L398.759 274.483L374.114 288.712L349.469 274.483L424.259 231.303Z" fill="#2F4D42"/>
<path d="M598.459 246.081L548.314 217.129L563.272 266.396L543.47 277.828L443.75 220.255L469.25 205.532L519.395 234.484L504.437 185.217L524.096 173.867L623.817 231.44L598.459 246.081Z" fill="#2F4D42"/>
<path d="M623.615 116.044L723.335 173.617L697.978 188.257L665.782 169.669L660.369 172.795L672.478 202.98L644.129 219.347L631.165 185.543C622.618 187.353 613.928 187.764 605.238 186.695C596.405 185.708 588.855 183.323 582.444 179.621C572.472 173.864 567.629 167.12 567.914 159.388C568.341 151.739 573.612 144.913 583.727 139.073L623.615 116.044ZM629.883 165.393L644.129 157.168L621.763 144.255L607.517 152.48C604.525 154.207 602.958 156.263 603.101 158.648C603.101 161.116 604.81 163.254 608.087 165.146C611.363 167.038 615.067 168.025 619.341 168.025C623.472 168.107 627.034 167.202 629.883 165.393Z" fill="#2F4D42"/>
</svg>
