<svg width="87" height="151" viewBox="0 0 87 151" fill="none" xmlns="http://www.w3.org/2000/svg">
<path d="M47.5632 48.6769V85.17L79.1672 103.417C79.1672 83.2619 65.0177 58.7543 47.5632 48.6769Z" fill="#629024"/>
<path d="M79.1672 103.427L47.5632 85.1801L69.9111 123.887C75.6298 120.584 79.1672 113.504 79.1672 103.427Z" fill="#EFC379"/>
<path d="M47.5632 85.1801V121.673C56.2908 126.712 64.1916 127.189 69.9111 123.888L47.5632 85.1801Z" fill="#ECAC19"/>
<path d="M15.9617 66.9285C15.9617 77.0063 19.499 88.1708 25.2185 98.0772L47.5657 85.1751L15.9617 66.9285Z" fill="#7CB72E"/>
<path d="M47.5633 85.1693L25.2162 98.0722C30.9357 107.978 38.8365 116.624 47.5633 121.662V85.1693Z" fill="#204C3D"/>
<path d="M47.5649 85.1797L17.8042 55.7297C17.5171 56.4953 17.2675 57.2937 17.0463 58.1173L17.0418 58.113C17.0186 58.2008 16.9984 58.2922 16.9751 58.3809C16.9287 58.5626 16.8837 58.7462 16.8395 58.9301C16.8087 59.063 16.778 59.1967 16.7487 59.3304C16.697 59.5602 16.6483 59.7926 16.6018 60.0272C16.5823 60.1267 16.5636 60.2258 16.5449 60.3258C16.4961 60.5894 16.4497 60.8551 16.4069 61.123C16.3934 61.2061 16.3807 61.2888 16.368 61.3723C16.3252 61.6506 16.2862 61.9319 16.2503 62.2149C16.2398 62.3006 16.2293 62.3863 16.2188 62.472C16.1865 62.7468 16.1573 63.0234 16.1311 63.3025C16.1206 63.4116 16.1108 63.5202 16.1011 63.6297C16.0898 63.766 16.0749 63.9002 16.0651 64.0374L16.0711 64.0417C16.0006 64.9843 15.9617 65.9477 15.9617 66.9335L47.5649 85.1797Z" fill="#ECAC19"/>
<path d="M66.7023 65.167L82.6044 74.3481C82.6044 79.6981 79.4103 81.685 74.6534 78.9386L67.0142 74.5281L66.7023 65.167Z" fill="#DC590C"/>
<path d="M30.3436 24.2142C30.094 32.9767 33.6373 42.1617 40.2248 49.8756C43.1003 53.4089 46.4248 56.4007 49.9614 58.4426L57.9387 63.0482L57.5084 39.8978L30.3436 24.2142Z" fill="#204C3D"/>
<path d="M74.7916 69.8314C74.7916 80.8526 67.0542 85.3198 57.5087 79.8087C47.9641 74.2981 40.2259 60.8961 40.2259 49.8748C40.2259 38.8527 47.9641 34.3851 57.5087 39.8958C67.0542 45.4068 74.7916 58.8092 74.7916 69.8314Z" fill="#659526"/>
<path d="M74.4646 69.6415L82.603 74.3402L66.8005 83.4637L58.6621 78.765L74.4646 69.6415Z" fill="#B0470A"/>
<path fill-rule="evenodd" clip-rule="evenodd" d="M82.6039 74.3353C82.6039 74.3353 82.5511 75.6347 82.4558 76.195C82.3753 76.661 82.2065 77.2642 82.0304 77.6976C81.9003 78.0182 81.564 78.6118 81.3071 78.9341C81.1476 79.1331 80.4903 79.6304 80.4903 79.6304L64.6119 88.7977L61.0831 86.7603L82.6039 74.3353Z" fill="#8F3A08"/>
<path fill-rule="evenodd" clip-rule="evenodd" d="M14.5431 33.33L30.3449 24.2059L56.4688 39.2886L40.6667 48.4118L14.5431 33.33Z" fill="#204C3D"/>
<path fill-rule="evenodd" clip-rule="evenodd" d="M1.99998 64.8446L17.8045 55.7228L31.7607 69.5103V94.2937L1.99998 64.8446Z" fill="#CE9511"/>
<path fill-rule="evenodd" clip-rule="evenodd" d="M63.3669 112.539L79.1682 103.416L71.2677 89.7328L59.27 91.9273L55.4674 98.8552L63.3669 112.537" fill="#629024"/>
<path fill-rule="evenodd" clip-rule="evenodd" d="M54.1084 132.998L69.9102 123.875L63.3646 112.537L54.1084 132.998Z" fill="#EFC379"/>
<path d="M31.6049 57.7839V94.277L63.2089 112.524C63.2089 92.3689 49.0594 67.8613 31.6049 57.7839Z" fill="#7CB72E"/>
<path d="M63.2089 112.52L31.6049 94.2735L53.9528 132.98C59.6716 129.678 63.2089 122.598 63.2089 112.52Z" fill="#F4D7A5"/>
<path d="M31.6049 72.3906V94.2738C43.9389 101.395 55.0405 98.5532 56.8988 86.994L31.6049 72.3906Z" fill="#658434"/>
<path d="M31.6049 94.2735V130.767C40.3325 135.806 48.2334 136.282 53.9528 132.981L31.6049 94.2735Z" fill="#ECAC19"/>
<path d="M0 76.0219C0 86.0997 3.53737 97.2642 9.25684 107.171L31.604 94.2685L0 76.0219Z" fill="#7CB72E"/>
<path d="M31.6051 94.2763L9.25793 107.179C14.9774 117.085 22.8782 125.731 31.6051 130.769V94.2763Z" fill="#204C3D"/>
<path d="M31.6033 94.2732L1.84252 64.8231C1.55543 65.5887 1.30581 66.3872 1.08467 67.2108L1.08018 67.2064C1.05694 67.2943 1.0367 67.3856 1.01346 67.4743C0.966986 67.6561 0.92201 67.8396 0.877783 68.0236C0.847049 68.1564 0.816314 68.2902 0.78708 68.4239C0.735357 68.6537 0.686633 68.8861 0.640158 69.1206C0.620668 69.2202 0.601931 69.3193 0.583191 69.4192C0.534467 69.6828 0.487993 69.9485 0.445265 70.2164C0.431773 70.2995 0.419028 70.3822 0.406285 70.4657C0.363557 70.744 0.32458 71.0253 0.288599 71.3084C0.278104 71.3941 0.267604 71.4797 0.25711 71.5654C0.224877 71.8402 0.195645 72.1168 0.169409 72.3959C0.158914 72.505 0.149169 72.6136 0.139424 72.7231C0.12818 72.8595 0.11319 72.9936 0.103446 73.1308L0.109439 73.1351C0.0389764 74.0777 0 75.0411 0 76.027L31.6033 94.2732Z" fill="#ECAC19"/>
<path d="M50.7441 74.2605L66.6461 83.4416C66.6461 88.7916 63.4521 90.7785 58.6951 88.0321L51.0559 83.6216L50.7441 74.2605Z" fill="#DC590C"/>
<path d="M14.3853 33.3076C14.1357 42.0702 17.6791 51.2551 24.2666 58.9691C27.1421 62.5023 30.4666 65.4941 34.0032 67.536L41.9805 72.1417L41.5502 48.9913L14.3853 33.3076Z" fill="#204C3D"/>
<path d="M58.8333 78.9249C58.8333 89.9461 51.0959 94.4133 41.5505 88.9022C32.0058 83.3916 24.2676 69.9896 24.2676 58.9683C24.2676 47.9462 32.0058 43.4786 41.5505 48.9893C51.0959 54.5003 58.8333 67.9028 58.8333 78.9249Z" fill="#7CB72E"/>
<path d="M58.8341 78.9199C55.4699 69.9414 48.9926 61.4359 41.5513 57.1396C34.1092 52.8429 27.6319 53.869 24.2677 58.9629L58.8341 78.9199Z" fill="white"/>
<path d="M53.8639 76.0594C53.8639 77.9394 52.5439 78.7015 50.9157 77.7615C49.2876 76.8215 47.9675 74.5351 47.9675 72.6551C47.9675 70.7751 49.2876 70.0129 50.9157 70.953C52.5439 71.893 53.8639 74.1793 53.8639 76.0594Z" fill="#204C3D"/>
<path d="M37.5804 46.6379L14.8038 33.4876" stroke="#204C3D" stroke-width="0.30411" stroke-miterlimit="1.5" stroke-linecap="round" stroke-linejoin="round"/>
</svg>
