<svg width="102" height="171" viewBox="0 0 102 171" fill="none" xmlns="http://www.w3.org/2000/svg">
<path d="M57.2782 116.499V69.9243L97.6132 93.2117C97.6132 118.934 79.5546 129.36 57.2782 116.499Z" fill="#7CB72E"/>
<path d="M97.6132 93.1497L57.2782 69.8623L85.8 53.3964C93.0984 66.0388 97.6132 80.2878 97.6132 93.1497Z" fill="#F4D7A5"/>
<path d="M57.2782 97.8276V69.8991C73.0198 78.9875 87.1883 98.9746 89.5595 116.465L57.2782 97.8276Z" fill="#658434"/>
<path d="M57.2782 69.8623V23.2875C68.4169 29.7184 78.5005 40.7534 85.8 53.3953L57.2782 69.8623Z" fill="#ECAC19"/>
<path d="M16.9432 46.5852C16.9432 33.7233 21.458 24.6875 28.7574 20.4732L57.2782 69.8726L16.9432 46.5852Z" fill="#7CB72E"/>
<path d="M57.2783 69.9171L28.7581 20.5168C36.0575 16.3036 46.1406 16.9119 57.2783 23.3423V69.9171Z" fill="#204C3D"/>
<path d="M81.7047 123.615L102 135.333C102 128.505 97.9236 121.262 91.8521 117.757L82.1027 112.128L81.7047 123.615Z" fill="#DC590C"/>
<path d="M57.2785 69.8731L19.2964 63.601C18.9297 62.2003 18.6114 60.8137 18.3289 59.4364L18.3235 59.4355C18.2936 59.2894 18.2677 59.1427 18.2383 58.9952C18.179 58.6946 18.1217 58.3947 18.0649 58.0944C18.0261 57.8798 17.9867 57.6639 17.9494 57.4496C17.8831 57.08 17.8213 56.7119 17.7616 56.3437C17.7371 56.1887 17.7132 56.0345 17.6893 55.8792C17.6271 55.4711 17.5678 55.0636 17.513 54.658C17.496 54.5327 17.4796 54.4081 17.4632 54.2824C17.4089 53.8645 17.359 53.4481 17.3132 53.0339C17.2998 52.9094 17.2863 52.7843 17.2729 52.6592C17.232 52.2611 17.1947 51.8651 17.1608 51.4699C17.1478 51.3157 17.1354 51.1625 17.1229 51.0086C17.1085 50.8179 17.089 50.6243 17.0766 50.4348L17.0846 50.4383C16.9944 49.1316 16.9446 47.8443 16.9446 46.5863L57.2785 69.8731Z" fill="#ECAC19"/>
<path d="M35.302 122.285C34.9832 110.734 39.5055 104.233 47.9128 104.097C51.5827 103.825 55.8255 104.906 60.3392 107.512L70.52 113.39L69.971 142.302L35.302 122.285Z" fill="#204C3D"/>
<path d="M92.0286 129.644C92.0286 115.578 82.1538 98.474 69.9714 91.4406C57.7896 84.4074 47.9137 90.1081 47.9137 104.174C47.9137 118.241 57.7896 135.346 69.9714 142.38C82.1538 149.413 92.0286 143.711 92.0286 129.644Z" fill="#7CB72E"/>
<path d="M92.0283 129.587C87.7347 136.087 79.4679 137.397 69.9706 131.914C60.4728 126.43 52.2059 115.575 47.9124 104.116L92.0283 129.587Z" fill="white"/>
<path d="M85.6883 125.96C85.6883 123.561 84.0036 120.643 81.9258 119.443C79.848 118.243 78.1632 119.216 78.1632 121.615C78.1632 124.015 79.848 126.933 81.9258 128.132C84.0036 129.332 85.6883 128.359 85.6883 125.96Z" fill="#204C3D"/>
<path fill-rule="evenodd" clip-rule="evenodd" d="M59.4879 154.977C69.5914 156.364 74.4455 150.758 74.953 139.359L90.1503 124.742V127.761C90.1503 135.484 86.8905 142.849 81.1741 148.042C75.4592 153.237 67.8164 155.776 60.1273 155.039C59.715 155 59.4879 154.977 59.4879 154.977Z" fill="#659526"/>
<path fill-rule="evenodd" clip-rule="evenodd" d="M72.615 126.307C72.615 126.307 74.7462 124.099 75.5538 122.807C76.538 121.23 77.7789 118.809 78.5248 116.842C79.2357 114.964 79.7166 112.993 80.0251 111.009C80.3826 108.708 80.67 103.042 80.67 103.042L97.6116 93.26C97.6116 93.26 97.2947 99.1009 96.9357 101.402C96.6357 103.33 96.1506 105.241 95.4593 107.065C94.7358 108.979 93.5693 111.308 92.5892 112.883C91.7564 114.22 89.5719 116.52 89.5719 116.52L72.615 126.307Z" fill="#629024"/>
<path d="M40.335 126.295V79.7209L80.6699 103.008C80.6699 128.731 62.6114 139.156 40.335 126.295Z" fill="#7CB72E"/>
<path d="M80.6699 102.946L40.335 79.6582L68.8567 63.1923C76.1552 75.8347 80.6699 90.0837 80.6699 102.946Z" fill="#F4D7A5"/>
<path d="M40.335 107.624V79.695C56.0766 88.7834 70.2451 108.771 72.6163 126.261L40.335 107.624Z" fill="#658434"/>
<path d="M40.335 79.6582V33.0834C51.4737 39.5143 61.5573 50.5493 68.8567 63.1911L40.335 79.6582Z" fill="#ECAC19"/>
<path d="M0 56.3818C0 43.52 4.51476 34.4841 11.8142 30.2698L40.335 79.6693L0 56.3818Z" fill="#7CB72E"/>
<path d="M40.3351 79.7142L11.8148 30.3139C19.1143 26.1008 29.1974 26.709 40.3351 33.1394V79.7142Z" fill="#204C3D"/>
<path d="M64.7615 133.412L85.0567 145.13C85.0567 138.302 80.9803 131.059 74.9089 127.554L65.1595 121.925L64.7615 133.412Z" fill="#DC590C"/>
<path d="M40.3353 79.669L2.35312 73.3969C1.98648 71.9962 1.66816 70.6096 1.38571 69.2323L1.38023 69.2314C1.35034 69.0853 1.32444 68.9386 1.29505 68.7911C1.23577 68.4905 1.17848 68.1906 1.12169 67.8903C1.08283 67.6757 1.04348 67.4598 1.00612 67.2455C0.939864 66.8759 0.878092 66.5078 0.818314 66.1396C0.793905 65.9846 0.769993 65.8304 0.746082 65.6751C0.683813 65.267 0.624532 64.8595 0.569736 64.4539C0.552798 64.3285 0.536359 64.204 0.51992 64.0783C0.465622 63.6604 0.415806 63.244 0.369976 62.8298C0.356526 62.7053 0.343076 62.5802 0.329626 62.4551C0.288777 62.057 0.251416 61.661 0.217541 61.2658C0.204589 61.1116 0.192135 60.9583 0.179682 60.8045C0.165235 60.6138 0.145807 60.4202 0.133353 60.2307L0.141324 60.2341C0.0511581 58.9275 0.00134277 57.6402 0.00134277 56.3822L40.3353 79.669Z" fill="#ECAC19"/>
<path d="M18.3588 132.082C18.04 120.53 22.5622 114.03 30.9695 113.893C34.6394 113.621 38.8822 114.702 43.396 117.308L53.5767 123.186L53.0278 152.098L18.3588 132.082Z" fill="#204C3D"/>
<path d="M75.0854 139.44C75.0854 125.374 65.2105 108.27 53.0282 101.236C40.8463 94.2033 30.9705 99.904 30.9705 113.97C30.9705 128.037 40.8463 145.142 53.0282 152.175C65.2105 159.209 75.0854 153.507 75.0854 139.44Z" fill="#7CB72E"/>
<path d="M75.0851 139.383C70.7915 145.884 62.5246 147.193 53.0273 141.71C43.5296 136.226 35.2627 125.371 30.9691 113.913L75.0851 139.383Z" fill="white"/>
<path d="M68.7451 135.757C68.7451 133.358 67.0603 130.44 64.9825 129.24C62.9047 128.041 61.22 129.013 61.22 131.412C61.22 133.812 62.9047 136.73 64.9825 137.929C67.0603 139.129 68.7451 138.156 68.7451 135.757Z" fill="#204C3D"/>
<path fill-rule="evenodd" clip-rule="evenodd" d="M68.8604 63.2751L85.7977 53.49C85.7977 53.49 90.0628 61.834 91.4818 65.0622C92.595 67.5935 93.5442 70.2035 94.314 72.8594C95.1931 75.8906 96.2054 79.8518 96.7551 83.2496C97.2893 86.5508 97.6117 93.2457 97.6117 93.2457L80.6702 103.028C80.6702 103.028 80.2005 96.0109 79.6172 92.5562C79.0143 88.9831 77.9207 84.8694 76.914 81.5885C76.0012 78.6139 74.8459 75.7112 73.5756 72.871C72.21 69.8187 68.8604 63.2751 68.8604 63.2751Z" fill="#EFC47A"/>
<path fill-rule="evenodd" clip-rule="evenodd" d="M40.3376 33.1292L57.2778 23.3472C57.2778 23.3472 63.2016 27.1948 65.8712 29.3721C68.5128 31.5274 70.9664 33.9171 73.2925 36.4109C75.6214 38.9097 77.8156 41.5946 79.8473 44.3644C81.9322 47.2048 85.7978 53.4525 85.7978 53.4525L68.8563 63.2359C68.8563 63.2359 65.8852 58.4845 64.2686 56.2448C62.3463 53.5821 59.5982 49.9667 57.1866 47.2593C54.8886 44.6813 52.4503 42.2093 49.7948 40.0013C46.9639 37.6463 40.3376 33.1292 40.3376 33.1292Z" fill="#CE9511"/>
<path fill-rule="evenodd" clip-rule="evenodd" d="M11.8148 30.3441L28.7549 20.5655C28.7549 20.5655 31.5942 18.8396 35.2522 18.2193C38.1868 17.7216 40.8606 17.8949 43.3017 18.1909C45.6165 18.4717 47.8851 19.1512 50.0696 19.968C53.7108 21.3295 57.2763 23.3879 57.2763 23.3879L40.5101 33.1713C40.5101 33.1713 35.8327 30.8271 33.3426 29.9582C30.7852 29.0658 27.7496 28.2453 25.1642 27.9576C22.7329 27.6868 20.0213 27.7892 17.8284 28.2313C14.8433 28.8336 11.8148 30.3441 11.8148 30.3441Z" fill="#1B4033"/>
<path fill-rule="evenodd" clip-rule="evenodd" d="M72.615 126.24L89.5719 116.454C89.5719 116.454 92.843 118.317 94.0783 119.303C95.1775 120.18 96.8166 121.829 97.6382 122.972C98.7402 124.502 100.104 126.606 101.007 129.26C101.94 132.001 101.996 135.355 101.996 135.355L85.0558 145.138C85.0558 145.138 84.5244 140.581 83.9159 138.68C83.3522 136.917 82.4437 135.257 81.4019 133.732C80.3602 132.205 79.0955 130.735 77.6681 129.518C76.203 128.27 72.615 126.24 72.615 126.24Z" fill="#8F3A08"/>
</svg>
