<svg width="50" height="50" viewBox="0 0 50 50" fill="none" xmlns="http://www.w3.org/2000/svg">
<path d="M9.89583 50H40.1042C45.5604 50 50 45.5604 50 40.1042V9.89583C50 4.43958 45.5604 0 40.1042 0H9.89583C4.43958 0 0 4.43958 0 9.89583V40.1042C0 45.5604 4.43958 50 9.89583 50ZM3.125 9.89583C3.125 6.1625 6.1625 3.125 9.89583 3.125H40.1042C43.8375 3.125 46.875 6.1625 46.875 9.89583V40.1042C46.875 43.8375 43.8375 46.875 40.1042 46.875H9.89583C6.1625 46.875 3.125 43.8375 3.125 40.1042V9.89583Z" fill="black"/>
<path d="M25 37.7709C32.0417 37.7709 37.7709 32.0417 37.7709 25.0001C37.7709 17.9584 32.0417 12.2292 25 12.2292C17.9584 12.2292 12.2292 17.9584 12.2292 25.0001C12.2292 32.0417 17.9584 37.7709 25 37.7709ZM25 15.3542C30.3188 15.3542 34.6459 19.6813 34.6459 25.0001C34.6459 30.3188 30.3188 34.6459 25 34.6459C19.6813 34.6459 15.3542 30.3188 15.3542 25.0001C15.3542 19.6813 19.6813 15.3542 25 15.3542Z" fill="black"/>
<path d="M38.2458 15.3376C40.3 15.3376 41.8479 13.7959 41.8479 11.7522C41.8479 9.62091 40.2187 8.16675 38.2479 8.16675C36.1937 8.16675 34.6458 9.70841 34.6458 11.7522C34.6458 13.8792 36.2666 15.3376 38.2458 15.3376ZM38.6146 11.4084C39.2729 11.9897 37.7708 12.6959 37.7708 11.7542C37.7708 11.1917 38.5354 11.3376 38.6146 11.4084Z" fill="black"/>
</svg>
