<svg width="50" height="50" viewBox="0 0 50 50" fill="none" xmlns="http://www.w3.org/2000/svg">
<g clip-path="url(#clip0)">
<path d="M39.5156 30.9732C38.492 29.9074 37.2573 29.3375 35.9487 29.3375C34.6507 29.3375 33.4055 29.8968 32.3397 30.9627L29.005 34.2868C28.7306 34.1391 28.4562 34.0019 28.1924 33.8647C27.8125 33.6747 27.4537 33.4953 27.1477 33.3054C24.024 31.3214 21.1853 28.736 18.4627 25.3907C17.1436 23.7234 16.2571 22.3199 15.6134 20.8952C16.4787 20.1038 17.2808 19.2807 18.0617 18.4892C18.3571 18.1937 18.6526 17.8877 18.9481 17.5922C21.1642 15.3761 21.1642 12.5057 18.9481 10.2896L16.0672 7.40871C15.74 7.08157 15.4023 6.74388 15.0858 6.40619C14.4526 5.75191 13.7878 5.07653 13.1018 4.44336C12.0782 3.43028 10.8541 2.89209 9.56662 2.89209C8.27917 2.89209 7.03394 3.43028 5.97866 4.44336C5.9681 4.45391 5.9681 4.45391 5.95755 4.46446L2.36958 8.08409C1.01882 9.43485 0.248463 11.0811 0.0796172 12.9912C-0.173651 16.0726 0.733893 18.943 1.43038 20.8214C3.13994 25.433 5.69373 29.7069 9.5033 34.2868C14.1254 39.8059 19.6868 44.1643 26.0396 47.2351C28.4668 48.3854 31.7065 49.7467 35.3261 49.9789C35.5477 49.9894 35.7799 50 35.9909 50C38.4286 50 40.4759 49.1241 42.0799 47.3829C42.0905 47.3618 42.1116 47.3512 42.1221 47.3301C42.6709 46.6653 43.3041 46.0638 43.9689 45.42C44.4227 44.9874 44.887 44.5336 45.3408 44.0587C46.3855 42.9718 46.9342 41.7054 46.9342 40.4074C46.9342 39.0989 46.3749 37.8431 45.3091 36.7878L39.5156 30.9732ZM43.2935 42.0853C43.283 42.0853 43.283 42.0959 43.2935 42.0853C42.8819 42.5286 42.4598 42.9296 42.0061 43.3728C41.3201 44.0271 40.6236 44.713 39.9694 45.4834C38.9035 46.6231 37.6477 47.1613 36.0015 47.1613C35.8432 47.1613 35.6744 47.1613 35.5161 47.1507C32.3819 46.9502 29.4693 45.7261 27.2848 44.6813C21.3119 41.7899 16.0672 37.6848 11.7088 32.4823C8.11033 28.145 5.70428 24.135 4.1108 19.8294C3.12939 17.2017 2.77059 15.1545 2.92888 13.2233C3.03441 11.9886 3.50929 10.965 4.38518 10.0891L7.9837 6.49061C8.50078 6.00518 9.04953 5.74136 9.58773 5.74136C10.2526 5.74136 10.7908 6.14237 11.1284 6.48006C11.139 6.49061 11.1495 6.50116 11.1601 6.51171C11.8038 7.11323 12.4159 7.73585 13.0596 8.40067C13.3868 8.73836 13.7244 9.07606 14.0621 9.4243L16.9431 12.3052C18.0617 13.4238 18.0617 14.458 16.9431 15.5766C16.637 15.8826 16.3415 16.1887 16.0355 16.4841C15.1491 17.3917 14.3048 18.2359 13.3868 19.059C13.3656 19.0801 13.3445 19.0907 13.334 19.1118C12.4264 20.0194 12.5953 20.9058 12.7852 21.5073C12.7958 21.539 12.8063 21.5706 12.8169 21.6023C13.5661 23.4174 14.6214 25.1269 16.2255 27.1636L16.236 27.1742C19.1486 30.7621 22.2195 33.5586 25.6069 35.7009C26.0396 35.9753 26.4828 36.1969 26.9049 36.4079C27.2848 36.5979 27.6436 36.7773 27.9497 36.9672C27.9919 36.9883 28.0341 37.02 28.0763 37.0411C28.4351 37.2205 28.7728 37.3049 29.121 37.3049C29.9969 37.3049 30.5457 36.7562 30.7251 36.5768L34.3341 32.9677C34.6929 32.6089 35.2628 32.1762 35.9276 32.1762C36.5819 32.1762 37.1201 32.5878 37.4472 32.9466C37.4578 32.9571 37.4578 32.9571 37.4683 32.9677L43.283 38.7823C44.3699 39.8587 44.3699 40.9667 43.2935 42.0853Z" fill="black"/>
<path d="M27.021 11.8938C29.7859 12.3581 32.2975 13.6666 34.3025 15.6717C36.3075 17.6767 37.6055 20.1883 38.0804 22.9531C38.1965 23.6496 38.798 24.1351 39.4839 24.1351C39.5684 24.1351 39.6422 24.1245 39.7267 24.1139C40.5076 23.9873 41.0247 23.2486 40.898 22.4677C40.3282 19.1225 38.7452 16.0727 36.3286 13.6561C33.912 11.2395 30.8623 9.65655 27.517 9.0867C26.7361 8.96007 26.008 9.47716 25.8708 10.2475C25.7336 11.0179 26.2401 11.7671 27.021 11.8938Z" fill="black"/>
<path d="M49.9419 22.0561C49.0027 16.5475 46.4067 11.5349 42.4177 7.5459C38.4287 3.55692 33.4161 0.960922 27.9076 0.0217193C27.1372 -0.115468 26.4091 0.412175 26.2719 1.18253C26.1452 1.96344 26.6623 2.69159 27.4432 2.82878C32.3609 3.66245 36.8458 5.99463 40.4127 9.55094C43.9795 13.1178 46.3012 17.6028 47.1348 22.5204C47.2509 23.2169 47.8524 23.7023 48.5384 23.7023C48.6228 23.7023 48.6967 23.6917 48.7811 23.6812C49.5514 23.5651 50.0791 22.8264 49.9419 22.0561Z" fill="black"/>
</g>
<defs>
<clipPath id="clip0">
<rect width="50" height="50" fill="white"/>
</clipPath>
</defs>
</svg>
