<svg width="779" height="451" viewBox="0 0 779 451" fill="none" xmlns="http://www.w3.org/2000/svg">
<path d="M714.612 244.073C667.69 216.982 611.986 195.493 550.679 180.831C489.371 166.171 423.663 158.624 357.306 158.625C290.948 158.624 225.24 166.171 163.932 180.831C102.627 195.492 46.9221 216.982 0 244.073L357.306 450.363L714.612 244.073Z" fill="#19B2EA"/>
<path d="M261.686 275.91L233.2 292.356L159.992 283.146L204.572 308.885L179.077 323.604L79.377 266.042L104.872 251.323L146.746 275.499L132.076 235.617L160.561 219.17L177.368 265.384L261.686 275.91Z" fill="#2F4D42"/>
<path d="M321.376 243.447C306.706 251.917 289.472 256.111 269.247 256.111C249.165 256.193 231.789 252.081 217.118 243.612C202.448 235.142 195.327 225.11 195.327 213.433C195.469 201.838 202.733 191.888 217.403 183.418C232.073 174.948 249.45 170.672 269.532 170.59C289.757 170.59 306.991 174.784 321.661 183.254C336.331 191.724 343.595 201.674 343.453 213.268C343.453 224.945 336.047 234.977 321.376 243.447ZM296.451 229.057C304.142 224.616 307.988 219.436 307.988 213.515C308.131 207.676 304.142 202.414 296.309 197.891C288.475 193.368 279.36 191.066 269.105 191.066C258.993 191.148 250.019 193.368 242.328 197.809C234.637 202.249 230.792 207.43 230.649 213.268C230.649 219.189 234.637 224.452 242.471 228.974C250.304 233.497 259.42 235.8 269.532 235.717C279.787 235.717 288.76 233.497 296.451 229.057Z" fill="#2F4D42"/>
<path d="M347.672 111.097L373.025 96.4602L472.725 154.022L447.373 168.659L409.059 146.539L381.001 162.739L419.314 184.859L393.819 199.578L294.119 142.016L319.614 127.297L356.503 148.595L384.562 132.395L347.672 111.097Z" fill="#2F4D42"/>
<path d="M466.698 42.1476L491.338 56.3736L466.698 70.5997L541.758 113.936L516.263 128.655L441.203 85.3191L416.563 99.5451L391.923 85.3191L466.698 42.1476Z" fill="#2F4D42"/>
<path d="M382.388 370.73L363.73 364.892L330.544 384.052L340.657 394.824L313.025 410.777L246.226 334.22L277.276 316.293L409.877 354.86L382.388 370.73ZM315.162 367.606L335.244 356.011L291.234 342.278L315.162 367.606Z" fill="#2F4D42"/>
<path d="M509.738 297.172L481.252 313.618L408.043 304.408L452.624 330.147L427.129 344.866L327.429 287.304L352.924 272.585L394.798 296.761L380.127 256.879L408.613 240.432L425.42 286.646L509.738 297.172Z" fill="#2F4D42"/>
<path d="M495.756 189.915L520.396 204.141L495.756 218.367L570.816 261.703L545.321 276.423L470.261 233.087L445.621 247.313L420.98 233.087L495.756 189.915Z" fill="#2F4D42"/>
<path d="M614.231 236.432L514.531 178.87L540.026 164.151L569.936 181.419L583.182 173.772C593.294 167.933 604.974 164.973 618.362 164.809C631.893 164.726 643.572 167.522 653.684 173.361C663.797 179.199 668.782 186.024 668.497 193.754C668.212 201.484 663.085 208.227 652.972 214.065L614.231 236.432ZM696.84 188.738L597.14 131.176L622.492 116.539L722.193 174.101L696.84 188.738ZM615.513 207.733L628.759 200.086C631.608 198.441 633.032 196.468 633.032 194.165C632.89 191.945 631.323 189.889 628.19 188.08C625.056 186.271 621.495 185.366 617.65 185.284C613.804 185.366 610.386 186.189 607.537 187.833L594.291 195.481L615.513 207.733Z" fill="#2F4D42"/>
</svg>
