<svg xmlns="http://www.w3.org/2000/svg" width="65" height="43" fill="none">
  <rect width="65" height="21" y="22" fill="#fff" rx="10"/>
  <path fill="#DC590C" d="M38.63 10.281h9.456c0 2.756-1.899 4.729-4.728 4.729h-4.543l-.185-4.729z"/>
  <path fill="#204C3D" d="M17.007.002c-.148 4.587 1.96 8.264 5.877 10.278a11.755 11.755 0 005.79 1.517h4.744L33.162.002H17.007z"/>
  <path fill="#7CB72E" d="M43.44 10.278c0 5.677-4.6 10.278-10.278 10.278-5.676 0-10.278-4.601-10.278-10.278C22.884 4.602 27.486 0 33.162 0c5.677 0 10.279 4.602 10.279 10.278z"/>
  <path fill="#fff" d="M43.44 10.277c-2-3.624-5.852-6.079-10.277-6.079-4.426 0-8.278 2.455-10.279 6.079h20.557z"/>
  <path fill="#204C3D" d="M40.486 10.28a1.753 1.753 0 11-3.506 0 1.753 1.753 0 013.506 0z"/>
  <path fill="#7CB72E" d="M29.166 30.95c1.739 0 3.244.51 3.244 2.336 0 1.827-1.417 2.336-3.088 2.336-1.195 0-2.102.002-2.102.002v2.656h-1.194v-7.33h3.14zm.26 1.004H27.22v2.663h2.154c1.126 0 1.906-.247 1.906-1.33 0-1.069-.78-1.333-1.853-1.333zM24.447 38.279l-3.307-7.336h-1.306l-3.318 7.336h1.217l.288-.649c.45-.61 1.49-1.506 3.38-1.506h.883l.971 2.155h1.192zm-3.069-3.166c-1.034 0-1.82.188-2.46.517l1.563-3.477 1.347 2.96h-.45zM58 30.95v1.009h-2.677v6.32h-1.194v-6.32h-2.673v-1.01H58zM38.973 34.614l2.61-3.665H40.21l-2.252 3.153H35.42l.006-3.153H34.23v7.33h1.195v-3.166h2.535l2.275 3.166h1.431l-2.694-3.665zM13.736 30.953l-2.77 3.41-2.772-3.41H7v7.33h1.194v-5.582l2.771 3.401 2.771-3.4v5.581h1.194v-7.33h-1.194zM49.74 30.95v1.009H44.64v2.143h4.096v1.011H44.64v2.161h5.102v1.005h-6.296v-7.33h6.296z"/>
  <path fill="#204C3D" d="M41.261 25a1.59 1.59 0 00-1.605 1.605c0 .906.717 1.604 1.605 1.604.893 0 1.605-.698 1.605-1.604 0-.907-.712-1.605-1.605-1.605zm0 2.737c-.626 0-1.096-.497-1.096-1.132 0-.636.47-1.132 1.096-1.132.627 0 1.096.496 1.096 1.132 0 .635-.47 1.132-1.096 1.132zM30.505 25a1.59 1.59 0 00-1.605 1.605 1.59 1.59 0 001.605 1.604c.893 0 1.604-.698 1.604-1.604 0-.907-.711-1.605-1.604-1.605zm0 2.737c-.627 0-1.097-.497-1.097-1.132 0-.636.47-1.132 1.097-1.132.626 0 1.096.496 1.096 1.132 0 .635-.47 1.132-1.096 1.132zM26.953 25.044c.74 0 1.38.217 1.38.994 0 .778-.603.995-1.313.995h-.895v1.13h-.508v-3.12h1.336zm.111.427h-.94v1.133h.918c.479 0 .81-.104.81-.566 0-.454-.331-.567-.788-.567zM38.21 26.603l1.11-1.56h-.584l-.959 1.343h-1.08l.003-1.342h-.509v3.12h.509v-1.348h1.079l.968 1.347h.609l-1.147-1.56zM23.537 26.175h-.895v-.701h1.735v-.43H22.134v3.12h1.336c.74 0 1.38-.218 1.38-.995 0-.778-.603-.994-1.314-.994zm.044 1.56h-.94v-1.132h.917c.48 0 .812.105.812.566 0 .454-.332.567-.79.567zM35.195 27.324a1.07 1.07 0 01-.856.413c-.626 0-1.096-.497-1.096-1.132 0-.636.47-1.132 1.096-1.132.352 0 .654.156.852.406l.293-.41A1.602 1.602 0 0034.339 25a1.59 1.59 0 00-1.605 1.605 1.59 1.59 0 001.605 1.604c.453 0 .86-.18 1.15-.476l-.294-.409z"/>
</svg>