<?xml version="1.0" encoding="utf-8"?><svg xmlns="http://www.w3.org/2000/svg" xmlns:xlink="http://www.w3.org/1999/xlink"><symbol viewBox="-15.62 -15.62 81.25 81.25" id="icon-insta" xmlns="http://www.w3.org/2000/svg"><path d="M9.896 50h30.208C45.56 50 50 45.56 50 40.104V9.896C50 4.44 45.56 0 40.104 0H9.896C4.44 0 0 4.44 0 9.896v30.208C0 45.56 4.44 50 9.896 50zM3.125 9.896a6.779 6.779 0 0 1 6.77-6.771h30.21a6.779 6.779 0 0 1 6.77 6.77v30.21a6.779 6.779 0 0 1-6.77 6.77H9.894a6.779 6.779 0 0 1-6.77-6.77V9.894z"/><path d="M25 37.77c7.042 0 12.77-5.728 12.77-12.77S32.043 12.23 25 12.23 12.23 17.957 12.23 25 17.957 37.77 25 37.77zm0-22.416c5.319 0 9.646 4.327 9.646 9.646 0 5.319-4.327 9.646-9.646 9.646-5.319 0-9.646-4.327-9.646-9.646 0-5.319 4.327-9.646 9.646-9.646zM38.246 15.338c2.054 0 3.602-1.542 3.602-3.586 0-2.131-1.63-3.585-3.6-3.585-2.054 0-3.602 1.541-3.602 3.585 0 2.127 1.62 3.586 3.6 3.586zm.369-3.93c.658.582-.844 1.288-.844.346 0-.562.764-.416.844-.346z"/></symbol><symbol viewBox="-15.62 -15.62 81.25 81.25" id="icon-mail" xmlns="http://www.w3.org/2000/svg"><g clip-path="url(#bclip0)"><path d="M43.896 5.975H6.114A6.12 6.12 0 0 0 0 12.089V37.91a6.12 6.12 0 0 0 6.114 6.114h37.772A6.12 6.12 0 0 0 50 37.912V12.1a6.113 6.113 0 0 0-6.104-6.124zm3.321 31.936a3.325 3.325 0 0 1-3.32 3.321H6.113a3.325 3.325 0 0 1-3.32-3.32V12.098a3.325 3.325 0 0 1 3.32-3.32h37.772c1.83 0 3.32 1.489 3.32 3.32V37.91h.011z"/><path d="M31.533 24.68l12.229-10.967c.569-.517.62-1.397.103-1.976a1.403 1.403 0 0 0-1.976-.103L25.026 26.769l-3.29-2.938c-.01-.01-.02-.02-.02-.031a2.069 2.069 0 0 0-.228-.197L8.1 11.623a1.395 1.395 0 0 0-1.977.114 1.395 1.395 0 0 0 .114 1.976l12.374 11.06L6.29 36.308a1.402 1.402 0 0 0-.062 1.976 1.4 1.4 0 0 0 1.976.072l12.508-11.7 3.393 3.03a1.396 1.396 0 0 0 1.862-.01l3.487-3.124 12.435 11.815c.269.258.62.382.962.382.373 0 .735-.145 1.014-.434a1.402 1.402 0 0 0-.052-1.976l-12.28-11.66z"/></g><defs><clipPath id="bclip0"><path d="M0 0h50v50H0z"/></clipPath></defs></symbol><symbol viewBox="-15.62 -15.62 81.25 81.25" id="icon-phone" xmlns="http://www.w3.org/2000/svg"><g clip-path="url(#cclip0)"><path d="M39.516 30.973c-1.024-1.066-2.259-1.636-3.567-1.636-1.298 0-2.543.56-3.61 1.626l-3.334 3.324c-.274-.148-.549-.285-.813-.422-.38-.19-.738-.37-1.044-.56-3.124-1.984-5.963-4.569-8.685-7.914-1.32-1.668-2.206-3.071-2.85-4.496.866-.791 1.668-1.614 2.449-2.406.295-.295.59-.601.886-.897 2.216-2.216 2.216-5.086 0-7.302l-2.88-2.881a43.664 43.664 0 0 1-.982-1.003 49.802 49.802 0 0 0-1.984-1.963c-1.024-1.013-2.248-1.55-3.535-1.55-1.288 0-2.533.537-3.588 1.55l-.021.021-3.588 3.62C1.019 9.434.248 11.081.08 12.991c-.254 3.082.654 5.952 1.35 7.83 1.71 4.612 4.264 8.886 8.073 13.466 4.622 5.519 10.184 9.877 16.537 12.948 2.427 1.15 5.666 2.512 9.286 2.744.222.01.454.021.665.021 2.438 0 4.485-.876 6.089-2.617.01-.021.032-.032.042-.053.549-.665 1.182-1.266 1.847-1.91a41.75 41.75 0 0 0 1.372-1.361c1.044-1.087 1.593-2.354 1.593-3.652 0-1.308-.56-2.564-1.625-3.62l-5.793-5.814zm3.778 11.112c-.011 0-.011.01 0 0-.412.444-.834.845-1.288 1.288-.686.654-1.382 1.34-2.037 2.11-1.066 1.14-2.321 1.678-3.968 1.678-.158 0-.327 0-.485-.01-3.134-.2-6.047-1.425-8.231-2.47-5.973-2.891-11.218-6.996-15.576-12.199C8.11 28.145 5.704 24.135 4.11 19.83c-.982-2.627-1.34-4.675-1.182-6.606.105-1.234.58-2.258 1.456-3.134l3.599-3.598c.517-.486 1.066-.75 1.604-.75.665 0 1.203.401 1.54.74l.032.03a53.295 53.295 0 0 1 1.9 1.89c.327.337.664.675 1.002 1.023l2.881 2.881c1.119 1.119 1.119 2.153 0 3.272-.306.306-.602.612-.908.907-.886.908-1.73 1.752-2.648 2.575-.021.021-.043.032-.053.053-.908.907-.739 1.794-.549 2.395l.032.095c.75 1.815 1.804 3.525 3.409 5.562l.01.01c2.913 3.588 5.983 6.385 9.37 8.527.434.274.877.496 1.299.707.38.19.739.37 1.045.56.042.02.084.052.126.073.36.18.697.264 1.045.264.876 0 1.425-.549 1.604-.728l3.61-3.61c.358-.358.928-.79 1.593-.79.654 0 1.192.41 1.52.77l.02.02 5.815 5.815c1.087 1.077 1.087 2.185.01 3.303zM27.021 11.894c2.765.464 5.276 1.773 7.282 3.778a13.452 13.452 0 0 1 3.777 7.281 1.416 1.416 0 0 0 1.404 1.182c.084 0 .158-.01.243-.021a1.426 1.426 0 0 0 1.171-1.646 16.276 16.276 0 0 0-4.57-8.812 16.276 16.276 0 0 0-8.811-4.57 1.432 1.432 0 0 0-1.646 1.162 1.41 1.41 0 0 0 1.15 1.646zM49.942 22.056c-.94-5.509-3.535-10.521-7.524-14.51-3.99-3.99-9.002-6.585-14.51-7.524a1.42 1.42 0 0 0-1.636 1.16c-.127.781.39 1.51 1.171 1.647 4.918.833 9.403 3.166 12.97 6.722 3.567 3.567 5.888 8.052 6.722 12.97a1.416 1.416 0 0 0 1.403 1.181c.085 0 .159-.01.243-.02a1.398 1.398 0 0 0 1.16-1.626z"/></g><defs><clipPath id="cclip0"><path d="M0 0h50v50H0z"/></clipPath></defs></symbol></svg>