<svg width="17" height="17" viewBox="0 0 17 17" fill="none" xmlns="http://www.w3.org/2000/svg">
<path d="M7.1038 1.50758C6.96986 1.50758 6.86024 1.6172 6.86024 1.75113L6.86024 6.72125C6.86024 6.85519 6.75063 6.96481 6.61669 6.96481L1.64662 6.96476C1.51268 6.96476 1.40307 7.07437 1.40307 7.20831L1.40302 9.76576C1.40302 9.8997 1.51264 10.0093 1.64657 10.0093L6.61669 10.0093C6.75063 10.0093 6.86024 10.1189 6.86024 10.2529L6.86024 15.223C6.86024 15.3569 6.96986 15.4665 7.1038 15.4665L9.6612 15.4665C9.79514 15.4665 9.90475 15.3569 9.90475 15.223L9.90475 10.2529C9.90475 10.1189 10.0144 10.0093 10.1483 10.0093H15.1183C15.2523 10.0093 15.3619 9.8997 15.3619 9.76576V7.20836C15.3619 7.07442 15.2523 6.96481 15.1183 6.96481H10.1483C10.0144 6.96481 9.90475 6.85519 9.90475 6.72125V1.75123C9.90475 1.61729 9.79514 1.50768 9.6612 1.50768L7.1038 1.50758Z" fill="#7AB62D"/>
</svg>
