<svg width="95" height="95" viewBox="0 0 95 95" fill="none" xmlns="http://www.w3.org/2000/svg">
<g clip-path="url(#clip0)">
<path d="M92.5917 21.4098L84.3669 13.1851C83.2392 12.0565 81.8676 11.4919 80.2554 11.4919C78.6417 11.4919 77.2702 12.0565 76.1424 13.1851L36.4689 52.9185L18.6885 35.0776C17.5595 33.9485 16.1888 33.3847 14.5766 33.3847C12.9633 33.3847 11.5926 33.9485 10.4636 35.0776L2.23886 43.3025C1.10983 44.4313 0.545532 45.8025 0.545532 47.4155C0.545532 49.0273 1.10983 50.3997 2.23886 51.5283L24.1312 73.4202L32.3565 81.6449C33.4849 82.7744 34.8561 83.3382 36.4689 83.3382C38.0811 83.3382 39.4522 82.7729 40.5813 81.6449L48.8064 73.4202L92.5917 29.6352C93.7196 28.5061 94.285 27.1352 94.285 25.5222C94.2858 23.91 93.7196 22.5388 92.5917 21.4098Z" fill="white"/>
</g>
<defs>
<clipPath id="clip0">
<rect width="93.7395" height="93.7395" fill="white" transform="translate(0.545471 0.54541)"/>
</clipPath>
</defs>
</svg>
