<svg width="94" height="94" viewBox="0 0 94 94" fill="none" xmlns="http://www.w3.org/2000/svg">
<path d="M78.8369 0.563286C78.0858 -0.187762 76.8565 -0.187762 76.1054 0.563286L48.236 28.4327C47.4849 29.1838 46.2556 29.1838 45.5046 28.4327L17.6356 0.563286C16.8846 -0.187762 15.6553 -0.187762 14.9042 0.563286L0.563286 14.9037C-0.187762 15.6547 -0.187762 16.884 0.563286 17.6351L28.4327 45.5046C29.1838 46.2556 29.1838 47.4849 28.4327 48.236L0.563286 76.1054C-0.187762 76.8565 -0.187762 78.0858 0.563286 78.8369L14.9037 93.1773C15.6547 93.9283 16.884 93.9283 17.6351 93.1773L45.5046 65.3078C46.2556 64.5567 47.4849 64.5567 48.236 65.3078L76.1049 93.1767C76.856 93.9278 78.0853 93.9278 78.8363 93.1767L93.1767 78.8363C93.9278 78.0853 93.9278 76.856 93.1767 76.1049L65.3078 48.236C64.5567 47.4849 64.5567 46.2556 65.3078 45.5046L93.1767 17.6356C93.9278 16.8846 93.9278 15.6553 93.1767 14.9042L78.8369 0.563286Z" fill="white"/>
</svg>
