<svg width="19" height="19" viewBox="0 0 19 19" fill="none" xmlns="http://www.w3.org/2000/svg">
<g clip-path="url(#clip0)">
<path d="M18.2084 3.16667H12.6667V2.375C12.666 1.74533 12.4155 1.14165 11.9703 0.696402C11.525 0.251157 10.9214 0.000707188 10.2917 0L8.70835 0C8.07868 0.000707188 7.475 0.251157 7.02976 0.696402C6.58451 1.14165 6.33406 1.74533 6.33335 2.375V3.16667H0.791687V4.75H1.66648L3.01498 16.8873C3.07904 17.4684 3.35539 18.0054 3.79102 18.3953C4.22666 18.7852 4.79091 19.0005 5.37554 19H13.6245C14.2091 19.0005 14.7734 18.7852 15.209 18.3953C15.6447 18.0054 15.921 17.4684 15.9851 16.8872L17.3336 4.75H18.2084V3.16667ZM7.91669 2.375C7.91692 2.16511 8.00041 1.96388 8.14882 1.81547C8.29724 1.66705 8.49846 1.58357 8.70835 1.58333H10.2917C10.5016 1.58357 10.7028 1.66705 10.8512 1.81547C10.9996 1.96388 11.0831 2.16511 11.0834 2.375V3.16667H7.91669V2.375ZM14.4113 16.7124C14.39 16.9061 14.2979 17.0851 14.1527 17.2151C14.0075 17.3451 13.8194 17.4168 13.6245 17.4167H5.37554C5.18067 17.4168 4.9926 17.3451 4.8474 17.2151C4.70219 17.0852 4.61008 16.9062 4.58872 16.7125L3.25951 4.75H15.7405L14.4113 16.7124Z" fill="#6FA626"/>
<path d="M8.7084 6.33325H10.2917V15.8333H8.7084V6.33325Z" fill="#6FA626"/>
<path d="M11.8817 15.7629L12.6729 6.25858L14.2515 6.39L13.4603 15.8944L11.8817 15.7629Z" fill="#6FA626"/>
<path d="M4.75476 6.40234L6.33335 6.27093L7.12458 15.7753L5.546 15.9067L4.75476 6.40234Z" fill="#6FA626"/>
</g>
<defs>
<clipPath id="clip0">
<rect width="19" height="19" fill="white"/>
</clipPath>
</defs>
</svg>
