<svg width="230" height="30" viewBox="0 0 230 30" fill="none" xmlns="http://www.w3.org/2000/svg">
<path d="M113.06 4.91846V17.2683H125.409C125.409 10.4476 119.88 4.91846 113.06 4.91846Z" fill="#7AB62D"/>
<path d="M125.409 17.2705H113.06L121.793 26.0023C124.028 23.7679 125.409 20.6809 125.409 17.2705Z" fill="#F1D5A3"/>
<path d="M113.06 9.86499V17.2699C117.88 17.2699 122.218 14.1397 122.944 9.86499H113.06Z" fill="#658434"/>
<path d="M113.06 17.2705V29.6195C116.47 29.6195 119.558 28.2377 121.793 26.0032L113.06 17.2705Z" fill="#EAAA19"/>
<path d="M100.71 17.2705C100.71 20.6809 102.092 23.7679 104.327 26.0023L113.06 17.2705H100.71Z" fill="#7AB62D"/>
<path d="M113.061 17.2705L104.328 26.0032C106.562 28.2377 109.65 29.6195 113.061 29.6195V17.2705Z" fill="#204C3D"/>
<path d="M120.54 6.74878H126.754C126.754 8.55947 125.505 9.85605 123.647 9.85605H120.662L120.54 6.74878Z" fill="#DC590C"/>
<path d="M113.059 17.2721L101.43 13.1206C101.318 13.4363 101.22 13.7554 101.134 14.077L101.132 14.0762C101.123 14.1108 101.116 14.1454 101.106 14.18C101.088 14.2509 101.071 14.3218 101.053 14.3927C101.041 14.4434 101.029 14.4949 101.018 14.5455C100.997 14.6333 100.979 14.7219 100.961 14.8097C100.953 14.8477 100.946 14.8849 100.938 14.9229C100.919 15.0208 100.901 15.1196 100.884 15.2192C100.879 15.2496 100.874 15.2808 100.869 15.3111C100.853 15.4133 100.837 15.5163 100.823 15.6193C100.819 15.6505 100.815 15.6809 100.811 15.7121C100.798 15.8117 100.786 15.9113 100.776 16.0101C100.773 16.0498 100.769 16.0886 100.765 16.1275C100.76 16.1756 100.755 16.2237 100.751 16.2727H100.753C100.726 16.6052 100.71 16.9387 100.71 17.2721H113.059Z" fill="#EAAA19"/>
<path d="M106.331 0C106.233 3.0136 107.618 5.43039 110.193 6.75317C111.317 7.38712 112.616 7.75008 113.998 7.75008H117.114L116.946 0H106.331Z" fill="#204C3D"/>
<path d="M123.696 6.75855C123.696 10.488 120.673 13.5117 116.943 13.5117C113.213 13.5117 110.189 10.488 110.189 6.75855C110.189 3.02912 113.213 0.00453499 116.943 0.00453499C120.673 0.00453499 123.696 3.02912 123.696 6.75855Z" fill="#7AB62D"/>
<path d="M123.699 6.76027C122.385 4.37978 119.854 2.7666 116.946 2.7666C114.038 2.7666 111.507 4.37978 110.193 6.76027H123.699Z" fill="white"/>
<path d="M121.759 6.75644C121.759 7.39293 121.244 7.90869 120.607 7.90869C119.972 7.90869 119.455 7.39293 119.455 6.75644C119.455 6.11995 119.972 5.60419 120.607 5.60419C121.244 5.60419 121.759 6.11995 121.759 6.75644Z" fill="#204C3D"/>
<path d="M175.073 8.5874C178.377 8.5874 181.237 9.55818 181.237 13.0276C181.237 16.4987 178.544 17.467 175.369 17.467C173.098 17.467 171.374 17.4695 171.374 17.4695V22.5167H169.106V8.5874H175.073ZM175.568 10.4969H171.374V15.5558C171.374 15.5558 173.242 15.5584 175.468 15.5584C177.608 15.5584 179.09 15.0882 179.09 13.0276C179.09 10.9983 177.608 10.4969 175.568 10.4969Z" fill="#7AB62D"/>
<path d="M166.106 22.5129L159.823 8.57349H157.342L151.038 22.5129H153.349L153.897 21.2796C154.751 20.1214 156.726 18.4171 160.32 18.4171H161.996L163.842 22.5129H166.106ZM160.276 16.4966C158.311 16.4966 156.817 16.8537 155.602 17.4784L158.572 10.8729L161.13 16.4966H160.276Z" fill="#7AB62D"/>
<path d="M229.86 8.5874V10.5062H224.773V22.515H222.505V10.5062H217.426V8.5874H229.86Z" fill="#7AB62D"/>
<path d="M193.708 15.5516L198.667 8.5874H196.059L191.779 14.5783H186.957L186.968 8.5874H184.697V22.515H186.968V16.4987H191.785L196.107 22.515H198.827L193.708 15.5516Z" fill="#7AB62D"/>
<path d="M145.757 8.58691L140.491 15.0674L135.225 8.58691H132.957V22.5145H135.225V11.9086L140.491 18.3697L145.757 11.9086V22.5145H148.026V8.58691H145.757Z" fill="#7AB62D"/>
<path d="M214.165 8.5874V10.5062H204.471V14.5783H212.255V16.4987H204.471V20.6055H214.165V22.515H202.202V8.5874H214.165Z" fill="#7AB62D"/>
<path d="M86.4028 8.57349C82.4353 8.57349 79.2377 11.6926 79.2377 15.7386C79.2377 19.7846 82.4353 22.9037 86.4028 22.9037C90.3897 22.9037 93.5679 19.7846 93.5679 15.7386C93.5679 11.6926 90.3897 8.57349 86.4028 8.57349ZM86.4028 20.7942C83.6053 20.7942 81.5076 18.5758 81.5076 15.7386C81.5076 12.9015 83.6053 10.6839 86.4028 10.6839C89.2003 10.6839 91.298 12.9015 91.298 15.7386C91.298 18.5758 89.2003 20.7942 86.4028 20.7942Z" fill="#204C3D"/>
<path d="M38.3725 8.57349C34.405 8.57349 31.2074 11.6926 31.2074 15.7386C31.2074 19.7846 34.405 22.9037 38.3725 22.9037C42.3594 22.9037 45.5376 19.7846 45.5376 15.7386C45.5376 11.6926 42.3594 8.57349 38.3725 8.57349ZM38.3725 20.7942C35.575 20.7942 33.4765 18.5758 33.4765 15.7386C33.4765 12.9015 35.575 10.6839 38.3725 10.6839C41.1692 10.6839 43.2677 12.9015 43.2677 15.7386C43.2677 18.5758 41.1692 20.7942 38.3725 20.7942Z" fill="#204C3D"/>
<path d="M22.5168 8.76904C25.82 8.76904 28.6799 9.73982 28.6799 13.2093C28.6799 16.6804 25.9871 17.6486 22.8123 17.6486C20.5415 17.6486 18.8178 17.6512 18.8178 17.6512V22.6983H16.5496V8.76904H22.5168ZM23.0115 10.6785H18.8178V15.7375C18.8178 15.7375 20.6859 15.74 22.911 15.74C25.0501 15.74 26.5333 15.2698 26.5333 13.2093C26.5333 11.1799 25.0501 10.6785 23.0115 10.6785Z" fill="#204C3D"/>
<path d="M72.7743 15.7332L77.732 8.76904H75.1244L70.8446 14.7599H66.0228L66.033 8.76904H63.7622V22.6966H66.033V16.6804H70.8513L75.1725 22.6966H77.8924L72.7743 15.7332Z" fill="#204C3D"/>
<path d="M7.26065 13.8232C4.9899 13.8232 3.2653 13.8206 3.2653 13.8206V10.6939H11.0154V8.77344H3.2653H3.23154H0.997925V22.7027H6.96519C10.2675 22.7027 13.1275 21.7319 13.1275 18.2625C13.1275 14.7914 10.4346 13.8232 7.26065 13.8232ZM7.45902 20.7932H3.2653V15.7343C3.2653 15.7343 5.1334 15.7326 7.35857 15.7326C9.49848 15.7326 10.9808 16.2028 10.9808 18.2625C10.9808 20.2918 9.49848 20.7932 7.45902 20.7932Z" fill="#204C3D"/>
<path d="M59.3161 18.9531C58.434 20.0834 57.0758 20.7942 55.493 20.7942C52.6955 20.7942 50.5978 18.5758 50.5978 15.7386C50.5978 12.9015 52.6955 10.6839 55.493 10.6839C57.064 10.6839 58.4146 11.3828 59.2967 12.4988L60.6026 10.6712C59.3068 9.36697 57.5029 8.57349 55.493 8.57349C51.5255 8.57349 48.3279 11.6926 48.3279 15.7386C48.3279 19.7846 51.5255 22.9037 55.493 22.9037C57.5164 22.9037 59.3313 22.0993 60.6279 20.779L59.3161 18.9531Z" fill="#204C3D"/>
</svg>
