<svg width="104" height="79" viewBox="0 0 104 79" fill="none" xmlns="http://www.w3.org/2000/svg">
<g clip-path="url(#clip0)">
<path d="M83.3504 32.6026C82.1112 32.2479 80.8197 32.9654 80.4655 34.2044C80.1111 35.4434 80.8283 36.7352 82.0671 37.0894C92.7174 40.1353 99.3333 44.5532 99.3333 48.6191C99.3333 51.5945 95.7143 54.8605 89.4045 57.5796C82.4623 60.5709 72.6143 62.7596 61.6633 63.7454L52.1052 63.6159C52.0943 63.6159 52.0835 63.6157 52.0728 63.6157C50.7988 63.6157 49.7577 64.6398 49.7404 65.9175C49.7229 67.206 50.7535 68.2648 52.0418 68.2821L61.7202 68.4132C61.7309 68.4132 61.7414 68.4135 61.7519 68.4135C61.8212 68.4135 61.8903 68.4104 61.9591 68.4044C73.4382 67.381 83.8409 65.0586 91.2513 61.8654C101.788 57.3245 104 52.1557 104 48.6191C104 42.099 96.6663 36.4108 83.3504 32.6026Z" fill="white"/>
<path d="M14.6049 29.9441C13.3165 29.9441 12.2716 30.9887 12.2716 32.2774C12.2716 33.5661 13.3165 34.6108 14.6049 34.6108H24.1998V44.2551H14.6049C13.3165 44.2551 12.2716 45.2998 12.2716 46.5885C12.2716 47.8772 13.3165 48.9218 14.6049 48.9218H26.5332C27.8219 48.9218 28.8665 47.8772 28.8665 46.5885V17.9664C28.8665 16.6777 27.8219 15.6331 26.5332 15.6331H14.6049C13.3165 15.6331 12.2716 16.6777 12.2716 17.9664C12.2716 19.2551 13.3165 20.2998 14.6049 20.2998H24.1998V29.9441H14.6049Z" fill="white"/>
<path d="M36.0717 48.922H50.3829C51.6714 48.922 52.7163 47.8774 52.7163 46.5887V32.2777C52.7163 30.989 51.6716 29.9443 50.3829 29.9443H38.405V20.2998H47.9999C49.2886 20.2998 50.3332 19.2551 50.3332 17.9664C50.3332 16.6777 49.2886 15.6331 47.9999 15.6331H36.0717C34.783 15.6331 33.7383 16.6777 33.7383 17.9664V46.5887C33.7383 47.8774 34.783 48.922 36.0717 48.922ZM38.405 34.6108H48.0496V44.2551H38.405V34.6108Z" fill="white"/>
<path d="M59.9282 48.922H74.2395C75.528 48.922 76.5728 47.8774 76.5728 46.5887V17.9664C76.5728 16.6777 75.528 15.6331 74.2395 15.6331H59.9282C58.6398 15.6331 57.5949 16.6777 57.5949 17.9664V46.5887C57.5949 47.8774 58.6398 48.922 59.9282 48.922ZM62.2616 20.2998H71.9062V44.2554H62.2616V20.2998Z" fill="white"/>
<path d="M34.6666 54.7255C33.8343 53.7418 32.362 53.6188 31.3783 54.4511C30.3943 55.2834 30.2716 56.7555 31.1036 57.7395L36.3224 63.9088C25.31 63.069 15.3361 61.0507 8.0027 58.1571C0.798532 55.3142 -3.33333 51.838 -3.33333 48.6192C-3.33333 44.8816 2.20506 40.8538 11.4817 37.8448C12.7076 37.4472 13.3789 36.1312 12.9813 34.9052C12.584 33.6795 11.2675 33.0082 10.042 33.4056C4.64526 35.1561 0.365698 37.2386 -2.67813 39.595C-6.2094 42.3297 -8 45.3656 -8 48.6192C-8 54.0101 -3.05847 58.809 6.2898 62.4978C13.8881 65.4959 24.0761 67.6006 35.2759 68.508L30.6223 73.6656C29.7589 74.6223 29.8345 76.0979 30.7914 76.961C31.2376 77.3637 31.7966 77.562 32.3538 77.562C32.9911 77.562 33.6262 77.3023 34.0868 76.7918L42.5771 67.3827C42.964 66.954 43.1782 66.397 43.1782 65.8195V65.6413C43.1782 65.0894 42.9826 64.5556 42.6263 64.1344L34.6666 54.7255Z" fill="white"/>
<path d="M80.9966 15.5132H90.535C91.8235 15.5132 92.8684 14.4686 92.8684 13.1799V3.63796C92.8684 2.34926 91.8235 1.30463 90.535 1.30463H80.9966C79.7081 1.30463 78.6633 2.34926 78.6633 3.63796V13.1799C78.6633 14.4686 79.7081 15.5132 80.9966 15.5132ZM83.3299 5.9713H88.2017V10.8466H83.3299V5.9713Z" fill="white"/>
</g>
<defs>
<clipPath id="clip0">
<rect width="112" height="80.2666" fill="white" transform="translate(-7.99994 -1.6333)"/>
</clipPath>
</defs>
</svg>
