<svg width="100" height="100" viewBox="0 0 100 100" fill="none" xmlns="http://www.w3.org/2000/svg">
<circle cx="50" cy="50" r="50" fill="#CF3DFF"/>
<path d="M29.2975 39.215L26.2191 40.3354L20.4356 36.2342L22.4302 41.7145L19.7239 42.6995L15.4145 30.8594L18.1208 29.8743L19.9923 35.0163L21.7405 28.5569L24.8189 27.4364L22.9264 34.6572L29.2975 39.215ZM32.0997 24.7864L34.806 23.8014L34.4305 33.4008C34.3175 36.213 33.0826 37.9778 30.7258 38.6951L29.8024 36.1579C30.9331 35.8613 31.5809 35.185 31.7456 34.1289L24.9956 27.3721L27.7019 26.3871L31.903 30.7195L32.0997 24.7864ZM49.6083 31.8224L46.5299 32.9429L43.2904 30.2526L42.5381 34.3958L39.4597 35.5163L40.7846 28.1573L35.3194 23.6146L38.3978 22.4941L41.3635 24.9584L42.0513 21.1643L45.1297 20.0439L43.8631 27.0368L49.6083 31.8224ZM52.9124 17.2112L55.6187 16.2262L59.9281 28.0663L57.2218 29.0514L55.5104 24.3491L51.7892 25.7035L53.5007 30.4058L50.7943 31.3908L46.4849 19.5506L49.1912 18.5656L50.8411 23.0987L54.5623 21.7443L52.9124 17.2112ZM66.1929 12.3775L70.5023 24.2177L67.796 25.2027L66.3801 21.3123L65.5174 21.6263L64.4131 26.4339L61.3685 27.5421L62.6034 22.3038C61.7709 22.262 61.0122 22.0019 60.3272 21.5233C59.6381 21.0334 59.154 20.4051 58.8749 19.6383C58.4645 18.5107 58.5103 17.4085 59.0123 16.3319C59.5144 15.2553 60.3292 14.5117 61.4568 14.1013L66.1929 12.3775ZM63.4884 19.6831L65.5182 18.9443L64.41 15.8997L62.3803 16.6385C62.0082 16.7739 61.7401 17.0375 61.5762 17.4292C61.4236 17.8167 61.4252 18.2248 61.5812 18.6533C61.7372 19.0818 61.9982 19.3954 62.3642 19.5942C62.7416 19.7889 63.1163 19.8185 63.4884 19.6831ZM21.4999 57.0367C22.7177 56.5934 23.824 56.5803 24.8186 56.9973C25.8091 57.403 26.5075 58.164 26.9138 59.2804C27.3201 60.3967 27.2763 61.4343 26.7824 62.393C26.2845 63.3404 25.4265 64.0358 24.2087 64.4791L19.6418 66.1413L15.3323 54.3012L22.9439 51.5308L23.8919 54.1356L18.9867 55.921L19.6393 57.7139L21.4999 57.0367ZM23.2853 61.9419C24.1874 61.6136 24.4948 61.0547 24.2075 60.2654C23.9202 59.476 23.3255 59.2455 22.4234 59.5739L20.5628 60.2511L21.4247 62.6191L23.2853 61.9419ZM29.709 49.0685C30.8704 48.6458 31.9951 48.6834 33.083 49.1813C34.171 49.6792 34.9201 50.492 35.3306 51.6197C35.741 52.7473 35.6895 53.8515 35.1762 54.9322C34.6629 56.013 33.8255 56.7647 32.664 57.1874L30.888 57.8338L32.2424 61.555L29.5361 62.5401L25.2266 50.6999L29.709 49.0685ZM31.7406 54.6503C32.1578 54.4984 32.4484 54.2266 32.6123 53.8349C32.7762 53.4433 32.7802 53.0332 32.6242 52.6047C32.4683 52.1762 32.2016 51.8646 31.8243 51.6699C31.4469 51.4752 31.0497 51.4538 30.6324 51.6057L28.8564 52.2521L29.9646 55.2967L31.7406 54.6503ZM48.8835 53.755C48.1192 55.3741 46.88 56.4956 45.166 57.1194C43.452 57.7432 41.7819 57.6807 40.1557 56.9317C38.5294 56.1828 37.4003 54.94 36.7682 53.2034C36.1362 51.4669 36.2023 49.7891 36.9667 48.17C37.731 46.551 38.9702 45.4295 40.6842 44.8057C42.3982 44.1818 44.0683 44.2444 45.6945 44.9933C47.3208 45.7423 48.4499 46.9851 49.082 48.7216C49.714 50.4582 49.6479 52.136 48.8835 53.755ZM41.3791 54.3985C42.2824 54.8104 43.2246 54.8378 44.2056 54.4807C45.1867 54.1237 45.8852 53.4991 46.3012 52.607C46.7284 51.7109 46.7533 50.7441 46.3757 49.7066C45.9981 48.6692 45.3576 47.9446 44.4543 47.5327C43.5622 47.1167 42.6256 47.0873 41.6446 47.4443C40.6635 47.8014 39.9594 48.428 39.5321 49.3242C39.1162 50.2163 39.097 51.181 39.4746 52.2184C39.8522 53.2558 40.487 53.9825 41.3791 54.3985ZM58.4961 52.2677C56.7257 52.912 55.0407 52.8613 53.4411 52.1154C51.8487 51.3541 50.7345 50.0995 50.0983 48.3517C49.4621 46.6039 49.5114 44.9322 50.246 43.3368C50.9878 41.7259 52.2439 40.5983 54.0142 39.9539C55.0742 39.5681 56.1456 39.4591 57.2282 39.627C58.3068 39.7835 59.2594 40.1902 60.0859 40.8472L58.2442 43.0499C57.8166 42.682 57.3152 42.4622 56.74 42.3906C56.1607 42.3077 55.5723 42.3751 54.9746 42.5926C53.9259 42.9743 53.2028 43.6014 52.8053 44.474C52.419 45.3425 52.4188 46.3067 52.8046 47.3667C53.1904 48.4267 53.8104 49.1652 54.6645 49.5822C55.5299 49.9951 56.487 50.0107 57.5357 49.629C58.1333 49.4115 58.6274 49.0848 59.0179 48.649C59.4196 48.209 59.6625 47.7184 59.7464 47.177L62.5731 47.6806C62.3735 48.711 61.9129 49.6385 61.1914 50.463C60.4658 51.2762 59.5673 51.8778 58.4961 52.2677ZM74.3261 46.2378L71.2477 47.3583L65.4642 43.257L67.4589 48.7373L64.7526 49.7223L60.4431 37.8822L63.1494 36.8972L65.0209 42.0392L66.7691 35.5797L69.8475 34.4592L67.955 41.68L74.3261 46.2378ZM83.7861 41.0515C83.0218 42.6706 81.7826 43.792 80.0686 44.4159C78.3546 45.0397 76.6845 44.9772 75.0583 44.2282C73.432 43.4792 72.3029 42.2365 71.6709 40.4999C71.0388 38.7634 71.1049 37.0856 71.8693 35.4665C72.6336 33.8475 73.8728 32.726 75.5868 32.1022C77.3008 31.4783 78.9709 31.5409 80.5972 32.2898C82.2234 33.0388 83.3525 34.2816 83.9846 36.0181C84.6166 37.7547 84.5505 39.4325 83.7861 41.0515ZM76.2817 41.695C77.185 42.1069 78.1272 42.1343 79.1082 41.7772C80.0893 41.4202 80.7878 40.7956 81.2038 39.9035C81.631 39.0073 81.6559 38.0405 81.2783 37.0031C80.9007 35.9657 80.2602 35.2411 79.3569 34.8292C78.4648 34.4132 77.5282 34.3837 76.5472 34.7408C75.5662 35.0979 74.862 35.7245 74.4348 36.6207C74.0188 37.5128 73.9996 38.4775 74.3772 39.5149C74.7548 40.5523 75.3896 41.279 76.2817 41.695ZM36.6873 69.9405L40.9968 81.7806L38.2905 82.7656L35.7848 75.8814L34.5518 82.0193L34.2473 82.1302L29.3573 78.2209L31.863 85.105L29.1567 86.0901L24.8472 74.2499L27.5535 73.2649L32.6819 77.3556L33.981 70.9255L36.6873 69.9405ZM50.5588 78.3003L49.2895 76.6552L44.8918 78.2559L44.977 80.3319L42.0169 81.4093L41.7331 68.104L45.1837 66.8481L53.5188 77.223L50.5588 78.3003ZM44.7802 75.4232L47.5542 74.4136L44.585 70.5714L44.7802 75.4232ZM54.7012 63.384C55.8627 62.9612 56.9874 62.9988 58.0753 63.4968C59.1632 63.9947 59.9124 64.8075 60.3228 65.9351C60.7332 67.0628 60.6818 68.1669 60.1685 69.2477C59.6552 70.3284 58.8178 71.0802 57.6563 71.5029L55.8803 72.1493L57.2347 75.8705L54.5284 76.8555L50.2189 65.0154L54.7012 63.384ZM56.7328 68.9657C57.1501 68.8139 57.4406 68.5421 57.6046 68.1504C57.7685 67.7587 57.7725 67.3486 57.6165 66.9201C57.4605 66.4916 57.1939 66.18 56.8165 65.9854C56.4392 65.7907 56.0419 65.7693 55.6247 65.9211L53.8487 66.5675L54.9568 69.6122L56.7328 68.9657ZM74.0788 69.7397L71.0004 70.8602L65.2169 66.7589L67.2116 72.2392L64.5053 73.2242L60.1958 61.3841L62.9021 60.3991L64.7737 65.5411L66.5218 59.0816L69.6003 57.9612L67.7078 65.1819L74.0788 69.7397ZM76.8516 65.7806L81.5876 64.0569L82.5357 66.6617L75.0933 69.3705L70.7839 57.5304L78.1417 54.8523L79.0897 57.4572L74.4383 59.1502L75.1524 61.1123L79.381 59.5732L80.3168 62.1442L76.0882 63.6833L76.8516 65.7806ZM87.703 51.3723L88.651 53.9771L85.6064 55.0853L88.9678 64.3206L86.2615 65.3056L82.9001 56.0703L79.8555 57.1785L78.9074 54.5736L87.703 51.3723Z" fill="white"/>
</svg>
