<svg width="100" height="100" viewBox="0 0 100 100" fill="none" xmlns="http://www.w3.org/2000/svg">
<circle cx="50" cy="50" r="50" fill="url(#paint0_linear)"/>
<path d="M25.4913 22.2217C27.4584 21.5057 29.3266 21.5707 31.096 22.4165C32.8733 23.2453 34.1153 24.6307 34.8222 26.5728C35.529 28.5148 35.4703 30.3807 34.6461 32.1706C33.8299 33.9433 32.4382 35.1877 30.4711 35.9036C29.2809 36.3368 28.0865 36.4665 26.8881 36.2926C25.6851 36.1061 24.6307 35.6456 23.7248 34.9111L25.7712 32.4637C26.2292 32.8645 26.7801 33.111 27.4237 33.203C28.0799 33.2906 28.74 33.2135 29.404 32.9718C30.3061 32.6434 30.9906 32.146 31.4575 31.4795C31.9323 30.7958 32.1536 30.02 32.1215 29.152L26.7464 31.1084L25.7204 28.2893L31.0954 26.3329C30.5621 25.6473 29.8961 25.2015 29.0975 24.9956C28.3069 24.7725 27.4605 24.8252 26.5584 25.1535C25.8944 25.3952 25.3454 25.7582 24.9115 26.2425C24.4731 26.7142 24.2033 27.2594 24.1021 27.878L20.9613 27.3184C21.1956 26.169 21.7159 25.1424 22.5222 24.2389C23.3239 23.3227 24.3136 22.6504 25.4913 22.2217ZM49.5404 28.665L46.1199 29.91L39.6938 25.353L41.9101 31.4422L38.9031 32.5367L34.1148 19.381L37.1218 18.2865L39.2013 23.9998L41.1437 16.8227L44.5642 15.5777L42.4614 23.6008L49.5404 28.665ZM60.0515 22.9025C59.2022 24.7014 57.8254 25.9475 55.9209 26.6406C54.0165 27.3338 52.1608 27.2643 50.3539 26.4321C48.547 25.5999 47.2924 24.2191 46.5901 22.2896C45.8878 20.3601 45.9613 18.4959 46.8106 16.6969C47.6598 14.8979 49.0367 13.6519 50.9411 12.9587C52.8456 12.2656 54.7013 12.3351 56.5082 13.1673C58.3151 13.9994 59.5697 15.3803 60.272 17.3098C60.9743 19.2393 60.9008 21.1035 60.0515 22.9025ZM51.7132 23.6175C52.7169 24.0751 53.7638 24.1056 54.8538 23.7088C55.9439 23.3121 56.72 22.6181 57.1822 21.6269C57.6569 20.6312 57.6845 19.5569 57.265 18.4042C56.8454 17.2516 56.1338 16.4464 55.1301 15.9888C54.1389 15.5266 53.0983 15.4938 52.0082 15.8906C50.9182 16.2873 50.1358 16.9836 49.6611 17.9793C49.1989 18.9705 49.1775 20.0424 49.5971 21.1951C50.0166 22.3478 50.722 23.1553 51.7132 23.6175ZM36.2945 50.7258C37.6477 50.2333 38.8768 50.2187 39.9819 50.682C41.0825 51.1328 41.8585 51.9783 42.31 53.2187C42.7614 54.4591 42.7128 55.612 42.164 56.6772C41.6107 57.73 40.6575 58.5026 39.3043 58.9951L34.23 60.842L29.4417 47.6863L37.8989 44.6081L38.9524 47.5024L33.5021 49.4861L34.2272 51.4782L36.2945 50.7258ZM38.2783 56.176C39.2806 55.8112 39.6222 55.1902 39.3029 54.3132C38.9837 53.4362 38.3229 53.18 37.3206 53.5449L35.2533 54.2973L36.2109 56.9284L38.2783 56.176ZM52.5532 54.1729L49.9539 47.0312L47.4789 56.0198L45.2236 56.8406L40.4354 43.6849L43.4424 42.5905L46.0417 49.7321L48.5167 40.7436L50.772 39.9227L55.5603 53.0784L52.5532 54.1729ZM68.3175 46.4983C67.4683 48.2973 66.0914 49.5433 64.187 50.2365C62.2825 50.9297 60.4268 50.8602 58.6199 50.028C56.813 49.1958 55.5584 47.815 54.8561 45.8854C54.1538 43.9559 54.2273 42.0917 55.0766 40.2928C55.9259 38.4938 57.3027 37.2477 59.2072 36.5546C61.1116 35.8614 62.9673 35.9309 64.7742 36.7631C66.5811 37.5953 67.8357 38.9761 68.538 40.9056C69.2403 42.8351 69.1668 44.6994 68.3175 46.4983ZM59.9792 47.2133C60.9829 47.671 62.0298 47.7014 63.1199 47.3047C64.2099 46.9079 64.986 46.214 65.4482 45.2228C65.923 44.227 65.9506 43.1528 65.531 42.0001C65.1115 40.8474 64.3998 40.0422 63.3961 39.5846C62.4049 39.1224 61.3643 39.0897 60.2743 39.4864C59.1842 39.8832 58.4018 40.5794 57.9271 41.5752C57.4649 42.5664 57.4436 43.6383 57.8631 44.791C58.2827 45.9437 58.988 46.7511 59.9792 47.2133ZM40.7822 77.3357C42.1106 77.6326 43.0096 78.4263 43.4793 79.7168C43.8943 80.857 43.8245 81.9324 43.2701 82.9429C42.7156 83.9535 41.837 84.6777 40.6342 85.1155L35.1088 87.1266L30.3205 73.9709L35.47 72.0966C36.6478 71.6679 37.759 71.6608 38.8037 72.0751C39.8564 72.4724 40.5857 73.2286 40.9915 74.3437C41.3746 75.3961 41.3048 76.3934 40.7822 77.3357ZM36.4961 74.9157L34.3536 75.6955L35.2018 78.0259L37.3443 77.2461C37.6826 77.123 37.9194 76.9162 38.0549 76.6257C38.1858 76.3226 38.1897 76.0019 38.0666 75.6636C37.9435 75.3254 37.7366 75.0885 37.4461 74.953C37.151 74.805 36.8344 74.7926 36.4961 74.9157ZM39.6081 82.2964C39.984 82.1596 40.2436 81.9374 40.3871 81.6298C40.526 81.3097 40.527 80.9616 40.3902 80.5858C40.2534 80.2099 40.0312 79.9502 39.7236 79.8068C39.4114 79.6508 39.0674 79.6412 38.6915 79.778L36.1731 80.6947L37.0897 83.213L39.6081 82.2964ZM48.3313 79.0363L53.5936 77.121L54.647 80.0152L46.3777 83.025L41.5895 69.8693L49.7648 66.8937L50.8182 69.788L45.6499 71.6691L46.4434 73.8492L51.1418 72.1391L52.1816 74.9958L47.4831 76.7059L48.3313 79.0363ZM59.0729 63.5059L60.1263 66.4001L55.6158 68.0418L59.3506 78.3033L56.3436 79.3977L51.5553 66.242L59.0729 63.5059ZM72.0299 73.6884L70.6197 71.8605L65.7332 73.639L65.8279 75.9457L62.539 77.1428L62.2236 62.3591L66.0576 60.9636L75.3188 72.4913L72.0299 73.6884ZM65.6093 70.4916L68.6915 69.3697L65.3924 65.1006L65.6093 70.4916ZM78.7939 56.328L81.801 55.2335L86.5892 68.3892L83.5822 69.4837L81.6806 64.259L77.5459 65.7639L79.4476 70.9886L76.4406 72.083L71.6523 58.9273L74.6593 57.8329L76.4925 62.8696L80.6272 61.3647L78.7939 56.328Z" fill="white"/>
<defs>
<linearGradient id="paint0_linear" x1="45" y1="-9" x2="55" y2="111" gradientUnits="userSpaceOnUse">
<stop stop-color="#50F79D"/>
<stop offset="1" stop-color="#0E74AD"/>
</linearGradient>
</defs>
</svg>
