<svg width="100" height="100" viewBox="0 0 100 100" fill="none" xmlns="http://www.w3.org/2000/svg">
<circle cx="50" cy="50" r="50" fill="#5CBF5F"/>
<path d="M22.8029 44.3019L27.1123 56.142L24.406 57.127L21.0446 47.8917L17.4926 49.1846L20.854 58.4199L18.1476 59.4049L13.8382 47.5648L22.8029 44.3019ZM30.9069 51.811L35.6429 50.0872L36.591 52.6921L29.1487 55.4009L24.8392 43.5607L32.197 40.8827L33.1451 43.4875L28.4936 45.1805L29.2077 47.1426L33.4363 45.6035L34.3721 48.1745L30.1435 49.7136L30.9069 51.811ZM38.2908 38.6647C39.4523 38.242 40.577 38.2796 41.6649 38.7775C42.7528 39.2755 43.502 40.0883 43.9124 41.2159C44.3228 42.3435 44.2714 43.4477 43.7581 44.5285C43.2447 45.6092 42.4073 46.3609 41.2459 46.7837L39.4699 47.4301L40.8243 51.1513L38.1179 52.1363L33.8085 40.2962L38.2908 38.6647ZM40.3224 44.2465C40.7396 44.0947 41.0302 43.8229 41.1941 43.4312C41.3581 43.0395 41.362 42.6294 41.2061 42.2009C41.0501 41.7724 40.7835 41.4608 40.4061 41.2661C40.0288 41.0715 39.6315 41.0501 39.2143 41.2019L37.4383 41.8483L38.5464 44.8929L40.3224 44.2465ZM53.201 39.6932C54.3965 39.9604 55.2056 40.6748 55.6283 41.8362C56.0018 42.8624 55.939 43.8302 55.44 44.7397C54.941 45.6493 54.1502 46.301 53.0677 46.695L48.0948 48.505L43.7854 36.6649L48.4199 34.978C49.4799 34.5922 50.48 34.5858 51.4203 34.9587C52.3677 35.3162 53.024 35.9968 53.3893 37.0004C53.7341 37.9476 53.6713 38.8452 53.201 39.6932ZM49.3434 37.5152L47.4152 38.217L48.1785 40.3144L50.1068 39.6126C50.4113 39.5018 50.6244 39.3156 50.7464 39.0542C50.8642 38.7814 50.8677 38.4928 50.7569 38.1884C50.6461 37.8839 50.4599 37.6707 50.1985 37.5488C49.9329 37.4156 49.6479 37.4044 49.3434 37.5152ZM52.1442 44.1579C52.4825 44.0347 52.7162 43.8348 52.8453 43.5579C52.9703 43.2698 52.9712 42.9566 52.8481 42.6183C52.725 42.28 52.525 42.0463 52.2481 41.9172C51.9672 41.7768 51.6576 41.7682 51.3193 41.8913L49.0527 42.7163L49.8777 44.9828L52.1442 44.1579ZM65.7638 42.074L64.4946 40.4289L60.0969 42.0296L60.1821 44.1056L57.222 45.183L56.9382 31.8776L60.3888 30.6217L68.7239 40.9967L65.7638 42.074ZM59.9853 39.1969L62.7593 38.1872L59.7901 34.345L59.9853 39.1969ZM74.131 25.62L78.4404 37.4601L75.7341 38.4451L74.3182 34.5548L73.4555 34.8688L72.3512 39.6764L69.3066 40.7845L70.5415 35.5463C69.709 35.5045 68.9503 35.2443 68.2653 34.7657C67.5762 34.2759 67.0921 33.6476 66.813 32.8808C66.4026 31.7531 66.4484 30.651 66.9504 29.5744C67.4525 28.4977 68.2673 27.7542 69.3949 27.3438L74.131 25.62ZM71.4265 32.9255L73.4563 32.1868L72.3481 29.1422L70.3184 29.8809C69.9463 30.0164 69.6783 30.2799 69.5143 30.6716C69.3617 31.0592 69.3634 31.4672 69.5193 31.8957C69.6753 32.3242 69.9363 32.6379 70.3024 32.8367C70.6797 33.0314 71.0544 33.061 71.4265 32.9255ZM43.1948 70.7505L44.4634 70.2888L46.2364 75.1601L43.5301 76.1451L42.7052 73.8786L35.1782 76.6182L30.8688 64.7781L33.5751 63.793L36.9364 73.0283L40.4885 71.7355L37.1271 62.5002L39.8334 61.5152L43.1948 70.7505ZM48.6147 68.7778L53.3507 67.054L54.2988 69.6589L46.8565 72.3677L42.547 60.5275L49.9048 57.8495L50.8529 60.4543L46.2014 62.1473L46.9155 64.1094L51.1442 62.5703L52.0799 65.1413L47.8513 66.6804L48.6147 68.7778ZM57.9438 54.9236L60.6501 53.9385L64.9596 65.7787L62.2533 66.7637L60.5418 62.0615L56.8206 63.4159L58.5321 68.1181L55.8258 69.1031L51.5163 57.263L54.2226 56.278L55.8725 60.811L59.5937 59.4566L57.9438 54.9236ZM74.5189 62.2994L73.2497 60.6542L68.8519 62.2549L68.9371 64.331L65.9771 65.4083L65.6933 52.103L69.1438 50.8471L77.4789 61.222L74.5189 62.2994ZM68.7404 59.4222L71.5143 58.4126L68.5452 54.5704L68.7404 59.4222Z" fill="white"/>
</svg>
