<svg width="100" height="100" viewBox="0 0 100 100" fill="none" xmlns="http://www.w3.org/2000/svg">
<circle cx="50" cy="50" r="50" fill="#FFA23D"/>
<path d="M32.714 63.2568L31.4448 61.6117L27.0471 63.2123L27.1323 65.2884L24.1722 66.3658L23.8884 53.0604L27.339 51.8045L35.6741 62.1794L32.714 63.2568ZM26.9355 60.3796L29.7095 59.37L26.7403 55.5278L26.9355 60.3796ZM46.2572 58.3275L43.1788 59.4479L37.3953 55.3467L39.39 60.827L36.6837 61.812L32.3742 49.9718L35.0805 48.9868L36.952 54.1288L38.7002 47.6694L41.7786 46.5489L39.8861 53.7696L46.2572 58.3275ZM55.2883 52.0905L56.5569 51.6288L58.3299 56.5002L55.6236 57.4852L54.7987 55.2186L47.2717 57.9582L42.9623 46.1181L45.6686 45.1331L49.0299 54.3684L52.582 53.0755L49.2206 43.8402L51.9269 42.8552L55.2883 52.0905ZM65.5466 51.3067L63.2072 44.8792L60.9797 52.9689L58.95 53.7077L54.6405 41.8676L57.3468 40.8825L59.6862 47.31L61.9137 39.2203L63.9435 38.4816L68.2529 50.3217L65.5466 51.3067ZM74.5137 34.6343L78.8231 46.4745L76.1168 47.4595L74.7009 43.5691L73.8382 43.8831L72.7339 48.6907L69.6893 49.7989L70.9242 44.5606C70.0917 44.5188 69.333 44.2587 68.648 43.7801C67.9589 43.2902 67.4748 42.6619 67.1957 41.8951C66.7853 40.7675 66.8311 39.6653 67.3331 38.5887C67.8352 37.5121 68.65 36.7685 69.7776 36.3581L74.5137 34.6343ZM71.8092 41.9399L73.839 41.2011L72.7308 38.1565L70.7011 38.8953C70.329 39.0307 70.061 39.2943 69.897 39.686C69.7444 40.0735 69.746 40.4816 69.902 40.9101C70.058 41.3386 70.319 41.6522 70.685 41.851C71.0624 42.0457 71.4371 42.0753 71.8092 41.9399Z" fill="white"/>
</svg>
