<svg width="100" height="100" viewBox="0 0 100 100" fill="none" xmlns="http://www.w3.org/2000/svg">
<circle cx="50" cy="50" r="50" fill="#19B2EA"/>
<path d="M19.081 57.0368L17.5214 52.7518L16.0364 58.145L14.6833 58.6375L11.8103 50.7441L13.6145 50.0874L15.1741 54.3724L16.6591 48.9792L18.0123 48.4867L20.8852 56.3801L19.081 57.0368ZM23.6495 46.4349L25.4538 45.7783L28.3267 53.6717L26.5225 54.3283L25.3815 51.1935L22.9007 52.0965L24.0417 55.2313L22.2375 55.888L19.3645 47.9945L21.1688 47.3379L22.2687 50.3599L24.7495 49.457L23.6495 46.4349ZM32.1085 43.3561L32.7406 45.0927L30.7109 45.8314L32.9518 51.9883L31.1476 52.645L28.9066 46.4881L26.8769 47.2269L26.2449 45.4903L32.1085 43.3561ZM36.9434 48.5688L40.1008 47.4196L40.7329 49.1562L35.7713 50.9621L32.8983 43.0686L37.8035 41.2833L38.4356 43.0199L35.3346 44.1485L35.8107 45.4566L38.6298 44.4305L39.2536 46.1445L36.4345 47.1706L36.9434 48.5688ZM41.8661 39.8047C42.6404 39.5228 43.3902 39.5479 44.1154 39.8799C44.8407 40.2118 45.3402 40.7537 45.6138 41.5054C45.8874 42.2572 45.8531 42.9933 45.5109 43.7138C45.1687 44.4343 44.6104 44.9355 43.8361 45.2173L42.6521 45.6482L43.555 48.129L41.7508 48.7857L38.8778 40.8923L41.8661 39.8047ZM43.2205 43.5258C43.4986 43.4246 43.6923 43.2434 43.8016 42.9823C43.9109 42.7212 43.9135 42.4478 43.8096 42.1621C43.7056 41.8764 43.5278 41.6687 43.2763 41.5389C43.0247 41.4091 42.7599 41.3949 42.4817 41.4961L41.2977 41.927L42.0365 43.9568L43.2205 43.5258ZM49.5742 43.9716L52.7316 42.8224L53.3637 44.559L48.4021 46.3648L45.5291 38.4714L50.4343 36.6861L51.0664 38.4226L47.9654 39.5513L48.4415 40.8593L51.2605 39.8333L51.8844 41.5473L49.0653 42.5733L49.5742 43.9716ZM58.1503 42.9956C56.97 43.4251 55.8467 43.3913 54.7803 42.894C53.7187 42.3865 52.9759 41.5501 52.5518 40.3849C52.1277 39.2197 52.1605 38.1053 52.6502 37.0416C53.1448 35.9677 53.9822 35.216 55.1624 34.7864C55.8691 34.5292 56.5833 34.4565 57.3051 34.5684C58.0241 34.6728 58.6592 34.9439 59.2102 35.3819L57.9824 36.8504C57.6973 36.6051 57.363 36.4586 56.9796 36.4109C56.5934 36.3556 56.2011 36.4005 55.8027 36.5455C55.1035 36.8 54.6215 37.2181 54.3564 37.7998C54.0989 38.3788 54.0988 39.0216 54.356 39.7282C54.6132 40.4349 55.0265 40.9272 55.5959 41.2052C56.1729 41.4805 56.8109 41.4909 57.51 41.2365C57.9085 41.0914 58.2378 40.8736 58.4982 40.5831C58.766 40.2898 58.9279 39.9627 58.9838 39.6018L60.8683 39.9375C60.7352 40.6245 60.4282 41.2428 59.9472 41.7924C59.4634 42.3346 58.8645 42.7356 58.1503 42.9956ZM63.7333 31.8456L65.5375 31.189L68.4105 39.0824L66.6063 39.7391L65.4653 36.6042L62.9845 37.5072L64.1255 40.642L62.3213 41.2987L59.4483 33.4052L61.2525 32.7486L62.3525 35.7706L64.8332 34.8677L63.7333 31.8456ZM76.0675 35.1334C75.5579 36.2127 74.7318 36.9604 73.5892 37.3763C72.4465 37.7922 71.3331 37.7505 70.2489 37.2512C69.1648 36.7518 68.412 35.9233 67.9906 34.7656C67.5693 33.6079 67.6134 32.4894 68.1229 31.41C68.6325 30.3307 69.4586 29.583 70.6013 29.1671C71.7439 28.7512 72.8573 28.7929 73.9415 29.2922C75.0257 29.7915 75.7784 30.6201 76.1998 31.7778C76.6212 32.9355 76.5771 34.054 76.0675 35.1334ZM71.0645 35.5624C71.6667 35.8369 72.2949 35.8552 72.9489 35.6172C73.6029 35.3791 74.0686 34.9627 74.3459 34.368C74.6307 33.7706 74.6473 33.126 74.3956 32.4344C74.1438 31.7428 73.7169 31.2597 73.1146 30.9851C72.5199 30.7078 71.8956 30.6882 71.2415 30.9262C70.5875 31.1643 70.1181 31.582 69.8332 32.1795C69.5559 32.7742 69.5431 33.4173 69.7948 34.109C70.0466 34.8006 70.4698 35.285 71.0645 35.5624ZM79.8243 32.9615L82.9816 31.8123L83.6137 33.5489L78.6521 35.3547L75.7791 27.4613L80.6843 25.676L81.3164 27.4125L78.2154 28.5412L78.6915 29.8492L81.5106 28.8232L82.1344 30.5372L79.3153 31.5632L79.8243 32.9615ZM17.2899 64.7123L20.1629 72.6057L18.3587 73.2624L16.1177 67.1055L13.7497 67.9674L15.9906 74.1243L14.1864 74.781L11.3135 66.8876L17.2899 64.7123ZM21.6357 63.1306C22.41 62.8488 23.1598 62.8738 23.8851 63.2058C24.6103 63.5377 25.1098 64.0796 25.3834 64.8314C25.657 65.5831 25.6227 66.3192 25.2805 67.0397C24.9383 67.7602 24.38 68.2614 23.6057 68.5432L22.4217 68.9742L23.3246 71.4549L21.5204 72.1116L18.6475 64.2182L21.6357 63.1306ZM22.9901 66.8518C23.2682 66.7505 23.4619 66.5693 23.5712 66.3082C23.6805 66.0471 23.6832 65.7737 23.5792 65.488C23.4752 65.2024 23.2974 64.9946 23.0459 64.8649C22.7943 64.7351 22.5295 64.7208 22.2513 64.822L21.0673 65.253L21.8061 67.2827L22.9901 66.8518ZM29.3438 67.2975L32.5012 66.1483L33.1333 67.8849L28.1717 69.6908L25.2987 61.7973L30.2039 60.012L30.836 61.7485L27.735 62.8772L28.2111 64.1853L31.0302 63.1592L31.654 64.8732L28.8349 65.8993L29.3438 67.2975ZM39.7211 63.5205L40.5669 63.2127L41.7489 66.4603L39.9447 67.1169L39.3947 65.6059L35.448 67.0424L35.998 68.5534L34.1938 69.2101L33.0117 65.9625L33.8124 65.6711C34.0097 64.9268 33.899 63.9795 33.4804 62.8293L32.1916 59.2885L37.4802 57.3636L39.7211 63.5205ZM35.7293 64.9734L37.9169 64.1772L36.2916 59.7118L34.6115 60.3233L35.2928 62.1952C35.7005 63.3153 35.846 64.2414 35.7293 64.9734ZM41.7033 64.7657L41.0876 63.0742C41.5483 62.9832 41.8507 62.7965 41.9948 62.5142C42.1389 62.2319 42.0974 61.7787 41.8703 61.1548L40.1383 56.3962L45.5961 54.4097L48.4691 62.3031L46.6648 62.9598L44.4239 56.8029L42.5746 57.476L43.6499 60.4304C43.8934 61.0995 44.0061 61.7013 43.9878 62.2358C43.977 62.7675 43.8534 63.1999 43.617 63.5328C43.3854 63.8555 43.1104 64.1173 42.7919 64.3184C42.481 64.5167 42.1181 64.6658 41.7033 64.7657ZM56.1234 58.3551C55.6139 59.4345 54.7877 60.1821 53.6451 60.598C52.5024 61.0139 51.389 60.9722 50.3048 60.4729C49.2207 59.9736 48.4679 59.1451 48.0466 57.9874C47.6252 56.8297 47.6693 55.7111 48.1788 54.6317C48.6884 53.5524 49.5145 52.8047 50.6572 52.3888C51.7999 51.9729 52.9133 52.0146 53.9974 52.514C55.0816 53.0133 55.8343 53.8418 56.2557 54.9995C56.6771 56.1572 56.633 57.2757 56.1234 58.3551ZM51.1204 58.7841C51.7227 59.0587 52.3508 59.0769 53.0048 58.8389C53.6588 58.6008 54.1245 58.1845 54.4018 57.5897C54.6867 56.9923 54.7032 56.3478 54.4515 55.6561C54.1998 54.9645 53.7728 54.4814 53.1706 54.2069C52.5758 53.9295 51.9515 53.9099 51.2974 54.1479C50.6434 54.386 50.174 54.8037 49.8892 55.4012C49.6118 55.9959 49.599 56.6391 49.8508 57.3307C50.1025 58.0223 50.5257 58.5068 51.1204 58.7841ZM67.6437 55.3241L65.6478 56.0506L62.1879 53.3511L63.4602 56.8468L61.656 57.5035L60.3837 54.0078L59.4684 58.2997L57.4725 59.0261L58.5598 54.0842L54.7123 51.0917L56.7082 50.3652L60.0471 53.0832L58.783 49.6101L60.5872 48.9534L61.8513 52.4265L62.6621 48.1982L64.658 47.4717L63.6342 52.2373L67.6437 55.3241ZM69.6038 52.6441L72.7612 51.4949L73.3932 53.2315L68.4316 55.0373L65.5587 47.1439L70.4639 45.3586L71.0959 47.0951L67.9949 48.2238L68.471 49.5318L71.2901 48.5058L71.914 50.2198L69.0949 51.2458L69.6038 52.6441ZM75.8232 43.4079L77.6274 42.7513L80.5004 50.6447L78.6962 51.3014L77.5552 48.1665L75.0744 49.0695L76.2154 52.2043L74.4112 52.861L71.5382 44.9675L73.3424 44.3109L74.4424 47.3329L76.9231 46.43L75.8232 43.4079ZM86.2531 48.5509L84.6935 44.2659L83.2085 49.659L81.8553 50.1515L78.9823 42.2581L80.7865 41.6014L82.3462 45.8864L83.8311 40.4933L85.1843 40.0008L88.0573 47.8942L86.2531 48.5509ZM90.5817 45.0088L93.7391 43.8596L94.3711 45.5961L89.4096 47.402L86.5366 39.5086L91.4418 37.7232L92.0738 39.4598L88.9728 40.5885L89.4489 41.8965L92.268 40.8705L92.8919 42.5845L90.0728 43.6105L90.5817 45.0088Z" fill="white"/>
</svg>
