<svg width="100" height="100" viewBox="0 0 100 100" fill="none" xmlns="http://www.w3.org/2000/svg">
<circle cx="50" cy="50" r="50" fill="#EE4254"/>
<path d="M15.7481 55.6251L18.4544 54.64L22.7639 66.4802L20.0576 67.4652L18.3461 62.763L14.6249 64.1174L16.3364 68.8196L13.6301 69.8046L9.3206 57.9645L12.0269 56.9795L13.6768 61.5125L17.398 60.1581L15.7481 55.6251ZM34.2494 60.5567C33.485 62.1757 32.2459 63.2972 30.5319 63.921C28.8179 64.5449 27.1477 64.4823 25.5215 63.7334C23.8953 62.9844 22.7661 61.7416 22.1341 60.0051C21.502 58.2685 21.5682 56.5907 22.3325 54.9717C23.0969 53.3526 24.336 52.2311 26.05 51.6073C27.764 50.9835 29.4341 51.046 31.0604 51.795C32.6866 52.5439 33.8158 53.7867 34.4478 55.5232C35.0799 57.2598 35.0137 58.9376 34.2494 60.5567ZM26.7449 61.2002C27.6482 61.612 28.5904 61.6394 29.5715 61.2824C30.5525 60.9253 31.251 60.3007 31.667 59.4087C32.0943 58.5125 32.1191 57.5457 31.7415 56.5083C31.3639 55.4708 30.7234 54.7462 29.8201 54.3343C28.928 53.9183 27.9915 53.8889 27.0104 54.246C26.0294 54.603 25.3252 55.2296 24.898 56.1258C24.482 57.0179 24.4628 57.9826 24.8404 59.0201C25.218 60.0575 25.8528 60.7842 26.7449 61.2002ZM43.2324 52.0769C44.4279 52.3441 45.237 53.0585 45.6598 54.2199C46.0333 55.2461 45.9705 56.2139 45.4715 57.1234C44.9724 58.033 44.1817 58.6847 43.0992 59.0787L38.1263 60.8887L33.8168 49.0486L38.4514 47.3617C39.5114 46.9759 40.5115 46.9695 41.4517 47.3424C42.3992 47.6999 43.0555 48.3805 43.4208 49.3841C43.7655 50.3313 43.7027 51.2289 43.2324 52.0769ZM39.3749 49.8989L37.4466 50.6007L38.21 52.6981L40.1383 51.9963C40.4427 51.8855 40.6559 51.6993 40.7778 51.4379C40.8957 51.1651 40.8992 50.8765 40.7883 50.5721C40.6775 50.2676 40.4914 50.0544 40.2299 49.9325C39.9643 49.7993 39.6793 49.7881 39.3749 49.8989ZM42.1757 56.5416C42.514 56.4184 42.7477 56.2185 42.8768 55.9416C43.0018 55.6535 43.0027 55.3403 42.8796 55.002C42.7564 54.6637 42.5565 54.43 42.2796 54.3009C41.9987 54.1605 41.689 54.1519 41.3507 54.275L39.0842 55.1L39.9092 57.3665L42.1757 56.5416ZM54.865 54.7963L52.5256 48.3688L50.2981 56.4585L48.2684 57.1973L43.9589 45.3572L46.6652 44.3721L49.0046 50.7996L51.2321 42.7099L53.2619 41.9712L57.5713 53.8113L54.865 54.7963ZM61.7178 38.8935L64.4241 37.9085L68.7336 49.7486L66.0272 50.7336L64.3158 46.0314L60.5946 47.3858L62.3061 52.088L59.5997 53.073L55.2903 41.2329L57.9966 40.2479L59.6465 44.7809L63.3677 43.4265L61.7178 38.8935ZM80.3395 45.5244L77.2611 46.6448L71.4776 42.5435L73.4722 48.0238L70.7659 49.0089L66.4565 37.1687L69.1628 36.1837L71.0343 41.3257L72.7825 34.8662L75.8609 33.7458L73.9684 40.9665L80.3395 45.5244ZM89.2113 42.2953L87.9421 40.6502L83.5443 42.2508L83.6295 44.3269L80.6695 45.4043L80.3857 32.0989L83.8362 30.843L92.1713 41.2179L89.2113 42.2953ZM83.4328 39.4182L86.2067 38.4085L83.2376 34.5663L83.4328 39.4182Z" fill="white"/>
</svg>
